<svg xmlns="http://www.w3.org/2000/svg" xmlns:xlink="http://www.w3.org/1999/xlink" id="logo" x="0px" y="0px" viewBox="0 0 148 45" style="enable-background:new 0 0 148 45;" xml:space="preserve">
<style type="text/css">
	.st0{fill:#C3C3C3;}
</style>
<path id="Path_6" class="st0" d="M148,26.4v10.8h-3.4v-2.8c-4.5,4.4-11.6,4.3-16-0.2c-4.4-4.4-4.3-11.6,0.2-15.9  c4.4-4.3,11.4-4.3,15.8,0v-1.6h3.4v8.9C148,25.9,148,26.1,148,26.4 M144.6,26.4c0-4.4-3.5-7.9-7.9-7.9c-4.4,0-7.9,3.5-7.9,7.9  c0,4.4,3.5,7.9,7.9,7.9c0,0,0,0,0,0C141,34.3,144.6,30.7,144.6,26.4"></path>
<rect id="Rectangle_49" x="118.2" y="8.2" class="st0" width="3.7" height="29.1"></rect>
<rect id="Rectangle_50" x="109.1" y="8.2" class="st0" width="3.7" height="29.1"></rect>
<path id="Path_7" class="st0" d="M104.7,27.2v10h-3.4v-2.8c-4.5,4.4-11.6,4.3-16-0.1c-4.4-4.4-4.3-11.6,0.1-15.9  c4.4-4.3,11.5-4.3,15.9,0v-1.6h3.4L104.7,27.2L104.7,27.2z M101.3,26.4c0-4.4-3.5-7.9-7.9-7.9c-4.4,0-7.9,3.5-7.9,7.9  s3.5,7.9,7.9,7.9c0,0,0,0,0,0C97.7,34.3,101.3,30.7,101.3,26.4"></path>
<path id="Path_8" class="st0" d="M78.8,26.4v10.8h-3.4V26.4c0-4.4-3.5-7.9-7.9-7.9c-4.4,0-7.9,3.5-7.9,7.9v10.8h-3.4v-29h3.4v10.2  c4.5-4.4,11.6-4.3,16,0.1C77.7,20.6,78.8,23.4,78.8,26.4"></path>
<path id="Path_9" class="st0" d="M22.6,0C35,0,45.1,10.1,45.1,22.5C45.1,34.9,35,45,22.5,45C10.1,45,0,34.9,0,22.5  C0,10.1,10.1,0,22.6,0 M33,38.6c8.9-5.7,11.5-17.6,5.7-26.5c-5.1-7.8-15-10.9-23.6-7.2v15.5c4.3-4,11-3.8,15,0.4  c1.9,2,2.9,4.6,2.9,7.3V38.6z M29.7,40.3V28.1c0-4-3.3-7.3-7.3-7.3c-4,0-7.3,3.3-7.3,7.3v0.3h-3.3V6.7c-8.8,6-11,17.9-5,26.6  C11.8,40.7,21.3,43.6,29.7,40.3"></path>
</svg>