<?xml version="1.0" encoding="UTF-8"?> <svg xmlns="http://www.w3.org/2000/svg" id="a" viewBox="0 0 1200 459.84"><g><g><path d="M344.14,21.43l-67.25,191.29c-.94,2.68,1.04,5.48,3.88,5.48h38.26c1.77,0,3.33-1.13,3.9-2.8l11.34-33.65h67.18l11.34,33.65c.56,1.67,2.13,2.8,3.9,2.8h38.26c2.84,0,4.82-2.8,3.88-5.48L391.6,21.43c-.58-1.65-2.13-2.75-3.88-2.75h-39.69c-1.75,0-3.3,1.1-3.88,2.75Zm4.54,118.11l19.19-56.8,19.19,56.8h-38.37Z" fill="#fff"></path><path d="M515.11,56.78V22.8c0-2.27,1.84-4.11,4.11-4.11h149.09c2.27,0,4.11,1.84,4.11,4.11V56.78c0,2.27-1.84,4.11-4.11,4.11h-51.52V214.09c0,2.27-1.84,4.11-4.11,4.11h-37.82c-2.27,0-4.11-1.84-4.11-4.11V60.89h-51.52c-2.27,0-4.11-1.84-4.11-4.11Z" fill="#fff"></path><path d="M910.23,89.66h-37.93c-2.17,0-3.99-1.66-4.1-3.82-.14-2.68-.63-6.49-2.15-10.48-1.09-2.85-2.92-5.49-5.18-8.34-4.9-6.18-13.71-9.74-24.22-9.74-9.5,0-18.61,3.88-24.99,10.71-11.57,12.04-11.57,34.31-11.57,50.57s0,38.53,11.51,50.51c6.44,6.9,15.54,10.82,25.04,10.82,10.22,0,19.34-3.63,24.17-9.89,5.67-7.35,7.08-14.75,7.36-19.05,.14-2.13,1.95-3.74,4.09-3.74h37.83c2.4,0,4.27,2.01,4.11,4.41-.45,6.45-2.18,19.02-8.66,31.03-3.1,5.75-6.8,11.06-10.85,15.2-15,15.29-36.16,24.05-58.05,24.05s-42.64-7.84-57.47-22.67c-23.13-23.13-25.07-52.53-25.07-80.65s1.93-57.52,25.07-80.65c15-15.01,34.88-22.94,57.47-22.94s43.38,8.57,58.04,23.51c.9,.93,3.16,3.6,5.92,7.25,11.27,14.92,13.39,31.83,13.73,39.6,.1,2.36-1.75,4.31-4.11,4.31Z" fill="#fff"></path><path d="M1132.68,74.98l36.86,4.63c2.06,.26,3.6,2.01,3.6,4.08V214.09c0,2.27-1.84,4.11-4.11,4.11h-36.86c-2.27,0-4.11-1.84-4.11-4.11v-78.38h-67.15v78.38c0,2.27-1.84,4.11-4.11,4.11h-36.86c-2.27,0-4.11-1.84-4.11-4.11V64.87c0-2.48,2.18-4.4,4.64-4.08l36.86,4.75c2.05,.26,3.59,2.01,3.59,4.08v21.97h67.15v-12.53c0-2.48,2.17-4.39,4.63-4.08Z" fill="#fff"></path><path d="M66.36,161.91l-36.86-4.63c-2.06-.26-3.6-2.01-3.6-4.08V22.8c0-2.27,1.84-4.11,4.11-4.11h36.86c2.27,0,4.11,1.84,4.11,4.11V91.59h67.15V22.8c0-2.27,1.84-4.11,4.11-4.11h36.86c2.27,0,4.11,1.84,4.11,4.11V172.02c0,2.48-2.18,4.4-4.64,4.08l-36.86-4.75c-2.05-.26-3.59-2.01-3.59-4.08v-31.56H70.98v22.12c0,2.48-2.17,4.39-4.63,4.08Z" fill="#fff"></path></g><g><path d="M1195.37,64.52l-200.89-25.32c-2.06-.26-3.6-2.01-3.6-4.08V4.11c0-2.48,2.17-4.39,4.63-4.08l200.89,25.32c2.06,.26,3.6,2.01,3.6,4.08v31c0,2.48-2.17,4.39-4.63,4.08Z" fill="#fff" opacity=".5"></path><path d="M209.11,232.79v-31.04c0-2.07-1.54-3.82-3.6-4.08L4.63,172.36c-2.46-.31-4.63,1.61-4.63,4.08v31.03c0,2.07,1.54,3.82,3.6,4.08l200.89,25.32c2.46,.31,4.63-1.6,4.63-4.08Z" fill="#fff" opacity=".5"></path></g></g><g><g><path d="M389.89,395.03l.45,.96c-16.93,4.84-27.31,14.83-27.31,29.85,0,11.68,8.45,18.08,18.26,18.08,7.31,0,19.28-5.05,19.28-22.32v-55.92c0-15.4,10.59-27.36,28.53-27.74-7.01-2.88-14.69-4.47-22.74-4.47-33.08,0-59.89,26.81-59.89,59.89,0,9.7,2.31,18.86,6.4,26.96,2.69-14.72,18.87-25.29,37.02-25.29" fill="#fff"></path><path d="M459.85,366.4c-2.69,14.72-18.87,25.29-37.02,25.29l-.45-.96c16.93-4.84,27.31-14.83,27.31-29.85,0-11.68-8.45-18.08-18.26-18.08-7.31,0-19.28,5.05-19.28,22.32v55.92c0,15.4-10.59,27.36-28.53,27.74,7.01,2.88,14.69,4.47,22.74,4.47,33.08,0,59.89-26.81,59.89-59.89,0-9.7-2.31-18.86-6.4-26.96" fill="#fff"></path><path d="M517.79,355.58h28.02c4.17,0,7.94,.72,11.33,2.18,3.39,1.45,6.29,3.44,8.71,5.97,2.42,2.53,4.28,5.45,5.58,8.76,1.3,3.31,1.96,6.79,1.96,10.44s-.65,7.22-1.96,10.49c-1.3,3.28-3.16,6.18-5.58,8.71-2.42,2.53-5.32,4.52-8.71,5.97-3.39,1.45-7.16,2.18-11.33,2.18h-15.18v23.44h-12.84v-78.14Zm28.02,43.2c2.24,0,4.26-.43,6.08-1.28,1.82-.86,3.37-2.01,4.63-3.46,1.27-1.45,2.25-3.13,2.96-5.02,.71-1.9,1.06-3.92,1.06-6.08s-.35-4.19-1.06-6.08c-.71-1.9-1.69-3.57-2.96-5.02-1.27-1.45-2.81-2.6-4.63-3.46-1.82-.86-3.85-1.29-6.08-1.29h-15.18v31.7h15.18Z" fill="#fff"></path><path d="M612.9,392.97c-.97-.22-1.77-.37-2.4-.45-.64-.07-1.44-.11-2.4-.11-5.21,0-9.19,1.51-11.95,4.52-2.75,3.01-4.13,7.8-4.13,14.34v22.44h-12.17v-52.02h12.17v8.37c.6-1.19,1.43-2.32,2.51-3.4,1.08-1.08,2.35-2.05,3.8-2.9,1.45-.86,3.01-1.53,4.69-2.01,1.68-.48,3.37-.72,5.08-.72,1.93,0,3.53,.26,4.8,.78v11.16Z" fill="#fff"></path><path d="M615.98,362.72c0-2.53,.87-4.67,2.62-6.42,1.74-1.75,3.85-2.62,6.31-2.62s4.67,.88,6.42,2.62c1.75,1.75,2.62,3.89,2.62,6.42s-.88,4.56-2.62,6.31c-1.75,1.75-3.89,2.62-6.42,2.62s-4.56-.87-6.31-2.62c-1.75-1.75-2.62-3.85-2.62-6.31m2.9,18.98h12.17v52.02h-12.17v-52.02Z" fill="#fff"></path><path d="M676.3,400.67c-.37-2.83-1.47-5.11-3.29-6.86-1.83-1.75-4.82-2.62-8.99-2.62-2.38,0-4.43,.45-6.14,1.34-1.71,.89-3.16,2.1-4.35,3.63-1.19,1.53-2.06,3.28-2.62,5.25-.55,1.97-.83,4.07-.83,6.31s.28,4.35,.83,6.36c.56,2.01,1.43,3.76,2.62,5.25,1.19,1.49,2.72,2.68,4.58,3.57,1.86,.89,4.09,1.34,6.7,1.34,3.57,0,6.2-.74,7.87-2.23,1.68-1.49,2.92-3.53,3.74-6.14h12.17c-.45,2.68-1.27,5.19-2.46,7.54-1.19,2.34-2.81,4.39-4.85,6.14-2.05,1.75-4.5,3.11-7.37,4.07-2.86,.97-6.2,1.45-9.99,1.45-4.24,0-7.98-.76-11.22-2.29-3.24-1.53-5.96-3.55-8.15-6.09-2.2-2.53-3.85-5.43-4.97-8.71-1.11-3.27-1.67-6.7-1.67-10.27s.56-6.9,1.67-10.21c1.12-3.31,2.77-6.23,4.97-8.76,2.19-2.53,4.89-4.56,8.09-6.08,3.2-1.52,6.92-2.29,11.17-2.29s7.87,.6,10.88,1.79c3.01,1.19,5.51,2.74,7.48,4.63,1.97,1.9,3.46,4.06,4.46,6.47,1.01,2.42,1.62,4.89,1.84,7.42h-12.17Z" fill="#fff"></path><path d="M704.54,411.39c.15,1.86,.48,3.61,1,5.25,.52,1.64,1.32,3.07,2.4,4.3,1.08,1.23,2.47,2.2,4.19,2.9,1.71,.71,3.83,1.06,6.36,1.06,3.49,0,6.03-.67,7.59-2.01,1.56-1.34,2.72-2.94,3.46-4.8h12.28c-.37,2.23-1.17,4.37-2.4,6.42-1.23,2.05-2.85,3.85-4.86,5.42-2.01,1.56-4.35,2.81-7.03,3.74-2.68,.93-5.7,1.39-9.04,1.39-4.4,0-8.21-.71-11.44-2.12-3.24-1.41-5.94-3.35-8.09-5.8-2.16-2.45-3.78-5.36-4.86-8.71-1.08-3.35-1.62-6.92-1.62-10.72s.58-7.48,1.73-10.83c1.16-3.35,2.81-6.25,4.97-8.71,2.16-2.45,4.83-4.37,8.04-5.75,3.2-1.38,6.85-2.07,10.94-2.07,3.35,0,6.49,.6,9.43,1.79,2.94,1.19,5.51,2.85,7.7,4.97,2.2,2.12,3.91,4.59,5.13,7.42,1.23,2.83,1.84,5.91,1.84,9.26,0,.89-.02,1.96-.06,3.18-.04,1.23-.21,2.7-.5,4.41h-37.17Zm13.28-21.88c-3.8,0-6.96,1.08-9.49,3.24-2.53,2.16-3.8,5.36-3.8,9.6h25.9c0-4.02-1.17-7.16-3.52-9.43-2.34-2.27-5.38-3.41-9.1-3.41" fill="#fff"></path><path d="M762.56,408.15c0,5.14,1.42,9.08,4.24,11.83,2.83,2.75,6.47,4.13,10.94,4.13,1.79,0,3.46-.28,5.03-.84,1.56-.56,2.91-1.34,4.07-2.34,1.15-1.01,2.06-2.21,2.73-3.63,.67-1.41,1.01-3.01,1.01-4.8,0-2.01-.4-3.68-1.17-5.02-.78-1.34-1.79-2.47-3.02-3.41-1.23-.93-2.57-1.71-4.02-2.34-1.45-.63-2.85-1.17-4.19-1.62-3.57-1.27-6.92-2.55-10.05-3.85-3.12-1.3-5.86-2.86-8.21-4.69-2.34-1.82-4.18-4.04-5.52-6.64-1.34-2.6-2.01-5.88-2.01-9.82,0-3.2,.65-6.12,1.96-8.76,1.3-2.64,3.05-4.91,5.25-6.81,2.19-1.9,4.76-3.35,7.7-4.35,2.94-1,6.05-1.5,9.32-1.5,3.49,0,6.77,.6,9.82,1.78,3.05,1.19,5.69,2.87,7.93,5.02,2.23,2.16,3.98,4.73,5.25,7.7,1.26,2.98,1.89,6.29,1.89,9.94h-12.84c0-3.87-1.04-6.99-3.12-9.38-2.09-2.38-4.95-3.57-8.6-3.57-3.2,0-5.95,.82-8.26,2.46-2.31,1.64-3.46,4.13-3.46,7.48,0,1.56,.32,2.96,.95,4.19,.63,1.23,1.48,2.29,2.56,3.18,1.08,.89,2.29,1.68,3.63,2.34,1.34,.67,2.75,1.27,4.24,1.79,3.05,1.11,6.15,2.31,9.32,3.57,3.16,1.27,6.04,2.83,8.65,4.69,2.61,1.86,4.73,4.09,6.37,6.7,1.63,2.6,2.46,5.77,2.46,9.49,0,4.02-.71,7.55-2.12,10.6-1.41,3.05-3.35,5.62-5.8,7.7-2.46,2.09-5.31,3.65-8.54,4.69-3.24,1.04-6.68,1.56-10.32,1.56s-6.98-.61-10.22-1.84c-3.24-1.23-6.08-3.02-8.54-5.36-2.45-2.34-4.43-5.21-5.91-8.6-1.49-3.38-2.24-7.27-2.24-11.67h12.84Z" fill="#fff"></path><path d="M824.4,388.73c1.64-2.6,3.96-4.65,6.98-6.14,3.01-1.49,6.04-2.23,9.1-2.23,3.95,0,7.56,.72,10.83,2.18,3.28,1.45,6.08,3.44,8.43,5.97,2.34,2.53,4.17,5.45,5.47,8.76,1.3,3.31,1.96,6.79,1.96,10.44s-.65,7.22-1.96,10.49c-1.3,3.28-3.12,6.18-5.47,8.71-2.35,2.53-5.15,4.52-8.43,5.97-3.27,1.45-6.88,2.18-10.83,2.18-3.05,0-6.08-.75-9.1-2.23-3.02-1.49-5.34-3.53-6.98-6.14v33.15h-12.17v-78.14h12.17v7.03Zm15.41,2.46c-2.38,0-4.52,.45-6.42,1.34-1.9,.89-3.52,2.09-4.86,3.57-1.34,1.49-2.36,3.24-3.07,5.25-.71,2.01-1.06,4.13-1.06,6.36s.35,4.35,1.06,6.36c.71,2.01,1.73,3.76,3.07,5.25,1.34,1.49,2.96,2.68,4.86,3.57,1.89,.89,4.03,1.34,6.42,1.34s4.39-.45,6.25-1.34c1.86-.89,3.46-2.08,4.8-3.57,1.34-1.49,2.36-3.24,3.07-5.25,.71-2.01,1.06-4.13,1.06-6.36s-.35-4.35-1.06-6.36c-.71-2.01-1.73-3.76-3.07-5.25-1.34-1.49-2.94-2.68-4.8-3.57-1.86-.89-3.95-1.34-6.25-1.34" fill="#fff"></path><path d="M872.4,362.72c0-2.53,.87-4.67,2.62-6.42,1.74-1.75,3.85-2.62,6.31-2.62s4.67,.88,6.42,2.62c1.75,1.75,2.62,3.89,2.62,6.42s-.88,4.56-2.62,6.31c-1.75,1.75-3.89,2.62-6.42,2.62s-4.56-.87-6.31-2.62c-1.75-1.75-2.62-3.85-2.62-6.31m2.9,18.98h12.17v52.02h-12.17v-52.02Z" fill="#fff"></path><path d="M938.15,426.68c-1.64,2.61-3.96,4.65-6.98,6.14-3.02,1.49-6.05,2.23-9.1,2.23-3.95,0-7.55-.72-10.83-2.18-3.28-1.45-6.08-3.44-8.43-5.97-2.35-2.53-4.17-5.43-5.47-8.71-1.3-3.27-1.95-6.77-1.95-10.49s.65-7.13,1.95-10.44c1.3-3.31,3.12-6.23,5.47-8.76,2.34-2.53,5.15-4.52,8.43-5.97,3.28-1.45,6.88-2.18,10.83-2.18,3.05,0,6.08,.74,9.1,2.23,3.01,1.49,5.34,3.53,6.98,6.14v-33.15h12.17v78.14h-12.17v-7.03Zm-15.4-2.46c2.3,0,4.41-.45,6.3-1.34,1.9-.89,3.52-2.08,4.85-3.57,1.34-1.49,2.39-3.24,3.13-5.24,.74-2.01,1.12-4.13,1.12-6.36s-.37-4.35-1.12-6.36c-.74-2.01-1.78-3.76-3.13-5.25-1.34-1.49-2.96-2.68-4.85-3.57-1.9-.89-4-1.34-6.3-1.34s-4.39,.45-6.25,1.34c-1.86,.9-3.46,2.09-4.8,3.57-1.34,1.49-2.36,3.24-3.07,5.25-.71,2.01-1.06,4.13-1.06,6.36s.35,4.35,1.06,6.36c.71,2.01,1.73,3.76,3.07,5.24,1.34,1.49,2.94,2.68,4.8,3.57,1.86,.89,3.94,1.34,6.25,1.34" fill="#fff"></path><path d="M970.52,411.39c.15,1.86,.48,3.61,1.01,5.25,.52,1.64,1.32,3.07,2.4,4.3,1.08,1.23,2.47,2.2,4.19,2.9,1.71,.71,3.83,1.06,6.36,1.06,3.5,0,6.03-.67,7.59-2.01,1.56-1.34,2.71-2.94,3.46-4.8h12.28c-.37,2.23-1.17,4.37-2.4,6.42-1.23,2.05-2.84,3.85-4.85,5.42-2.01,1.56-4.35,2.81-7.04,3.74-2.68,.93-5.69,1.39-9.04,1.39-4.39,0-8.2-.71-11.44-2.12-3.24-1.41-5.93-3.35-8.09-5.8-2.16-2.45-3.77-5.36-4.85-8.71-1.08-3.35-1.62-6.92-1.62-10.72s.57-7.48,1.73-10.83c1.15-3.35,2.81-6.25,4.97-8.71,2.16-2.45,4.84-4.37,8.04-5.75,3.2-1.38,6.84-2.07,10.94-2.07,3.35,0,6.49,.6,9.44,1.79,2.94,1.19,5.51,2.85,7.7,4.97,2.19,2.12,3.91,4.59,5.14,7.42,1.23,2.83,1.84,5.91,1.84,9.26,0,.89-.02,1.96-.05,3.18-.04,1.23-.21,2.7-.5,4.41h-37.17Zm13.28-21.88c-3.8,0-6.96,1.08-9.49,3.24-2.53,2.16-3.8,5.36-3.8,9.6h25.9c0-4.02-1.17-7.16-3.52-9.43-2.34-2.27-5.37-3.41-9.1-3.41" fill="#fff"></path><path d="M1050,392.97c-.97-.22-1.77-.37-2.4-.45-.63-.07-1.43-.11-2.4-.11-5.21,0-9.19,1.51-11.94,4.52-2.76,3.01-4.13,7.8-4.13,14.34v22.44h-12.17v-52.02h12.17v8.37c.59-1.19,1.43-2.32,2.51-3.4,1.08-1.08,2.34-2.05,3.8-2.9,1.45-.86,3.02-1.53,4.69-2.01,1.67-.48,3.37-.72,5.08-.72,1.93,0,3.53,.26,4.8,.78v11.16Z" fill="#fff"></path></g><g><path d="M150,433.71v-78.32h31.44c8.13,0,14.34,1.89,18.63,5.66,4.28,3.76,6.43,8.6,6.43,14.49,0,4.92-1.32,8.85-3.97,11.8-2.65,2.96-5.88,4.94-9.68,5.99,4.48,.89,8.17,3.12,11.08,6.65,2.91,3.54,4.36,7.67,4.36,12.36,0,6.2-2.23,11.3-6.71,15.33-4.47,4.03-10.81,6.04-19.02,6.04h-32.56Zm14.32-45.42h14.99c4.03,0,7.12-.94,9.29-2.81,2.16-1.86,3.24-4.5,3.24-7.94s-1.06-5.88-3.19-7.77c-2.13-1.9-5.32-2.85-9.57-2.85h-14.77v21.37Zm0,33.78h16c4.25,0,7.55-.98,9.9-2.96,2.35-1.99,3.52-4.76,3.52-8.34s-1.23-6.53-3.69-8.62c-2.46-2.08-5.78-3.13-9.96-3.13h-15.78v23.04Z" fill="#fff"></path><path d="M224.96,458.32l12.87-28.31h-3.36l-21.59-51.8h15.55l15.56,39.06,16.22-39.06h15.22l-35.24,80.11h-15.22Z" fill="#fff"></path></g></g></svg> 