<svg width="137" height="26" viewBox="0 0 137 26" fill="none" xmlns="http://www.w3.org/2000/svg">
<path fill-rule="evenodd" clip-rule="evenodd" d="M70.816 3.26953C71.7162 3.26953 72.5863 3.59683 73.1991 4.16899C73.7715 4.69752 74.0313 5.20665 74.6617 7.54865L79.0724 23.6978H76.2505L74.6768 17.9107H66.9576L65.384 23.6978H62.5621L66.9727 7.54622C67.5981 5.20665 67.8604 4.69752 68.4328 4.16899C69.0457 3.59683 69.9131 3.26953 70.816 3.26953ZM70.816 5.83215C70.6394 5.83215 70.4629 5.89761 70.3595 5.99701C70.1931 6.15945 70.0392 6.62009 69.6408 8.14263L67.6662 15.348H73.9707L71.9962 8.14506C71.5927 6.62009 71.4363 6.15945 71.2724 5.99701C71.169 5.89761 70.9925 5.83215 70.816 5.83215ZM120.841 3.38232V3.44824H120.844V6.00844H114.146C113.084 6.00844 112.598 6.00844 112.303 6.22664C111.902 6.52727 111.887 7.04367 111.887 8.28983V11.926L119.026 11.8969V11.9629L119.028 11.9628V14.5255L111.887 14.5546V18.8531C111.887 19.1648 111.888 19.431 111.896 19.6596C111.923 20.3018 112.012 20.6347 112.303 20.8528C112.595 21.0685 113.079 21.0685 114.144 21.0685H120.844L120.844 21.1345V23.6971H114.146C112.792 23.6971 111.511 23.6971 110.442 22.8073C109.143 21.6945 109.143 20.315 109.143 18.8555V18.7896V8.28983V8.22391C109.143 6.7644 109.143 5.3849 110.436 4.27451L110.439 4.27209C111.506 3.38475 112.784 3.38232 114.136 3.38232H114.144H120.841ZM36.9351 11.9948H45.2672V3.44873H48.0109V23.6976H45.2672V14.5575H36.9351V23.6976H34.1914V3.44873H36.9351V11.9948ZM51.5249 4.3385C52.5917 3.45115 53.8702 3.44873 55.2219 3.44873H55.232H61.9299V6.00893H55.232C54.1703 6.00893 53.6836 6.00893 53.3886 6.22713C52.9876 6.52776 52.9725 7.04416 52.9725 8.29032V11.9924L60.1142 11.9633V14.526L52.9725 14.555V18.8536C52.9725 20.0997 52.9901 20.6185 53.3911 20.9192C53.6836 21.1349 54.1678 21.1349 55.232 21.1349H61.9299V23.6976H55.232C53.8778 23.6976 52.5967 23.6976 51.5275 22.8078C50.2287 21.695 50.2287 20.3155 50.2287 18.856V8.29032C50.2287 6.83081 50.2287 5.45131 51.5224 4.34092L51.5249 4.3385ZM84.4067 3.44873C83.6477 3.44873 82.3767 3.44873 81.3049 4.34092C80.0112 5.45131 80.0112 6.83081 80.0112 8.29032V18.856C80.0112 20.3155 80.0112 21.695 81.3099 22.8078C82.3792 23.6976 83.6502 23.6976 84.4092 23.6976C86.4519 23.6976 89.5386 23.6976 91.6998 21.5762C93.8307 19.4863 93.8307 16.6134 93.8307 13.5707C93.8307 10.5281 93.8307 7.65512 91.6998 5.56768C89.5361 3.44873 86.4494 3.44873 84.4067 3.44873ZM84.4067 21.1349C83.9225 21.1349 83.4636 21.1349 83.171 20.9192C82.7701 20.6185 82.7524 20.0997 82.7524 18.8536V8.29032C82.7524 7.04416 82.7675 6.52776 83.1685 6.22713C83.4636 6.00893 83.9225 6.00893 84.4067 6.00893C86.0736 6.00893 88.3559 6.07185 89.705 7.39316C91.0845 8.746 91.0845 10.7341 91.0845 13.5707C91.0845 16.4073 91.0845 18.4584 89.705 19.8112C88.3559 21.1349 86.0736 21.1349 84.4067 21.1349ZM101.416 11.9102C102.735 12.2908 104.23 12.7248 105.516 13.8061C106.523 14.6522 107.599 16.2281 107.599 18.1119C107.599 20.8879 105.504 23.8748 100.901 23.8748C98.4982 23.8748 96.2462 23.0941 94.5616 21.6782L94.375 21.5206L96.1277 19.5472L96.3193 19.7144C97.492 20.7327 99.1614 21.3146 100.901 21.3146C102.868 21.3146 104.856 20.3254 104.856 18.1143C104.856 17.2294 104.369 16.2645 103.615 15.6584C102.86 15.0292 101.715 14.6875 100.387 14.2909L100.379 14.2886L100.168 14.2255L100.157 14.2224C99.0329 13.8936 97.8687 13.5531 96.6245 12.5406C95.6763 11.7744 94.66 10.3319 94.66 8.58631C94.66 5.45637 97.2272 3.26953 100.904 3.26953C103.04 3.26953 105.148 3.93867 106.689 5.1024L106.886 5.25029L105.244 7.29893L105.042 7.14377C103.988 6.32189 102.442 5.83215 100.904 5.83215C98.3191 5.83215 97.4037 7.28439 97.4037 8.52812C97.4037 9.34273 97.8097 10.1282 98.5209 10.6859C99.2194 11.256 100.389 11.6047 101.33 11.8854L101.34 11.8884L101.416 11.9102ZM127.61 6.01086H121.921V3.44824H136.043V6.01086H130.354V23.6971H127.61V6.01086Z" fill="#14172E"/>
<path d="M13.8698 0L2.74609 5.14949L7.68631 8.93645L13.8698 0Z" fill="#DA1A32"/>
<path d="M13.871 6.0732V0L7.6875 8.93645L13.871 6.0732Z" fill="#AE132A"/>
<path d="M13.8711 0L24.9948 5.14949L20.0546 8.93645L13.8711 0Z" fill="#A30C33"/>
<path d="M13.8711 6.0732V0L20.0546 8.93645L13.8711 6.0732Z" fill="#6F1931"/>
<path d="M7.68631 8.9354L2.74609 5.14844L6.1581 15.3674L7.68631 8.9354Z" fill="#F15D22"/>
<path d="M2.74625 5.14844L0 16.7202L6.15825 15.3674L2.74625 5.14844Z" fill="#F58025"/>
<path d="M20.0508 8.9354L24.991 5.14844L21.579 15.3674L20.0508 8.9354Z" fill="#840055"/>
<path d="M24.994 5.14844L27.7403 16.7202L21.582 15.3674L24.994 5.14844Z" fill="#BB0E82"/>
<path d="M7.69655 25.997L10.4378 20.5275L0 16.7188L7.69655 25.997Z" fill="#232E83"/>
<path d="M0 16.72L10.4378 20.5288L6.15825 15.3672L0 16.72Z" fill="#6862E8"/>
<path d="M20.0381 25.997L17.2969 20.5275L27.7346 16.7188L20.0381 25.997Z" fill="#232E83"/>
<path d="M27.7346 16.72L17.2969 20.5288L21.5764 15.3672L27.7346 16.72Z" fill="#6862E8"/>
</svg>
