<svg xmlns="http://www.w3.org/2000/svg" viewBox="0 0 170 58.53"><defs><style>.cls-1,.cls-3{fill:#fff}.cls-1{fill-rule:evenodd}</style></defs><g id="Layer_2" data-name="Layer 2"><g id="Layer_1-2" data-name="Layer 1"><path class="cls-1" d="M37 13.81a1.05 1.05 0 1 1 0 1.49 1.06 1.06 0 0 1 0-1.49zM12.27 38a1 1 0 1 1 0 1.48 1.05 1.05 0 0 1 0-1.48zM29.58 24.76a1 1 0 1 1 0 1.47 1 1 0 0 1 0-1.47zM24.61 23.34a1 1 0 1 1 0 1.48 1 1 0 0 1 0-1.48zM25.91 18.52a1 1 0 1 1 0 1.48 1 1 0 0 1 0-1.48zM19 20.77a1 1 0 0 1 1.47 0 1 1 0 1 1-1.47 0zM35.43 22.24a1 1 0 1 1 0 1.47 1 1 0 0 1 0-1.47zM15.72 34.58a1 1 0 0 1 1.48 1.48 1 1 0 0 1-1.48 0 1 1 0 0 1 0-1.48zM38.8 17.32a1 1 0 1 1 1.48 1.48 1 1 0 0 1-1.47 0 1.05 1.05 0 0 1-.01-1.48zM19.52 45.73a1 1 0 1 1 0 1.48 1 1 0 0 1 0-1.48zM28.43 44.19a1.05 1.05 0 1 1 0 1.48 1.05 1.05 0 0 1 0-1.48zM36.39 45.79a1 1 0 1 1 1.48 1.48 1 1 0 0 1-1.48-1.48zM9.82 14.41a1.05 1.05 0 1 1 0 1.49 1.05 1.05 0 0 1 0-1.49zM43.06 21.05a1 1 0 1 1 0 1.48 1.05 1.05 0 0 1 0-1.48zM17.05 42.19a1.06 1.06 0 0 1 1.48 0 1 1 0 0 1 0 1.48 1 1 0 0 1-1.47 0 1.05 1.05 0 0 1-.01-1.48zM10.14 41.5a1.05 1.05 0 0 1 1.48 0 1 1 0 0 1 0 1.47 1 1 0 0 1-1.48 0 1.06 1.06 0 0 1 0-1.47zM13.75 15.21a1 1 0 1 1 1.47 1.47 1 1 0 1 1-1.47-1.47zM24.25 52.38a1 1 0 1 1 0 1.48 1 1 0 0 1 0-1.48zM20.58 7.11a1 1 0 1 1 0 1.48 1 1 0 0 1 0-1.48zM41.62 32.83a1.06 1.06 0 0 1 1.49 0 1 1 0 0 1 0 1.48 1 1 0 0 1-1.47 0 1 1 0 0 1-.02-1.48zM47.45 14a1 1 0 1 1 0 1.48 1 1 0 0 1 0-1.48zM15.42 8.27a1 1 0 1 1 0 1.48 1 1 0 0 1 0-1.48zM48.87 39.29a1.05 1.05 0 0 1 1.47 0 1 1 0 1 1-1.47 0zM28.45 5a1.06 1.06 0 0 1 1.49 0 1 1 0 0 1-1.48 1.48A1.05 1.05 0 0 1 28.45 5zM4.67 26.58a1.05 1.05 0 0 1 1.48 1.49 1.05 1.05 0 0 1-1.48-1.49zM48.49 28.69a1 1 0 0 1 1.48 0 1 1 0 1 1-1.48 0zM38.62 24.7a1 1 0 1 1 0 1.47 1 1 0 0 1 0-1.47zM40.44 13.05a1.05 1.05 0 0 1 1.48 0 1 1 0 0 1-1.48 1.48 1.06 1.06 0 0 1 0-1.48zM26.18 34.37a1.05 1.05 0 1 1 0 1.49 1.08 1.08 0 0 1 0-1.49zM18.84 10.19a1 1 0 1 1 0 1.48 1 1 0 0 1 0-1.48zM44.85 39.17a1 1 0 1 1 0 1.48 1 1 0 0 1 0-1.48zM23 4.35a1 1 0 1 1 0 1.48 1 1 0 0 1 0-1.48zM37.82 51.32a1.05 1.05 0 0 1 1.47 0 1 1 0 1 1-1.48 1.48 1.05 1.05 0 0 1 .01-1.48zM53.83 29.81a1 1 0 1 1 0 1.48 1.05 1.05 0 0 1 0-1.48zM8.87 45a1 1 0 0 1 1.48 0 1 1 0 0 1-1.48 1.48 1 1 0 0 1 0-1.48zM44.52 46.23a1 1 0 0 1 1.48 0 1 1 0 0 1-1.47 1.47 1 1 0 0 1-.01-1.47zM31.77 3.25a1 1 0 1 1 0 1.48 1 1 0 0 1 0-1.48zM53.93 18.09a1 1 0 1 1 0 1.47 1 1 0 0 1 0-1.47zM56.44 21.36a1 1 0 1 1 0 1.47 1 1 0 0 1 0-1.47zM52 21.23a1 1 0 1 1 1.48 1.48A1 1 0 0 1 52 21.23zM29.51 53.94A1.05 1.05 0 0 1 31 54a1 1 0 0 1 0 1.47 1 1 0 0 1-1.48-1.48zM3.32 23.08a1 1 0 1 1 0 1.48 1.05 1.05 0 0 1 0-1.48zM3.65 31.94a1.05 1.05 0 0 1 1.49 1.48 1.06 1.06 0 0 1-1.49 0 1 1 0 0 1 0-1.48zM43.18 49.71a1 1 0 1 1 0 1.48 1 1 0 0 1 0-1.48zM41.13 53a1.06 1.06 0 0 1 1.48 0 1 1 0 0 1 0 1.48 1 1 0 0 1-1.47 0 1 1 0 0 1-.01-1.48zM48.91 43a1 1 0 1 1 0 1.47 1 1 0 0 1 0-1.47zM48.2 46.78a1 1 0 1 1 1.48 1.48 1 1 0 0 1-1.47 0 1.05 1.05 0 0 1-.01-1.48zM46.68 50.49a1 1 0 1 1 0 1.47 1 1 0 0 1 0-1.47zM26.09 2.05a1 1 0 1 1 0 1.48 1.05 1.05 0 0 1 0-1.48zM29.58.31a1.05 1.05 0 0 1 1.48 0 1.05 1.05 0 1 1-1.48 0zM35.27 54.14a1 1 0 1 1 0 1.47 1 1 0 0 1 0-1.47zM32.22 56.75a1 1 0 1 1 1.47 1.48 1 1 0 1 1-1.47-1.48zM52.54 38.67A1 1 0 1 1 54 40.15a1 1 0 0 1-1.47 0 1.05 1.05 0 0 1 .01-1.48zM52.52 42.61a1.05 1.05 0 0 1 1.48 0 1 1 0 1 1-1.48 0zM51.85 26.64a1 1 0 0 1 1.48 0 1 1 0 0 1 0 1.47 1 1 0 1 1-1.48-1.47zM55.25 33.4a1 1 0 1 1 0 1.48 1 1 0 0 1 0-1.48zM55.72 37.05a1.05 1.05 0 1 1 0 1.47 1 1 0 0 1 0-1.47zM35.49 2.22a1 1 0 1 1 0 1.48 1 1 0 0 1 0-1.48zM40 2.11a1 1 0 1 1 1.48 1.48 1 1 0 0 1-1.47 0A1 1 0 0 1 40 2.11zM50.82 15.75a1 1 0 1 1 0 1.47 1 1 0 0 1 0-1.47zM37.37 9.52A1 1 0 1 1 38.84 11a1 1 0 0 1-1.47-1.48zM48.31 10.43a1 1 0 1 1 0 1.48 1.05 1.05 0 0 1 0-1.48zM52 12.3a1 1 0 1 1 0 1.47 1 1 0 0 1 0-1.47zM54.55 24.07a1 1 0 1 1 0 1.48 1.05 1.05 0 0 1 0-1.48zM40.58 5.33a1.05 1.05 0 0 1 1.49 1.48 1.05 1.05 0 0 1-1.49-1.48zM44.49 5.69a1 1 0 1 1 0 1.48 1 1 0 0 1 0-1.48zM36.79 5.69a1 1 0 0 1 1.47 0 1 1 0 0 1 0 1.48 1 1 0 0 1-1.47-1.48zM2.61 19.27a1.05 1.05 0 1 1 0 1.49 1.05 1.05 0 0 1 0-1.49zM5.42 43.33a1 1 0 1 1 0 1.48 1.05 1.05 0 0 1 0-1.48zM2.61 40.7a1 1 0 1 1 1.47 1.48 1 1 0 0 1-1.47 0 1 1 0 0 1 0-1.48zM26.09 55.62a1 1 0 1 1 0 1.48 1 1 0 0 1 0-1.48zM32.48 51.62a1 1 0 1 1 0 1.48 1 1 0 0 1 0-1.48zM6.05 34.64a1 1 0 1 1 0 1.48 1 1 0 0 1 0-1.48zM6.82 39.92a1 1 0 1 1 0 1.47 1 1 0 0 1 0-1.47zM3.89 37.65a1 1 0 1 1 0 1.48 1.05 1.05 0 0 1 0-1.48zM19.65 49.8a1 1 0 1 1 0 1.47 1 1 0 0 1 0-1.47zM16 50.14a1 1 0 1 1 0 1.48 1.05 1.05 0 0 1 0-1.48zM12.18 49.8a1 1 0 1 1 0 1.48 1.05 1.05 0 0 1 0-1.48zM8.3 48.49a1 1 0 1 1 0 1.51 1.05 1.05 0 0 1 0-1.51zM16.74 53.77a1 1 0 1 1 0 1.48 1 1 0 0 1 0-1.48zM20.63 53.44a1 1 0 1 1 0 1.47 1 1 0 0 1 0-1.47zM27.48 50.71a1 1 0 1 1 0 1.48 1 1 0 0 1 0-1.48zM10.49 10.76a1 1 0 1 1 0 1.48 1 1 0 0 1 0-1.48zM17.4 5.07a1 1 0 0 1 1.48 1.48 1 1 0 1 1-1.48-1.48zM20.08 2.16a1.05 1.05 0 1 1 0 1.49 1.05 1.05 0 0 1 0-1.49zM51.86 35a1 1 0 0 1 1.47 0 1 1 0 1 1-1.47 1.47 1 1 0 0 1 0-1.47zM44.63 9.39a1 1 0 1 1 0 1.47 1 1 0 0 1 0-1.47zM12.47 46.1a1 1 0 1 1 0 1.47 1 1 0 0 1 0-1.47zM56.92 27.78a1 1 0 1 1 0 1.48 1 1 0 0 1 0-1.48zM1.23 34.71a1 1 0 1 1 0 1.48 1 1 0 0 1 0-1.48zM6.85 10.58a1 1 0 0 1 1.47 0 1 1 0 1 1-1.48 1.48 1 1 0 0 1 .01-1.48zM6.11 18.24a1 1 0 1 1 0 1.48 1 1 0 0 1 0-1.48zM11.94 7.14a1 1 0 1 1 0 1.48 1 1 0 0 1 0-1.48zM13.86 3.9a1 1 0 1 1 0 1.48 1.05 1.05 0 0 1 0-1.48zM6.13 14.45a1 1 0 0 1 1.47 0 1 1 0 0 1 0 1.48 1.06 1.06 0 0 1-1.48 0 1 1 0 0 1 .01-1.48zM1.62 28.67a1 1 0 1 1 0 1.47 1 1 0 0 1 0-1.47zM.31 25a1 1 0 0 1 1.47 0A1 1 0 1 1 .3 26.44 1.05 1.05 0 0 1 .31 25zM23.47 10a1 1 0 1 1 0 1.48 1 1 0 0 1 0-1.48zM31.1 18.65a1.05 1.05 0 0 1 1.48 0 1.05 1.05 0 0 1-1.49 1.49 1.05 1.05 0 0 1 .01-1.49zM31.21 12.83a1.05 1.05 0 1 1 0 1.48 1.05 1.05 0 0 1 0-1.48zM33.53 34.12a1 1 0 0 1 1.48 0 1 1 0 0 1-1.48 1.48 1 1 0 0 1 0-1.48zM45.83 26.37a1 1 0 1 1 0 1.48 1 1 0 0 1 0-1.48zM36.85 38.3a1 1 0 1 1 0 1.48 1 1 0 0 1 0-1.48zM19.46 37.6a1.08 1.08 0 0 1 1.49 0 1.05 1.05 0 1 1-1.49 0zM23.68 38.8a1 1 0 1 1 1.48 1.48 1 1 0 0 1-1.47 0 1.05 1.05 0 0 1-.01-1.48zM30 40.7a1 1 0 1 1 0 1.48 1 1 0 0 1 0-1.48zM19.47 28.68a1 1 0 1 1 0 1.47 1 1 0 0 1 0-1.47zM8.26 25.12a1 1 0 1 1 1.47 1.48 1 1 0 0 1-1.47-1.48zM30.18 8.48a1 1 0 1 1 0 1.47 1 1 0 0 1 0-1.47zM40.81 44.86a1.07 1.07 0 0 1 1.49 0 1.05 1.05 0 0 1 0 1.48 1 1 0 0 1-1.47 0 1.05 1.05 0 0 1-.02-1.48zM10.88 21.4a1 1 0 1 1 0 1.48 1 1 0 0 1 0-1.48zM38.28 30.12a1 1 0 1 1 0 1.48 1 1 0 0 1 0-1.48zM17.84 17.13a1 1 0 1 1 0 1.47 1.05 1.05 0 0 1 0-1.47zM46.53 32.66a1 1 0 0 1 1.48 0 1 1 0 0 1-1.47 1.47 1.05 1.05 0 0 1-.01-1.47zM15.32 26.93a1 1 0 0 1 1.48 0 1.06 1.06 0 0 1 0 1.48 1 1 0 0 1-1.48-1.48zM25.76 14.3a1 1 0 1 1 0 1.48 1.05 1.05 0 0 1 0-1.48zM9.14 32.09a1 1 0 0 1 1.48 0 1.06 1.06 0 0 1 0 1.48 1 1 0 0 1-1.48-1.48zM22.76 44.29a1 1 0 0 1 1.48 1.48 1 1 0 0 1-1.48-1.48zM30.82 31a1 1 0 1 1 0 1.48 1 1 0 0 1 0-1.48z"/><g style="opacity:.2"><path class="cls-1" d="M15.59 22a1 1 0 1 1 0 1.48 1 1 0 0 1 0-1.48zM29.12 28.23a1 1 0 0 1 1.48 1.48 1.06 1.06 0 0 1-1.48 0 1 1 0 0 1 0-1.48zM21.33 24.11a1.06 1.06 0 0 1 1.48 0 1 1 0 1 1-1.48 0zM13.3 30a1 1 0 1 1 0 1.48 1 1 0 0 1 0-1.48zM12.63 24.45a1 1 0 1 1 0 1.48 1 1 0 0 1 0-1.48zM34.81 30.28a1 1 0 0 1 1.47 0 1 1 0 1 1-1.47 0zM20.5 41.13a1 1 0 1 1 0 1.49 1.06 1.06 0 0 1 0-1.49zM13.6 42.27a1 1 0 1 1 0 1.48 1.05 1.05 0 0 1 0-1.48zM19.87 34.11a1 1 0 1 1 1.47 1.47 1 1 0 0 1-1.47-1.47zM43.94 13.15a1.05 1.05 0 0 1 1.49 1.48 1.05 1.05 0 0 1-1.49-1.48zM14.15 18.7a1 1 0 1 1 0 1.48 1.05 1.05 0 0 1 0-1.48zM50.5 31.6a1 1 0 1 1 0 1.48 1 1 0 0 1 0-1.48zM14.17 11.7a1 1 0 1 1 0 1.48 1 1 0 0 1 0-1.48zM37.14 42a1 1 0 1 1 0 1.48 1.05 1.05 0 0 1 0-1.48zM43.71 35.81a1.05 1.05 0 1 1 0 1.48 1.06 1.06 0 0 1 0-1.48zM33.84 15.59a1 1 0 1 1 0 1.47 1 1 0 0 1 0-1.47zM33.32 38a1 1 0 0 1 1.47 0 1 1 0 1 1-1.48 1.48 1 1 0 0 1 .01-1.48zM17.85 13.59a1 1 0 0 1 1.47 1.48 1 1 0 1 1-1.47-1.48zM45.09 42.65a1 1 0 1 1 0 1.48 1 1 0 0 1 0-1.48zM39.69 48.2a1 1 0 1 1 0 1.48 1 1 0 0 1 0-1.48zM49.36 24a1 1 0 0 1 1.47 0 1 1 0 1 1-1.48 1.48 1 1 0 0 1 .01-1.48zM40.88 9.06a1.06 1.06 0 0 1 1.48 0 1 1 0 1 1-1.48 1.48 1.06 1.06 0 0 1 0-1.48zM34.09 10.75a1 1 0 1 1 0 1.48 1 1 0 0 1 0-1.48zM34.8 48.91a1 1 0 1 1 0 1.48 1.05 1.05 0 0 1 0-1.48zM26 46.83a1 1 0 1 1 0 1.48 1.05 1.05 0 0 1 0-1.48zM6.83 21.86a1 1 0 1 1 0 1.48 1.05 1.05 0 0 1 0-1.48zM46.39 22.12a1 1 0 1 1 0 1.48 1 1 0 0 1 0-1.48zM27.64 10.92a1 1 0 1 1 0 1.47 1 1 0 0 1 0-1.47zM42.53 24.86a1 1 0 1 1 0 1.47 1 1 0 0 1 0-1.47zM31.8 22.17a1 1 0 1 1 0 1.47 1 1 0 0 1 0-1.47zM23.26 35.29a1 1 0 1 1 0 1.48 1.05 1.05 0 0 1 0-1.48zM10.37 27.87a1 1 0 1 1 0 1.48 1 1 0 0 1 0-1.48zM48.12 35.8a1 1 0 1 1 0 1.49 1.05 1.05 0 0 1 0-1.49zM44.16 30a1 1 0 1 1 0 1.48 1.05 1.05 0 0 1 0-1.48zM40.92 28.11a1 1 0 1 1 0 1.48 1 1 0 0 1 0-1.48zM41.09 41.36a1 1 0 1 1 0 1.48 1 1 0 0 1 0-1.48zM37.94 34.26a1 1 0 1 1 0 1.48 1.05 1.05 0 0 1 0-1.48zM32.23 27.44a1 1 0 1 1 0 1.47 1 1 0 0 1 0-1.47zM40.4 37.87a1 1 0 0 1 1.48 1.48 1 1 0 1 1-1.48-1.48zM35.64 26a1 1 0 0 1 1.48 0 1.06 1.06 0 0 1 0 1.48A1 1 0 1 1 35.64 26zM39.37 21a1 1 0 0 1 1.48 0 1 1 0 0 1-1.48 1.48 1 1 0 0 1 0-1.48zM25.61 7.23a1 1 0 0 1 1.48 0 1.06 1.06 0 0 1 0 1.48 1 1 0 0 1-1.48-1.48zM22 13.19a1 1 0 1 1 0 1.48 1 1 0 0 1 0-1.48zM28 21.46a1 1 0 1 1 0 1.48 1 1 0 0 1 0-1.48zM29 15.84a1 1 0 1 1 0 1.48 1 1 0 0 1 0-1.48zM35.29 18.87a1.05 1.05 0 1 1 0 1.48 1 1 0 0 1 0-1.48zM42.32 17a1.05 1.05 0 1 1 0 1.48 1.06 1.06 0 0 1 0-1.48zM26.39 26.48a1 1 0 1 1 0 1.48 1 1 0 0 1 0-1.48zM29.92 34.88a1 1 0 0 1 1.48 1.47 1 1 0 1 1-1.48-1.47zM27.6 37.91a1 1 0 1 1 0 1.48 1 1 0 0 1 0-1.48zM16.07 46.33a1 1 0 1 1 0 1.48 1 1 0 0 1 0-1.48zM33.3 42.15a1 1 0 1 1 0 1.48 1 1 0 0 1 0-1.48zM32.16 45.54a1 1 0 0 1 1.48 0 1 1 0 0 1 0 1.47 1 1 0 1 1-1.48-1.48zM10 18a1 1 0 0 1 1.47 0A1 1 0 1 1 10 18zM23.18 31.09a1.05 1.05 0 0 1 1.48 1.49 1.05 1.05 0 0 1-1.48-1.49zM16.91 31.17a1 1 0 1 1 0 1.48 1.05 1.05 0 0 1 0-1.48zM27 30.91a1 1 0 0 1 1.48 0 1.06 1.06 0 0 1 0 1.48A1 1 0 0 1 27 30.91zM18.31 25a1 1 0 1 1 0 1.47 1.05 1.05 0 0 1 0-1.47zM33.29 6.75a1.05 1.05 0 1 1 0 1.48 1.05 1.05 0 0 1 0-1.48zM25.51 41.89a1 1 0 1 1 0 1.48 1.05 1.05 0 0 1 0-1.48zM30.18 48.4a1 1 0 0 1 1.47 0 1 1 0 0 1 0 1.48 1.06 1.06 0 0 1-1.48 0 1 1 0 0 1 .01-1.48zM15.78 38.35a1 1 0 1 1 0 1.48 1 1 0 0 1 0-1.48zM21.59 16.79a1 1 0 1 1 0 1.48 1 1 0 0 1 0-1.48zM45.76 17.59a1 1 0 0 1 1.48 0 1.06 1.06 0 0 1 0 1.48 1 1 0 0 1-1.48-1.48zM9 36.71a1 1 0 1 1 0 1.48 1 1 0 0 1 0-1.48zM23.07 48.67a1.05 1.05 0 1 1 0 1.48 1.05 1.05 0 0 1 0-1.48zM6.58 29.62a1 1 0 1 1 1.48 1.48 1 1 0 0 1-1.48-1.48zM12.2 33.81a1 1 0 1 1 0 1.48 1 1 0 0 1 0-1.48zM49.05 19.07a1 1 0 1 1 0 1.48 1 1 0 0 1 0-1.48zM22.58 20.37a1 1 0 1 1 0 1.48 1.05 1.05 0 0 1 0-1.48zM22.94 27.32a1 1 0 1 1 0 1.47 1 1 0 0 1 0-1.47z"/></g><path class="cls-3" d="M65 27V12.4c0-.4.27-.6.82-.6s.82.2.82.6V27a.55.55 0 0 1-.25.47 1 1 0 0 1-.57.17 1 1 0 0 1-.58-.17A.54.54 0 0 1 65 27zM82.33 24V12.43a.52.52 0 0 1 .25-.42.92.92 0 0 1 .55-.17 1 1 0 0 1 .58.17.49.49 0 0 1 .24.42v3.44h3.1a.67.67 0 0 1 .5.24.78.78 0 0 1 .2.45 1 1 0 0 1-.2.69.64.64 0 0 1-.51.24H84V24a2.28 2.28 0 0 0 .52 1.69 2.62 2.62 0 0 0 1.8.48H87a.73.73 0 0 1 .75.75.76.76 0 0 1-.21.54.68.68 0 0 1-.54.23h-.7q-3.97-.03-3.97-3.69zM101.18 27V11.63a.52.52 0 0 1 .23-.42.88.88 0 0 1 .59-.21.94.94 0 0 1 .59.18.51.51 0 0 1 .24.42V27a.6.6 0 0 1-.24.45.89.89 0 0 1-.59.19.86.86 0 0 1-.56-.19.6.6 0 0 1-.26-.45zM106.35 27V11.63a.51.51 0 0 1 .22-.42.88.88 0 0 1 .57-.18.94.94 0 0 1 .59.18.51.51 0 0 1 .24.42V27a.6.6 0 0 1-.24.45.89.89 0 0 1-.59.19.82.82 0 0 1-.55-.19.6.6 0 0 1-.24-.45zM150.42 23.1v-2.67a4.8 4.8 0 0 1 1.22-3.4 4.71 4.71 0 0 1 3.6-1.31 5.38 5.38 0 0 1 2.5.53c.68.36 1 .72 1 1.09a.84.84 0 0 1-.22.54.67.67 0 0 1-.5.26 1 1 0 0 1-.46-.22 4.53 4.53 0 0 0-.89-.45 3.74 3.74 0 0 0-1.37-.23 3.29 3.29 0 0 0-2.43.84 3.21 3.21 0 0 0-.83 2.36v2.65a3.21 3.21 0 0 0 .83 2.38 3.3 3.3 0 0 0 2.46.85 4 4 0 0 0 1.43-.23 4.61 4.61 0 0 0 .9-.46 1 1 0 0 1 .48-.24.69.69 0 0 1 .54.25.84.84 0 0 1 .21.55c0 .39-.35.75-1 1.11a5.65 5.65 0 0 1-2.6.54 4.74 4.74 0 0 1-3.62-1.3 4.82 4.82 0 0 1-1.25-3.44zM65 49.58V35c0-.37.33-.62.82-.62.69 0 .88.45 1.31 1.14l6.72 11V34.94c0-.4.28-.6.82-.6s.83.2.83.6v14.64c0 .49-.53.65-.83.65-.56 0-.79-.26-1.17-.92l-6.83-11.22v11.49a.56.56 0 0 1-.25.48 1 1 0 0 1-.57.17 1 1 0 0 1-.58-.17.55.55 0 0 1-.27-.48zM78.17 45.67V43a4.46 4.46 0 0 1 1.39-3.28 4.56 4.56 0 0 1 3.32-1.38 4.63 4.63 0 0 1 3.34 1.37A4.4 4.4 0 0 1 87.65 43v2.72A4.51 4.51 0 0 1 86.21 49a4.56 4.56 0 0 1-3.33 1.44 4.89 4.89 0 0 1-4.71-4.74zm1.62 0a3.05 3.05 0 0 0 .95 2.19 2.9 2.9 0 0 0 2.14.94 3.16 3.16 0 0 0 2.2-1 2.92 2.92 0 0 0 .92-2.14V43a3.06 3.06 0 0 0-.93-2.18 2.86 2.86 0 0 0-2.21-.87 3.26 3.26 0 0 0-2.16.88 2.69 2.69 0 0 0-.91 2.17zM89.11 23.13v-2.8a4.73 4.73 0 0 1 8-3.26 4.36 4.36 0 0 1 1.47 3.22 3.08 3.08 0 0 1-.22 1.12 1 1 0 0 1-.52.59 2.61 2.61 0 0 1-.66.23 5.82 5.82 0 0 1-.83.05h-5.61v.92a2.82 2.82 0 0 0 1 2.14 4 4 0 0 0 3 .91 4.09 4.09 0 0 0 2.26-.71.6.6 0 0 1 .42-.15.88.88 0 0 1 .59.31.75.75 0 0 1 .19.52c0 .43-.33.71-1 1.09a5.8 5.8 0 0 1-2.67.56 5.6 5.6 0 0 1-3.85-1.36 4.73 4.73 0 0 1-1.57-3.38zm1.63-2.48h6.05c.2 0 .18-.05.18-.16a3 3 0 0 0-.89-2.21 2.88 2.88 0 0 0-2.23-.9 3.38 3.38 0 0 0-2.21.89 2.74 2.74 0 0 0-.9 2.13zM126.6 23.13v-2.8a4.74 4.74 0 0 1 8-3.26 4.39 4.39 0 0 1 1.46 3.22 3.33 3.33 0 0 1-.21 1.12 1 1 0 0 1-.53.59 2.61 2.61 0 0 1-.66.23 5.66 5.66 0 0 1-.82.05h-5.64v.92a2.82 2.82 0 0 0 1 2.14 4 4 0 0 0 3 .91 4.06 4.06 0 0 0 2.22-.71.6.6 0 0 1 .42-.15.86.86 0 0 1 .59.31.75.75 0 0 1 .19.52c0 .43-.32.71-1 1.09a5.8 5.8 0 0 1-2.67.56 5.57 5.57 0 0 1-3.84-1.36 4.69 4.69 0 0 1-1.51-3.38zm1.63-2.48h6.05c.19 0 .18-.05.19-.16a3 3 0 0 0-.9-2.21 2.88 2.88 0 0 0-2.22-.9 3.36 3.36 0 0 0-2.21.89 2.75 2.75 0 0 0-.91 2.13zM160.51 23.1v-2.8a4.73 4.73 0 0 1 8-3.26 4.38 4.38 0 0 1 1.49 3.22 3.28 3.28 0 0 1-.21 1.12 1.09 1.09 0 0 1-.53.6 3 3 0 0 1-.66.22 5.76 5.76 0 0 1-.82.05h-5.64v.92a2.82 2.82 0 0 0 1 2.14 4 4 0 0 0 3 .91 4.06 4.06 0 0 0 2.22-.71.66.66 0 0 1 .42-.15.86.86 0 0 1 .59.31.75.75 0 0 1 .19.52c0 .43-.33.71-1 1.09a5.8 5.8 0 0 1-2.67.56 5.51 5.51 0 0 1-3.89-1.36 4.69 4.69 0 0 1-1.49-3.38zm1.63-2.47h6.05c.2 0 .18-.06.18-.17a2.93 2.93 0 0 0-.89-2.21 2.88 2.88 0 0 0-2.22-.9 3.36 3.36 0 0 0-2.21.89 2.72 2.72 0 0 0-.91 2.13zM101.76 45.67v-2.79a4.73 4.73 0 0 1 8-3.27 4.42 4.42 0 0 1 1.46 3.22A3.28 3.28 0 0 1 111 44a1.09 1.09 0 0 1-.53.6 2.55 2.55 0 0 1-.66.22 5.66 5.66 0 0 1-.82 0h-5.63v.92a2.84 2.84 0 0 0 1 2.15 4.07 4.07 0 0 0 3 .9 3.93 3.93 0 0 0 2.22-.7c.24-.15.29-.16.43-.16a.88.88 0 0 1 .58.31.83.83 0 0 1 .2.52c0 .44-.34.72-1 1.09a5.74 5.74 0 0 1-2.67.56 5.52 5.52 0 0 1-3.84-1.36 4.66 4.66 0 0 1-1.52-3.38zm1.63-2.47h6.04c.19 0 .18 0 .19-.17a3 3 0 0 0-.89-2.21 2.92 2.92 0 0 0-2.23-.9 3.36 3.36 0 0 0-2.21.89 2.77 2.77 0 0 0-.9 2.13zM70 27V16.45a.53.53 0 0 1 .23-.44.94.94 0 0 1 .57-.16.83.83 0 0 1 .53.18.53.53 0 0 1 .22.43v1.05a3.78 3.78 0 0 1 1.25-1.2 4.12 4.12 0 0 1 2.1-.59 4.18 4.18 0 0 1 3.1 1.35 5.58 5.58 0 0 1 1.33 3.69V27a.53.53 0 0 1-.25.47 1 1 0 0 1-.58.18.93.93 0 0 1-.55-.18.54.54 0 0 1-.24-.47v-6.24a3.73 3.73 0 0 0-.91-2.47 2.93 2.93 0 0 0-2.22-.94 2.76 2.76 0 0 0-2 .91 3.71 3.71 0 0 0-.93 2.58V27a.6.6 0 0 1-.25.45.93.93 0 0 1-.58.2.84.84 0 0 1-.57-.2A.62.62 0 0 1 70 27zM138.46 27V16.45a.54.54 0 0 1 .22-.44 1 1 0 0 1 .58-.16.85.85 0 0 1 .53.18.53.53 0 0 1 .22.43v1.05a3.68 3.68 0 0 1 1.25-1.2 4.12 4.12 0 0 1 2.1-.59 4.18 4.18 0 0 1 3.12 1.35 5.58 5.58 0 0 1 1.33 3.69V27a.55.55 0 0 1-.25.47 1 1 0 0 1-.58.18.93.93 0 0 1-.55-.18.53.53 0 0 1-.25-.47v-6.24a3.77 3.77 0 0 0-.9-2.47 2.94 2.94 0 0 0-2.22-.94 2.76 2.76 0 0 0-2 .91 3.71 3.71 0 0 0-.93 2.58V27a.6.6 0 0 1-.25.45.93.93 0 0 1-.58.2.89.89 0 0 1-.58-.2.64.64 0 0 1-.26-.45zM89.93 45.66v-2.72a4.71 4.71 0 0 1 1.31-3.24 4.5 4.5 0 0 1 5.06-1 4.89 4.89 0 0 1 1.32.92v-5.93a.51.51 0 0 1 .25-.43 1.06 1.06 0 0 1 .6-.17.89.89 0 0 1 .56.17.54.54 0 0 1 .21.43v15.88A.57.57 0 0 1 99 50a.78.78 0 0 1-.55.2.79.79 0 0 1-.54-.2.6.6 0 0 1-.24-.45v-.83a3.79 3.79 0 0 1-1.29 1.06 4 4 0 0 1-2 .49 4.26 4.26 0 0 1-3.21-1.49 4.43 4.43 0 0 1-1.24-3.12zm1.58 0a2.7 2.7 0 0 0 .9 2 2.9 2.9 0 0 0 2.18 1 3.25 3.25 0 0 0 3-3v-2.52a2.8 2.8 0 0 0-1-2.4 2.75 2.75 0 0 0-2.07-.83 3.21 3.21 0 0 0-2.26 1 2.94 2.94 0 0 0-.75 2.09zM115.06 30.15a2.86 2.86 0 0 1 2.12-2.72 1.74 1.74 0 0 1-1.37-1.71 2 2 0 0 1 1.24-1.79 3.88 3.88 0 0 1-1.37-3.14v-.95a3.9 3.9 0 0 1 1.19-3 4.72 4.72 0 0 1 6-.11 3.66 3.66 0 0 1 .84-1.13 1.53 1.53 0 0 1 .94-.43.64.64 0 0 1 .54.2.66.66 0 0 1 .2.46.71.71 0 0 1-.42.63 2.74 2.74 0 0 0-1.41 1 3.77 3.77 0 0 1 .7 2.35v1a4 4 0 0 1-1.22 3 4.3 4.3 0 0 1-3.04 1.1 3.38 3.38 0 0 1-1.68-.33 3.29 3.29 0 0 0-.77.49.73.73 0 0 0-.28.49c0 .37.25.55.63.73a4.41 4.41 0 0 0 1.4.35l1.87.24a13.87 13.87 0 0 1 1.88.38 3 3 0 0 1 1.43.92 2.6 2.6 0 0 1 .57 1.74 3 3 0 0 1-1.34 2.62 6.2 6.2 0 0 1-3.54.92 6.67 6.67 0 0 1-3.65-.9 2.73 2.73 0 0 1-1.46-2.41zm1.56-.13a1.36 1.36 0 0 0 .87 1.37 5.69 5.69 0 0 0 1.38.44 6.71 6.71 0 0 0 1.51.09 7.77 7.77 0 0 0 1.61-.26c1.27-.42 1.5-1.26 1.51-1.62a1.66 1.66 0 0 0-1.58-1.66c-.75-.13-1.63-.22-1.93-.26l-1.08-.12a6 6 0 0 0-1 .49 4.89 4.89 0 0 0-.79.58 1.38 1.38 0 0 0-.5.93zm.63-9.27a2.63 2.63 0 0 0 .8 1.94 2.71 2.71 0 0 0 2 .78 2.74 2.74 0 0 0 1.94-.86 2.64 2.64 0 0 0 .75-1.83v-.73a2.72 2.72 0 0 0-5.44-.23zM111.31 27V16.47a.53.53 0 0 1 .22-.43 1.07 1.07 0 0 1 1.16 0 .52.52 0 0 1 .24.43V27a.58.58 0 0 1-.25.45.87.87 0 0 1-.57.19.85.85 0 0 1-.56-.19.6.6 0 0 1-.24-.45z"/><path class="cls-1" d="M111 12.8a1.12 1.12 0 1 0 1.11-1.11A1.12 1.12 0 0 0 111 12.8z"/></g></g></svg>