<svg width="60" height="68" viewBox="0 0 60 68" fill="none" xmlns="http://www.w3.org/2000/svg">
<g clip-path="url(#clip0)">
<path d="M34.6024 0H25.7869L6.88623 45.4167H53.5041L34.6024 0ZM30.2616 14.0823L37.2301 35.0273H23.2942L30.2616 14.0823Z" fill="black"/>
<path d="M6.13261 51.7166L-0.00012207 67.6729H2.7283L4.36557 63.2553H10.4723L12.1096 67.6729H14.864L8.73126 51.7166H6.13261ZM5.22313 60.9162L7.4065 55.017L9.58986 60.9162H5.22313Z" fill="black"/>
<path d="M35.101 55.8746C31.9562 55.8746 29.696 58.4733 29.696 61.9295C29.696 65.4895 31.9313 67.9324 35.1529 67.9324C37.9332 67.9324 39.6224 66.373 40.0128 64.0869H37.6218C37.3363 65.204 36.4008 65.7501 35.1529 65.7501C33.4897 65.7501 32.3207 64.5292 32.2428 62.5015H40.1166V61.5661C40.1166 58.1877 38.3496 55.8746 35.101 55.8746ZM32.3207 60.6047C32.6321 58.9415 33.6984 58.058 35.1269 58.058C36.7123 58.058 37.518 59.201 37.5439 60.6047H32.3207Z" fill="black"/>
<path d="M47.8553 60.9681L45.4124 60.396C44.5808 60.1884 44.2174 59.8499 44.2174 59.3308C44.2174 58.4213 45.1529 58.005 46.0623 58.005C47.2573 58.005 47.9332 58.5251 48.1668 59.2778H50.7135C50.3242 57.1734 48.7907 55.8735 46.0883 55.8735C43.5675 55.8735 41.7226 57.407 41.7226 59.4855C41.7226 61.3823 42.9435 62.2658 44.5808 62.6562L46.9718 63.2283C47.9332 63.4618 48.3236 63.8003 48.3236 64.4232C48.3236 65.3327 47.5439 65.8009 46.3489 65.8009C45.2058 65.8009 44.3482 65.3068 44.0617 64.3454H41.4111C41.7486 66.5806 43.6204 67.9314 46.3229 67.9314C48.9216 67.9314 50.8184 66.5277 50.8184 64.2415C50.8173 62.5534 49.83 61.4363 47.8553 60.9681Z" fill="black"/>
<path d="M26.878 67.9324H28.3252V65.6172H26.8022C25.9934 65.5912 25.5065 65.1739 25.5065 64.2685V58.2915H28.1051V56.1352H25.5065V53.0423H22.9078V56.1352H18.9958V53.0423H16.3972V56.1352H14.5782V58.2915H16.3972V64.554C16.3972 66.8412 17.8528 67.9324 19.9053 67.9324H20.3673H21.8146V65.6172H20.2915C19.4828 65.5912 18.9958 65.1739 18.9958 64.2685V58.2915H22.9078V64.554C22.9078 66.8412 24.3634 67.9324 26.416 67.9324H26.878Z" fill="black"/>
<path d="M57.6829 67.9324H59.1301V65.6172H57.6071C56.7983 65.5912 56.3114 65.1739 56.3114 64.2685V58.2915H58.91V56.1352H56.3114V53.0423H53.7127V56.1352H51.8938V58.2915H53.7127V64.554C53.7127 66.8412 55.1683 67.9324 57.2209 67.9324H57.6829Z" fill="black"/>
</g>
<defs>
<clipPath id="clip0">
<rect width="60" height="68" fill="white"/>
</clipPath>
</defs>
</svg>
