<?xml version="1.0" encoding="UTF-8"?> <svg xmlns="http://www.w3.org/2000/svg" viewBox="0 0 828 162"><title>MRI-Simmons_logos_RBG_va1</title><g id="MRI_SIMMONS_horizontal" data-name="MRI SIMMONS horizontal"><g id="WHITE-2" data-name="WHITE"><g id="SIMMONS"><path d="M411.44,59.09c0-11-5.12-17.61-16-17.61s-16.87,7.12-16.87,16c0,26.61,43.23,12,43.23,43.35,0,17.24-10.75,26.11-27,26.11-16.74,0-26-9-26-26.49V97.82h8v3.37c0,11.37,6,19,17.74,19,11.25,0,19.24-5.62,19.24-18.11,0-26.49-43.22-11.37-43.22-43.73,0-14,9.12-23.61,24.61-23.61,16.61,0,24.23,8.5,24.23,24.36Z" fill="#fff"></path><path d="M431.55,36.23h8v89.2h-8Z" fill="#fff"></path><path d="M453.53,36.23H467.4l21.48,79.2h.25l21.49-79.2h13.12v89.2h-8V43.73h-.25l-23.11,81.7h-7.49l-23.12-81.7h-.24v81.7h-8Z" fill="#fff"></path><path d="M538,36.23h13.87l21.48,79.2h.25l21.49-79.2h13.12v89.2h-8V43.73h-.25l-23.11,81.7h-7.49l-23.11-81.7H546v81.7h-8Z" fill="#fff"></path><path d="M649.39,34.73c18.24,0,28.49,14.12,28.49,46.1s-10.25,46.1-28.49,46.1-28.48-14.12-28.48-46.1S631.15,34.73,649.39,34.73Zm0,85.45c12.75,0,20.49-10.49,20.49-39.35s-7.74-39.35-20.49-39.35S628.91,52,628.91,80.83,636.65,120.18,649.39,120.18Z" fill="#fff"></path><path d="M689.86,36.23h10.75l34.1,77.7H735V36.23h8v89.2H732.21l-34.1-77.7h-.25v77.7h-8Z" fill="#fff"></path><path d="M794.79,59.09c0-11-5.12-17.61-16-17.61s-16.86,7.12-16.86,16c0,26.61,43.22,12,43.22,43.35,0,17.24-10.74,26.11-27,26.11-16.74,0-26-9-26-26.49V97.82h8v3.37c0,11.37,6,19,17.74,19,11.24,0,19.23-5.62,19.23-18.11,0-26.49-43.22-11.37-43.22-43.73,0-14,9.12-23.61,24.61-23.61,16.62,0,24.24,8.5,24.24,24.36Z" fill="#fff"></path></g><rect x="325.27" y="87.99" width="5.4" height="57.6" fill="#fff"></rect><rect x="324.88" y="15.99" width="5.4" height="57.6" fill="#fff"></rect><g id="MRI"><path d="M22.36,35.85H62.1L75.05,88.79h.25l13-52.94H128v90H101.58V68.11h-.25L85.58,125.85H64.76L49,68.11h-.25v57.74H22.36Z" fill="#fff"></path><path d="M151.84,35.85H205c15.87,0,29.58,8.69,29.58,25.71,0,9.33-4.32,19.16-13.59,22.56,7.62,2.9,12.32,11.22,13.33,22.44.38,4.41.51,15.13,3,19.29H209.48A64.38,64.38,0,0,1,207.2,112c-.77-8.57-1.53-17.52-12.57-17.52H179.77v31.39H151.84Zm27.93,39.32h14.6c5.21,0,12.32-.88,12.32-9,0-5.67-3.18-8.95-13.84-8.95H179.77Z" fill="#fff"></path><path d="M255.43,35.85h27.93v90H255.43Z" fill="#fff"></path></g></g></g></svg> 