<svg xmlns="http://www.w3.org/2000/svg" id="a" viewBox="0 0 232.29 79.16"><polygon points="57.37 0 41.48 32.59 32.35 13.87 13.53 13.87 0 41.62 16.63 49.73 22.94 36.79 32.07 55.5 50.88 55.5 74 8.11 57.37 0" fill="#e63334"></polygon><g><path d="M85.87,55.49v-11.75c0-2.15-1.02-3.59-3.06-3.59s-3.1,1.43-3.1,3.59v11.75h-5.71v-19.74h5.71v1.79h.04c.9-1.22,2.57-2.24,5.09-2.24,4.36,0,6.73,3.02,6.73,7.34v12.85h-5.71Z" fill="#151d26"></path><path d="M95.23,50.31c-.41-1.22-.69-2.65-.69-4.69s.24-3.51,.65-4.73c1.14-3.55,4.28-5.59,8.48-5.59s7.38,2.08,8.52,5.55c.41,1.31,.65,2.73,.65,6.07,0,.12-.02,.41-.02,.41h-12.63v.24c.03,.38,.11,.75,.24,1.1,.53,1.71,2.04,2.61,4.08,2.61,1.68,.04,3.31-.59,4.53-1.75,.09-.08,.18-.17,.25-.27l3.33,3.05s-.2,.24-.27,.32c-1.88,2-4.77,3.3-8.4,3.3-4.48,0-7.57-2.08-8.73-5.62Zm11.99-6.77c.03-.58-.03-1.16-.2-1.71-.45-1.35-1.67-2.15-3.3-2.15s-2.85,.81-3.3,2.15c-.16,.56-.23,1.13-.2,1.71h7Z" fill="#151d26"></path><path d="M123.04,55.74c-4.57,0-6.28-2.04-6.28-6.56v-9.21h-1.88v-4.21h1.88v-5.95h5.67v5.95h3.18v4.21h-3.18v8.97c0,1.47,.49,1.96,1.79,1.96h1.39v4.85h-2.57Z" fill="#151d26"></path><path d="M144.08,55.49l-4.98-10.56h-3.96v10.56h-5.99V27.76h11.46c5.67,0,9.42,3.55,9.42,8.61,0,3.55-1.88,6.36-4.93,7.71l5.71,11.42h-6.73Zm-.05-19.13c0-2.08-1.47-3.43-3.75-3.43h-5.14v6.89h5.14c2.28,0,3.75-1.35,3.75-3.47h0Z" fill="#151d26"></path><rect x="153.58" y="27.76" width="5.71" height="4.85" fill="#151d26"></rect><path d="M169.31,55.49l-7.34-19.74h6.04l3.95,12.11h.08l3.82-12.11h5.9l-7.32,19.74h-5.13Z" fill="#151d26"></path><path d="M194.65,55.49h0v-1.71h-.04c-1.02,1.31-2.73,2.15-5.42,2.15-3.51,0-6.57-1.84-6.57-6.04s3.3-6.36,8.2-6.36h3.75v-.98c0-1.84-.9-2.69-4.04-2.69-2,0-3.47,.57-4.41,1.26-.11,.09-.22,.19-.31,.31l-2.24-3.92s.11-.1,.3-.25c1.67-1.18,4.08-1.96,7.34-1.96,6.44,0,8.77,2.2,8.77,7.14v13.05h-5.34Zm-.08-6.57v-1.59h-3.02c-2.41,0-3.51,.69-3.51,2.24,0,1.39,.98,2.08,2.85,2.08,2.46,0,3.67-.9,3.67-2.73Z" fill="#151d26"></path><path d="M209.3,55.74c-3.15,0-5.71-2.56-5.71-5.71h0V27.76h5.71v21.25c0,1.35,.53,1.87,1.71,1.87h1.27v4.85h-2.98Z" fill="#151d26"></path><path d="M159.29,55.74c-3.15,0-5.71-2.56-5.71-5.71h0v-14.27h5.71v13.25c0,1.35,.53,1.87,1.71,1.87h1.26v4.85h-2.98Z" fill="#151d26"></path><path d="M214.52,52.88c-.09-.09-.17-.19-.25-.29l3.15-3.55c.1,.1,.2,.2,.32,.29,1.76,1.35,4,2.15,6.04,2.15s3.06-.78,3.06-1.88c0-.94-.53-1.51-2.82-1.71l-2.2-.24c-4.16-.41-6.44-2.49-6.44-6.04,0-3.88,2.98-6.32,8.12-6.32,3.34,0,6.16,1.06,7.99,2.45,.11,.08,.22,.18,.31,.28l-2.83,3.48c-.08-.1-.19-.19-.3-.25-1.6-1.01-3.45-1.56-5.34-1.59-1.67,0-2.49,.65-2.49,1.63,0,.9,.49,1.43,2.73,1.63l2.15,.24c4.65,.45,6.56,2.69,6.56,5.99-.04,4.04-3.18,6.77-8.82,6.77-4.11,0-7.08-1.42-8.96-3.05Z" fill="#151d26"></path></g><g><path d="M82.86,72.94h-4.86l-.93,2.24h-2.48l4.67-10.47h2.39l4.68,10.47h-2.54l-.93-2.24Zm-.76-1.84l-1.66-4.01-1.66,4.01h3.32Z" fill="#151d26"></path><path d="M91.65,64.72h2.42v8.49h5.25v1.97h-7.67v-10.47Z" fill="#151d26"></path><path d="M108.29,71.82h-6.09c.22,1,1.08,1.61,2.3,1.61,.85,0,1.47-.25,2.02-.78l1.24,1.35c-.75,.85-1.87,1.3-3.32,1.3-2.78,0-4.59-1.75-4.59-4.14s1.84-4.14,4.29-4.14,4.19,1.58,4.19,4.17c0,.18-.03,.43-.04,.63Zm-6.12-1.36h3.96c-.16-1.02-.93-1.67-1.97-1.67s-1.82,.64-1.99,1.67Z" fill="#151d26"></path><path d="M118.11,70.58v4.61h-2.33v-4.25c0-1.3-.6-1.9-1.63-1.9-1.12,0-1.93,.69-1.93,2.17v3.98h-2.33v-8.04h2.23v.94c.63-.69,1.57-1.06,2.66-1.06,1.9,0,3.33,1.11,3.33,3.56Z" fill="#151d26"></path><path d="M128.61,67.14v6.7c0,2.99-1.62,4.37-4.52,4.37-1.53,0-3-.37-3.95-1.11l.93-1.67c.69,.55,1.81,.91,2.84,.91,1.64,0,2.36-.75,2.36-2.2v-.34c-.61,.67-1.5,1-2.54,1-2.23,0-4.02-1.54-4.02-3.89s1.79-3.89,4.02-3.89c1.12,0,2.05,.37,2.66,1.15v-1.03h2.21Zm-2.3,3.77c0-1.18-.88-1.97-2.11-1.97s-2.12,.79-2.12,1.97,.9,1.97,2.12,1.97,2.11-.79,2.11-1.97Z" fill="#151d26"></path><path d="M130.17,71.16c0-2.42,1.87-4.14,4.43-4.14s4.41,1.72,4.41,4.14-1.85,4.14-4.41,4.14-4.43-1.72-4.43-4.14Zm6.47,0c0-1.39-.88-2.23-2.05-2.23s-2.06,.84-2.06,2.23,.9,2.23,2.06,2.23,2.05-.84,2.05-2.23Z" fill="#151d26"></path><path d="M153.26,67.14l-2.92,8.04h-2.24l-1.81-4.99-1.87,4.99h-2.24l-2.9-8.04h2.2l1.9,5.44,1.97-5.44h1.97l1.91,5.44,1.96-5.44h2.06Z" fill="#151d26"></path><path d="M158.08,69.95c0-3.16,2.42-5.41,5.68-5.41,1.81,0,3.32,.66,4.31,1.85l-1.56,1.44c-.7-.81-1.58-1.23-2.63-1.23-1.96,0-3.35,1.38-3.35,3.35s1.39,3.35,3.35,3.35c1.05,0,1.93-.42,2.63-1.24l1.56,1.44c-.99,1.21-2.5,1.87-4.32,1.87-3.24,0-5.67-2.26-5.67-5.41Z" fill="#151d26"></path><path d="M168.65,71.16c0-2.42,1.87-4.14,4.43-4.14s4.41,1.72,4.41,4.14-1.85,4.14-4.41,4.14-4.43-1.72-4.43-4.14Zm6.47,0c0-1.39-.88-2.23-2.05-2.23s-2.06,.84-2.06,2.23,.9,2.23,2.06,2.23,2.05-.84,2.05-2.23Z" fill="#151d26"></path><path d="M192.63,70.58v4.61h-2.33v-4.25c0-1.3-.58-1.9-1.53-1.9-1.05,0-1.78,.67-1.78,2.11v4.04h-2.33v-4.25c0-1.3-.55-1.9-1.53-1.9-1.03,0-1.76,.67-1.76,2.11v4.04h-2.33v-8.04h2.23v.93c.6-.69,1.5-1.05,2.53-1.05,1.12,0,2.08,.43,2.65,1.32,.64-.82,1.69-1.32,2.9-1.32,1.91,0,3.29,1.11,3.29,3.56Z" fill="#151d26"></path><path d="M203.49,71.16c0,2.53-1.75,4.14-4.01,4.14-1,0-1.82-.31-2.42-.97v3.75h-2.33v-10.95h2.23v.93c.58-.7,1.45-1.05,2.53-1.05,2.26,0,4.01,1.62,4.01,4.14Zm-2.36,0c0-1.39-.88-2.23-2.05-2.23s-2.05,.84-2.05,2.23,.88,2.23,2.05,2.23,2.05-.84,2.05-2.23Z" fill="#151d26"></path><path d="M212.02,70.59v4.59h-2.18v-1c-.43,.73-1.27,1.12-2.45,1.12-1.88,0-3.01-1.05-3.01-2.44s1-2.41,3.45-2.41h1.85c0-1-.6-1.58-1.85-1.58-.85,0-1.73,.28-2.32,.75l-.84-1.63c.88-.63,2.18-.97,3.47-.97,2.45,0,3.87,1.14,3.87,3.57Zm-2.33,2.05v-.82h-1.6c-1.09,0-1.44,.4-1.44,.94,0,.58,.49,.97,1.32,.97,.78,0,1.45-.36,1.72-1.09Z" fill="#151d26"></path><path d="M222.35,70.58v4.61h-2.33v-4.25c0-1.3-.6-1.9-1.63-1.9-1.12,0-1.93,.69-1.93,2.17v3.98h-2.33v-8.04h2.23v.94c.63-.69,1.57-1.06,2.66-1.06,1.9,0,3.34,1.11,3.34,3.56Z" fill="#151d26"></path><path d="M232.29,67.14l-3.63,8.54c-.78,1.94-1.88,2.53-3.33,2.53-.82,0-1.72-.27-2.24-.73l.85-1.66c.36,.31,.85,.51,1.32,.51,.64,0,1-.28,1.32-1l.03-.08-3.48-8.1h2.41l2.26,5.46,2.27-5.46h2.24Z" fill="#151d26"></path></g></svg>