<?xml version="1.0" encoding="UTF-8"?>
<svg width="99px" height="23px" viewBox="0 0 99 23" version="1.1" xmlns="http://www.w3.org/2000/svg" xmlns:xlink="http://www.w3.org/1999/xlink">
    <title>Newos Logo</title>
    <defs>
        <polygon id="path-1" points="0.0864451539 0.007805625 15.8527996 0.007805625 15.8527996 17.25 0.0864451539 17.25"></polygon>
        <polygon id="path-3" points="0.188538029 0.007805625 17.5592091 0.007805625 17.5592091 17.25 0.188538029 17.25"></polygon>
        <polygon id="path-5" points="0.393063946 0.0705525 13.351588 0.0705525 13.351588 17.1877275 0.393063946 17.1877275"></polygon>
    </defs>
    <g id="App-Story" stroke="none" stroke-width="1" fill="none" fill-rule="evenodd">
        <g id="Suggested-Result-1" transform="translate(-156.000000, -57.000000)">
            <g id="Newos-Logo" transform="translate(156.000000, 57.000000)">
                <polygon id="Fill-1" fill="#2EBCD0" points="15 0 15 11.2207305 19 16 19 0"></polygon>
                <polygon id="Fill-2" fill="#FFFFFF" points="0 0 0 22 3.80017158 22 3.80017158 6.3484762 15.7965141 22 19 22 19 20.1708147 15.2002574 15.2108918 15.2002574 15.2113247 3.5457973 0"></polygon>
                <g id="Group-14" transform="translate(23.000000, 5.000000)">
                    <g id="Group-5">
                        <mask id="mask-2" fill="white">
                            <use xlink:href="#path-1"></use>
                        </mask>
                        <g id="Clip-4"></g>
                        <path d="M8.44777081,17.2500431 C7.27546737,17.2500431 6.1801269,17.0417494 5.16174942,16.6242994 C4.14379714,16.2068494 3.25936074,15.6229369 2.50886543,14.8712681 C1.7575197,14.1204619 1.16647806,13.2182869 0.734039691,12.1651744 C0.302451736,11.1116306 0.0864451539,9.94811813 0.0864451539,8.67549938 L0.0864451539,8.61339938 C0.0864451539,7.42444313 0.282041665,6.30836813 0.672809478,5.26517438 C1.06315208,4.22198063 1.61379878,3.30945563 2.32347395,2.52673688 C3.03314912,1.74488063 3.87123765,1.12905563 4.83816475,0.680986875 C5.80466664,0.232055625 6.87449452,0.007805625 8.04679796,0.007805625 C9.34241224,0.007805625 10.4789981,0.248011875 11.4561302,0.727561875 C12.4332623,1.20754313 13.2458383,1.85441813 13.893858,2.66775563 C14.5418778,3.48152438 15.0300186,4.42553063 15.359131,5.49977438 C15.6882434,6.57401813 15.8527996,7.70604938 15.8527996,8.89500563 C15.8527996,9.06189938 15.8476971,9.23396813 15.8374921,9.41121188 C15.827287,9.58845563 15.8115543,9.77130563 15.7915694,9.95933063 L3.81978726,9.95933063 C4.02558881,11.3147494 4.55497502,12.3531994 5.40879631,13.0725244 C6.26261761,13.7918494 7.29587744,14.1519431 8.50942623,14.1519431 C9.43510798,14.1519431 10.2374789,13.9850494 10.9161137,13.6512619 C11.5947486,13.3174744 12.2636036,12.8275744 12.9218284,12.1806994 L15.1120841,14.1519431 C14.3305485,15.0907744 13.3997642,15.8415806 12.3201565,16.4052244 C11.2401236,16.9684369 9.94961185,17.2500431 8.44777081,17.2500431 L8.44777081,17.2500431 Z M12.1504978,7.45549313 C12.0888424,6.85044938 11.9549013,6.28163063 11.7490998,5.74989938 C11.5437234,5.21859938 11.2656362,4.75931813 10.9161137,4.37334938 C10.5665913,3.98738063 10.1498857,3.67989938 9.66642212,3.45004313 C9.18295857,3.22061813 8.63316228,3.10633688 8.01618285,3.10633688 C6.86428948,3.10633688 5.91266994,3.50739938 5.16174942,4.31081813 C4.41125411,5.11380563 3.95372835,6.16217438 3.78874695,7.45549313 L12.1504978,7.45549313 Z" id="Fill-3" fill="#FFFFFF" mask="url(#mask-2)"></path>
                    </g>
                    <polygon id="Fill-6" fill="#FFFFFF" points="17.2633906 0.35233125 21.0894285 0.35233125 24.3601423 11.679975 27.9697484 0.28936875 31.1477665 0.28936875 34.7884128 11.679975 38.1207821 0.35233125 41.8545494 0.35233125 36.5164655 16.999875 33.1845214 16.999875 29.5434499 5.70328125 25.8717632 16.999875 22.5393939 16.999875"></polygon>
                    <g id="Group-10" transform="translate(42.946191, 0.000000)">
                        <mask id="mask-4" fill="white">
                            <use xlink:href="#path-3"></use>
                        </mask>
                        <g id="Clip-9"></g>
                        <path d="M8.82752569,17.2500431 C7.59356683,17.2500431 6.44677597,17.0253619 5.38757834,16.5772931 C4.32838071,16.1283619 3.412904,15.5181431 2.6411482,14.7466369 C1.87024282,13.9746994 1.26899615,13.0673494 0.836557775,12.0245869 C0.404544611,10.9809619 0.188538029,9.87523688 0.188538029,8.70698063 L0.188538029,8.64488063 C0.188538029,7.45549313 0.409647129,6.33898687 0.851865328,5.29622438 C1.29408353,4.25303062 1.90085792,3.34093688 2.67218851,2.55821813 C3.44394431,1.77593063 4.35899582,1.15536188 5.41819345,0.696511875 C6.47781629,0.237230625 7.63438697,0.007805625 8.88960632,0.007805625 C10.1444005,0.007805625 11.3013963,0.232055625 12.360594,0.680986875 C13.4197916,1.12905563 14.3348431,1.74488063 15.1065989,2.52673688 C15.8779295,3.30945563 16.4796014,4.21680562 16.9116145,5.24921813 C17.3432025,6.28163063 17.5592091,7.39296188 17.5592091,8.58191812 L17.5592091,8.64488063 C17.5592091,9.81270563 17.3385252,10.9184306 16.896307,11.9611931 C16.4540888,13.0048181 15.8473144,13.9173431 15.0755586,14.7000619 C14.3046532,15.4814869 13.384074,16.1029181 12.3138209,16.5613369 C11.2448434,17.0206181 10.0823198,17.2500431 8.82752569,17.2500431 M8.88960632,13.9643494 C9.64562936,13.9643494 10.3242642,13.8237619 10.9310386,13.5417244 C11.5327105,13.2601181 12.0467891,12.8793244 12.4788023,12.3997744 C12.905713,11.9197931 13.2344001,11.3617556 13.4559344,10.7256619 C13.6821461,10.0895681 13.7952519,9.41638687 13.7952519,8.70698063 L13.7952519,8.64488062 C13.7952519,7.91477437 13.671941,7.22606812 13.4248941,6.57962437 C13.1829497,5.93274937 12.838955,5.36953687 12.4014141,4.88955563 C11.9596211,4.40957437 11.44044,4.02878062 10.8383429,3.74717438 C10.2315685,3.46599937 9.56271344,3.32498063 8.82752569,3.32498063 C8.09233793,3.32498063 7.42390811,3.46599937 6.81713372,3.74717438 C6.21546184,4.02878062 5.70095797,4.40439938 5.26937002,4.87403062 C4.84245937,5.34323063 4.51334698,5.90126813 4.29223788,6.54814313 C4.06602626,7.19501813 3.95292045,7.87294312 3.95292045,8.58191812 L3.95292045,8.64488062 C3.95292045,9.37455562 4.0762313,10.0580869 4.3232782,10.6941806 C4.56479737,11.3302744 4.90921731,11.8939181 5.34633299,12.3838181 C5.78855119,12.8745806 6.30815758,13.2601181 6.90982946,13.5417244 C7.51660385,13.8237619 8.17482863,13.9643494 8.88960632,13.9643494" id="Fill-8" fill="#FFFFFF" mask="url(#mask-4)"></path>
                    </g>
                    <g id="Group-13" transform="translate(61.655422, 0.000000)">
                        <mask id="mask-6" fill="white">
                            <use xlink:href="#path-5"></use>
                        </mask>
                        <g id="Clip-12"></g>
                        <path d="M7.30399895,17.1877275 C6.13169551,17.1877275 4.94365931,16.9790025 3.74031555,16.5563775 C2.53739701,16.1337525 1.42122126,15.5131838 0.393063946,14.689065 L2.05903597,12.1179525 C2.94347237,12.7855275 3.84364153,13.291815 4.75869304,13.6359525 C5.67416975,13.98009 6.55350364,14.1521588 7.39669468,14.1521588 C8.19906559,14.1521588 8.82114754,13.99044 9.26336574,13.6670025 C9.70558394,13.3439963 9.92669304,12.9110212 9.92669304,12.3736837 L9.92669304,12.3111525 C9.92669304,11.998065 9.82889478,11.7268088 9.63372348,11.4973838 C9.43897739,11.2675275 9.17109521,11.0695837 8.83135258,10.9031213 C8.49203515,10.7357962 8.10169255,10.5844275 7.65904914,10.4390963 C7.21725615,10.2929025 6.75930518,10.1467088 6.28562146,10.000515 C5.68990252,9.83362125 5.08823064,9.6356775 4.48103104,9.4062525 C3.87468185,9.1768275 3.32913767,8.879265 2.84609933,8.5144275 C2.36263577,8.15433375 1.96634023,7.70065875 1.65806312,7.15814625 C1.34978601,6.61563375 1.19500964,5.94849 1.19500964,5.16059625 L1.19500964,5.098065 C1.19500964,4.32655875 1.34425829,3.6275025 1.64275557,3.00693375 C1.94082765,2.38119 2.35200553,1.8490275 2.87713964,1.4108775 C3.40099812,0.9779025 4.01797755,0.644115 4.72807793,0.41469 C5.43732789,0.185265 6.19377614,0.0705525 6.99572184,0.0705525 C8.02387915,0.0705525 9.06309192,0.23744625 10.1120845,0.57640875 C11.1610771,0.91537125 12.117374,1.3798275 12.9814003,1.968915 L11.5003945,4.67069625 C10.7184337,4.190715 9.92669304,3.80992125 9.12474734,3.52874625 C8.32237644,3.24714 7.58166095,3.10612125 6.90345131,3.10612125 C6.18314589,3.10612125 5.62271937,3.26223375 5.22174652,3.5757525 C4.82034846,3.8879775 4.62007464,4.2795525 4.62007464,4.7591025 L4.62007464,4.82163375 C4.62007464,5.11359 4.72297542,5.36932125 4.92835175,5.58839625 C5.1341533,5.80747125 5.40671279,6.005415 5.74645542,6.18309 C6.08577285,6.360765 6.47654066,6.52679625 6.91875886,6.67859625 C7.36097706,6.83470875 7.81892802,6.9860775 8.29176133,7.13227125 C8.88833069,7.319865 9.48490005,7.53894 10.0810442,7.789065 C10.6776136,8.03962125 11.21763,8.34753375 11.7010936,8.7128025 C12.1845571,9.072465 12.5800022,9.51535875 12.8887046,10.0371713 C13.1974069,10.5585525 13.351758,11.1950775 13.351758,11.9407088 L13.351758,12.0036713 C13.351758,12.87954 13.1974069,13.6406963 12.8887046,14.2828275 C12.5800022,14.9292712 12.1530916,15.4666088 11.6083978,15.8939775 C11.0637041,16.3161713 10.4207868,16.6396088 9.68007135,16.8586838 C8.93978108,17.0777588 8.1476152,17.1877275 7.30399895,17.1877275" id="Fill-11" fill="#FFFFFF" mask="url(#mask-6)"></path>
                    </g>
                </g>
            </g>
        </g>
    </g>
</svg>