<svg id="Layer_1" xmlns="http://www.w3.org/2000/svg" viewBox="0 0 72 72"><style>.st0{fill:#0089D0;} .st1{fill:url(#SVGID_1_);} .st2{fill:url(#SVGID_2_);}</style><path d="M2.3 50.7c0-.5-.3-.9-.9-.9H0v-5.6h6c1.8 0 2.8.9 2.8 2.3v.8h.1c.9-1.6 2.8-3.5 6.3-3.5 4 0 7.2 1.9 7.2 7.5v6.5c0 .5.3.9.9.9h1.5v5.6h-6.2c-2 0-2.8-.9-2.8-2.8v-8.9c0-1.9-.7-2.6-2.2-2.6-3.5 0-4.4 3.2-4.4 5.5v8.9H2.3V50.7zm24.1 0c0-.5-.3-.9-.9-.9H24v-5.6h5.8c1.9 0 2.6.9 2.6 1.8v.4h.1s1.8-2.6 6-2.6c5.4 0 9 4.3 9 10.5 0 6.3-4 10.5-9.3 10.5-3.3 0-5.1-1.7-5.1-1.7H33s.1.7.1 1.7V72h-6.7V50.7zm10.4 8.4c2.1 0 3.9-1.7 3.9-4.8 0-3-1.6-4.9-3.9-4.9-2 0-3.9 1.5-3.9 4.9 0 2.4 1.3 4.8 3.9 4.8zm32.9-1c0 .5.3.9.9.9H72v5.6h-5.8c-1.9 0-2.6-.9-2.6-1.8v-.4h-.1s-1.8 2.6-6 2.6c-5.4 0-9-4.3-9-10.5 0-6.3 4-10.5 9.3-10.5 3.3 0 5.1 1.7 5.1 1.7h.1s-.1-.7-.1-1.7v-7.3h6.7v21.4zm-10.5-8.4c-2.1 0-3.9 1.7-3.9 4.8 0 3 1.6 4.9 3.9 4.9 2 0 3.9-1.5 3.9-4.9 0-2.4-1.3-4.8-3.9-4.8z"/><path class="st0" d="M26.9 24.8L23 18.3C21.5 16 18.8 11 15.7 11c-1.2 0-2.4.7-3.8 2.6 2.4-4 6.3-9 14.9-9 5.4 0 9.4 2.1 11.8 4.9l4.4 5.1-3.7 8.2c-2.1 4.7-5.9 10.9-10.5 5.2l-1.9-3.2z"/><linearGradient id="SVGID_1_" gradientUnits="userSpaceOnUse" x1="2.334" y1="22.454" x2="26.87" y2="22.454"><stop offset="0" stop-color="#0089D0"/><stop offset=".21" stop-color="#007BBD"/><stop offset=".45" stop-color="#0069A4"/><stop offset="1" stop-color="#00446B"/></linearGradient><path class="st1" d="M12 13.6L2.3 33.9h20.3l4.2-9-3.9-6.5C21.5 16 18.8 11 15.7 11c-1.2 0-2.4.8-3.7 2.6z"/><linearGradient id="SVGID_2_" gradientUnits="userSpaceOnUse" x1="52.229" y1="-3.073" x2="45.154" y2="37.053"><stop offset="0" stop-color="#0089D0"/><stop offset=".21" stop-color="#007BBD"/><stop offset=".45" stop-color="#0069A4"/><stop offset="1" stop-color="#00446B"/></linearGradient><path class="st2" d="M28.8 28c2.6 3.9 7 8.5 14.5 8.5 5.5 0 9.9-1 13.5-8.7L69.7 0H49.3L43 14.6l-3.7 8.2c-2.1 4.7-5.9 10.9-10.5 5.2z"/></svg>