<?xml version="1.0" encoding="UTF-8"?> <svg xmlns="http://www.w3.org/2000/svg" width="234" height="60" viewBox="0 0 234 60" fill="none"><path d="M73.3013 48.3892C74.8916 48.3892 76.3265 48.1123 77.6084 47.5564C78.8891 47.002 79.9712 46.2475 80.8556 45.2926C81.7385 44.3382 82.4229 43.185 82.9096 41.8303C83.3954 40.4763 83.6386 39.0001 83.6386 37.402C83.6386 35.8039 83.3954 34.3286 82.9096 32.9739C82.4229 31.6202 81.7385 30.4666 80.8556 29.5111C79.9712 28.557 78.8891 27.8031 77.6084 27.2476C76.3265 26.6929 74.8916 26.4151 73.3013 26.4151C71.7109 26.4151 70.2751 26.6929 68.9938 27.2476C67.712 27.8031 66.6302 28.5573 65.7472 29.5111C64.8625 30.4666 64.1782 31.6202 63.6927 32.9739C63.2063 34.3283 62.964 35.8036 62.964 37.402C62.964 39.0001 63.2063 40.4763 63.6927 41.8303C64.1782 43.185 64.8625 44.3382 65.7472 45.2926C66.6302 46.2475 67.712 47.002 68.9938 47.5564C70.2751 48.1123 71.7109 48.3892 73.3013 48.3892ZM59.9821 6C61.6288 6 62.964 7.34108 62.964 8.99637V26.1488H63.0964C64.1566 24.5067 65.6808 23.2084 67.6688 22.2531C69.6566 21.2991 71.7768 20.8214 74.03 20.8214C76.4589 20.8214 78.6573 21.244 80.6232 22.087C82.5888 22.9306 84.2678 24.0956 85.6593 25.5823C87.0511 27.0706 88.1215 28.8237 88.8736 30.8431C89.6244 32.8638 90 35.0494 90 37.402C90 39.7552 89.6244 41.9303 88.8736 43.9277C88.1215 45.9252 87.0511 47.6792 85.6593 49.1882C84.2678 50.6979 82.5888 51.8746 80.6232 52.7173C78.6573 53.56 76.4589 53.9822 74.03 53.9822C71.9098 53.9822 69.8438 53.5164 67.8342 52.5843C65.8239 51.6519 64.2446 50.343 63.0964 48.6555H62.964V51.0033C62.964 52.6583 61.6288 54 59.9821 54C58.3352 54 57 52.6583 57 51.0033V8.99637C57 7.34108 58.3352 6 59.9821 6Z" fill="url(#paint0_linear_711_54)"></path><path d="M111.971 28.1353C110.887 28.9404 109.378 28.9691 108.296 28.1611C107.953 27.9052 107.593 27.6713 107.218 27.4609C106.158 26.8648 104.863 26.5665 103.331 26.5665C101.888 26.5665 100.637 26.8645 99.5787 27.4609C98.519 28.0575 97.9901 28.9302 97.9901 30.0785C97.9901 31.0064 98.2945 31.7581 98.9028 32.3313C99.5112 32.9058 100.231 33.37 101.066 33.7231C101.9 34.0774 102.79 34.3422 103.737 34.5183C104.683 34.695 105.494 34.8496 106.17 34.9819C107.477 35.2916 108.706 35.6678 109.855 36.1084C111.004 36.5507 111.995 37.1255 112.829 37.8314C113.663 38.5385 114.317 39.4002 114.79 40.4158C115.263 41.4326 115.5 42.6687 115.5 44.1266C115.5 45.894 115.117 47.4068 114.351 48.6659C113.584 49.9247 112.593 50.9523 111.376 51.7471C110.159 52.5423 108.773 53.1171 107.218 53.4702C105.678 53.8215 104.101 53.9993 102.52 54C99.8598 54 97.5275 53.6026 95.5224 52.8071C94.5046 52.4037 93.5421 51.8295 92.6342 51.0849C91.1428 49.8612 91.1905 47.5925 92.692 46.3801C93.807 45.4798 95.4182 45.4247 96.5638 46.2878C97.0451 46.6503 97.5435 46.9905 98.0573 47.3073C99.2744 48.0591 100.762 48.4341 102.52 48.4341C103.285 48.4341 104.063 48.3574 104.852 48.2019C105.64 48.048 106.34 47.8042 106.948 47.4733C107.556 47.142 108.052 46.7224 108.435 46.2139C108.817 45.7065 109.01 45.1207 109.01 44.4579C109.01 43.5746 108.728 42.846 108.165 42.2712C107.601 41.6974 106.924 41.2439 106.137 40.913C105.329 40.5756 104.492 40.3094 103.635 40.1175C102.86 39.9409 102.083 39.7753 101.303 39.6206C100.047 39.3265 98.8056 38.9727 97.5843 38.5604C96.4119 38.1629 95.3757 37.6325 94.4749 36.9703C93.5723 36.3072 92.8521 35.4689 92.311 34.4521C91.7704 33.4365 91.5 32.1771 91.5 30.6748C91.5 29.0413 91.8483 27.6166 92.5478 26.4009C93.246 25.1861 94.1706 24.1807 95.3195 23.3855C96.4687 22.5907 97.7756 21.994 99.2408 21.5966C100.682 21.2019 102.172 21.0012 103.669 21C105.832 21 107.905 21.3977 109.889 22.1929C110.619 22.4838 111.311 22.8597 111.95 23.3125C113.609 24.4919 113.605 26.9229 111.971 28.1353" fill="url(#paint1_linear_711_54)"></path><path d="M140.95 34.9154C140.907 33.5905 140.707 32.376 140.351 31.2711C139.994 30.1674 139.458 29.2066 138.744 28.3887C138.029 27.5717 137.136 26.9307 136.065 26.4674C134.994 26.0032 133.743 25.7714 132.315 25.7714C130.929 25.7714 129.657 26.0478 128.502 26.5998C127.346 27.1524 126.369 27.8697 125.572 28.7532C124.773 29.6373 124.153 30.62 123.712 31.7021C123.271 32.7851 123.05 33.8555 123.05 34.9157L140.95 34.9154ZM123.05 39.6868C123.05 41.0567 123.334 42.3042 123.901 43.4309C124.469 44.5573 125.214 45.5184 126.139 46.3133C127.063 47.1085 128.134 47.7275 129.353 48.1687C130.57 48.6104 131.848 48.8345 133.135 48.8315C134.899 48.8315 136.433 48.4008 137.736 47.5392C138.476 47.0465 139.171 46.4802 139.809 45.8482C140.751 44.9197 142.181 44.8125 143.207 45.6376L143.283 45.6987C144.607 46.7634 144.701 48.8516 143.445 50.0037C140.54 52.6684 136.851 54 132.378 54C130.025 54 127.892 53.5798 125.981 52.7412C124.069 51.9026 122.452 50.7426 121.128 49.2622C119.805 47.7826 118.786 46.0383 118.071 44.0272C117.356 42.0175 117 39.842 117 37.5002C117 35.1589 117.388 32.9837 118.166 30.9728C118.943 28.9632 120.015 27.2189 121.38 25.7378C122.745 24.2583 124.374 23.0992 126.265 22.2594C128.156 21.4208 130.214 21 132.441 21C135.088 21 137.326 21.487 139.154 22.4583C140.981 23.4302 142.483 24.7006 143.66 26.2685C144.836 27.8367 145.687 29.6041 146.212 31.5697C146.735 33.5211 147 35.5389 147 37.5663V38.0255C147 38.2437 146.959 38.4597 146.88 38.6613C146.8 38.8629 146.684 39.046 146.537 39.2003C146.391 39.3546 146.216 39.477 146.025 39.5604C145.833 39.6439 145.627 39.6869 145.42 39.6868H123.05Z" fill="url(#paint2_linear_711_54)"></path><path d="M152.975 21C154.618 21 155.95 22.3448 155.95 24.0036V26.6908H156.082C156.482 25.8408 157.018 25.063 157.668 24.3885C158.325 23.7023 159.07 23.1075 159.883 22.6196C160.698 22.1306 161.581 21.7074 162.56 21.4519C163.463 21.216 164.119 21.1683 164.882 21.1466C166.625 21.0974 168.069 22.4796 167.997 24.2377L167.984 24.5762C167.917 26.2024 166.567 27.4455 164.955 27.425H164.94C162.031 27.425 159.805 28.2489 158.263 29.8947C156.72 31.5412 155.95 34.0989 155.95 37.5698V50.9967C155.95 52.6555 154.618 54 152.975 54C151.332 54 150 52.6555 150 50.9967V24.0036C150 22.3448 151.332 21 152.975 21Z" fill="url(#paint3_linear_711_54)"></path><path d="M172.856 21.273H175.497C175.87 21.273 176.234 21.3901 176.542 21.6092C176.85 21.8282 177.087 22.1389 177.223 22.5007L186.12 46.5913L193.802 24.5951C194.181 23.5392 194.861 22.6292 195.751 21.9867C196.641 21.3443 197.697 21 198.779 21H200.476C200.561 21 200.645 21.0217 200.721 21.0633C200.796 21.1048 200.861 21.165 200.909 21.2385C200.957 21.312 200.987 21.3966 200.997 21.485C201.006 21.5734 200.995 21.6629 200.964 21.7457L190.233 50.9031C189.892 51.811 189.296 52.5913 188.525 53.1433C187.753 53.6953 186.84 53.9937 185.904 53.9999C184.968 54.0061 184.052 53.7199 183.273 53.1781C182.495 52.6364 181.89 51.864 181.537 50.9607L171.139 23.9324C170.642 22.6624 171.539 21.273 172.856 21.273" fill="url(#paint4_linear_711_54)"></path><path d="M219.328 38.0968C217.926 38.0968 216.493 38.1743 215.026 38.3286C213.558 38.4837 212.222 38.782 211.018 39.2229C209.813 39.6649 208.828 40.2834 208.062 41.0783C207.296 41.8738 206.913 42.8903 206.913 44.1266C206.913 45.9389 207.514 47.2411 208.719 48.0363C209.923 48.8315 211.554 49.2292 213.613 49.2292C215.233 49.2292 216.612 48.9534 217.752 48.4008C218.89 47.8491 219.81 47.1312 220.511 46.2471C221.205 45.3761 221.719 44.3734 222.022 43.2985C222.328 42.2164 222.482 41.1445 222.482 40.0846V38.0968H219.328V38.0968ZM204.403 27.4803C203.41 26.4413 203.592 24.7405 204.79 23.9525C205.908 23.2178 207.119 22.6203 208.423 22.16C210.613 21.3876 212.802 21 214.993 21C217.27 21 219.23 21.2881 220.872 21.8617C222.514 22.4361 223.862 23.2094 224.913 24.1807C225.964 25.1529 226.741 26.2682 227.245 27.5273C227.747 28.78 228.003 30.1189 228 31.47V51.4003C227.993 52.0897 227.716 52.7483 227.23 53.2332C226.744 53.718 226.089 53.99 225.405 53.99C224.722 53.99 224.066 53.718 223.58 53.2332C223.094 52.7483 222.817 52.0897 222.81 51.4003V48.4341H222.679C221.365 50.4665 219.81 51.9026 218.015 52.7412C216.218 53.5798 214.139 54 211.774 54C210.329 54 208.949 53.8014 207.635 53.4037C206.321 53.006 205.171 52.4099 204.187 51.6145C203.201 50.8193 202.423 49.8366 201.854 48.6659C201.284 47.496 201 46.1375 201 44.5906C201 42.559 201.448 40.8579 202.347 39.4882C203.244 38.1195 204.471 37.0033 206.026 36.1419C207.58 35.2802 209.397 34.6624 211.478 34.2862C213.558 33.9115 215.781 33.7231 218.146 33.7231H222.482V32.3978C222.482 31.6033 222.328 30.8075 222.022 30.0126C221.715 29.2174 221.255 28.5001 220.642 27.8589C220.028 27.2192 219.263 26.7106 218.343 26.3347C217.423 25.9598 216.328 25.7717 215.058 25.7717C213.919 25.7717 212.923 25.8825 212.069 26.1029C211.215 26.3245 210.437 26.6001 209.737 26.931C209.036 27.2623 208.401 27.6498 207.832 28.0907L207.815 28.1042C207.37 28.4492 206.815 28.6167 206.256 28.5749C205.696 28.533 205.171 28.2846 204.782 27.8772L204.403 27.4806" fill="url(#paint5_linear_711_54)"></path><path d="M42.618 17.1612C41.0998 15.5271 39.2785 14.2257 37.1545 13.2582C35.0293 12.2904 32.6442 11.8062 29.9997 11.8062C27.3546 11.8062 24.9695 12.2904 22.8455 13.2582C20.7203 14.2257 18.899 15.5271 17.3823 17.1612C15.864 18.7962 14.6927 20.7207 13.8701 22.9353C13.0459 25.1514 12.6343 27.5061 12.6343 30C12.6343 32.4951 13.0456 34.8501 13.8701 37.0647C14.6927 39.2802 15.864 41.2047 17.3823 42.8388C18.899 44.4741 20.7203 45.7743 22.8455 46.7424C24.9695 47.7099 27.3546 48.1935 29.9997 48.1935C32.6442 48.1935 35.0293 47.7099 37.1545 46.7424C39.2785 45.7743 41.0998 44.4741 42.618 42.8388C44.1354 41.2047 45.3058 39.2802 46.13 37.0647C46.9532 34.8501 47.3657 32.4948 47.3657 30C47.3657 29.2206 47.3255 28.455 47.245 27.7029C47.196 27.2313 47.3372 26.7597 47.6376 26.391L51.7084 21.36C51.9812 21.0237 52.5247 21.1137 52.6666 21.522C53.5959 24.1986 54 27.1722 54 30C54 33.3984 53.4036 36.5595 52.2111 39.4839C51.0183 42.4092 49.3715 44.9466 47.2683 47.097C45.1646 49.2483 42.6392 50.9358 39.691 52.1616C36.742 53.3874 33.5122 54 29.9997 54C26.4881 54 23.2568 53.3874 20.309 52.1616C17.3596 50.9358 14.8345 49.2483 12.7314 47.097C10.6282 44.9466 8.98083 42.4092 7.78862 39.4839C6.5952 36.5595 6 33.3984 6 30C6 26.6028 6.5952 23.4414 7.78862 20.5161C8.98083 17.5917 10.6282 15.0546 12.7314 12.9033C14.8345 10.7529 17.3596 9.0645 20.309 7.839C23.2568 6.6129 26.4881 6 29.9994 6C33.5122 6 36.7417 6.6129 39.6907 7.839C42.6389 9.0645 45.1643 10.7529 47.268 12.9033C48.2231 13.8804 49.0874 14.9409 49.8505 16.0719C50.0808 16.4116 50.1903 16.8178 50.1617 17.2262C50.133 17.6346 49.9679 18.0219 49.6924 18.3267L46.4693 21.8823L32.0481 38.0436C31.5908 38.5941 30.9097 38.9094 30.179 38.9094C29.8103 38.9108 29.4461 38.8286 29.1143 38.669C28.7825 38.5094 28.4919 38.2767 28.2646 37.9887L28.2437 37.9593C28.2132 37.9125 25.1958 33.2634 23.0823 30.8283C22.2016 29.8143 21.46 29.1279 20.8062 28.5225C20.4635 28.2054 20.1396 27.9057 19.8281 27.5895L19.7997 27.5604C19.0563 26.8044 18.5748 26.3139 18.504 26.1351C19.5181 25.0584 20.8325 24.459 22.149 24.459C23.1183 24.459 24.6372 24.6807 26.1282 26.1594C27.5182 27.5385 28.5583 29.3682 29.9068 32.2527L30.0671 32.5959L42.618 17.1612Z" fill="url(#paint6_linear_711_54)"></path><defs><linearGradient id="paint0_linear_711_54" x1="73.5" y1="6" x2="73.5" y2="54" gradientUnits="userSpaceOnUse"><stop offset="0.296875" stop-color="#67D4F3"></stop><stop offset="1" stop-color="#2F8FEE"></stop></linearGradient><linearGradient id="paint1_linear_711_54" x1="103.5" y1="21" x2="103.5" y2="54" gradientUnits="userSpaceOnUse"><stop stop-color="#67D4F3"></stop><stop offset="1" stop-color="#2F8FEE"></stop></linearGradient><linearGradient id="paint2_linear_711_54" x1="132" y1="21" x2="132" y2="54" gradientUnits="userSpaceOnUse"><stop stop-color="#67D4F3"></stop><stop offset="1" stop-color="#2F8FEE"></stop></linearGradient><linearGradient id="paint3_linear_711_54" x1="159" y1="21" x2="159" y2="54" gradientUnits="userSpaceOnUse"><stop stop-color="#67D4F3"></stop><stop offset="1" stop-color="#2F8FEE"></stop></linearGradient><linearGradient id="paint4_linear_711_54" x1="186" y1="21" x2="186" y2="54" gradientUnits="userSpaceOnUse"><stop stop-color="#67D4F3"></stop><stop offset="1" stop-color="#2F8FEE"></stop></linearGradient><linearGradient id="paint5_linear_711_54" x1="214.5" y1="21" x2="214.5" y2="54" gradientUnits="userSpaceOnUse"><stop stop-color="#67D4F3"></stop><stop offset="1" stop-color="#2F8FEE"></stop></linearGradient><linearGradient id="paint6_linear_711_54" x1="30" y1="6" x2="30" y2="54" gradientUnits="userSpaceOnUse"><stop stop-color="#67D4F3"></stop><stop offset="1" stop-color="#2F8FEE"></stop></linearGradient></defs></svg> 