<svg xmlns="http://www.w3.org/2000/svg" viewBox="0 0 721.39 188.63"><g id="Layer_2" data-name="Layer 2"><g id="图层_1" data-name="图层 1"><path d="M151.68,89.88,111,18.72l10.6-6.18L162.28,83.7Zm-89.6,35.61-20-35-4.56-8,73.25-42.67,24.55,42.92Zm-39,6.71L12.56,113.79l23-13.38,10.52,18.4ZM174.07,83l-46-80.38A5.3,5.3,0,0,0,120.85.71L101.11,12.19a5.31,5.31,0,0,0-2,7.2l6.43,11.23L27.65,76a5.3,5.3,0,0,0-1.95,7.2l4.56,8L2.64,107.3A5.35,5.35,0,0,0,0,111.88v0a5.1,5.1,0,0,0,.7,2.59l15.79,27.58a5.14,5.14,0,0,0,3.21,2.48,5.35,5.35,0,0,0,4-.53l27.55-16,4.21,7.35a5.23,5.23,0,0,0,3.21,2.47,5.33,5.33,0,0,0,4-.53l77.84-45.35L145,99.77a5.19,5.19,0,0,0,3.22,2.48,5.35,5.35,0,0,0,4-.53L172,90.2A5.19,5.19,0,0,0,174.07,83Z" style="fill:#f58220;fill-rule:evenodd"/><path d="M99.66,134.17a5.33,5.33,0,0,0-4.49-2,5.27,5.27,0,0,0-4.23,2.51L62.68,180.55a5.3,5.3,0,1,0,9,5.58l24.22-39.38,30.7,39.8a5.28,5.28,0,1,0,8.37-6.43Z" style="fill:#f58220;fill-rule:evenodd"/><path d="M237.07,114.45v34.27H222.56V55.1h28.29q15.9,0,24.36,7.34t8.46,21.31q0,14.07-10.09,22.63t-25,8.07Zm0-47.2v35.11h10.4q21,0,21-18,0-17.1-20.13-17.1Z" style="fill:#231f20"/><path d="M371.76,148.72H355.81c-13.57-37.7-11.55-32.83-25.87-73.32a39.49,39.49,0,0,1-1.46-7.08h-.42a35.9,35.9,0,0,1-1.5,7c-13.63,38.86-12.67,36.43-25.34,73.45H285.28L320.57,55.1h16.14Z" style="fill:#231f20;fill-rule:evenodd"/><path d="M454.17,145q-10.4,5.26-26.17,5.26-20.31,0-32.54-12.78t-12.24-33.76q0-21.87,13.57-36t35-14.17q13.49,0,22.42,3.74V72a44,44,0,0,0-21.94-5.56q-15.28,0-24.54,10.06t-9.24,26.33q0,15.52,8.67,25.14t23.24,9.61a45,45,0,0,0,23.81-6.23Z" style="fill:#231f20"/><path d="M550.9,55.1l-33.79,93.62h-16.2L467.67,55.1h15.89l23.7,71a42.32,42.32,0,0,1,1.87,8.71h.3a39.62,39.62,0,0,1,2.12-8.83l24-70.89Z" style="fill:#231f20"/><path d="M641,109.92q0,40.37-36.93,40.37-35.42,0-35.42-39V55.1H583.2v55.78q0,26.66,22,26.66,21.33,0,21.34-25.75V55.1H641Z" style="fill:#231f20"/><path d="M721.39,148.72H669.53V55.1h49.74V67.55H684V95.11h32.69V107.5H684v28.77h37.35Z" style="fill:#231f20"/></g></g></svg>