<?xml version="1.0" encoding="UTF-8"?> <!-- Generator: Adobe Illustrator 22.1.0, SVG Export Plug-In . SVG Version: 6.00 Build 0) --> <svg xmlns="http://www.w3.org/2000/svg" xmlns:xlink="http://www.w3.org/1999/xlink" version="1.1" id="Layer_1" x="0px" y="0px" viewBox="0 0 500 160" style="enable-background:new 0 0 500 160;" xml:space="preserve"> <style type="text/css"> .st0{fill:#1B1D2E;} </style> <g> <path class="st0" d="M31.8,158.6c-7.1-1.9-12.8-5.4-19.1-11.6c-9.4-9.4-13.5-20.5-12.5-34.6C0.7,103,3.2,96.2,8.7,89 C14,82.2,21,77,29,73.9c4.6-1.8,6.6-1.9,23.3-2.3l18.2-0.3V0h24c26.5,0,32.2,0.8,41.2,5.2c7,3.3,15.9,12.3,19.3,19.3 c8.7,17.1,5.5,37.9-8,51.6c-10.5,10.7-19.1,13.4-41.7,13.4H89.7V160l-26.4-0.1C42.7,160.1,35.4,159.5,31.8,158.6L31.8,158.6z M70.4,115.6V89.3l-16.1,0.3c-18.5,0.3-21.1,1-28,7.5c-14,12.8-8.8,37,9.2,43.2c3.6,1.3,7.3,1.5,19.7,1.6h15.2L70.4,115.6 L70.4,115.6z M127.3,67.9c2.7-1.7,5.2-3.9,7.3-6.3c11.6-13.1,6.3-34.7-9.7-40.8c-4.2-1.5-6.6-1.8-20.4-1.8H88.8v51.7l17.2-0.2 C123.1,70.2,123.4,70.2,127.3,67.9L127.3,67.9z"></path> <path class="st0" d="M191.8,55.1h17.6v5.6c2-2,4.2-3.7,6.7-5c2.8-1.3,5.8-2,8.9-1.9c3.4,0,6.8,0.6,9.9,1.9c3,1.2,5.7,3.1,7.8,5.6 c2.3,2.7,4.1,5.8,5.2,9.1c1.3,4.1,2,8.3,1.9,12.6c0,4-0.6,8-1.8,11.8c-1.1,3.4-2.9,6.5-5.2,9.2c-2.2,2.5-4.9,4.5-7.9,5.9 c-3.1,1.4-6.6,2.2-10,2.1c-5.7,0.2-11.2-1.9-15.4-5.7v28.5h-17.6V55.1z M220.6,97.7c3.5,0.2,6.9-1.4,9-4.3 c2.2-3.1,3.3-6.8,3.2-10.6c0.2-3.8-1-7.5-3.3-10.5c-2.2-2.7-5.6-4.3-9.1-4.1c-3.5-0.2-6.9,1.4-9,4.2c-2.2,3-3.3,6.7-3.2,10.4 c0,4.8,1.2,8.5,3.5,11C214,96.4,217.3,97.8,220.6,97.7L220.6,97.7z"></path> <path class="st0" d="M273.3,87.5c0.8,3.2,2.8,6,5.4,7.9c2.9,2,6.4,3,9.9,2.9c3.2,0.1,6.3-0.4,9.3-1.5c2.3-1,4.5-2.1,6.7-3.4 l5.9,11.4c-1.3,0.9-2.7,1.8-4.1,2.6c-1.7,0.9-3.4,1.8-5.2,2.4c-2.1,0.8-4.2,1.4-6.3,1.8c-2.5,0.5-5,0.7-7.6,0.7 c-4.3,0.1-8.5-0.7-12.5-2.3c-3.6-1.4-6.8-3.5-9.5-6.2c-2.7-2.7-4.7-5.9-6-9.5c-1.4-3.8-2.1-7.9-2.1-12c0-3.8,0.6-7.6,1.9-11.2 c1.2-3.4,3.1-6.6,5.5-9.3c2.5-2.7,5.4-4.8,8.8-6.3c3.7-1.6,7.8-2.4,11.8-2.3c4.1-0.1,8.2,0.8,11.9,2.5c3.2,1.6,6,3.9,8.2,6.6 c2.2,2.8,3.8,5.9,4.7,9.3c1,3.5,1.6,7.1,1.5,10.7c0,0.6,0,1.4-0.1,2.4c0,1.1-0.1,1.9-0.2,2.6L273.3,87.5z M285.1,65.9 c-2.8-0.1-5.5,0.9-7.5,2.9c-2.1,2.1-3.6,4.8-4.2,7.7h22.8c-0.3-2.8-1.4-5.4-3.2-7.5C291.2,66.9,288.6,65.9,285.1,65.9z"></path> <path class="st0" d="M335.3,87.5c0.8,3.2,2.8,6,5.4,7.9c2.9,2,6.4,3,9.9,2.9c3.2,0.1,6.3-0.4,9.3-1.5c2.3-1,4.5-2.1,6.6-3.4 l5.9,11.4c-1.3,0.9-2.7,1.8-4.1,2.6c-1.7,0.9-3.4,1.8-5.2,2.4c-2.1,0.8-4.2,1.4-6.3,1.8c-2.5,0.5-5,0.7-7.6,0.7 c-4.3,0.1-8.5-0.7-12.5-2.3c-3.6-1.4-6.8-3.5-9.5-6.2c-2.7-2.7-4.7-5.9-6-9.5c-1.4-3.8-2.1-7.9-2.1-12c0-3.8,0.6-7.6,1.9-11.2 c1.2-3.4,3.1-6.6,5.5-9.3c2.5-2.7,5.4-4.8,8.8-6.3c3.7-1.6,7.8-2.4,11.8-2.3c4.1-0.1,8.2,0.8,11.9,2.5c3.2,1.6,6,3.8,8.2,6.6 c2.2,2.8,3.8,5.9,4.8,9.3c1,3.5,1.5,7.1,1.5,10.7c0,0.6,0,1.4-0.1,2.4c0,1.1-0.1,1.9-0.2,2.6L335.3,87.5z M347,65.9 c-2.8-0.1-5.5,0.9-7.5,2.9c-2.1,2.1-3.6,4.8-4.2,7.7H358c-0.3-2.8-1.4-5.4-3.2-7.5C353.1,66.9,350.5,65.9,347,65.9z"></path> <path class="st0" d="M402.2,85.2v25.4h-17.6V25.2h17.6V77l16-22h20.2l-20.3,25l24.8,30.6h-20.5L402.2,85.2z"></path> <path class="st0" d="M482.4,105.3c-2,2-4.2,3.6-6.7,4.9c-2.7,1.3-5.7,1.9-8.7,1.8c-3.4,0-6.8-0.6-9.9-1.9c-3-1.2-5.7-3.2-7.9-5.6 c-2.3-2.7-4.1-5.8-5.2-9.1c-1.3-4.1-2-8.3-1.9-12.6c0-4,0.6-7.9,1.9-11.7c1.1-3.4,2.9-6.5,5.2-9.1c2.2-2.5,4.9-4.5,7.9-5.9 c3.1-1.4,6.5-2.1,9.9-2.1c2.9-0.1,5.9,0.5,8.6,1.5c2.5,1,4.8,2.5,6.8,4.3V25.2H500v85.4h-17.6V105.3z M471.2,97.5 c3.5,0.2,6.9-1.4,9-4.2c2.2-3,3.4-6.7,3.2-10.4c0-4.7-1.2-8.3-3.5-10.8c-2.3-2.4-5.5-3.8-8.8-3.7c-3.5-0.2-6.9,1.3-9,4.1 c-4.2,6.3-4.2,14.6,0.1,20.9C464.3,96.1,467.6,97.6,471.2,97.5z"></path> </g> </svg> 