<svg width="197" height="39" viewBox="0 0 197 39" fill="none" xmlns="http://www.w3.org/2000/svg">
<path fill-rule="evenodd" clip-rule="evenodd" d="M51.4412 18.4875C54.9269 20.4128 59.4757 17.5245 59.4757 13.0315C59.4757 10.6683 58.1764 7.66358 53.6272 7.66358C48.3689 7.66358 45.5922 11.5728 45.5922 14.432C45.5922 15.8325 46.2717 17.1161 46.2717 17.1161L43.1401 19.4211C43.1401 19.4211 41.6926 17.233 41.6926 14.4906C41.6926 10.2895 45.0899 4.0459 53.6272 4.0459C60.8941 4.0459 63.966 8.59711 63.966 13.0028C63.966 19.0709 58.1764 24.6721 50.2299 21.4341L47.0397 29.3115H42.3427L48.9301 13.1483C49.7571 11.1353 51.8251 8.91813 54.7791 8.91813L55.6359 11.4272C55.6359 11.4272 54.129 12.0397 53.2428 14.1405L51.4412 18.4875Z" fill="#2D2D2D"/>
<path fill-rule="evenodd" clip-rule="evenodd" d="M67.6857 9.99767C67.6857 8.56807 68.838 7.45947 70.2855 7.45947C71.6737 7.45947 72.8846 8.56807 72.8846 9.99767C72.8846 11.3691 71.6737 12.5654 70.2855 12.5654C68.838 12.5654 67.6857 11.3691 67.6857 9.99767ZM74.1255 21.9893C71.8511 25.9276 68.8971 29.312 65.5002 29.312C62.8115 29.312 60.9211 27.2116 63.0776 21.9307L66.4155 13.7909H71.1126L67.4791 22.7186C66.1204 26.044 66.6517 26.4528 67.154 26.4528C68.3359 26.4528 70.3737 24.4106 72.4712 20.8221C73.0918 20.8803 73.8893 21.4346 74.1255 21.9893Z" fill="#2D2D2D"/>
<path fill-rule="evenodd" clip-rule="evenodd" d="M90.6386 21.989C88.4227 25.8691 84.8486 29.3117 79.6792 29.3117C75.9568 29.3117 74.8937 27.5033 74.8937 27.5033L76.4002 26.1315C76.4002 26.1315 76.8431 26.7444 77.3749 26.7444C78.9992 26.7444 81.8946 20.9973 81.8946 18.3418C81.8946 17.496 81.5991 17.1168 80.9789 17.1168C79.8855 17.1168 78.5862 18.2254 77.641 19.5673L71.4371 34.7091H66.7405L75.3068 13.7906H79.9743L79.4724 15.0452C79.4724 15.016 81.0378 13.4114 83.2533 13.4114C85.7054 13.4114 86.6506 15.3662 86.6506 17.4665C86.6506 21.2306 83.6668 25.8691 82.6626 27.0068C85.0553 25.9564 86.9458 24.2644 88.984 20.8218C89.6046 20.88 90.4024 21.4343 90.6386 21.989Z" fill="#2D2D2D"/>
<path fill-rule="evenodd" clip-rule="evenodd" d="M93.6766 20.9096C96.394 21.3757 97.2803 20.1507 97.8714 18.7793C98.2554 17.9044 98.4322 17.1168 97.428 17.1168C95.242 17.1168 93.6766 20.9096 93.6766 20.9096ZM105.729 21.989C103.72 25.4899 100.116 29.3117 94.4445 29.3117C90.339 29.3117 88.3594 27.3278 88.3594 24.148C88.3594 20.2675 91.3432 13.4114 97.6646 13.4114C101.003 13.4114 103.838 15.5703 101.948 19.7718C100.707 22.4265 98.3437 24.1185 92.8791 23.4186C92.8791 23.4186 92.0223 26.4525 95.7741 26.4525C98.787 26.4525 101.978 24.4977 104.075 20.8218C104.695 20.88 105.493 21.4343 105.729 21.989Z" fill="#2D2D2D"/>
<path fill-rule="evenodd" clip-rule="evenodd" d="M115.184 17.5538C117.458 17.3496 119.142 16.5034 120.353 15.4822C122.303 13.8193 123.012 11.7189 123.012 10.5808C123.012 9.85188 122.716 9.15123 121.8 9.15123C119.644 9.15123 116.897 13.2941 115.184 17.5538ZM127.914 21.9888C124.901 27.1525 120.47 30.5951 115.329 30.5951C110.869 30.5951 108.978 27.9987 108.978 24.2937C108.978 23.2429 109.126 22.047 109.392 20.7629C105.581 19.5379 103.513 16.7369 103.513 13.207C103.513 10.1727 105.168 7.72222 107.383 6.46768L109.628 9.70572C109.569 9.73483 107.531 10.581 107.531 13.2361C107.531 13.8781 107.679 16.1826 110.426 17.1453C112.612 11.0189 117.132 4.54199 122.567 4.54199C126.082 4.54199 127.766 7.22614 127.766 10.2018C127.766 12.886 126.26 16.2699 123.01 18.6626C120.972 20.1799 118.076 21.405 114.088 21.405H114C113.734 22.4553 113.616 23.4762 113.616 24.2937C113.616 25.6647 113.971 27.4731 116.452 27.4731C118.933 27.4731 123.424 25.6061 126.26 20.8216C126.909 20.8798 127.677 21.4341 127.914 21.9888Z" fill="#2D2D2D"/>
<path fill-rule="evenodd" clip-rule="evenodd" d="M133.788 23.5064L135.708 18.8383C135.708 18.8383 135.679 17.2046 134.379 17.2046C132.045 17.2046 129.859 22.6602 129.859 24.5277C129.859 25.2861 130.214 25.6067 130.805 25.6067C132.43 25.6067 133.788 23.5064 133.788 23.5064ZM145.487 21.989C143.183 25.9568 140.317 29.3117 136.714 29.3117C133.642 29.3117 133.258 26.8904 133.258 26.8904C133.258 26.8904 131.219 29.3117 128.62 29.3117C126.404 29.3117 125.282 27.591 125.282 25.4899C125.282 22.3683 127.793 13.4114 133.435 13.4114C136.3 13.4114 136.95 15.7745 136.95 15.7745L137.777 13.7906H142.474L138.811 22.7184C137.482 26.015 137.984 26.4525 138.516 26.4525C139.698 26.4525 141.706 24.4104 143.833 20.8218C144.453 20.88 145.251 21.4343 145.487 21.989Z" fill="#2D2D2D"/>
<path fill-rule="evenodd" clip-rule="evenodd" d="M162.767 21.989C160.403 26.0438 157.567 29.3117 154.023 29.3117C150.95 29.3117 149.68 26.9777 151.777 21.8136L152.221 20.7341C152.782 19.334 153.255 18.2254 153.255 17.7875C153.255 17.3796 152.9 17.1459 152.457 17.1459C151.748 17.1459 150.389 17.817 149.148 19.2171L145.16 28.9325H140.464L146.667 13.7906H151.364L150.744 15.3367C150.891 15.1911 153.077 13.4114 155.589 13.4114C157.45 13.4114 158.425 14.4031 158.425 15.9496C158.425 16.7376 158.158 17.7293 157.538 19.2466L156.09 22.7184C154.731 26.0737 155.293 26.4525 155.795 26.4525C156.977 26.4525 159.015 24.4104 161.112 20.8218C161.733 20.88 162.53 21.4343 162.767 21.989Z" fill="#2D2D2D"/>
<path fill-rule="evenodd" clip-rule="evenodd" d="M168.614 23.5054L170.534 18.8374C170.534 18.8374 170.504 17.2036 169.204 17.2036C166.871 17.2036 164.685 22.6592 164.685 24.5267C164.685 25.2852 165.039 25.6058 165.63 25.6058C167.284 25.6058 168.614 23.5054 168.614 23.5054ZM180.31 21.9885C178.006 25.9563 175.141 29.3112 171.567 29.3112C168.465 29.3112 168.081 26.8898 168.081 26.8898C168.081 26.8898 166.043 29.3112 163.414 29.3112C161.198 29.3112 160.076 27.5315 160.076 25.5184C160.076 22.2804 162.882 13.4108 168.288 13.4108C171.094 13.4108 171.774 15.774 171.774 15.774L174.964 8.01343H179.661L173.635 22.7178C172.276 26.0432 172.837 26.452 173.339 26.452C174.521 26.452 176.529 24.4098 178.656 20.8213C179.277 20.8795 180.074 21.4338 180.31 21.9885Z" fill="#2D2D2D"/>
<path fill-rule="evenodd" clip-rule="evenodd" d="M179.512 35.3221C180.162 35.3221 181.166 34.5928 182.141 31.996C181.255 32.4043 180.634 32.6376 179.837 33.105C179.157 33.5129 178.714 34.0385 178.714 34.5346C178.714 34.972 179.009 35.3221 179.512 35.3221ZM197 21.9887C193.957 27.2402 190.796 29.0785 187.34 30.6828C187.34 30.6828 186.897 31.7623 186.661 32.3461C185.45 35.2344 183.677 38.1518 180.133 38.1518C177.622 38.1518 176.47 36.6058 176.499 34.9425C176.529 32.8709 178.33 31.4999 179.837 30.8291C180.93 30.3035 182.585 29.6328 183.235 29.2823L183.973 27.503C183.973 27.503 182.614 29.3118 180.399 29.3118C178.036 29.3118 175.968 27.2984 178.154 21.9301L181.491 13.7903H186.189L182.555 22.7181C181.344 25.6355 181.757 26.0438 182.349 26.0438C183.5 26.0438 184.653 24.4687 186.425 21.4639L189.585 13.7903H194.282L188.492 27.8236C191.27 26.4231 193.249 24.4392 195.346 20.8219C195.966 20.8797 196.764 21.434 197 21.9887Z" fill="#2D2D2D"/>
<mask id="mask0" mask-type="alpha" maskUnits="userSpaceOnUse" x="0" y="0" width="35" height="20">
<path fill-rule="evenodd" clip-rule="evenodd" d="M13.2641 19.8965L0.349749 2.76103C-0.509698 1.62125 0.312933 0 1.74998 0H17.3178H32.9057C34.3476 0 35.1686 1.63056 34.3002 2.76912L21.2344 19.8965H13.2641Z" fill="white"/>
</mask>
<g mask="url(#mask0)">
<path fill-rule="evenodd" clip-rule="evenodd" d="M47.8344 2.09994L-15.3298 19.8969L-19.5874 5.11263L43.5765 -12.6843L47.8344 2.09994Z" fill="#EF215F"/>
</g>
<mask id="mask1" mask-type="alpha" maskUnits="userSpaceOnUse" x="0" y="0" width="35" height="28">
<path fill-rule="evenodd" clip-rule="evenodd" d="M14.0657 27.2888V22.1076C14.0657 21.3627 13.8223 20.6373 13.3724 20.0401L0.349749 2.76103C-0.509698 1.62125 0.312933 0 1.74998 0H17.3178H32.9057C34.3476 0 35.1686 1.63056 34.3002 2.76912L21.1246 20.0405C20.6693 20.6373 20.4226 21.3644 20.4226 22.1121V27.2888H14.0657Z" fill="white"/>
</mask>
<g mask="url(#mask1)">
<path fill-rule="evenodd" clip-rule="evenodd" d="M49.9645 9.49179L-13.1998 27.2892L-17.4578 12.5049L45.7065 -5.29248L49.9645 9.49179Z" fill="#FF826B"/>
</g>
<mask id="mask2" mask-type="alpha" maskUnits="userSpaceOnUse" x="0" y="2" width="35" height="33">
<path fill-rule="evenodd" clip-rule="evenodd" d="M0.0412598 2.09961C0.0923862 2.32771 0.193365 2.55258 0.350751 2.7613L13.3734 20.0404C13.8233 20.6376 14.0667 21.363 14.0667 22.1079V34.6808H17.3662L20.4236 33.7771V22.1123C20.4236 21.3646 20.6703 20.6376 21.1256 20.0408L34.3012 2.76939C34.462 2.55851 34.5649 2.33076 34.6166 2.09961L0.0412598 2.09961L0.0412598 2.09961Z" fill="white"/>
</mask>
<g mask="url(#mask2)">
<path fill-rule="evenodd" clip-rule="evenodd" d="M52.0943 16.8839L-11.0699 34.6808L-15.3279 19.8966L47.8364 2.09961L52.0943 16.8839Z" fill="#FFC66B"/>
</g>
<mask id="mask3" mask-type="alpha" maskUnits="userSpaceOnUse" x="5" y="9" width="25" height="27">
<path fill-rule="evenodd" clip-rule="evenodd" d="M5.42261 9.49146L13.3729 20.0403C13.8228 20.6375 14.0662 21.3629 14.0662 22.1078V35.656L20.4231 33.777V22.1123C20.4231 21.3646 20.6698 20.6375 21.1251 20.0407L29.1726 9.49146H5.42261H5.42261Z" fill="white"/>
</mask>
<g mask="url(#mask3)">
<path fill-rule="evenodd" clip-rule="evenodd" d="M54.225 24.2764L-8.93881 42.0733L-13.1968 27.2891L49.9671 9.4917L54.225 24.2764Z" fill="#31AB86"/>
</g>
<mask id="mask4" mask-type="alpha" maskUnits="userSpaceOnUse" x="10" y="16" width="14" height="20">
<path fill-rule="evenodd" clip-rule="evenodd" d="M10.9924 16.8838L13.3715 20.0405C13.8215 20.6377 14.0649 21.3631 14.0649 22.108V35.6562L20.4218 33.7772V22.1125C20.4218 21.3648 20.6684 20.6377 21.1237 20.0409L23.5321 16.8838L10.9924 16.8838H10.9924Z" fill="white"/>
</mask>
<g mask="url(#mask4)">
<path fill-rule="evenodd" clip-rule="evenodd" d="M54.2198 24.2763L-8.94405 42.0733L-11.0732 34.6812L52.091 16.8838L54.2198 24.2763Z" fill="#086254"/>
</g>
</svg>
