<svg xmlns="http://www.w3.org/2000/svg" width="151" height="38" viewBox="0 0 151 38"><g><g><g><path fill="#e94f39" d="M.291 38.017V.02h37.997v37.997z"/></g><g><path fill="#e94f39" d="M64.755 13.076v-1.91h2.118v1.91z"/></g><g opacity=".65"><path fill="#fff" d="M16.812 31.735V12.392h4.96v19.343z"/></g><g><path fill="#fff" d="M9.74 31.734V19.798h4.96v11.936z"/></g><g opacity=".65"><path fill="#fff" d="M23.885 31.734V6.302h4.96v25.432z"/></g><g><path fill="#1d1d1b" d="M48.668 13.506h2.346a2.498 2.498 0 0 1 1.804.577 2.467 2.467 0 0 1 0 3.223c-.502.421-1.15.629-1.804.577h-2.346zm5.73-.568a4.844 4.844 0 0 0-3.379-1.084h-4.468v12.93h2.117V19.54h2.346c1.55 0 2.7-.38 3.45-1.13a3.744 3.744 0 0 0 1.125-2.751 3.547 3.547 0 0 0-1.19-2.72z"/></g><g><path fill="#1d1d1b" d="M59.724 14.53v1.787a3.243 3.243 0 0 1 3.09-1.93v2.199h-.557a2.574 2.574 0 0 0-1.89.633c-.425.42-.643 1.15-.643 2.194v5.396h-2.118v-10.28z"/></g><g><path fill="#1d1d1b" d="M64.765 24.783V14.53h2.123v10.254z"/></g><g><path fill="#1d1d1b" d="M70.364 23.507a5.963 5.963 0 0 1 0-7.686 4.808 4.808 0 0 1 3.618-1.454 5.122 5.122 0 0 1 3.08.887 4.347 4.347 0 0 1 1.647 2.533h-2.265a2.33 2.33 0 0 0-2.437-1.616 2.584 2.584 0 0 0-2.077.922 4.712 4.712 0 0 0 0 5.162 2.558 2.558 0 0 0 2.077.933c1.09.09 2.1-.581 2.437-1.622h2.29a4.6 4.6 0 0 1-1.677 2.488 4.934 4.934 0 0 1-3.04.917 4.798 4.798 0 0 1-3.653-1.464z"/></g><g><path fill="#1d1d1b" d="M87.19 16.92c.554.521.86 1.252.842 2.012h-5.695a3.04 3.04 0 0 1 .902-2.027 2.736 2.736 0 0 1 1.96-.755 2.827 2.827 0 0 1 1.992.755zm-2.026 8.03a4.99 4.99 0 0 0 3.025-.901 4.616 4.616 0 0 0 1.692-2.316h-2.29a2.493 2.493 0 0 1-2.427 1.414 2.761 2.761 0 0 1-1.98-.755 2.933 2.933 0 0 1-.867-2.027h7.853c.052-.335.078-.674.076-1.013a5.02 5.02 0 0 0-8.694-3.546 5.254 5.254 0 0 0-1.414 3.84 5.325 5.325 0 0 0 1.399 3.855 4.798 4.798 0 0 0 3.627 1.45z"/></g><g><path fill="#1d1d1b" d="M96.352 13.415a2.361 2.361 0 0 0-1.52.506c-.411.347-.633.867-.598 1.404a1.59 1.59 0 0 0 .71 1.403c.52.344 1.1.585 1.712.71.668.146 1.337.318 2.026.506a3.587 3.587 0 0 1 1.712 1.069c.507.622.76 1.413.71 2.214a3.445 3.445 0 0 1-1.211 2.568 4.56 4.56 0 0 1-3.237 1.135 5.335 5.335 0 0 1-3.294-.947 3.095 3.095 0 0 1-1.266-2.624h2.27c.03.516.256 1.002.633 1.357a2.376 2.376 0 0 0 1.636.507 2.467 2.467 0 0 0 1.703-.557c.739-.647.845-1.758.243-2.533a2.346 2.346 0 0 0-.983-.644c-.437-.15-.882-.277-1.333-.38a19.24 19.24 0 0 1-1.459-.39 6.31 6.31 0 0 1-1.342-.578 2.664 2.664 0 0 1-1.013-1.013 3.719 3.719 0 0 1 .84-4.392 4.712 4.712 0 0 1 3.162-1.013 4.975 4.975 0 0 1 3.11.896 3.405 3.405 0 0 1 1.292 2.584H98.51a1.864 1.864 0 0 0-.634-1.246 2.158 2.158 0 0 0-1.524-.542z"/></g><g><path fill="#1d1d1b" d="M105.69 11.013v5.137a3.506 3.506 0 0 1 3.278-1.788 3.82 3.82 0 0 1 2.857 1.155 4.418 4.418 0 0 1 1.125 3.217v6.05h-2.103v-5.73a2.974 2.974 0 0 0-.689-2.113 2.447 2.447 0 0 0-1.88-.735 2.477 2.477 0 0 0-1.889.714c-.5.587-.75 1.345-.7 2.113v5.73h-2.117v-13.75z"/></g><g><path fill="#1d1d1b" d="M122.42 22.109a2.989 2.989 0 0 1-4.372 0 3.511 3.511 0 0 1-.922-2.533 3.334 3.334 0 0 1 .922-2.493 2.999 2.999 0 0 1 2.183-.912 2.964 2.964 0 0 1 2.189.932c.643.682.976 1.598.922 2.533a3.445 3.445 0 0 1-.922 2.534zm-6.08 1.347a4.509 4.509 0 0 0 3.44 1.5 3.926 3.926 0 0 0 2.123-.567 4.053 4.053 0 0 0 1.434-1.52v1.915h2.138V14.53h-2.138v1.824a3.876 3.876 0 0 0-1.424-1.44 4.053 4.053 0 0 0-2.133-.552 4.56 4.56 0 0 0-3.45 1.465 5.274 5.274 0 0 0-1.388 3.794 5.4 5.4 0 0 0 1.398 3.835z"/></g><g><path fill="#1d1d1b" d="M135.696 22.24a3.004 3.004 0 0 1-4.382 0 3.445 3.445 0 0 1-.922-2.533 3.404 3.404 0 0 1 .922-2.533 2.964 2.964 0 0 1 2.193-.932 3.04 3.04 0 0 1 2.2.912c.635.669.967 1.57.916 2.492a3.516 3.516 0 0 1-.927 2.533zm-1.733-7.853a4.053 4.053 0 0 0-2.127.527 3.972 3.972 0 0 0-1.444 1.44v-1.825h-2.123v15.179h2.123v-6.794a4.16 4.16 0 0 0 1.449 1.52c.639.387 1.375.584 2.122.567a4.499 4.499 0 0 0 3.435-1.52 5.436 5.436 0 0 0 1.388-3.835 5.31 5.31 0 0 0-1.378-3.794 4.56 4.56 0 0 0-3.445-1.465z"/></g><g><path fill="#1d1d1b" d="M147.232 16.92a2.65 2.65 0 0 1 .836 2.012h-5.695a3.04 3.04 0 0 1 .907-2.027 2.736 2.736 0 0 1 1.96-.754 2.842 2.842 0 0 1 1.992.754zm-2.026 8.03a4.99 4.99 0 0 0 3.014-.88 4.641 4.641 0 0 0 1.692-2.316h-2.27a2.493 2.493 0 0 1-2.437 1.434 2.761 2.761 0 0 1-1.98-.755 2.908 2.908 0 0 1-.867-2.027h7.853a6.28 6.28 0 0 0 .076-1.013 4.869 4.869 0 0 0-1.398-3.617 4.95 4.95 0 0 0-3.638-1.388 4.894 4.894 0 0 0-3.658 1.418 5.254 5.254 0 0 0-1.413 3.84 5.345 5.345 0 0 0 1.393 3.856 4.818 4.818 0 0 0 3.633 1.449z"/></g></g></g></svg>