<?xml version="1.0" encoding="utf-8"?>
<!-- Generator: Adobe Illustrator 25.2.1, SVG Export Plug-In . SVG Version: 6.00 Build 0)  -->
<svg version="1.1" id="Layer_1" xmlns="http://www.w3.org/2000/svg" xmlns:xlink="http://www.w3.org/1999/xlink" x="0px" y="0px"
	 viewBox="0 0 120 40" enable-background="new 0 0 120 40" xml:space="preserve">
<g>
	<g>
		<path opacity="0.2" fill="#3E2258" d="M29.023,32.08L29.023,32.08l-10.91-3.834c-0.374-0.141-0.8-0.18-1.108-0.18
			c-0.307,0.001-0.712,0.038-1.096,0.18l-10.92,3.833v0c-0.492,0.139-0.481,0.85,0,1.024v0v0l10.92,3.833
			c0.384,0.141,0.789,0.179,1.096,0.18c0.309,0.001,0.734-0.039,1.108-0.18l10.91-3.834l0,0
			C29.505,32.927,29.517,32.215,29.023,32.08z"/>
		<linearGradient id="SVGID_1_" gradientUnits="userSpaceOnUse" x1="5.6556" y1="6.0863" x2="28.4122" y2="28.843">
			<stop  offset="0" style="stop-color:#533A6A"/>
			<stop  offset="0.3441" style="stop-color:#553C6D"/>
			<stop  offset="0.5511" style="stop-color:#5B4375"/>
			<stop  offset="0.7217" style="stop-color:#664F84"/>
			<stop  offset="0.8717" style="stop-color:#766098"/>
			<stop  offset="1" style="stop-color:#8875B0"/>
		</linearGradient>
		<path fill="url(#SVGID_1_)" d="M29.513,9.001l-10.958,3.796c-0.55,0.19-0.921,0.728-0.92,1.333l0.018,15.93
			c0.001,0.996,0.967,1.673,1.85,1.297l10.94-4.637c0.58-0.299,0.834-0.947,0.836-1.515l0-14.868
			C31.281,9.378,30.384,8.699,29.513,9.001z M2.735,10.336l0,14.868c0.002,0.569,0.255,1.216,0.836,1.515l10.94,4.637
			c0.883,0.376,1.849-0.302,1.85-1.297l0.018-15.93c0.001-0.605-0.37-1.142-0.92-1.333L4.5,9.001
			C3.629,8.699,2.732,9.378,2.735,10.336z M29.048,7.783L29.048,7.783l-10.883,3.824c-0.374,0.14-0.798,0.18-1.106,0.179
			c-0.306-0.001-0.71-0.038-1.093-0.179L5.073,7.784v0v0c-0.48-0.174-0.491-0.883,0-1.022v0l10.893-3.824
			c0.383-0.141,0.787-0.179,1.093-0.179c0.308-0.001,0.732,0.039,1.106,0.179l10.883,3.824l0,0
			C29.541,6.897,29.529,7.608,29.048,7.783z"/>
	</g>
	<g>
		<path fill="#363F49" d="M42.755,9.894c0-0.737,0.597-1.334,1.334-1.334h5.828c5.301,0,8.355,2.493,8.355,6.881
			c0,4.529-2.949,6.987-8.637,6.987h-4.494v7.899c0,0.597-0.351,1.088-1.053,1.088h-0.316c-0.667,0-1.018-0.351-1.018-1.088V9.894z
			 M49.847,20.321c3.967,0,5.968-1.685,5.968-4.81c0-3.16-2.001-4.81-5.863-4.81h-4.81v9.62H49.847z"/>
		<path fill="#363F49" d="M61.478,8.778c0-0.07,0.351-0.246,0.772-0.246c0.773,0,1.51,0.386,1.51,2.212v19.583
			c0,0.843-0.421,1.088-1.018,1.088h-0.246c-0.597,0-1.018-0.246-1.018-1.088V8.778z"/>
		<path fill="#363F49" d="M72.536,28.605l-6.063-13.644c-0.035-0.141,0.316-0.667,1.123-0.667c0.808,0,1.229,0.351,1.72,1.58
			l5.255,12.275l4.496-12.205c0.421-1.229,0.948-1.65,1.685-1.65c0.632,0,1.194,0.492,1.159,0.597L73.94,35.732
			c-0.456,1.229-1.018,1.51-1.615,1.51c-0.632,0-1.229-0.492-1.194-0.597l2.284-6.118L72.536,28.605z"/>
		<path fill="#363F49" d="M86.434,16.33h-1.545c-0.842,0-1.088-0.316-1.088-0.913v-0.211c0-0.597,0.246-0.913,1.088-0.913h1.545
			V11.38c0-0.843,0.421-1.088,1.018-1.088h0.246c0.597,0,0.983,0.246,0.983,1.088v2.914h4.459c0.843,0,1.088,0.316,1.088,0.913
			v0.211c0,0.597-0.246,0.913-1.088,0.913h-4.459v9.514c0,2.458,0.632,3.616,2.493,3.616c1.159,0,2.001-0.492,2.598-1.229
			c0.07-0.07,0.772,0.246,0.772,1.123c0,0.948-1.229,2.071-3.44,2.071c-3.265,0-4.669-1.861-4.669-5.336V16.33z"/>
		<path fill="#363F49" d="M96.99,10.042c0-1.018,0.527-1.509,1.545-1.509c0.983,0,1.475,0.492,1.475,1.509
			c0,1.018-0.527,1.51-1.545,1.51C97.517,11.551,96.99,11.025,96.99,10.042z M97.359,15.511c0-0.843,0.421-1.088,1.018-1.088h0.246
			c0.597,0,1.018,0.246,1.018,1.088v14.816c0,0.843-0.421,1.088-1.018,1.088h-0.246c-0.597,0-1.018-0.246-1.018-1.088V15.511z"/>
		<path fill="#363F49" d="M108.585,22.954l-5.828-7.548c-0.07-0.106,0.246-0.983,1.159-0.983c0.807,0,1.194,0.456,1.72,1.159
			l4.424,5.968l4.318-5.933c0.632-0.878,1.194-1.194,1.685-1.194c0.913,0,1.264,0.913,1.194,0.983l-5.898,7.548l5.793,7.478
			c0.07,0.106-0.246,0.983-1.158,0.983c-0.807,0-1.194-0.456-1.721-1.159l-4.424-5.933l-4.283,5.898
			c-0.562,0.772-1.053,1.194-1.721,1.194c-0.913,0-1.264-0.913-1.194-0.983L108.585,22.954z"/>
	</g>
</g>
</svg>
