<svg id="Layer_1" data-name="Layer 1" xmlns="http://www.w3.org/2000/svg" viewBox="0 0 76.17 13.83"><defs><style>.cls-1{fill:#979797;}.cls-2{fill:#ec2024;}.cls-3{fill:#005c9b;}.cls-4{fill:#72c7f0;}.cls-5{fill:#f7981d;}.cls-6{fill:#221f1f;}</style></defs><title>Artboard 1</title><polygon class="cls-1" points="0.79 0.68 3.68 3.56 4.49 2.74 3.58 1.83 11.82 1.83 11.82 10.07 10.87 9.12 10.06 9.94 12.97 12.85 12.97 0.68 0.79 0.68"/><rect class="cls-2" x="1.08" y="4.58" width="5.99" height="1.15" transform="translate(-2.46 4.4) rotate(-45)"/><rect class="cls-3" x="0.53" y="6.25" width="9.63" height="1.15" transform="translate(-3.26 5.78) rotate(-45)"/><rect class="cls-4" x="5.42" y="7.17" width="3.89" height="1.15" transform="translate(-3.32 7.48) rotate(-45)"/><rect class="cls-5" x="5.52" y="8.86" width="6.2" height="1.15" transform="translate(-4.15 8.86) rotate(-45)"/><path class="cls-6" d="M17.3,12.81H15.53V.68h4.23A3.45,3.45,0,0,1,23.33,4.3a3.54,3.54,0,0,1-.95,2.51A4,4,0,0,1,19,8H17.3ZM19.14,6.4c1.49,0,2.42-.8,2.42-2.09s-.84-2-2.46-2H17.3V6.4Z"/><path class="cls-6" d="M24.29,12.81V3.7h1.58v.82a2.75,2.75,0,0,1,2.33-1.06V5.21C26.66,5.34,26,6.14,26,7.83v5Z"/><path class="cls-6" d="M33.12,13a4.87,4.87,0,0,1-4.92-4.83,4.91,4.91,0,0,1,9.82,0A4.86,4.86,0,0,1,33.12,13m0-8a3.24,3.24,0,1,0,3.21,3.22A3.23,3.23,0,0,0,33.12,5"/><path class="cls-6" d="M39.35,12.81V5.23h-.8V3.66h.8V3.3a2.46,2.46,0,0,1,.89-2,2.94,2.94,0,0,1,2.2-.64h.2V2.15l-.18,0c-.95,0-1.42.42-1.42,1.13v.36h1.6V5.21H41v7.6Z"/><path class="cls-6" d="M45.58,2.68H43.88v-2h1.69Zm0,10.13H43.88V3.7h1.69Z"/><polygon class="cls-6" points="49.86 12.81 48.16 12.81 48.16 5.23 46.92 5.23 46.92 3.7 48.16 3.7 48.16 0.68 49.86 0.68 49.86 3.7 51.35 3.7 51.35 5.23 49.86 5.23 49.86 12.81"/><path class="cls-6" d="M56.12,13a4.73,4.73,0,0,1-4.64-4.79,4.74,4.74,0,0,1,4.68-4.85,4.69,4.69,0,0,1,4.61,4.72c0,.2,0,.49,0,.87H53.21a3,3,0,0,0,3,2.51A2.9,2.9,0,0,0,58.77,10H60.5A4.62,4.62,0,0,1,56.12,13m3-5.36A3,3,0,0,0,56.14,5,3.06,3.06,0,0,0,53.9,6a2.67,2.67,0,0,0-.71,1.73Z"/><path class="cls-6" d="M62,12.81V3.7h1.58v.82a2.75,2.75,0,0,1,2.33-1.06V5.21c-1.55.13-2.22.93-2.22,2.62v5Z"/><path class="cls-6" d="M70.78,13a4.87,4.87,0,0,1-4.92-4.83,4.91,4.91,0,0,1,9.82,0A4.86,4.86,0,0,1,70.78,13m0-8A3.24,3.24,0,1,0,74,8.24,3.23,3.23,0,0,0,70.78,5"/></svg>