<svg id="Layer_1" data-name="Layer 1" xmlns="http://www.w3.org/2000/svg" viewBox="0 0 612.95 140.8"><defs><style>.cls-1{fill:#a2a9ad;}.cls-2{fill:#5b6670;}.cls-3{fill:#00b189;}.cls-4{fill:#009877;}</style></defs><title>Quotient_Logo-ROK</title><polygon class="cls-1" points="110.31 0 58.12 52.19 58.12 104.4 110.31 52.2 110.31 0"/><polygon class="cls-2" points="0 0 0 52.2 52.21 104.4 52.21 52.19 0 0"/><polygon class="cls-3" points="32.9 58.47 85.06 6.25 32.9 6.25 32.9 58.47"/><polygon class="cls-4" points="32.9 32.88 32.9 58.47 45.69 45.66 32.9 32.88"/><path class="cls-2" d="M154,63.44c-.11,15.44,6.84,29.65,19.18,34.37a25.62,25.62,0,0,0,9.16,1.63h.14a27.09,27.09,0,0,0,6.28-.71c14.33-3.39,22.31-18.45,22.31-36.36S201.8,26.1,182.85,26.1c-19.46,0-29,18-28.85,37.34m27.62,45.36h-1.17c-20.94-1-38.76-16.63-38.76-45.1,0-28.62,17.48-47,41.57-47s40,18.8,40,45.15c0,18.45-6.89,31.57-17.31,38.67l21.54,8.33-43.41,0h-2.45ZM291,43.31H279.36V82.63a16.39,16.39,0,0,1-16.42,16.54c-10.59,0-14.28-8.2-14.28-20.38V43.31H237V80.77c0,22.52,12.06,28.07,22.12,28.07a24.11,24.11,0,0,0,21.18-11.91h.27l.67,10.47h10.33c-.4-5-.54-10.87-.54-17.48Zm25.25,32.16c0-12.16,6-24.88,19.73-24.88s19.2,13.77,19.2,24.62c0,14.44-8.34,24.9-19.48,24.9-11.38,0-19.45-10.59-19.45-24.64m50.85-.65c0-19.61-12.44-33-30.86-33-17.74,0-31.78,12.58-31.78,34,0,20.28,13.38,33,30.72,33,15.49,0,31.92-10.32,31.92-34m53.7-22.64,15.48-8.86H394.62V27.94l-11.38,3.58V43.31H373.3v8.87h9.94V87.13c0,7.55,1.19,13.24,4.48,16.69,2.79,3.16,7.16,5,12.6,5a28.3,28.3,0,0,0,10.32-1.71l-.53-8.75a21.81,21.81,0,0,1-6.76.79c-6.48,0-8.73-4.49-8.73-12.44V52.18Zm6.55,8.46V107.4h11.42V43.31Zm35.25,8.5c.93-8.1,6.09-19,17.88-19,13.1,0,16.29,11.53,16.15,19Zm44.88,8.33a42.23,42.23,0,0,0,.41-5.44c0-11.77-5.56-30.18-26.48-30.18-18.68,0-30.06,15.23-30.06,34.55s11.78,32.44,31.51,32.44c10.18,0,17.22-2.25,21.31-4.11l-2-8.32c-4.38,1.84-9.41,3.29-17.74,3.29-11.65,0-21.72-6.49-22-22.23Zm14.84,29.93H534V68.87A17.12,17.12,0,0,1,550.4,51.51c11,0,14.83,8.61,14.83,18.94v37h11.65V69.14c0-22-13.77-27.29-22.64-27.29-10.59,0-18,5.95-21.18,12h-.27l-.65-10.59H521.8c.41,5.3.54,10.73.54,17.34Zm87-79.46V43.31H626v8.87h-16.7V86.73c0,8,2.26,12.44,8.75,12.44a21.82,21.82,0,0,0,6.75-.79l.52,8.75A28.2,28.2,0,0,1,615,108.84c-5.42,0-9.79-1.86-12.57-5-3.31-3.45-4.5-9.14-4.5-16.69V52.18H588V43.31h9.93V31.52Z" transform="translate(-14.42 -12.98)"/><path class="cls-3" d="M164.16,136.09h-5.83V133h15.45v3.12h-5.89v17.35h-3.73Z" transform="translate(-14.42 -12.98)"/><path class="cls-3" d="M186.57,133v8.2h8.66V133H199v20.47h-3.73v-9h-8.66v9h-3.73V133Z" transform="translate(-14.42 -12.98)"/><path class="cls-3" d="M221.38,144.36h-7.72v6h8.63v3.07H209.93V133h11.9V136h-8.17v5.28h7.72Z" transform="translate(-14.42 -12.98)"/><path class="cls-3" d="M244.62,133.24a35.61,35.61,0,0,1,5.64-.43c3,0,5,.49,6.32,1.65a5.14,5.14,0,0,1,1.76,4.1,5.46,5.46,0,0,1-3.7,5.13v.09c1.46.55,2.34,2,2.85,3.95a42,42,0,0,0,1.61,5.71h-3.85a28.6,28.6,0,0,1-1.37-4.83c-.58-2.68-1.55-3.53-3.68-3.58h-1.88v8.41h-3.7Zm3.7,9h2.22c2.52,0,4.1-1.34,4.1-3.37,0-2.25-1.58-3.28-4-3.28a10.89,10.89,0,0,0-2.31.18Z" transform="translate(-14.42 -12.98)"/><path class="cls-3" d="M280,144.36h-7.72v6h8.63v3.07H268.58V133h11.9V136h-8.17v5.28H280Z" transform="translate(-14.42 -12.98)"/><path class="cls-3" d="M290.78,149.37a10.35,10.35,0,0,0,5,1.3c2.4,0,3.74-1.12,3.74-2.79s-1-2.46-3.65-3.4c-3.37-1.22-5.52-3-5.52-6,0-3.33,2.79-5.89,7.22-5.89a11,11,0,0,1,4.93,1l-.92,3a8.68,8.68,0,0,0-4.07-1c-2.36,0-3.4,1.28-3.4,2.46,0,1.58,1.19,2.31,3.92,3.37,3.55,1.34,5.29,3.13,5.29,6.08,0,3.28-2.5,6.16-7.78,6.16a12.26,12.26,0,0,1-5.53-1.3Z" transform="translate(-14.42 -12.98)"/><path class="cls-3" d="M317,133V144.9c0,4,1.67,5.86,4.2,5.86,2.7,0,4.31-1.85,4.31-5.86V133h3.73v11.69c0,6.32-3.25,9.11-8.17,9.11-4.73,0-7.8-2.64-7.8-9.08V133Z" transform="translate(-14.42 -12.98)"/><path class="cls-3" d="M340.23,133H344v17.34h8.41v3.13H340.23Z" transform="translate(-14.42 -12.98)"/><path class="cls-3" d="M362.83,136.09H357V133h15.46v3.12h-5.9v17.35h-3.73Z" transform="translate(-14.42 -12.98)"/><path class="cls-3" d="M412,143c0,6.86-4.16,10.78-9.81,10.78s-9.41-4.4-9.41-10.42c0-6.28,3.94-10.72,9.71-10.72C408.51,132.63,412,137.16,412,143Zm-15.28.3c0,4.16,2.1,7.5,5.68,7.5s5.65-3.37,5.65-7.65c0-3.86-1.91-7.53-5.65-7.53S396.75,139.07,396.75,143.29Z" transform="translate(-14.42 -12.98)"/><path class="cls-3" d="M421.93,133h11.82V136h-8.08v5.64h7.53v3.07h-7.53v8.69h-3.74Z" transform="translate(-14.42 -12.98)"/><path class="cls-3" d="M456.44,133h3.7v9.41h.09c.49-.79,1-1.52,1.49-2.21l5.35-7.2h4.61l-7,8.71,7.5,11.76h-4.37l-5.8-9.39-1.83,2.19v7.2h-3.7Z" transform="translate(-14.42 -12.98)"/><path class="cls-3" d="M480.8,153.44V133h4.25l5.28,8.78a56.3,56.3,0,0,1,3.5,6.86h.06c-.25-2.73-.34-5.38-.34-8.51V133H497v20.47h-3.86l-5.35-9a68.5,68.5,0,0,1-3.67-7l-.09,0c.15,2.64.18,5.35.18,8.72v7.32Z" transform="translate(-14.42 -12.98)"/><path class="cls-3" d="M526.17,143c0,6.86-4.16,10.78-9.81,10.78s-9.41-4.4-9.41-10.42c0-6.28,3.95-10.72,9.72-10.72C522.65,132.63,526.17,137.16,526.17,143Zm-15.27.3c0,4.16,2.09,7.5,5.68,7.5s5.64-3.37,5.64-7.65c0-3.86-1.91-7.53-5.64-7.53S510.9,139.07,510.9,143.29Z" transform="translate(-14.42 -12.98)"/><path class="cls-3" d="M539.29,153.44l-5-20.47h4l2,9.29c.51,2.49,1,5.1,1.33,7.14h.06c.34-2.16.91-4.59,1.49-7.17l2.22-9.26h3.92l2,9.41c.52,2.43.94,4.71,1.25,6.93h.06c.36-2.25.85-4.59,1.39-7.08l2.13-9.26h3.8l-5.5,20.47h-4l-2.12-9.63a56.86,56.86,0,0,1-1.13-6.5h-.06c-.36,2.19-.76,4.16-1.37,6.5l-2.37,9.63Z" transform="translate(-14.42 -12.98)"/><path class="cls-3" d="M572.8,133v20.47h-3.74V133Z" transform="translate(-14.42 -12.98)"/><path class="cls-3" d="M583.76,153.44V133H588l5.29,8.78a56.19,56.19,0,0,1,3.49,6.86h.06c-.24-2.73-.33-5.38-.33-8.51V133H600v20.47h-3.86l-5.34-9a66.67,66.67,0,0,1-3.68-7l-.09,0c.15,2.64.18,5.35.18,8.72v7.32Z" transform="translate(-14.42 -12.98)"/><path class="cls-3" d="M627.38,152.49a20.18,20.18,0,0,1-6.59,1.16c-3.47,0-6.08-.88-8-2.73a10.17,10.17,0,0,1-2.86-7.54c0-6.46,4.62-10.62,11.39-10.62a13.53,13.53,0,0,1,5.44,1l-.82,3a11.15,11.15,0,0,0-4.65-.88c-4.37,0-7.44,2.58-7.44,7.35s2.86,7.41,7.11,7.41a7.21,7.21,0,0,0,2.82-.42v-5.11h-3.61v-2.94h7.23Z" transform="translate(-14.42 -12.98)"/></svg>