<svg xmlns="http://www.w3.org/2000/svg" width="1254.87" height="390" viewBox="0 0 1254.87 390"><defs><style>.cls-1{fill:#00b2a9;}.cls-2{fill:#006ab5;}.cls-3{fill:#ffce00;}.cls-4{fill:#fff;}</style></defs><g id="Layer_2" data-name="Layer 2"><g id="Layer_1-2" data-name="Layer 1"><g id="Repsly_Logo_Full_Colour_Alt" data-name="Repsly Logo Full Colour Alt"><g id="Symbol"><path class="cls-1" d="M390,195a39,39,0,0,1-78,0,39,39,0,0,0-39-39,39,39,0,0,1-39-39,39,39,0,0,0-39-39,39,39,0,1,1,39-39,39,39,0,0,0,39,39,39,39,0,0,1,39,39,39,39,0,0,0,39,39A39,39,0,0,1,390,195Z"/><path class="cls-2" d="M234,195a39,39,0,0,1-78,0,39,39,0,0,0-78,0,39,39,0,1,1-39-39,39,39,0,0,0,39-39,39,39,0,0,1,78,0,39,39,0,0,0,39,39A39,39,0,0,1,234,195Z"/><path class="cls-3" d="M312,273a39,39,0,0,1-39,39,39,39,0,0,0-39,39,39,39,0,0,1-78,0,39,39,0,0,0-39-39,39,39,0,1,1,39-39,39,39,0,0,0,78,0,39,39,0,0,1,78,0Z"/></g><g id="Wordmark"><path class="cls-4" d="M542.91,111.08c-3.5,0-6.9.22-10.19.54A82.64,82.64,0,0,0,509.57,117,71.11,71.11,0,0,0,484.49,134a74.64,74.64,0,0,0-15.89,26.6c-3.68,10.41-5.51,22-5.47,35v82.93H500.5V196.12c0-16.68,3.53-29.66,10.81-38.94,5.44-6.91,13.46-11.26,23.86-13.14h.1a78.59,78.59,0,0,1,11.32-.85c3.09,0,6.18.19,9.37.39l5.49-26.78,1-4.84C556.19,111.36,549.6,111.06,542.91,111.08Z"/><path class="cls-4" d="M695,131.1q-18.63-20.62-51.9-20.64a74.36,74.36,0,0,0-27.69,5.4,69.8,69.8,0,0,0-24,16,78.44,78.44,0,0,0-16.77,26.64q-6.32,16-6.31,37.26a108,108,0,0,0,4.92,33.42,72.19,72.19,0,0,0,15.08,26.48,69,69,0,0,0,25.87,17.55c10.49,4.2,22.77,6.32,37,6.32a146,146,0,0,0,16.31-.92q8-.94,14.94-2.32a115.55,115.55,0,0,0,12.31-3.08A60.59,60.59,0,0,0,703.2,270l-4.92-30.48a101.71,101.71,0,0,1-17.71,5.21,114.23,114.23,0,0,1-24.79,2.47q-23.09,0-35.25-10.62t-13.72-30H713.05c.2-2.06.37-4.38.46-6.94s.16-4.88.16-6.93Q713.67,151.73,695,131.1Zm-87.9,48.05a65.36,65.36,0,0,1,3.37-13.86,38.56,38.56,0,0,1,6.93-12,34.36,34.36,0,0,1,10.93-8.47,33.26,33.26,0,0,1,15.1-3.24,32.47,32.47,0,0,1,14.32,2.93,30.15,30.15,0,0,1,10.16,8,35.52,35.52,0,0,1,6.31,12,49.27,49.27,0,0,1,2.15,14.63Z"/><path class="cls-4" d="M877.07,160.2a73.69,73.69,0,0,0-16.33-26.49A71.26,71.26,0,0,0,835,116.94q-15.09-5.85-34.17-5.86a212.19,212.19,0,0,0-35.12,2.78q-16.62,2.76-28,5.85V353.44L775,347.28V272.61h0V270a77.81,77.81,0,0,0,15.72,6.16,75,75,0,0,0,20.94,2.78A71.94,71.94,0,0,0,842,272.75a60.91,60.91,0,0,0,22.3-17.24A78.76,78.76,0,0,0,878,229a113.91,113.91,0,0,0,4.77-33.85Q882.76,175.76,877.07,160.2ZM835.2,233q-9.39,13.86-29.73,13.87A51.08,51.08,0,0,1,788.08,244a56.79,56.79,0,0,1-13.1-6.33V145.58a60.89,60.89,0,0,1,11.25-2c3.79-.31,7.45-.46,10.92-.46q25,0,36.19,13.84t11.26,38.82Q844.6,219.19,835.2,233Z"/><path class="cls-4" d="M1005,200.55a60.88,60.88,0,0,0-15.25-10.79,208.29,208.29,0,0,0-22.49-9.7,136.75,136.75,0,0,1-13.54-5.38,48.19,48.19,0,0,1-8.93-5.25,15,15,0,0,1-4.78-5.68,17.33,17.33,0,0,1-1.39-7.08,12.63,12.63,0,0,1,7.1-11.86c4.73-2.56,10.88-3.86,18.47-3.86a95.32,95.32,0,0,1,22.17,2.31,92.69,92.69,0,0,1,15.72,5.09l6.77-30.19a134.28,134.28,0,0,0-19.41-5.07,136.64,136.64,0,0,0-27.09-2.63q-28,0-44.35,12.79t-16.32,35q0,11.39,3.55,19.24a39.44,39.44,0,0,0,9.69,13.4,63.44,63.44,0,0,0,14.62,9.7,186.6,186.6,0,0,0,18.63,7.85q16.64,6.15,23.86,11.4T979.3,233q0,8.61-6.78,12.16T951,248.75a102.53,102.53,0,0,1-26.33-3.09,165.83,165.83,0,0,1-19.87-6.46l-6.46,31.09a170.58,170.58,0,0,0,18.17,5.7q12.91,3.54,34.19,3.55,31.71,0,48.8-11.86t17.1-35a54.47,54.47,0,0,0-2.78-18.48A36.57,36.57,0,0,0,1005,200.55Z"/><path class="cls-4" d="M1216.35,114.47q-7,29-15.61,59.89t-18.42,58.37q-5.85-13.23-11.74-28.63t-11.12-30.95q-5.26-15.56-9.74-30.67c-3-10-5.51-19.39-7.59-28h-39.72a813.14,813.14,0,0,0,28.93,85q16.22,40,33.85,73.88-6.17,14.47-14.36,21.42t-22.75,6.94a60.67,60.67,0,0,1-22-4.31l-6.76,29.86a57,57,0,0,0,12.78,4,85.24,85.24,0,0,0,39.92-1.08,51.16,51.16,0,0,0,17.88-9.39,69.72,69.72,0,0,0,14.48-16.31,164.89,164.89,0,0,0,12.66-23.74q32.85-74.49,57.8-166.28Z"/><path class="cls-4" d="M1088.81,245.2a17.54,17.54,0,0,1-7.56-4.92,18.54,18.54,0,0,1-3.82-7.86,50.31,50.31,0,0,1-1.1-11.4V36.56l-37.27,6.16V228.1a79.25,79.25,0,0,0,2.63,21.4,34.6,34.6,0,0,0,9.08,15.72q6.46,6.3,17.41,9.7c6.82,2.1,15.4,3.28,25.57,3.61l7.09-30.71A59.42,59.42,0,0,1,1088.81,245.2Z"/></g></g></g></g></svg>