<?xml version="1.0" encoding="UTF-8"?>
<svg width="1057px" height="213px" viewBox="0 0 1057 213" version="1.1" xmlns="http://www.w3.org/2000/svg" xmlns:xlink="http://www.w3.org/1999/xlink">
    <title>ri-logo-master-dark@3x</title>
    <g id="Page-1" stroke="none" stroke-width="1" fill="none" fill-rule="evenodd">
        <g id="ri-logo-master-dark" transform="translate(-20.000000, -20.000000)">
            <g transform="translate(20.000000, 20.000000)">
                <g id="Group-8">
                    <polygon id="Fill-1" fill="#FFEF29" points="66.6082152 0.000776067555 0.000554333968 38.4759881 0.000554333968 115.361001 33.3370905 134.614128 33.3370905 96.1710675 66.6082152 76.9489828 66.6082152 38.4759881 99.9114913 19.2539034"></polygon>
                    <polygon id="Fill-2" fill="#51F251" points="133.173968 38.4305327 133.173968 76.9101794 99.871801 57.7291155 66.5696336 76.9101794 66.5696336 38.4305327 99.871801 19.2483601"></polygon>
                    <polygon id="Fill-3" fill="#0B48F4" points="133.215433 0.000776067555 99.9121565 19.2539034 133.215433 38.4759881 133.215433 76.9489828 166.518709 96.1710675 166.518709 134.580868 199.790942 115.361001 199.790942 38.4759881"></polygon>
                    <polygon id="Fill-4" fill="#F05BF4" points="166.47536 96.2089839 166.47536 134.570003 133.174301 153.751067 99.8721336 134.570003 133.174301 115.390048 133.174301 76.9104012"></polygon>
                    <polygon id="Fill-6" fill="#FFA33E" points="99.8719119 134.56956 66.5697445 153.751732 33.3850958 134.56956 33.3850958 96.2085404 66.5697445 76.9099577 66.5697445 115.389604"></polygon>
                    <polygon id="Fill-7" fill="#EF2222" points="133.215433 153.802842 99.9121565 134.580757 66.6077718 153.802842 33.336647 134.614017 33.336647 173.089229 99.9099392 211.531181 99.9132652 211.531181 166.518709 173.089229 166.518709 134.580757"></polygon>
                </g>
                <path d="M343.461599,147.766524 C346.468972,145.716042 347.015767,141.888476 344.965285,138.881103 L326.510949,112.634936 C344.145093,111.131249 351.116731,97.5980692 351.116731,83.654793 C351.116731,68.891324 343.051502,54.1278551 323.230178,54.1278551 L292.336253,54.1278551 C289.465578,54.1278551 287.005,56.5884333 287.005,59.5958066 L287.005,142.57197 C287.005,146.126138 289.738976,148.996813 293.293144,148.996813 C296.984011,148.996813 299.717987,146.126138 299.717987,142.57197 L299.717987,113.045032 L311.884179,113.045032 L334.576178,146.126138 C336.763358,149.133512 340.590924,149.953704 343.461599,147.766524 Z M322.273287,101.152238 L299.854686,101.152238 L299.854686,66.0206495 L322.820082,66.0206495 C333.755985,66.0206495 337.993647,75.0427694 337.993647,83.654793 C337.993647,92.4035153 333.755985,101.152238 322.273287,101.152238 Z M396.637427,149.680307 C407.026534,149.680307 416.59545,145.852741 422.746895,137.924211 C424.660678,135.737031 424.113883,132.046163 421.653305,130.13238 C419.192726,128.355296 415.638558,129.175489 413.314679,131.772766 C408.940317,136.557223 404.702655,138.471006 397.047523,138.471006 C386.248319,138.471006 377.909693,131.772766 376.406006,121.11026 L423.430389,121.11026 C426.027666,121.11026 428.351545,119.059779 428.351545,116.189104 C428.351545,95.9576837 414.818365,83.1079978 396.637427,83.1079978 C378.456488,83.1079978 363.966417,95.9576837 363.966417,116.189104 C363.966417,136.420525 378.456488,149.680307 396.637427,149.680307 Z M416.048654,111.404647 L376.406006,111.404647 C377.909693,100.742141 386.11162,94.3172983 396.637427,94.3172983 C406.889836,94.3172983 414.544968,100.742141 416.048654,111.404647 Z M453.914218,148.996813 C457.468387,148.996813 460.202362,146.126138 460.202362,142.708669 L460.202362,95.0007922 L469.224482,95.0007922 C472.095157,95.0007922 474.555735,92.6769129 474.555735,89.8062383 C474.555735,86.798865 472.095157,84.4749857 469.224482,84.4749857 L460.202362,84.4749857 L460.202362,66.0206495 C460.202362,62.6031799 457.468387,59.7325053 453.914218,59.7325053 C450.496749,59.7325053 447.762773,62.6031799 447.762773,66.0206495 L447.762773,84.4749857 L440.927833,84.4749857 C438.057159,84.4749857 435.596581,86.798865 435.596581,89.6695396 C435.596581,92.6769129 438.057159,95.0007922 440.927833,95.0007922 L447.762773,95.0007922 L447.762773,142.708669 C447.762773,146.126138 450.496749,148.996813 453.914218,148.996813 Z M515.018576,149.680307 C523.903997,149.680307 533.199514,145.716042 537.437177,138.471006 L537.437177,142.708669 C537.437177,146.126138 540.171152,148.996813 543.588622,148.996813 C547.142791,148.996813 549.876766,146.126138 549.876766,142.708669 L549.876766,90.0796359 C549.876766,86.6621663 547.142791,83.7914917 543.588622,83.7914917 C540.171152,83.7914917 537.437177,86.6621663 537.437177,90.0796359 L537.437177,94.0439007 C533.199514,86.798865 523.903997,83.1079978 515.018576,83.1079978 C497.521131,83.1079978 482.620963,95.9576837 482.620963,116.325803 C482.620963,136.557223 497.521131,149.680307 515.018576,149.680307 Z M516.112166,137.514115 C504.629468,137.514115 495.33395,128.765392 495.33395,116.189104 C495.33395,103.476117 504.629468,95.2741898 516.112166,95.2741898 C526.364575,95.2741898 537.300478,102.519225 537.300478,116.189104 C537.300478,129.722284 527.458165,137.514115 516.112166,137.514115 Z M575.712837,69.1647216 C580.497294,69.1647216 584.32486,65.7472519 584.32486,61.0994932 C584.32486,56.4517345 580.497294,53.0342648 575.712837,53.0342648 C571.065078,53.0342648 567.100813,56.4517345 567.100813,61.0994932 C567.100813,65.7472519 571.065078,69.1647216 575.712837,69.1647216 Z M575.712837,148.996813 C579.267005,148.996813 582.000981,146.126138 582.000981,142.708669 L582.000981,142.708669 L582.000981,90.0796359 C582.000981,86.6621663 579.267005,83.7914917 575.712837,83.7914917 C572.295367,83.7914917 569.561391,86.6621663 569.561391,90.0796359 L569.561391,90.0796359 L569.561391,142.708669 C569.561391,146.126138 572.295367,148.996813 575.712837,148.996813 Z M607.97375,148.996813 C611.527919,148.996813 614.261895,146.126138 614.261895,142.708669 L614.261895,55.3581442 C614.261895,51.9406745 611.527919,49.07 607.97375,49.07 C604.556281,49.07 601.822305,51.9406745 601.822305,55.3581442 L601.822305,142.708669 C601.822305,146.126138 604.556281,148.996813 607.97375,148.996813 Z M666.950883,148.996813 C670.64175,148.996813 673.375726,146.126138 673.375726,142.57197 L673.375726,59.8692041 C673.375726,56.3150357 670.64175,53.4443612 666.950883,53.4443612 C663.396715,53.4443612 660.662739,56.3150357 660.662739,59.8692041 L660.662739,142.57197 C660.662739,146.126138 663.396715,148.996813 666.950883,148.996813 Z M746.372878,148.996813 C749.927046,148.996813 752.661022,146.126138 752.661022,142.708669 L752.661022,111.404647 C752.661022,93.4971056 743.9123,83.1079978 728.055241,83.1079978 C721.083602,83.1079978 711.924784,86.3887687 708.097218,94.0439007 L708.097218,90.0796359 C708.097218,86.6621663 705.363242,83.7914917 701.809074,83.7914917 C698.391604,83.7914917 695.657628,86.6621663 695.657628,90.0796359 L695.657628,142.708669 C695.657628,146.126138 698.391604,148.996813 701.809074,148.996813 C705.363242,148.996813 708.097218,146.126138 708.097218,142.708669 L708.097218,113.865225 C708.097218,100.332045 717.119338,95.2741898 726.141458,95.2741898 C734.89018,95.2741898 740.221433,101.562334 740.221433,112.224839 L740.221433,142.708669 C740.221433,146.126138 742.955408,148.996813 746.372878,148.996813 Z M791.073381,149.680307 C804.333163,149.680307 815.815861,142.435271 815.815861,130.542477 C815.815861,123.297441 812.535091,115.232213 799.275308,111.951442 L789.843092,109.627562 C785.742128,108.670671 781.777864,106.346791 781.777864,102.245828 C781.777864,97.4613704 785.742128,93.9072019 791.756875,93.9072019 C795.72114,93.9072019 799.001911,95.4108886 801.872585,99.2384546 C803.239573,101.015539 804.606561,101.97243 806.383645,101.97243 C808.297428,101.97243 812.261693,100.468744 812.261693,96.3677801 C812.261693,95.5475874 812.124994,94.4539971 811.578199,93.4971056 C807.887332,86.1153711 799.822103,83.1079978 791.483477,83.1079978 C778.633791,83.1079978 769.201575,91.309925 769.201575,101.835732 C769.201575,111.951442 775.626418,117.282694 786.425622,120.153369 L795.174345,122.203851 C799.958802,123.297441 803.649669,125.62132 803.649669,130.269079 C803.649669,135.326934 798.865212,138.744404 792.440369,138.744404 C786.015526,138.744404 780.957671,135.737031 779.180587,131.089272 C778.223695,128.628694 776.036515,127.535103 773.849334,127.535103 C770.978659,127.535103 767.834587,129.175489 767.834587,132.45626 C767.834587,133.003055 767.971286,133.686549 768.107985,134.370043 C771.115358,144.212355 781.231068,149.680307 791.073381,149.680307 Z M837.140872,69.1647216 C841.92533,69.1647216 845.752896,65.7472519 845.752896,61.0994932 C845.752896,56.4517345 841.92533,53.0342648 837.140872,53.0342648 C832.493113,53.0342648 828.528849,56.4517345 828.528849,61.0994932 C828.528849,65.7472519 832.493113,69.1647216 837.140872,69.1647216 Z M837.140872,148.996813 C840.69504,148.996813 843.429016,146.126138 843.429016,142.708669 L843.429016,142.708669 L843.429016,90.0796359 C843.429016,86.6621663 840.69504,83.7914917 837.140872,83.7914917 C833.723402,83.7914917 830.989427,86.6621663 830.989427,90.0796359 L830.989427,90.0796359 L830.989427,142.708669 C830.989427,146.126138 833.723402,148.996813 837.140872,148.996813 Z M891.683688,180.164136 C912.735301,180.164136 926.541878,168.681438 926.678577,138.607705 L926.678577,90.0796359 C926.678577,86.6621663 923.944601,83.7914917 920.390433,83.7914917 C916.972963,83.7914917 914.238988,86.6621663 914.238988,90.0796359 L914.238988,94.4539971 C910.001325,87.0722626 900.705808,83.1079978 891.820387,83.1079978 C874.322942,83.1079978 859.422774,96.2310813 859.422774,116.5992 C859.422774,136.830621 874.322942,149.680307 891.820387,149.680307 C900.705808,149.680307 910.411422,145.442644 914.238988,137.924211 C914.375686,138.471006 914.375686,138.881103 914.375686,139.427898 C914.375686,160.61621 905.490265,168.408041 891.683688,168.408041 C886.079038,168.408041 880.20099,166.084161 876.100026,161.573101 C873.639448,158.839125 870.221978,157.472138 867.624701,159.112523 C864.754027,160.752908 863.797135,164.580475 865.57422,167.177751 C871.999063,175.653076 881.567978,180.164136 891.683688,180.164136 Z M892.913977,137.514115 C881.431279,137.514115 872.135761,129.448886 872.135761,116.462502 C872.135761,104.022912 881.431279,95.2741898 892.913977,95.2741898 C904.259976,95.2741898 914.102289,102.792623 914.102289,116.462502 C914.102289,129.995682 903.166386,137.514115 892.913977,137.514115 Z M999.675729,148.996813 C1003.2299,148.996813 1005.96387,146.126138 1005.96387,142.708669 L1005.96387,111.404647 C1006.10057,93.4971056 996.121561,83.1079978 980.127803,83.1079978 C973.156165,83.1079978 962.903756,86.3887687 959.07619,94.0439007 L959.07619,55.3581442 C959.07619,51.9406745 956.342214,49.07 952.788045,49.07 C949.370576,49.07 946.6366,51.9406745 946.6366,55.3581442 L946.6366,142.708669 C946.6366,146.126138 949.370576,148.996813 952.788045,148.996813 C956.342214,148.996813 959.07619,146.126138 959.07619,142.708669 L959.07619,113.865225 C959.07619,100.195346 969.738695,95.2741898 978.487417,95.2741898 C987.23614,95.2741898 993.524284,101.699033 993.524284,112.224839 L993.524284,142.708669 C993.524284,146.126138 996.258259,148.996813 999.675729,148.996813 Z M1036.03761,148.996813 C1039.59177,148.996813 1042.32575,146.126138 1042.32575,142.708669 L1042.32575,95.0007922 L1051.34787,95.0007922 C1054.21854,95.0007922 1056.67912,92.6769129 1056.67912,89.8062383 C1056.67912,86.798865 1054.21854,84.4749857 1051.34787,84.4749857 L1042.32575,84.4749857 L1042.32575,66.0206495 C1042.32575,62.6031799 1039.59177,59.7325053 1036.03761,59.7325053 C1032.62014,59.7325053 1029.88616,62.6031799 1029.88616,66.0206495 L1029.88616,84.4749857 L1023.05122,84.4749857 C1020.18055,84.4749857 1017.71997,86.798865 1017.71997,89.6695396 C1017.71997,92.6769129 1020.18055,95.0007922 1023.05122,95.0007922 L1029.88616,95.0007922 L1029.88616,142.708669 C1029.88616,146.126138 1032.62014,148.996813 1036.03761,148.996813 Z" id="RetailInsight" fill="#171717" fill-rule="nonzero"></path>
            </g>
        </g>
    </g>
</svg>