<svg width="747" height="298" viewBox="0 0 747 298" fill="none" xmlns="http://www.w3.org/2000/svg">
<g clip-path="url(#clip0)">
<path d="M42.0129 55.2701V183.493H-0.00366211V18.6861C1.00745 18.0676 2.00551 18.3541 2.94487 18.3606C24.139 18.5364 45.3463 17.8397 66.5274 18.7773C74.894 19.0658 83.1826 20.4873 91.1658 23.0028C110.892 29.4289 121.173 43.8372 124.676 63.5257C126.548 74.008 126.098 84.4968 122.543 94.6601C117.918 107.857 109.027 117.142 95.7974 122.891L129.992 183.441H86.4169L43.2718 104.01H49.1037C54.8637 104.068 60.6108 103.964 66.2991 102.844C78.9216 100.364 86.4821 90.2719 85.2166 77.5043C84.0555 65.6873 77.493 58.4148 65.6076 56.0188C57.8514 54.4953 50.0235 55.511 42.0129 55.2701Z" fill="#231F20"/>
<path d="M257.16 145.673C253.8 151.442 250.93 157.497 246.631 162.692C229.345 183.572 207.315 192.205 180.896 185.682C153.668 178.963 136.714 160.941 131.469 133.394C124.822 98.4311 147.934 64.3017 182.494 56.8664C194.752 54.2231 206.865 55.2908 218.712 59.3731C219.925 59.7963 221.047 60.5385 222.41 60.4734C227.361 63.0777 232.241 65.7341 236.677 69.1848C241.113 72.6355 244.505 77.1214 248.471 81.0213C253.899 89.463 257.94 98.7165 260.441 108.432C260.545 110.046 260.585 111.687 260.761 113.269C261.537 120.288 261.635 127.28 260.343 134.26C257.871 135.021 255.451 134.344 253.109 134.748C252.039 134.644 250.963 134.442 249.893 134.442C223.174 134.416 196.45 134.405 169.722 134.409C169.017 134.409 168.182 134.116 167.615 135.061C167.615 137.665 168.619 140.041 169.813 142.353C178.202 158.584 205.959 162.217 217.172 147.561C218.659 145.608 220.192 144.989 222.573 145.009C234.087 145.094 245.601 145.009 257.114 144.944C257.127 145.191 257.14 145.419 257.16 145.673ZM223.689 106.433C222.13 95.3645 209.899 86.5945 196.213 86.5555C182.005 86.5099 169.78 95.1366 168.163 106.433H223.689Z" fill="#231F20"/>
<path d="M741.913 145.029C727.627 179.595 691.932 195.943 658.52 183.625C624.86 171.209 607.527 135.048 618.832 100.828C630.026 66.9132 665.062 48.2599 699.303 57.9805C730.445 66.8286 751.143 97.9956 745.012 134.488H652.381C652.746 137.559 653.726 140.525 655.264 143.21C656.801 145.894 658.865 148.243 661.331 150.114C672.303 158.852 693.341 160.206 703.08 146.344C703.319 145.931 703.666 145.591 704.085 145.362C704.503 145.132 704.977 145.022 705.455 145.042C716.544 145.088 727.634 145.042 738.723 145.042L741.913 145.029ZM653.242 106.232C659.426 106.681 705.839 106.499 708.403 106.03C706.674 95.4564 695.174 87.0836 681.899 86.719C667.75 86.3348 655.734 94.4082 653.242 106.232Z" fill="#231F20"/>
<path d="M257.155 145.672C257.155 145.418 257.123 145.171 257.11 144.917C255.775 141.531 254.44 138.142 253.104 134.747C255.446 134.344 257.866 135.021 260.339 134.259C261.643 127.279 261.533 120.287 260.756 113.268C260.58 111.667 260.541 110.045 260.437 108.431C261.18 108.847 261.291 109.655 261.591 110.332C267.706 124.447 273.818 138.554 279.928 152.652C280.339 153.589 280.45 154.781 281.729 155.295C282.023 154.997 282.277 154.662 282.485 154.299C287.339 143.055 292.159 131.804 297.032 120.573C297.809 118.789 297.391 117.272 296.674 115.606C290.585 101.586 284.56 87.5486 278.597 73.4941C277.789 71.5409 276.738 70.9484 274.684 70.9744C265.884 71.0721 257.071 70.9744 248.277 71.033C247.351 71.033 246.32 70.7075 245.4 71.6841C245.518 75.0306 248.199 77.648 248.447 81.014C244.474 77.1076 241.089 72.6412 236.653 69.1775C232.217 65.7138 227.357 63.0574 222.438 60.4726C224.395 55.264 226.861 53.3108 232.386 53.3108C248.903 53.2457 265.427 53.3108 281.964 53.2717C286.882 53.2717 290.157 55.4463 292.075 59.9517C296.641 70.714 301.312 81.4372 305.943 92.18C306.361 93.137 306.843 94.0681 307.548 95.5265C310.112 91.5289 311.377 87.5508 313.014 83.8071C322.647 61.6706 332.247 39.5036 341.815 17.3063C343.45 13.5301 345.089 9.75382 346.733 5.97759C348.397 1.95394 351.345 0.000714965 355.807 0.000714965C372.546 0.0723333 389.285 0.143952 406.037 0.000714965C413.995 -0.0774141 418.026 6.25755 414.634 14.1746C408.541 28.4071 402.351 42.5941 396.232 56.8136C395.895 57.721 395.618 58.6497 395.404 59.5936H381.822V91.4963C379.213 93.9965 378.626 97.5513 377.256 100.657C366.499 125.352 355.885 150.139 345.22 174.84C344.15 177.321 343.041 179.789 341.913 182.25C340.256 185.863 337.522 187.621 333.432 187.608C316.393 187.53 299.348 187.608 282.303 187.562C277.169 187.562 274.67 185.753 272.655 180.993C267.971 169.929 263.242 158.885 258.467 147.86C258.083 147.1 257.645 146.369 257.155 145.672ZM295.297 169.847H326.655C328.285 169.847 328.54 168.545 328.99 167.535C333.641 156.799 338.24 146.05 342.885 135.294C359.132 97.6967 375.368 60.0971 391.594 22.4954C392.175 21.1932 392.983 19.839 392.592 17.9834C383.068 17.9834 373.629 18.0941 364.19 17.9183C361.58 17.8662 360.354 18.8363 359.375 21.1281C353.126 35.7708 346.733 50.3549 340.419 64.9715C327.024 95.9931 313.643 127.028 300.274 158.075C298.657 161.806 297.098 165.576 295.297 169.847V169.847Z" fill="#660091"/>
<path d="M381.83 91.4828V59.5801H419.051V63.4865C419.051 85.2932 419.082 107.098 419.143 128.9C419.162 132.04 419.483 135.171 420.102 138.25C422.411 149.858 430.232 153.98 440.617 153.224C453.808 152.28 460.383 145.255 460.546 131.902C460.82 109.114 460.709 86.3263 460.761 63.5386V59.8991H497.664V183.486H463.266V171.988C462.307 171.448 462.007 172.027 461.727 172.424C454.023 183.447 442.933 187.673 430.011 187.927C418.732 188.155 407.89 186.338 398.653 179.267C388.92 171.812 384.759 161.272 382.997 149.578C381.451 139.226 382.345 128.789 382.214 118.392C382.084 110.149 382.214 101.9 382.214 93.6509C382.188 92.9217 382.417 92.1273 381.83 91.4828Z" fill="#231F20"/>
<path d="M608.764 59.9971C608.764 68.9428 608.731 77.7193 608.764 86.4893C608.764 87.9738 607.929 88.8853 607.185 89.9205L561.418 153.544C561.052 154.051 560.713 154.572 560.015 155.588H608.62V183.395H516.12C516.12 178.31 516.498 173.108 516.028 167.991C515.422 161.343 517.477 156.135 521.567 150.816C537.105 130.632 552.168 110.071 567.406 89.6535C567.719 89.2303 568.006 88.7876 568.652 87.8566H516.289V59.9971H608.764Z" fill="#231F20"/>
</g>
<path d="M296.739 252.778C298.592 253.294 300.05 254.236 301.113 255.603C302.176 256.939 302.708 258.64 302.708 260.706C302.708 263.47 301.66 265.596 299.564 267.084C297.499 268.573 294.476 269.317 290.497 269.317H275.279V237.423H289.586C293.231 237.423 296.041 238.152 298.015 239.61C300.02 241.068 301.022 243.088 301.022 245.67C301.022 247.341 300.627 248.783 299.837 249.998C299.078 251.213 298.045 252.14 296.739 252.778ZM279.835 241.114V251.32H289.176C291.515 251.32 293.307 250.894 294.552 250.044C295.828 249.163 296.466 247.887 296.466 246.217C296.466 244.546 295.828 243.285 294.552 242.435C293.307 241.554 291.515 241.114 289.176 241.114H279.835ZM290.315 265.626C292.897 265.626 294.841 265.201 296.147 264.351C297.453 263.5 298.106 262.164 298.106 260.341C298.106 256.787 295.509 255.01 290.315 255.01H279.835V265.626H290.315ZM317.918 244.941C321.26 244.941 323.811 245.761 325.573 247.401C327.365 249.042 328.261 251.487 328.261 254.737V269.317H324.115V266.128C323.386 267.251 322.338 268.117 320.971 268.725C319.635 269.302 318.04 269.59 316.187 269.59C313.484 269.59 311.312 268.937 309.672 267.631C308.062 266.325 307.257 264.609 307.257 262.482C307.257 260.356 308.031 258.655 309.58 257.379C311.13 256.073 313.59 255.42 316.962 255.42H323.887V254.555C323.887 252.671 323.34 251.229 322.247 250.226C321.153 249.224 319.543 248.723 317.417 248.723C315.99 248.723 314.592 248.966 313.225 249.452C311.859 249.907 310.704 250.53 309.763 251.32L307.94 248.039C309.186 247.037 310.674 246.277 312.405 245.761C314.137 245.214 315.974 244.941 317.918 244.941ZM316.916 266.219C318.587 266.219 320.029 265.854 321.244 265.125C322.459 264.366 323.34 263.303 323.887 261.936V258.564H317.144C313.438 258.564 311.585 259.809 311.585 262.3C311.585 263.515 312.056 264.472 312.998 265.171C313.939 265.869 315.245 266.219 316.916 266.219ZM347.014 269.59C344.554 269.59 342.351 269.059 340.407 267.996C338.494 266.932 336.99 265.474 335.897 263.622C334.803 261.738 334.256 259.612 334.256 257.243C334.256 254.874 334.803 252.762 335.897 250.91C336.99 249.026 338.494 247.568 340.407 246.536C342.351 245.472 344.554 244.941 347.014 244.941C349.201 244.941 351.145 245.381 352.846 246.262C354.577 247.143 355.914 248.419 356.856 250.089L353.529 252.231C352.77 251.077 351.828 250.211 350.705 249.634C349.581 249.057 348.335 248.768 346.968 248.768C345.389 248.768 343.961 249.117 342.686 249.816C341.44 250.515 340.453 251.517 339.724 252.823C339.025 254.099 338.676 255.572 338.676 257.243C338.676 258.944 339.025 260.447 339.724 261.753C340.453 263.029 341.44 264.016 342.686 264.715C343.961 265.414 345.389 265.763 346.968 265.763C348.335 265.763 349.581 265.474 350.705 264.897C351.828 264.32 352.77 263.454 353.529 262.3L356.856 264.396C355.914 266.067 354.577 267.358 352.846 268.269C351.145 269.15 349.201 269.59 347.014 269.59ZM371.593 258.063L366.581 262.71V269.317H362.207V235.509H366.581V257.197L379.749 245.169H385.034L374.873 255.147L386.036 269.317H380.66L371.593 258.063ZM411.084 257.379C411.084 257.714 411.054 258.154 410.993 258.701H391.401C391.675 260.827 392.601 262.543 394.181 263.849C395.791 265.125 397.78 265.763 400.149 265.763C403.035 265.763 405.359 264.791 407.12 262.847L409.535 265.672C408.442 266.948 407.075 267.92 405.435 268.588C403.825 269.256 402.017 269.59 400.013 269.59C397.461 269.59 395.198 269.074 393.224 268.041C391.249 266.978 389.715 265.505 388.622 263.622C387.559 261.738 387.027 259.612 387.027 257.243C387.027 254.904 387.544 252.793 388.576 250.91C389.64 249.026 391.082 247.568 392.905 246.536C394.758 245.472 396.838 244.941 399.147 244.941C401.455 244.941 403.506 245.472 405.298 246.536C407.12 247.568 408.533 249.026 409.535 250.91C410.568 252.793 411.084 254.949 411.084 257.379ZM399.147 248.631C397.051 248.631 395.289 249.269 393.862 250.545C392.464 251.821 391.644 253.491 391.401 255.557H406.893C406.65 253.522 405.814 251.866 404.387 250.591C402.989 249.285 401.243 248.631 399.147 248.631ZM439.939 235.509V269.317H435.748V265.49C434.776 266.826 433.545 267.844 432.057 268.542C430.569 269.241 428.928 269.59 427.136 269.59C424.797 269.59 422.702 269.074 420.849 268.041C418.996 267.008 417.538 265.566 416.475 263.713C415.442 261.829 414.926 259.673 414.926 257.243C414.926 254.813 415.442 252.671 416.475 250.818C417.538 248.966 418.996 247.523 420.849 246.49C422.702 245.457 424.797 244.941 427.136 244.941C428.868 244.941 430.462 245.275 431.92 245.943C433.378 246.581 434.593 247.538 435.565 248.814V235.509H439.939ZM427.501 265.763C429.02 265.763 430.402 265.414 431.647 264.715C432.892 263.986 433.864 262.984 434.563 261.708C435.262 260.402 435.611 258.913 435.611 257.243C435.611 255.572 435.262 254.099 434.563 252.823C433.864 251.517 432.892 250.515 431.647 249.816C430.402 249.117 429.02 248.768 427.501 248.768C425.952 248.768 424.554 249.117 423.309 249.816C422.094 250.515 421.122 251.517 420.393 252.823C419.694 254.099 419.345 255.572 419.345 257.243C419.345 258.913 419.694 260.402 420.393 261.708C421.122 262.984 422.094 263.986 423.309 264.715C424.554 265.414 425.952 265.763 427.501 265.763ZM473.255 244.941C475.594 244.941 477.689 245.457 479.542 246.49C481.395 247.523 482.838 248.966 483.871 250.818C484.934 252.671 485.465 254.813 485.465 257.243C485.465 259.673 484.934 261.829 483.871 263.713C482.838 265.566 481.395 267.008 479.542 268.041C477.689 269.074 475.594 269.59 473.255 269.59C471.462 269.59 469.822 269.241 468.334 268.542C466.845 267.844 465.615 266.826 464.643 265.49V269.317H460.452V235.509H464.826V248.814C465.798 247.538 467.013 246.581 468.471 245.943C469.929 245.275 471.523 244.941 473.255 244.941ZM472.89 265.763C474.439 265.763 475.821 265.414 477.036 264.715C478.282 263.986 479.254 262.984 479.952 261.708C480.681 260.402 481.046 258.913 481.046 257.243C481.046 255.572 480.681 254.099 479.952 252.823C479.254 251.517 478.282 250.515 477.036 249.816C475.821 249.117 474.439 248.768 472.89 248.768C471.371 248.768 469.989 249.117 468.744 249.816C467.499 250.515 466.527 251.517 465.828 252.823C465.129 254.099 464.78 255.572 464.78 257.243C464.78 258.913 465.129 260.402 465.828 261.708C466.527 262.984 467.499 263.986 468.744 264.715C469.989 265.414 471.371 265.763 472.89 265.763ZM512.21 245.169L500.501 271.732C499.468 274.192 498.253 275.923 496.856 276.926C495.489 277.928 493.833 278.429 491.889 278.429C490.705 278.429 489.55 278.232 488.427 277.837C487.333 277.473 486.422 276.926 485.693 276.197L487.561 272.916C488.806 274.101 490.249 274.693 491.889 274.693C492.953 274.693 493.833 274.405 494.532 273.828C495.261 273.281 495.914 272.324 496.491 270.957L497.266 269.271L486.604 245.169H491.16L499.589 264.487L507.927 245.169H512.21Z" fill="#5F6169"/>
<path d="M697.745 297.958C697.195 297.937 696.645 297.915 696.073 297.894C696.029 297.894 695.985 297.894 695.941 297.894C691.783 297.703 687.625 297.364 683.511 296.834C679.155 296.283 674.799 295.647 670.531 294.608C665.845 293.485 662.963 290.517 661.885 286.001C661.005 282.333 660.323 278.623 659.839 274.871C659.465 272.03 659.157 269.189 658.915 266.348C658.497 261.79 658.409 257.19 658.519 252.611C658.607 248.689 658.871 244.788 659.311 240.908C659.883 235.693 660.697 230.52 661.951 225.432C663.095 220.832 666.175 217.991 670.949 216.91C674.799 216.062 678.671 215.405 682.587 214.917C685.293 214.578 687.999 214.302 690.705 214.069C695.369 213.666 700.034 213.539 704.72 213.624C709.648 213.709 714.554 214.027 719.46 214.599C724.322 215.15 729.184 215.871 733.936 216.995C738.666 218.118 741.592 221.108 742.67 225.687C743.55 229.376 744.232 233.086 744.716 236.838C745.09 239.721 745.398 242.626 745.662 245.53C746.036 249.749 746.146 253.989 746.058 258.229C745.97 262.956 745.64 267.684 745.046 272.39C744.452 277.076 743.726 281.74 742.56 286.319C741.394 290.898 738.27 293.697 733.496 294.735C729.646 295.583 725.774 296.241 721.858 296.707C718.888 297.067 715.918 297.343 712.948 297.597C710.924 297.767 708.9 297.831 706.876 297.937C706.788 297.937 706.722 297.979 706.634 298C704.72 298 702.806 298 700.892 298C700.76 297.979 700.65 297.958 700.518 297.958C699.814 297.937 699.109 297.937 698.405 297.937C698.185 297.958 697.965 297.958 697.745 297.958ZM733.804 255.494C733.738 254.498 733.716 253.501 733.628 252.505C733.408 250.088 732.858 247.777 731.824 245.551C729.8 241.184 726.566 237.962 721.968 236.096C718.008 234.506 713.894 234.04 709.648 234.697C707.008 235.1 704.478 235.863 702.19 237.22C697.459 239.976 694.687 244.067 693.389 249.176C692.663 252.081 692.575 255.049 692.795 258.017C692.993 260.582 693.543 263.062 694.643 265.437C696.821 270.122 700.32 273.472 705.336 275.253C709.516 276.737 713.806 277.033 718.162 276.101C725.356 274.553 730.108 270.355 732.528 263.698C733.496 261.027 733.76 258.271 733.804 255.494ZM673.545 275.931C677.197 275.931 680.827 275.931 684.457 275.931C684.457 266.264 684.457 256.618 684.457 246.95C680.805 246.95 677.175 246.95 673.545 246.95C673.545 256.618 673.545 266.264 673.545 275.931ZM673.545 242.965C677.197 242.965 680.827 242.965 684.457 242.965C684.457 240.336 684.457 237.707 684.457 235.1C680.805 235.1 677.175 235.1 673.545 235.1C673.545 237.707 673.545 240.336 673.545 242.965Z" fill="#FEB200"/>
<path d="M650.922 268.044C650.922 270.673 650.922 273.281 650.922 275.909C647.292 275.909 643.662 275.909 640.01 275.909C640.01 273.302 640.01 270.673 640.01 268.044C643.64 268.044 647.27 268.044 650.922 268.044Z" fill="#FEB301"/>
<path d="M722.819 255.326C722.797 257.573 722.555 259.778 721.697 261.855C720.905 263.785 719.76 265.459 717.868 266.562C716.262 267.495 714.48 267.77 712.654 267.686C709.2 267.516 706.802 265.841 705.262 262.915C704.36 261.177 703.92 259.311 703.744 257.382C703.546 255.029 703.634 252.676 704.272 250.365C704.668 248.923 705.284 247.588 706.252 246.401C707.484 244.853 709.112 243.899 711.092 243.539C713.072 243.178 715.052 243.242 716.944 243.963C719.342 244.895 720.795 246.676 721.719 248.923C722.555 250.98 722.797 253.142 722.819 255.326Z" fill="#FEB200"/>
<path d="M673.552 275.93C673.552 266.262 673.552 256.616 673.552 246.949C677.204 246.949 680.812 246.949 684.464 246.949C684.464 256.616 684.464 266.262 684.464 275.93C680.834 275.93 677.204 275.93 673.552 275.93Z" fill="#FEFEFD"/>
<path d="M673.552 242.963C673.552 240.335 673.552 237.727 673.552 235.098C677.182 235.098 680.812 235.098 684.464 235.098C684.464 237.727 684.464 240.335 684.464 242.963C680.834 242.963 677.204 242.963 673.552 242.963Z" fill="#FEFEFD"/>
<path fill-rule="evenodd" clip-rule="evenodd" d="M571.573 272.242C563.851 278.178 555.38 278.072 546.646 274.934C543.016 273.62 540.31 270.97 537.846 267.175C538.936 266.515 540.025 265.858 541.109 265.204L541.11 265.203L541.11 265.203C542.74 264.22 544.357 263.245 545.942 262.278C546.577 262.507 546.868 262.923 547.146 263.321C547.254 263.474 547.359 263.626 547.482 263.762C550.76 267.387 554.874 268.744 559.758 268.044C561.562 267.79 563.191 267.175 563.521 264.928C563.477 262.977 561.98 262.066 560.176 261.43C558.232 260.748 556.236 260.261 554.237 259.773C553.003 259.472 551.767 259.17 550.54 258.822C548.934 258.377 547.394 257.762 545.898 257.041C536.988 252.801 538.88 241.523 544.512 237.749C546.888 236.159 549.484 235.248 552.3 234.908C560.704 233.87 567.899 236.032 573.641 242.562C571.221 244.703 568.713 246.611 566.117 248.561L565.899 248.382L565.899 248.382C564.284 247.047 562.735 245.765 560.902 244.872C558.68 243.791 556.348 243.346 553.862 243.812C552.102 244.13 551.2 244.809 551.002 246.187C550.782 247.607 551.574 248.54 552.762 249.24C553.73 249.812 554.786 250.236 555.886 250.512C556.343 250.627 556.8 250.741 557.257 250.856C559.66 251.459 562.06 252.061 564.445 252.738C567.085 253.501 569.505 254.667 571.551 256.533C573.971 258.759 574.873 261.515 574.983 264.758C576.964 259.379 578.946 253.993 580.931 248.598L580.942 248.568C582.568 244.149 584.196 239.724 585.829 235.29H596.543C599.275 242.701 602 250.12 604.726 257.541L604.73 257.549L604.731 257.554C606.745 263.036 608.759 268.518 610.777 274.001L611.173 273.938V235.778C611.732 235.413 612.188 235.432 612.625 235.451C612.721 235.456 612.816 235.46 612.911 235.46H628.421C631.083 235.46 633.745 235.672 636.297 236.435C641.885 238.11 645.098 242.138 645.34 247.777C645.472 250.787 645.406 253.798 643.733 256.49C641.357 260.306 637.639 262.045 633.261 262.723C630.929 263.083 628.575 263.211 626.221 263.168C625.487 263.154 624.744 263.159 623.941 263.163L623.941 263.163C623.517 263.166 623.077 263.168 622.613 263.168V276.079H600.085C599.456 274.866 599.062 273.582 598.666 272.29C598.286 271.053 597.905 269.809 597.313 268.617H584.113C583.167 271.139 582.243 273.577 581.275 276.1H571.111C571.063 275.393 571.322 274.771 571.577 274.157C571.797 273.629 572.014 273.106 572.035 272.539C572.079 272.199 571.859 272.178 571.573 272.242ZM624.686 244.363L624.686 244.363C626.122 244.34 627.502 244.318 628.883 244.405C633.987 244.744 634.735 248.518 633.899 251.401C633.393 253.161 632.161 254.03 630.445 254.475C628.761 254.912 627.058 254.88 625.309 254.847C624.43 254.831 623.54 254.814 622.634 254.857V244.384C623.334 244.384 624.016 244.373 624.686 244.363ZM586.687 260.708H594.739C594.297 259.445 593.866 258.206 593.433 256.965C592.572 254.496 591.709 252.018 590.757 249.323C589.764 252.12 588.854 254.66 587.949 257.185C587.53 258.354 587.112 259.52 586.687 260.708Z" fill="#686868"/>
<path d="M733.802 255.492C733.758 258.269 733.494 261.025 732.526 263.675C730.106 270.332 725.354 274.529 718.16 276.077C713.804 277.01 709.514 276.734 705.334 275.229C700.318 273.448 696.82 270.099 694.642 265.413C693.542 263.06 692.991 260.558 692.793 257.993C692.573 255.025 692.661 252.057 693.387 249.153C694.686 244.044 697.458 239.952 702.188 237.196C704.498 235.86 707.006 235.097 709.646 234.673C713.892 234.016 718.006 234.482 721.966 236.072C726.564 237.938 729.798 241.16 731.822 245.528C732.856 247.754 733.406 250.064 733.626 252.481C733.714 253.478 733.736 254.474 733.802 255.492ZM722.824 255.322C722.802 253.138 722.582 250.976 721.724 248.92C720.8 246.672 719.326 244.892 716.95 243.959C715.058 243.217 713.078 243.153 711.098 243.535C709.118 243.895 707.49 244.87 706.258 246.397C705.29 247.584 704.674 248.92 704.278 250.361C703.64 252.672 703.552 255.025 703.75 257.378C703.904 259.308 704.344 261.173 705.268 262.912C706.808 265.837 709.206 267.512 712.66 267.682C714.508 267.766 716.268 267.512 717.874 266.558C719.766 265.456 720.91 263.781 721.702 261.852C722.56 259.753 722.802 257.569 722.824 255.322Z" fill="#FEFEFD"/>
<defs>
<clipPath id="clip0">
<rect width="746.088" height="187.946" fill="white"/>
</clipPath>
</defs>
</svg>
