<?xml version="1.0" encoding="UTF-8"?> <svg xmlns="http://www.w3.org/2000/svg" width="188" height="42" viewBox="0 0 188 42"><g><g><g></g><g><g><path fill="#153343" d="M102.597 1.956a.995.995 0 0 1-.401.065l-.482 3.337c.317.08.592.28.766.56a1.294 1.294 0 0 1-.352 1.74c-.27.188-.6.264-.924.211l-.795 3.042c.45.151.827.47 1.053.892.226.422.285.915.164 1.38a1.884 1.884 0 0 1-.816 1.117 1.85 1.85 0 0 1-1.352.25l-.835 3.196a1.007 1.007 0 0 1 .542.57 1.027 1.027 0 0 1-.262 1.117 1.005 1.005 0 0 1-1.124.16l-2.45 3.56a1.896 1.896 0 0 1 .196 2.762 1.854 1.854 0 0 1-2.587.131l-2.63 2.659a1.292 1.292 0 0 1-.117 1.775 1.262 1.262 0 0 1-1.76-.049 1.267 1.267 0 0 1-.269-.402l-3.569 1.162a1.905 1.905 0 0 1-.245 1.499 1.877 1.877 0 0 1-1.26.829 1.845 1.845 0 0 1-1.456-.378 1.88 1.88 0 0 1-.707-1.34l-2.082.03a1.29 1.29 0 0 1-.253.673 1.27 1.27 0 0 1-1.286.479 1.266 1.266 0 0 1-.812-.589l-4.84 2.375a1.294 1.294 0 0 1-.28 1.345 1.266 1.266 0 0 1-1.325.313l-.904 2.014c.417.224.733.603.88 1.057.146.454.112.947-.096 1.376-.207.43-.571.76-1.015.923a1.804 1.804 0 0 1-1.366-.05 1.832 1.832 0 0 1-.946-.996 1.858 1.858 0 0 1 .006-1.38c.179-.442.52-.796.953-.988a1.804 1.804 0 0 1 1.366-.04l.907-2.014a1.29 1.29 0 0 1-.427-1.826 1.26 1.26 0 0 1 1.543-.474l1.21-2.36a1.02 1.02 0 0 1-.372-1.21c.07-.183.193-.342.352-.457a1 1 0 0 1 .542-.19l.248-3.323a1.853 1.853 0 0 1-1.265-.778 1.895 1.895 0 0 1-.306-1.465 1.895 1.895 0 0 1 .847-1.227 1.854 1.854 0 0 1 1.466-.217l1.174-3.49a1.015 1.015 0 0 1-.278-.196 1.016 1.016 0 0 1-.307-.723 1.026 1.026 0 0 1 .295-.728 1.006 1.006 0 0 1 .72-.298.997.997 0 0 1 .716.31.952.952 0 0 1 .102.122l3.494-1.986a1.904 1.904 0 0 1-.123-1.29c.11-.43.368-.807.728-1.065a1.852 1.852 0 0 1 2.399.208c.14.14.258.303.348.482l4.905-2.122a1.904 1.904 0 0 1-.008-1.253c.138-.406.41-.753.771-.981a1.85 1.85 0 0 1 2.498.485l4.283-2.807a1.025 1.025 0 0 1 .267-1.24.999.999 0 0 1 1.257-.008l4.526-4.573a1.023 1.023 0 0 1 .292-1.516 1 1 0 0 1 1.093.064 1.017 1.017 0 0 1 .39 1.033 1.02 1.02 0 0 1-.273.507c-.098.096-.215.17-.342.22zm-11.367 8.52a1.902 1.902 0 0 1-.017 1.878c-.165.284-.401.52-.684.683a1.85 1.85 0 0 1-.93.248l-.327 5.013a1.813 1.813 0 0 1 1.086.547l3.564-3.11a1.022 1.022 0 0 1 .359-1.466.997.997 0 0 1 .542-.118l.36-1.912.045-.24.754-4.01a.997.997 0 0 1-.407-.25c-.023-.022-.043-.046-.063-.07l-4.28 2.809zm6.023 7.384l-1.878-1.896a1 1 0 0 1-1.298-.048l-3.563 3.115c.165.214.28.462.338.727l5.949-.946.286-.045.163-.027c-.01-.24.067-.476.214-.665l-.033-.034zM81.468 30.328a1.848 1.848 0 0 1 2.13-.36l2.394-4.296a1.015 1.015 0 0 1-.4-.659l-3.244.13a1.875 1.875 0 0 1-1.462 1.795c-.348.078-.71.054-1.045-.069l-1.642 3.75c.102.057.197.128.28.21.205.208.333.48.363.771l2.083-.03c.021-.467.215-.91.543-1.24zm-7.87.002c.095.172.139.367.126.563l2.634.492a1.285 1.285 0 0 1 .628-.785 1.257 1.257 0 0 1 .996-.08l1.638-3.75a1.9 1.9 0 0 1-.57-.467zm7.905-13.45l-.696 6.366c.182.03.359.09.522.176a1.847 1.847 0 0 1 .714.644l5.31-3.064a1.835 1.835 0 0 1-.19-.791 1.859 1.859 0 0 1 .296-1.06l-4.487-3.362a1.81 1.81 0 0 1-.377.547 1.83 1.83 0 0 1-1.092.544zm4.875 6.977a.996.996 0 0 1 .57.047l1.113-2.126a1.796 1.796 0 0 1-.587-.572l-5.31 3.061c.096.2.155.415.175.635l3.245-.13a1.017 1.017 0 0 1 .794-.915zm1.56-11.608l-4.904 2.121c.135.38.145.795.028 1.182l4.541 3.399a1.866 1.866 0 0 1 1.43-.673l.33-5.013a1.852 1.852 0 0 1-1.425-1.016zM73.892 22.876c.342.142.635.383.84.694.206.31.316.675.316 1.049l3.587.234c.06-.47.292-.9.65-1.203.36-.304.818-.46 1.286-.438l.697-6.324a1.858 1.858 0 0 1-1.314-.555 1.967 1.967 0 0 1-.248-.308l-3.5 1.98a1.027 1.027 0 0 1-.156 1.04 1.008 1.008 0 0 1-.984.344zm.607 3.08a1.857 1.857 0 0 1-1.343.548l-.245 3.323a1 1 0 0 1 .522.28l.023.026 5.455-4.025a1.891 1.891 0 0 1-.294-1.013l-3.588-.234a1.881 1.881 0 0 1-.53 1.092zm1.895 6.227a1.294 1.294 0 0 1-.076-.563l-2.633-.491a1.018 1.018 0 0 1-.518.611.997.997 0 0 1-.796.039l-1.219 2.358c.163.105.3.246.398.414zm11.7-2.377a1.296 1.296 0 0 1 .07-.78 1.28 1.28 0 0 1 .507-.592 1.26 1.26 0 0 1 1.472.106l2.63-2.658a1.892 1.892 0 0 1-.458-1.072l-4.727.132a1.024 1.024 0 0 1-.483.78 1 1 0 0 1-.91.067l-2.393 4.29c.325.214.575.524.717.889zm9.497-10.352l-.044-.04a1.003 1.003 0 0 1-.261-.44l-.326.053-.286.043-5.787.922a1.903 1.903 0 0 1-.773 1.707 1.855 1.855 0 0 1-1.848.186l-1.108 2.128a1.01 1.01 0 0 1 .424.69l4.728-.134c.012-.328.108-.648.28-.927a1.85 1.85 0 0 1 2.549-.619zm1.64-4.956a1.847 1.847 0 0 1-1.036-.866l-2.49 1.205a1.025 1.025 0 0 1-.162.956l1.817 1.836.18.176.093.095a1.003 1.003 0 0 1 .764-.207zm1.749-6.681a1.262 1.262 0 0 1-.812-.985l-2.873.227a1.022 1.022 0 0 1-.334.713 1 1 0 0 1-.739.255l-.754 3.997-.042.237-.365 1.928a1 1 0 0 1 .546.426l2.488-1.204a1.904 1.904 0 0 1 .292-1.905 1.848 1.848 0 0 1 1.796-.65zM101.965 2v.002h.001zm0 .002a.995.995 0 0 1-.36-.183L97.08 6.394c.097.125.164.272.195.429l2.873-.227a1.293 1.293 0 0 1 .402-.917 1.267 1.267 0 0 1 .933-.343z"></path></g></g><g><path fill="#153343" d="M0 24.559h1.471c.158 1.525 1.562 2.982 3.757 2.982 2.49 0 3.735-1.57 3.735-3.027 0-1.682-1.517-2.488-3.056-2.87l-2.105-.493C.588 20.389.113 18.528.113 17.295c0-2.555 2.376-4.215 4.956-4.215 2.648 0 4.754 1.614 4.844 4.192H8.42c-.087-1.703-1.517-2.802-3.395-2.802-1.765 0-3.417 1.099-3.417 2.825 0 .717.226 1.951 2.557 2.488l2.105.494c2.467.606 4.187 1.928 4.187 4.17 0 2.175-1.811 4.485-5.228 4.485C2.173 28.931.113 26.802 0 24.56z"></path></g><g><path fill="#153343" d="M25.895 13.26v15.448h-1.493V21.69h-8.578v7.018H14.33V13.26h1.494v7.107h8.578V13.26z"></path></g><g><path fill="#153343" d="M40.11 27.314v1.39h-9.14V13.26h8.89v1.39h-7.423v5.785h6.473v1.39h-6.473v5.492z"></path></g><g><path fill="#153343" d="M44.04 13.26h1.494v14.054h6.631v1.39H44.04z"></path></g><g><path fill="#153343" d="M56.945 14.647v5.784h5.77v1.39h-5.77v6.883H55.45V13.26h8.78v1.39z"></path></g><g><path fill="#153343" d="M118.68 27.457v1.39h-9.14V13.4h8.895v1.39h-7.432v5.784h6.473v1.394h-6.473v5.493z"></path></g><g><path fill="#153343" d="M133.633 13.4v15.447h-1.54l-7.99-12.87v12.87h-1.493V13.4h1.567l7.966 12.846V13.4z"></path></g><g><path fill="#153343" d="M137.57 21.156c0-4.397 3.44-7.936 7.876-7.936a7.735 7.735 0 0 1 4.957 1.793l-.996 1.009a6.4 6.4 0 0 0-3.96-1.412c-3.6 0-6.383 2.959-6.383 6.546 0 3.588 2.785 6.524 6.382 6.524 2.942 0 5.228-1.658 5.635-4.66l.023-.337h-4.683v-1.32h6.314c-.068 5.225-3.055 7.714-7.287 7.714-4.438-.006-7.878-3.549-7.878-7.92z"></path></g><g><path fill="#153343" d="M156.25 13.4h1.494v15.447h-1.493z"></path></g><g><path fill="#153343" d="M173.81 13.4v15.447h-1.54l-7.988-12.87v12.87h-1.492V13.4h1.567l7.966 12.846V13.4z"></path></g><g><path fill="#153343" d="M188 27.457v1.39h-9.14V13.4h8.895v1.39h-7.424v5.784h6.473v1.394h-6.473v5.493z"></path></g></g></g></svg> 