<?xml version="1.0" encoding="utf-8"?>
<!-- Generator: Adobe Illustrator 25.3.1, SVG Export Plug-In . SVG Version: 6.00 Build 0)  -->
<svg version="1.1" id="Layer_1" xmlns="http://www.w3.org/2000/svg" xmlns:xlink="http://www.w3.org/1999/xlink" x="0px" y="0px"
	 viewBox="0 0 180 60" style="enable-background:new 0 0 180 60;" xml:space="preserve">
<style type="text/css">
	.st0{fill:none;}
	.st1{fill:#00C0F3;}
</style>
<g>
	<rect x="2.1" y="-18.8" class="st0" width="178.4" height="99"/>
	<path class="st0" d="M44.6-18.8c0,3-2.3,5.4-5,5.4c-2.8,0-5-2.4-5-5.4h-4.8c0,5.6,4.4,10.2,9.8,10.2s9.8-4.6,9.8-10.2H44.6z"/>
	<path class="st0" d="M76.9,80.2c0-3,2.3-5.4,5-5.4s5,2.4,5,5.4h4.8c0-5.6-4.4-10.2-9.8-10.2s-9.8,4.6-9.8,10.2H76.9z"/>
	<path class="st0" d="M39.6-8.6c-5.4,0-9.8,4.6-9.8,10.2c0,5.6,4.4,10.2,9.8,10.2c5.4,0,9.8-4.6,9.8-10.2C49.4-4.1,45-8.6,39.6-8.6z
		 M39.6,7c-2.8,0-5-2.4-5-5.4c0-3,2.3-5.4,5-5.4c2.8,0,5,2.4,5,5.4C44.6,4.5,42.4,7,39.6,7z M81.9,49.6c-5.4,0-9.8,4.6-9.8,10.2
		c0,5.6,4.4,10.2,9.8,10.2c5.4,0,9.8-4.6,9.8-10.2C91.8,54.2,87.4,49.6,81.9,49.6z M81.9,65.2c-2.8,0-5-2.4-5-5.4c0-3,2.3-5.4,5-5.4
		c2.8,0,5,2.4,5,5.4C87,62.8,84.7,65.2,81.9,65.2z M12,20.5c-5.4,0-9.8,4.6-9.8,10.2c0,5.6,4.4,10.2,9.8,10.2s9.8-4.6,9.8-10.2
		C21.8,25,17.4,20.5,12,20.5z M12,36.1c-2.8,0-5-2.4-5-5.4c0-3,2.3-5.4,5-5.4s5,2.4,5,5.4C17,33.6,14.8,36.1,12,36.1z M170.7,20.5
		c-5.4,0-9.8,4.6-9.8,10.2c0,5.6,4.4,10.2,9.8,10.2c5.4,0,9.8-4.6,9.8-10.2C180.6,25,176.2,20.5,170.7,20.5z M170.7,36.1
		c-2.8,0-5-2.4-5-5.4c0-3,2.3-5.4,5-5.4c2.8,0,5,2.4,5,5.4C175.8,33.6,173.5,36.1,170.7,36.1z"/>
	<g>
		<path class="st1" d="M67.6,20.4c-5.4,0-9.8,4.6-9.8,10.2c0,5.6,4.4,10.2,9.8,10.2c5.4,0,9.8-4.6,9.8-10.2
			C77.4,25,73,20.4,67.6,20.4z M67.6,36c-2.8,0-5-2.4-5-5.4c0-3,2.3-5.4,5-5.4c2.8,0,5,2.4,5,5.4C72.6,33.6,70.4,36,67.6,36z
			 M89.3,20.4c-5.4,0-9.8,4.6-9.8,10.2c0,0,0,0,0,0h0v19h4.8V39.3c1.5,0.9,3.2,1.4,5,1.4c5.4,0,9.8-4.6,9.8-10.2
			C99.1,25,94.7,20.4,89.3,20.4z M89.3,36c-2.7,0-4.8-2.2-5-5v-0.4h0c0,0,0,0,0,0c0-3,2.3-5.4,5-5.4c2.8,0,5,2.4,5,5.4
			C94.3,33.6,92,36,89.3,36z M55.7,30.6v9.7H51v-9.7c0-3-2.3-5.4-5-5.4c-1.4,0-2.7,0.7-3.7,1.7v13.4h-4.8V11.7h4.8v9.5
			c1.1-0.5,2.4-0.7,3.7-0.7C51.4,20.4,55.7,25,55.7,30.6z M120.2,20.4h4.8v19.8h-4.8V20.4z M125.3,14.6c0,1.5-1.2,2.7-2.7,2.7
			s-2.7-1.2-2.7-2.7s1.2-2.7,2.7-2.7S125.3,13.1,125.3,14.6z M35.4,34.6c0,3.2-2.6,5.7-5.7,5.7h-7.8v-4.8h7.8c0.5,0,1-0.4,1-1
			c0-0.3-0.2-0.7-0.5-0.8l-4.9-2c0,0-0.1,0-0.1-0.1c-2-1-3.3-3.1-3.3-5.3c0-3.2,2.6-5.9,5.9-5.9l7.1,0l0,4.8l-7.1,0
			c-0.6,0-1.1,0.5-1.1,1.1c0,0.4,0.2,0.8,0.6,1l4.9,2c0,0,0.1,0,0.1,0.1C34.2,30.4,35.4,32.4,35.4,34.6z M136.6,20.4h4.7v4.9h-4.7
			c-2.7,0-4.9,2.1-4.9,5s2.2,5,4.9,5h4.7v5h-4.7c-5.9,0-9.9-4.5-9.9-10S130.5,20.4,136.6,20.4z M162.7,38h1.8v0.3h-0.7v2h-0.3v-2
			h-0.7V38z M167.5,38v2.3h-0.3v-1.9h0l-0.8,1.9h-0.2l-0.8-1.9h0v1.9h-0.3V38h0.5l0.7,1.7h0L167,38H167.5z M117.8,35.7v4.6H113v-4.6
			c0-2.8-2.4-5-5.4-5c-0.6,0-1.2,0.1-1.7,0.3v9.3h-4.8V11.8h4.8v13.7c0.5,0.2,1.1,0.3,1.7,0.3c2.8,0,5-2.4,5-5.4h4.8
			c0,3-1.3,5.8-3.3,7.6C116.3,29.9,117.8,32.6,117.8,35.7z M160.3,35.7v4.6h-4.8v-4.6c0-2.8-2.4-5-5.4-5c-0.6,0-1.2,0.1-1.7,0.3v9.3
			h-4.8V11.8h4.8v13.7c0.5,0.2,1.1,0.3,1.7,0.3c2.8,0,5-2.4,5-5.4h4.8c0,3-1.3,5.8-3.3,7.6C158.9,29.9,160.3,32.6,160.3,35.7z"/>
		<g id="_x23_8C96A0_00000072998591526727345360000016904801618411087036_">
			<g>
				<g>
					<polygon class="st1" points="112.7,46.6 114.4,44.2 112.8,44.2 111.9,45.4 					"/>
					<polygon class="st1" points="111.9,48.3 112.8,49.5 114.4,49.5 112.7,47.1 					"/>
				</g>
				<path class="st1" d="M106.3,44.1c-1.3,0-2.1,0.7-2.1,0.7l0.5,0.9c0,0,0.7-0.5,1.4-0.5c0.6,0,1.1,0.3,1.1,0.8V46H107
					c-0.9,0-3.3,0.2-3.3,1.9c0,1.1,0.9,1.6,1.9,1.6c1.3,0,1.7-0.9,1.7-0.9h0c0,0,0,0.2,0,0.4v0.4h1.3v-3.3
					C108.6,44.8,107.7,44.1,106.3,44.1z M107.2,47.1c0,0.6-0.5,1.5-1.3,1.5c-0.6,0-0.8-0.3-0.8-0.7c0-0.7,1.1-0.9,1.9-0.9h0.2V47.1z
					"/>
				<polygon class="st1" points="112.4,46.8 110.6,44.2 108.9,44.2 110.8,46.8 108.9,49.5 110.6,49.5 				"/>
				<path class="st1" d="M97,45.5h-0.7v-1.3H97v-1.3h1.4v1.3h1.4v1.3h-1.4v1.8c0,0.9,0.7,1,1.1,1c0.2,0,0.3,0,0.3,0v1.2
					c0,0-0.2,0-0.4,0c-0.8,0-2.3-0.2-2.3-2V45.5z"/>
				<path class="st1" d="M100.5,44.2h1.3V45c0,0.2,0,0.4,0,0.4h0c0.3-0.8,0.9-1.3,1.8-1.3c0.1,0,0.3,0,0.3,0v1.4c0,0-0.1,0-0.3,0
					c-0.6,0-1.3,0.3-1.5,1.1c-0.1,0.3-0.1,0.5-0.1,0.9v2h-1.4V44.2z"/>
			</g>
			<g>
				<path class="st1" d="M91.3,46.2h0.3v-0.1c0-1-0.6-1.4-1.3-1.4c-0.9,0-1.5,0.5-1.5,0.5l-0.3-0.5c0,0,0.7-0.6,1.9-0.6
					c1.3,0,2,0.7,2,2v3.4h-0.7v-0.6c0-0.3,0-0.4,0-0.4h0c0,0-0.4,1.1-1.8,1.1c-0.9,0-1.8-0.5-1.8-1.6C88.1,46.3,90.4,46.2,91.3,46.2
					z M90,49c1,0,1.6-1,1.6-2v-0.2h-0.3c-0.8,0-2.5,0-2.5,1.2C88.9,48.5,89.2,49,90,49z"/>
			</g>
			<g>
				<path class="st1" d="M120.6,44.1c1.3,0,1.9,0.8,1.9,0.8l-0.4,0.5c0,0-0.6-0.6-1.5-0.6c-1.1,0-2,0.9-2,2.1c0,1.2,0.9,2.1,2.1,2.1
					c1.1,0,1.7-0.7,1.7-0.7l0.3,0.6c0,0-0.7,0.8-2,0.8c-1.6,0-2.8-1.1-2.8-2.7C117.8,45.2,119.1,44.1,120.6,44.1z"/>
				<path class="st1" d="M125.9,44.1c1.5,0,2.8,1.2,2.8,2.7c0,1.6-1.2,2.8-2.8,2.8c-1.5,0-2.8-1.2-2.8-2.8
					C123.1,45.3,124.3,44.1,125.9,44.1z M125.9,49c1.1,0,2-0.9,2-2.1c0-1.2-0.9-2.1-2-2.1c-1.1,0-2,0.9-2,2.1
					C123.8,48.1,124.8,49,125.9,49z"/>
				<path class="st1" d="M129.8,44.2h0.7V45c0,0.2,0,0.4,0,0.4h0c0.3-0.7,1.1-1.3,1.9-1.3c1,0,1.5,0.4,1.6,1.3h0
					c0.3-0.7,1-1.3,1.9-1.3c1.3,0,1.7,0.7,1.7,2v3.3H137v-3.2c0-0.9-0.2-1.6-1.1-1.6c-0.8,0-1.5,0.7-1.7,1.5
					c-0.1,0.2-0.1,0.5-0.1,0.8v2.5h-0.7v-3.2c0-0.8-0.1-1.6-1.1-1.6c-0.9,0-1.5,0.7-1.7,1.5c-0.1,0.2-0.1,0.5-0.1,0.7v2.5h-0.7V44.2
					z"/>
				<path class="st1" d="M139.1,44.2h0.7v0.5c0,0.2,0,0.4,0,0.4h0c0,0,0.4-1,1.8-1c1.4,0,2.3,1.1,2.3,2.8c0,1.7-1,2.7-2.3,2.7
					c-1.3,0-1.7-1-1.7-1h0c0,0,0,0.2,0,0.5v2.5h-0.7V44.2z M141.5,49c0.9,0,1.7-0.8,1.7-2.1c0-1.3-0.7-2.1-1.7-2.1
					c-0.9,0-1.7,0.6-1.7,2.1C139.8,47.9,140.4,49,141.5,49z"/>
				<path class="st1" d="M147.9,46.2h0.3v-0.1c0-1-0.6-1.4-1.3-1.4c-0.9,0-1.5,0.5-1.5,0.5l-0.3-0.5c0,0,0.7-0.6,1.9-0.6
					c1.3,0,2,0.7,2,2v3.4h-0.7v-0.6c0-0.3,0-0.4,0-0.4h0c0,0-0.4,1.1-1.8,1.1c-0.9,0-1.8-0.5-1.8-1.6
					C144.6,46.3,146.9,46.2,147.9,46.2z M146.5,49c1,0,1.6-1,1.6-2v-0.2h-0.3c-0.8,0-2.5,0-2.5,1.2C145.4,48.5,145.8,49,146.5,49z"
					/>
				<path class="st1" d="M150.3,44.2h0.7V45c0,0.2,0,0.4,0,0.4h0c0.2-0.5,0.9-1.3,2.1-1.3c1.3,0,1.8,0.7,1.8,2v3.3h-0.7v-3.2
					c0-0.8-0.1-1.6-1.1-1.6c-0.9,0-1.7,0.6-1.9,1.5c-0.1,0.2-0.1,0.5-0.1,0.7v2.5h-0.7V44.2z"/>
				<path class="st1" d="M155.6,50.8c0,0,0.3,0.2,0.6,0.2c0.5,0,0.8-0.4,1-0.9l0.3-0.7l-2.2-5.2h0.8l1.5,3.8
					c0.1,0.3,0.2,0.6,0.2,0.6h0c0,0,0.1-0.3,0.2-0.6l1.5-3.8h0.8l-2.6,6.3c-0.3,0.7-0.8,1.1-1.5,1.1c-0.5,0-0.9-0.3-0.9-0.3
					L155.6,50.8z"/>
			</g>
		</g>
	</g>
</g>
</svg>
