<?xml version="1.0" encoding="utf-8"?>
<!-- Generator: Adobe Illustrator 25.2.3, SVG Export Plug-In . SVG Version: 6.00 Build 0)  -->
<svg version="1.1" id="Layer_1" xmlns="http://www.w3.org/2000/svg" xmlns:xlink="http://www.w3.org/1999/xlink" x="0px" y="0px"
	 viewBox="0 0 600 150" style="enable-background:new 0 0 600 150;" xml:space="preserve">
<style type="text/css">
	.st0{fill:#28A8E0;}
	.st1{fill:#434343;}
</style>
<g>
	<g>
		<g>
			<path class="st0" d="M95.8,86.9c0-0.5,0.1-1.2,0-2.1V11.9c0-2-0.9-3.9-2.6-5.1C87.3,2.3,70.7,5.5,57.8,9c-20.6,5.6-31,12.3-31,20
				v14.2H6.1c-2,0-3.6,1.6-3.6,3.6l0,27.7c0.1,0.5,1.8,11.9,15.8,17.3c1.8,0.7,3.9-0.2,4.6-2.1c0.7-1.8-0.2-3.9-2.1-4.6
				C11.1,81.3,9.7,74,9.6,74V50.3h17.2l0,49.6l-6.8,5.5c-1.4-1.1-3.2-1.7-5.2-1.7c-4.8,0-8.7,3.9-8.7,8.7c0,4.8,3.9,8.7,8.7,8.7
				c4.8,0,8.7-3.9,8.7-8.7c0-1.3-0.3-2.6-0.9-3.7l4.1-3.3l0,0l0.5-0.4l13-10.6c2.4,2.3,9,6.9,23.6,6.9c10.5,0,19.1-1.8,24.7-4.8
				v10.7c0,2.2-9.6,7.5-27.3,7.5c-17.8,0-27.4-5.3-27.4-7.5v-4l-6.9,5.8c2,8.5,18.2,12.9,34.3,12.9c17.1,0,34.5-5,34.5-14.7V87.2
				c0,0,0,0,0,0V86.9z M14.9,116.2c-2.1,0-3.8-1.7-3.8-3.8c0-2.1,1.7-3.7,3.8-3.7c2.1,0,3.8,1.7,3.8,3.7
				C18.6,114.6,17,116.2,14.9,116.2z M88.6,72.4C84,68.2,76.4,63.9,64,60.6C51,57,49.6,53.1,49.5,52c-0.2-2.1,2.5-6.1,10.9-10.4
				c10.2-5.2,22.4-6.7,28.2-7.1V72.4z M63.9,94.2c-14.5,0-18.8-5.2-18.8-5.2c-1.1-1.6-3.4-2-5-0.9c-0.7,0.5-1.2,1.2-1.4,2L34,94.1
				l0-44.6v0V29c0-2.4,6.9-7.9,25.8-13.1c19-5.2,27.8-4.5,28.9-4v15.5c-6.3,0.4-19.8,1.9-31.5,7.9c-10.3,5.3-15.4,11.3-14.8,17.5
				c0.7,6.4,7.1,11.2,19.8,14.7c24.4,6.7,26.4,16.3,26.5,18.7v0.5c0,0,0,0,0,0C88.6,89.3,81.2,94.2,63.9,94.2z"/>
			<path class="st0" d="M44.9,128.3c0-1.8-1.5-3.3-3.3-3.3c-1.8,0-3.3,1.5-3.3,3.3c0,1.8,1.5,3.3,3.3,3.3
				C43.4,131.6,44.9,130.1,44.9,128.3z"/>
			<path class="st0" d="M62.5,127.6c-1.9,0-3.3,1.5-3.3,3.3c0,1.8,1.5,3.3,3.3,3.3c1.8,0,3.3-1.5,3.3-3.3
				C65.9,129.1,64.4,127.6,62.5,127.6z"/>
			<path class="st0" d="M83.1,124.9c-1.8,0-3.3,1.5-3.3,3.3c0,1.8,1.5,3.3,3.3,3.3c1.8,0,3.3-1.5,3.3-3.3
				C86.5,126.4,85,124.9,83.1,124.9z"/>
			<path class="st0" d="M44.9,139.6c0-1.8-1.5-3.3-3.3-3.3c-1.8,0-3.3,1.5-3.3,3.3c0,1.8,1.5,3.3,3.3,3.3
				C43.4,142.9,44.9,141.4,44.9,139.6z"/>
			<path class="st0" d="M62.5,138.9c-1.9,0-3.3,1.5-3.3,3.3c0,1.8,1.5,3.3,3.3,3.3c1.8,0,3.3-1.5,3.3-3.3
				C65.9,140.4,64.4,138.9,62.5,138.9z"/>
			<path class="st0" d="M83.1,136.3c-1.8,0-3.3,1.5-3.3,3.3c0,1.8,1.5,3.3,3.3,3.3c1.8,0,3.3-1.5,3.3-3.3
				C86.5,137.8,85,136.3,83.1,136.3z"/>
		</g>
		<g>
			<path class="st1" d="M162.1,51.8c-9.1,0-13.4,4-13.4,7.9c0,5.6,6.6,7.1,14.4,8.1c13.6,1.8,26,5.1,26,20.6
				c0,14.4-12.7,20.6-27.1,20.6c-13.2,0-23.4-4.1-28.1-15.9l10.1-5.3c3,7.1,10.2,10.2,18.2,10.2c7.7,0,14.8-2.7,14.8-9.7
				c0-6.1-6.4-8.5-14.9-9.5c-13.2-1.5-25.4-5.2-25.4-19.5c0-12.1,13.1-18.2,25-18.2c10.1,0,20.4,2.9,25.4,12.8l-9.7,5
				C175.2,55.3,169.1,51.8,162.1,51.8z"/>
			<path class="st1" d="M222.5,42.8h12.1v64.5h-12.1V42.8z"/>
			<path class="st1" d="M272.2,42.6h46.4v11.7h-34.2v17.9h32.4v11.2h-32.4v23.9h-12.2V42.6z"/>
			<path class="st1" d="M344.5,53.8V42.8h53.1v11.1h-20.5v53.5h-12.2V53.8H344.5z"/>
			<path class="st1" d="M426.5,107.3V42.8h48.3v11.8h-36.2v14.8h34.9v11.3h-34.9v14.6h36.2v12H426.5z"/>
			<path class="st1" d="M553.4,107.3l-18.7-21.6h-12.4v21.6h-12.2V42.7c10.3,0,20.4,0.1,30.7,0.1c15.2,0,23.2,10.3,23.2,21.4
				c0,8.9-4.1,17.8-16.3,20.3l19.5,22v0.8H553.4z M522.3,74.7h18.5c7.7,0,11.1-5.2,11.1-10.3c0-5.2-3.4-10.3-11.1-10.3h-18.5V74.7z"
				/>
		</g>
	</g>
	<g>
		<path class="st1" d="M574.4,44.7v-2h9.5v2h-3.6v9.5H578v-9.5H574.4z"/>
		<path class="st1" d="M591.8,50.9h-0.4l-3.7-5v8.4h-2.2V42.8h2.5l3.6,4.9l3.6-4.9h2.5v11.5h-2.2v-8.4L591.8,50.9z"/>
	</g>
</g>
</svg>
