<svg width="128" height="28" fill="none" xmlns="http://www.w3.org/2000/svg"><g clip-path="url(#clip0)"><path d="M26.518 3.387c-2.327-2.344-4.31-2.344-6.637 0L5.92 17.45 7.9 19.448c2.327 2.344 4.31 2.344 6.637 0L28.5 5.384l-1.982-1.997zm3.318 3.342l-7.628 7.727c-1.81 1.823-1.81 4.21-.345 5.687 1.466 1.476 3.836 1.519 5.646-.348l4.31-4.34c2.326-2.345 2.326-4.385 0-6.729L29.835 6.73zm-17.28-3.993c-1.466-1.476-3.793-1.52-5.646.303L2.6 7.38C.316 9.724.316 11.765 2.6 14.11l1.983 1.996 7.627-7.683c1.853-1.866 1.81-4.21.345-5.686zm55.117 3.993h-4.61l-5.215 5.122V.782h-3.75v20.793h3.75v-5.166l1.767-1.78 4.395 6.946h4.223l-5.99-9.507 5.43-5.339zm14.653 0h-3.793v7.9c0 1.173-.345 2.171-.991 2.996-.69.781-1.508 1.215-2.586 1.215-.862 0-1.508-.303-1.896-.911-.43-.608-.603-1.52-.603-2.778V6.729h-3.792v8.378c0 2.214.43 3.907 1.292 5.036.862 1.128 2.155 1.736 3.836 1.736 1.12 0 2.111-.26 2.973-.781.862-.521 1.509-1.216 1.853-2.127h.043c0 .868.13 1.736.259 2.604h3.577a33.14 33.14 0 0 1-.216-3.776V6.729h.044zm10.472-.304a5.86 5.86 0 0 0-2.63.608 5.007 5.007 0 0 0-1.895 1.65h-.043c0-.695-.044-1.346-.087-1.954H84.61c.087 1.042.13 2.344.13 3.95v16.843h3.792v-7.466h.086c.345.564.905.998 1.638 1.345a6.42 6.42 0 0 0 2.5.478c1.939 0 3.447-.695 4.524-2.04 1.078-1.346 1.638-3.256 1.638-5.644 0-2.387-.56-4.297-1.638-5.686-1.12-1.39-2.628-2.084-4.481-2.084zm1.465 11.33c-.56.868-1.336 1.302-2.37 1.302-.949 0-1.767-.304-2.414-.955-.646-.651-.99-1.432-.99-2.387v-3.039c0-.998.3-1.78.947-2.387.647-.608 1.465-.912 2.5-.912 2.111 0 3.145 1.563 3.145 4.732 0 1.519-.301 2.778-.818 3.646zm13.704-11.503c-2.37 0-4.223.694-5.559 2.04-1.336 1.346-2.026 3.256-2.026 5.687 0 2.43.647 4.297 2.026 5.686 1.336 1.346 3.189 2.04 5.559 2.04s4.223-.694 5.602-2.04c1.336-1.345 2.026-3.255 2.026-5.686s-.69-4.298-2.026-5.687c-1.336-1.346-3.232-2.04-5.602-2.04zm2.844 11.33c-.689.868-1.638 1.302-2.844 1.302-1.207 0-2.155-.434-2.801-1.303-.69-.868-1.035-2.083-1.035-3.602 0-1.52.345-2.735 1.035-3.603.689-.868 1.594-1.303 2.801-1.303 1.206 0 2.155.435 2.844 1.303.69.868 1.034 2.083 1.034 3.603 0 1.519-.344 2.734-1.034 3.602zM50.435 11.33c-.732-.608-1.724-1.172-2.973-1.78a18.012 18.012 0 0 1-1.293-.651c-.646-.348-1.207-.608-1.595-.868-.646-.391-1.077-.738-1.335-1.042a1.594 1.594 0 0 1-.388-1.085c0-.652.258-1.173.732-1.52s1.207-.52 2.112-.52c1.422 0 2.629.607 3.62 1.822l2.413-2.43c-.517-.825-1.293-1.476-2.284-1.954C48.281.74 46.988.435 45.48.435c-1.335 0-2.542.217-3.576.695-1.035.434-1.853 1.085-2.414 1.91-.56.824-.862 1.78-.862 2.865 0 .998.216 1.866.604 2.604.387.738 1.034 1.432 1.853 2.084.56.39 1.25.824 2.025 1.302.431.26.905.477 1.422.738 1.12.564 1.94.998 2.414 1.302.474.347.818.651.99.955.173.304.26.738.26 1.215 0 .695-.26 1.216-.82 1.65-.56.434-1.292.608-2.197.608-.82 0-1.681-.26-2.586-.738a7.82 7.82 0 0 1-2.37-1.91l-2.457 2.387a8.102 8.102 0 0 0 3.06 2.735c1.25.651 2.629.955 4.18.955 1.466 0 2.758-.26 3.879-.738 1.12-.477 1.982-1.172 2.542-2.084.604-.911.905-1.953.905-3.125 0-.998-.172-1.867-.474-2.604-.215-.652-.732-1.346-1.422-1.91zm77.054 3.906c-.259-.52-.733-.955-1.336-1.389-.604-.39-1.465-.825-2.543-1.259-.043-.043-.129-.043-.172-.087-.043 0-.086-.043-.129-.043-.087-.043-.173-.087-.302-.13a.611.611 0 0 0-.259-.087c-.086-.043-.172-.087-.215-.087h-.043c-.086-.043-.13-.043-.216-.087h-.043c-.043-.043-.129-.043-.172-.086-.043 0-.043 0-.086-.044-.043 0-.087-.043-.13-.043-.043 0-.043-.044-.086-.044s-.043-.043-.086-.043c-.043-.043-.086-.043-.172-.087-.388-.217-.647-.39-.776-.564a1.112 1.112 0 0 1-.216-.695c0-.39.173-.694.474-.911.345-.217.776-.304 1.379-.304 1.164 0 2.112.434 2.802 1.259l1.939-1.954c-.517-.65-1.164-1.128-1.896-1.519-.905-.434-1.896-.651-2.974-.651-1.637 0-2.973.39-3.965 1.128-.991.738-1.508 1.737-1.508 2.952 0 1.042.345 1.91 1.078 2.648.086.087.172.174.258.217.043.044.086.044.129.087.043.043.13.087.173.13a.594.594 0 0 0 .172.13c.043.044.129.087.173.13.043.044.129.088.172.13a.325.325 0 0 0 .172.088c.086.043.13.086.216.13.043.043.129.043.172.087l.259.13c.043.043.129.043.172.087.086.043.172.087.302.13.043.043.129.043.172.087.086.043.216.087.302.13.043 0 .043.043.086.043.086.044.215.087.302.13.172.087.344.13.517.218 1.034.39 1.68.738 2.025.955.302.26.474.564.474.998 0 .521-.215.955-.646 1.302-.431.348-.991.521-1.638.521-.56 0-1.12-.13-1.68-.434a3.899 3.899 0 0 1-1.336-1.172l-2.069 2.084c.388.65.991 1.172 1.81 1.606.991.52 2.112.781 3.361.781 1.164 0 2.241-.217 3.103-.608.905-.39 1.595-.954 2.112-1.692.517-.738.732-1.563.732-2.518.044-.695-.086-1.302-.344-1.78z" fill="#05AA76"/></g><defs><clipPath id="clip0"><path fill="#fff" transform="translate(.876 .479)" d="M0 0H127V27H0z"/></clipPath></defs></svg>