<?xml version="1.0" encoding="utf-8"?>
<!-- Generator: Adobe Illustrator 22.0.1, SVG Export Plug-In . SVG Version: 6.00 Build 0)  -->
<svg version="1.1" id="Layer_1" xmlns="http://www.w3.org/2000/svg" xmlns:xlink="http://www.w3.org/1999/xlink" x="0px" y="0px"
	 viewBox="0 0 495.5 138.7" style="enable-background:new 0 0 495.5 138.7;" xml:space="preserve">
<style type="text/css">
	.st0{enable-background:new    ;}
	.st1{fill:#02313C;}
	.st2{fill:#CF4827;}
	.st3{fill:#74AA4F;}
	.st4{fill:#FFFFFF;}
	.st5{opacity:0.6;fill:#CF4827;enable-background:new    ;}
</style>
<g class="st0">
	<path class="st1" d="M11.5,129.3h-0.1l-6.7-9.9v14.9h-2v-18.5h2.1l6.7,10.1l6.7-10.1h2.1v18.5h-2.1v-15L11.5,129.3z"/>
	<path class="st1" d="M26,123.3l-0.6-1.7c1.5-0.7,3-1.1,5-1.1c3.7,0,5.8,1.9,5.8,5.5v8.3h-2v-2.1c-1,1.2-2.5,2.3-4.9,2.3
		c-2.5,0-5.1-1.4-5.1-4.3c0-2.9,2.4-4.4,5.8-4.4c1.7,0,3,0.2,4.2,0.6V126c0-2.5-1.5-3.7-4.1-3.7C28.5,122.3,27.2,122.7,26,123.3z
		 M26.2,130.3c0,1.7,1.6,2.7,3.4,2.7c2.5,0,4.6-1.5,4.6-3.7V128c-1-0.3-2.3-0.6-4-0.6C27.6,127.4,26.2,128.5,26.2,130.3z"/>
	<path class="st1" d="M52.6,134.3h-2.4l-4.9-6.4l-2.8,2.8v3.6h-2v-19.3h2v13.3l7.4-7.7h2.5l-5.7,5.9L52.6,134.3z"/>
	<path class="st1" d="M55.5,117.7v-2.2h2.3v2.2H55.5z M55.7,134.3v-13.6h2v13.6H55.7z"/>
	<path class="st1" d="M64.5,134.3h-2v-13.6h2v2.4c0.9-1.5,2.3-2.7,4.7-2.7c3.3,0,5.2,2.2,5.2,5.5v8.5h-2v-8c0-2.5-1.4-4.1-3.8-4.1
		c-2.3,0-4.1,1.7-4.1,4.3V134.3z"/>
	<path class="st1" d="M84.7,138.6c-2.3,0-4.4-0.6-6.2-1.9l0.9-1.6c1.6,1.1,3.3,1.7,5.3,1.7c3,0,5-1.7,5-4.9v-1.6
		c-1.2,1.6-2.9,2.9-5.4,2.9c-3.3,0-6.4-2.4-6.4-6.4c0-4,3.2-6.5,6.4-6.5c2.6,0,4.2,1.3,5.3,2.7v-2.5h2V132
		C91.7,136.4,88.9,138.6,84.7,138.6z M84.7,122.2c-2.6,0-4.7,1.8-4.7,4.6c0,2.8,2.2,4.7,4.7,4.7c2.6,0,5-1.8,5-4.6
		C89.7,124,87.3,122.2,84.7,122.2z"/>
	<path class="st1" d="M110.8,134.8c-1.2,2.8-2.5,3.9-4.5,3.9c-1.1,0-2-0.2-2.9-0.7l0.7-1.6c0.7,0.3,1.3,0.5,2.1,0.5
		c1.2,0,2-0.6,2.8-2.6l-6.2-13.6h2.2l5,11.4l4.4-11.4h2.2L110.8,134.8z"/>
	<path class="st1" d="M125.2,134.6c-4.1,0-7.1-3.2-7.1-7.1s3-7.2,7.1-7.2c4.1,0,7.1,3.2,7.1,7.1
		C132.3,131.4,129.3,134.6,125.2,134.6z M125.2,122.2c-3,0-5,2.3-5,5.3c0,3,2.2,5.3,5,5.3c3,0,5-2.3,5-5.3
		C130.3,124.6,128.1,122.2,125.2,122.2z"/>
	<path class="st1" d="M145.7,120.7h2v13.6h-2V132c-0.9,1.5-2.3,2.7-4.7,2.7c-3.3,0-5.2-2.2-5.2-5.5v-8.5h2v8c0,2.5,1.4,4.1,3.8,4.1
		c2.3,0,4.1-1.7,4.1-4.3V120.7z"/>
	<path class="st1" d="M154.3,134.3h-2v-13.6h2v3.6c1-2.3,3-3.9,5.6-3.8v2.2h-0.2c-3,0-5.4,2.1-5.4,6.3V134.3z"/>
	<path class="st1" d="M181.8,134.3v-2.7c-1.1,1.6-2.7,3-5.2,3c-3.3,0-6.5-2.6-6.5-7.1c0-4.5,3.2-7.1,6.5-7.1c2.5,0,4.2,1.4,5.2,2.9
		v-8.2h2v19.3H181.8z M177,122.2c-2.6,0-4.8,2-4.8,5.3c0,3.2,2.2,5.3,4.8,5.3c2.5,0,4.9-2.1,4.9-5.3
		C181.9,124.3,179.5,122.2,177,122.2z"/>
	<path class="st1" d="M189.2,123.3l-0.6-1.7c1.5-0.7,3-1.1,5-1.1c3.7,0,5.8,1.9,5.8,5.5v8.3h-2v-2.1c-1,1.2-2.5,2.3-4.9,2.3
		c-2.5,0-5.1-1.4-5.1-4.3c0-2.9,2.4-4.4,5.8-4.4c1.7,0,3,0.2,4.2,0.6V126c0-2.5-1.5-3.7-4.1-3.7
		C191.7,122.3,190.5,122.7,189.2,123.3z M189.4,130.3c0,1.7,1.6,2.7,3.4,2.7c2.5,0,4.6-1.5,4.6-3.7V128c-1-0.3-2.3-0.6-4-0.6
		C190.9,127.4,189.4,128.5,189.4,130.3z"/>
	<path class="st1" d="M206.3,130.5c0,1.7,0.9,2.3,2.3,2.3c0.7,0,1.3-0.1,2-0.5v1.7c-0.7,0.4-1.5,0.6-2.5,0.6c-2.2,0-3.9-1.1-3.9-3.9
		v-8.2h-1.9v-1.8h1.9v-4.1h2v4.1h4.3v1.8h-4.3V130.5z"/>
	<path class="st1" d="M215,123.3l-0.6-1.7c1.5-0.7,3-1.1,5-1.1c3.7,0,5.8,1.9,5.8,5.5v8.3h-2v-2.1c-1,1.2-2.5,2.3-4.9,2.3
		c-2.5,0-5.1-1.4-5.1-4.3c0-2.9,2.4-4.4,5.8-4.4c1.7,0,3,0.2,4.2,0.6V126c0-2.5-1.5-3.7-4.1-3.7C217.6,122.3,216.3,122.7,215,123.3z
		 M215.3,130.3c0,1.7,1.6,2.7,3.4,2.7c2.5,0,4.6-1.5,4.6-3.7V128c-1-0.3-2.3-0.6-4-0.6C216.7,127.4,215.3,128.5,215.3,130.3z"/>
	<path class="st1" d="M253.1,120.4c3.1,0,5.1,2.1,5.1,5.5v8.4h-2v-8c0-2.6-1.3-4.1-3.5-4.1c-2.1,0-3.8,1.5-3.8,4.2v7.9h-2v-8
		c0-2.6-1.3-4.1-3.5-4.1s-3.8,1.8-3.8,4.3v7.8h-2v-13.6h2v2.3c0.9-1.3,2.1-2.6,4.4-2.6c2.2,0,3.6,1.2,4.4,2.7
		C249.2,121.6,250.7,120.4,253.1,120.4z"/>
	<path class="st1" d="M263.3,123.3l-0.6-1.7c1.5-0.7,3-1.1,5-1.1c3.7,0,5.8,1.9,5.8,5.5v8.3h-2v-2.1c-1,1.2-2.5,2.3-4.9,2.3
		c-2.5,0-5.1-1.4-5.1-4.3c0-2.9,2.4-4.4,5.8-4.4c1.7,0,3,0.2,4.2,0.6V126c0-2.5-1.5-3.7-4.1-3.7
		C265.9,122.3,264.6,122.7,263.3,123.3z M263.6,130.3c0,1.7,1.6,2.7,3.4,2.7c2.5,0,4.6-1.5,4.6-3.7V128c-1-0.3-2.3-0.6-4-0.6
		C265,127.4,263.6,128.5,263.6,130.3z"/>
	<path class="st1" d="M289.9,134.3h-2.4l-4.9-6.4l-2.8,2.8v3.6h-2v-19.3h2v13.3l7.4-7.7h2.5l-5.7,5.9L289.9,134.3z"/>
	<path class="st1" d="M298.2,132.9c1.9,0,3.2-0.8,4.3-1.9l1.3,1.1c-1.4,1.5-3,2.6-5.6,2.6c-3.7,0-6.8-2.9-6.8-7.1
		c0-4,2.8-7.1,6.5-7.1c4,0,6.4,3.2,6.4,7.2c0,0.2,0,0.4,0,0.6h-10.8C293.7,131.2,295.8,132.9,298.2,132.9z M302.2,126.8
		c-0.2-2.5-1.6-4.6-4.4-4.6c-2.4,0-4.2,2-4.4,4.6H302.2z"/>
	<path class="st1" d="M316.5,123.3l-0.6-1.7c1.5-0.7,3-1.1,5-1.1c3.7,0,5.8,1.9,5.8,5.5v8.3h-2v-2.1c-1,1.2-2.5,2.3-4.9,2.3
		c-2.5,0-5.1-1.4-5.1-4.3c0-2.9,2.4-4.4,5.8-4.4c1.7,0,3,0.2,4.2,0.6V126c0-2.5-1.5-3.7-4.1-3.7
		C319.1,122.3,317.8,122.7,316.5,123.3z M316.8,130.3c0,1.7,1.6,2.7,3.4,2.7c2.5,0,4.6-1.5,4.6-3.7V128c-1-0.3-2.3-0.6-4-0.6
		C318.2,127.4,316.8,128.5,316.8,130.3z"/>
</g>
<g class="st0">
	<path class="st2" d="M351.5,134.3v-2.7c-1.1,1.6-2.7,3-5.2,3c-3.3,0-6.5-2.6-6.5-7.1c0-4.5,3.2-7.1,6.5-7.1c2.5,0,4.2,1.4,5.2,2.9
		v-8.2h2v19.3H351.5z M346.7,122.2c-2.6,0-4.8,2-4.8,5.3c0,3.2,2.2,5.3,4.8,5.3c2.5,0,4.9-2.1,4.9-5.3
		C351.6,124.3,349.2,122.2,346.7,122.2z"/>
	<path class="st2" d="M358.2,117.7v-2.2h2.3v2.2H358.2z M358.3,134.3v-13.6h2v13.6H358.3z"/>
	<path class="st2" d="M372.1,120.7v1.7h-4.3v11.9h-2v-11.9h-1.9v-1.8h1.9v-1.2c0-3,1.5-4.6,4.1-4.6c1,0,1.6,0.1,2.2,0.3v1.8
		c-0.7-0.2-1.3-0.3-2-0.3c-1.6,0-2.4,1-2.4,2.9v1.1H372.1z"/>
	<path class="st2" d="M381.8,120.7v1.7h-4.3v11.9h-2v-11.9h-1.9v-1.8h1.9v-1.2c0-3,1.5-4.6,4.1-4.6c1,0,1.6,0.1,2.2,0.3v1.8
		c-0.7-0.2-1.3-0.3-2-0.3c-1.6,0-2.4,1-2.4,2.9v1.1H381.8z"/>
	<path class="st2" d="M390.2,132.9c1.9,0,3.2-0.8,4.3-1.9l1.3,1.1c-1.4,1.5-3,2.6-5.6,2.6c-3.7,0-6.8-2.9-6.8-7.1
		c0-4,2.8-7.1,6.5-7.1c4,0,6.4,3.2,6.4,7.2c0,0.2,0,0.4,0,0.6h-10.8C385.7,131.2,387.8,132.9,390.2,132.9z M394.2,126.8
		c-0.2-2.5-1.6-4.6-4.4-4.6c-2.4,0-4.2,2-4.4,4.6H394.2z"/>
	<path class="st2" d="M401.8,134.3h-2v-13.6h2v3.6c1-2.3,3-3.9,5.6-3.8v2.2h-0.2c-3,0-5.4,2.1-5.4,6.3V134.3z"/>
	<path class="st2" d="M415.9,132.9c1.9,0,3.2-0.8,4.3-1.9l1.3,1.1c-1.4,1.5-3,2.6-5.6,2.6c-3.7,0-6.8-2.9-6.8-7.1
		c0-4,2.8-7.1,6.5-7.1c4,0,6.4,3.2,6.4,7.2c0,0.2,0,0.4,0,0.6h-10.8C411.4,131.2,413.5,132.9,415.9,132.9z M419.9,126.8
		c-0.2-2.5-1.6-4.6-4.4-4.6c-2.4,0-4.2,2-4.4,4.6H419.9z"/>
	<path class="st2" d="M427.6,134.3h-2v-13.6h2v2.4c0.9-1.5,2.3-2.7,4.7-2.7c3.3,0,5.2,2.2,5.2,5.5v8.5h-2v-8c0-2.5-1.4-4.1-3.8-4.1
		c-2.3,0-4.1,1.7-4.1,4.3V134.3z"/>
	<path class="st2" d="M447.9,134.6c-4,0-7-3.2-7-7.1c0-3.9,3-7.2,7-7.2c2.6,0,4.2,1.1,5.5,2.4l-1.3,1.4c-1.1-1.1-2.3-2.1-4.1-2.1
		c-2.8,0-4.9,2.3-4.9,5.3c0,3,2.2,5.3,5,5.3c1.7,0,3.1-0.9,4.2-2l1.3,1.2C452.1,133.5,450.5,134.6,447.9,134.6z"/>
	<path class="st2" d="M462.5,132.9c1.9,0,3.2-0.8,4.3-1.9l1.3,1.1c-1.4,1.5-3,2.6-5.6,2.6c-3.7,0-6.8-2.9-6.8-7.1
		c0-4,2.8-7.1,6.5-7.1c4,0,6.4,3.2,6.4,7.2c0,0.2,0,0.4,0,0.6h-10.8C458,131.2,460.1,132.9,462.5,132.9z M466.5,126.8
		c-0.2-2.5-1.6-4.6-4.4-4.6c-2.4,0-4.2,2-4.4,4.6H466.5z"/>
</g>
<g class="st0">
	<path class="st1" d="M473,134.3v-2.8h2.4v2.8H473z"/>
</g>
<g>
	<g>
		<path class="st3" d="M38.1,30.6c-0.4-1-1-2-1.8-2.9s-1.7-1.6-2.8-2.3c-1.1-0.6-2.3-1.2-3.8-1.5c-1.4-0.4-3-0.5-4.7-0.5
			c-3.4,0-6.1,0.7-8,2.2s-2.9,3.6-2.9,6.3c0,1.7,0.5,3.1,1.6,4.3s2.5,2.2,4.2,3.1c1.7,0.9,3.7,1.7,5.9,2.5c2.2,0.7,4.5,1.6,6.8,2.4
			c2.3,0.9,4.6,1.9,6.8,3s4.2,2.5,5.9,4.2c1.7,1.6,3.1,3.6,4.2,5.9c1.1,2.3,1.6,5.1,1.6,8.3c0,3.4-0.6,6.5-1.9,9.1
			c-1.2,2.6-3,4.9-5.2,6.7c-2.2,1.8-4.8,3.2-7.7,4.1c-3,0.9-6.2,1.4-9.6,1.4c-3.2,0-6.2-0.4-8.9-1.2c-2.8-0.8-5.3-2-7.5-3.5
			C8,80.8,6.1,79,4.4,76.8c-1.6-2.1-2.9-4.5-3.8-7.2l10-3.6c0.7,1.6,1.6,3.1,2.7,4.4s2.3,2.5,3.7,3.4s2.9,1.7,4.6,2.2
			s3.5,0.8,5.4,0.8s3.7-0.2,5.3-0.7s3-1.2,4.1-2.1s2-2.1,2.6-3.5s0.9-3,0.9-4.8c0-2.1-0.5-3.9-1.6-5.4c-1.1-1.4-2.5-2.7-4.2-3.8
			s-3.7-2-5.9-2.8s-4.5-1.6-6.8-2.4c-2.3-0.8-4.6-1.8-6.8-2.8s-4.2-2.3-5.9-3.8s-3.1-3.3-4.2-5.4c-1.1-2.1-1.6-4.6-1.6-7.7
			c0-2.5,0.5-4.9,1.5-7.2s2.5-4.2,4.4-6c1.9-1.7,4.3-3.1,7.1-4.1s6-1.5,9.7-1.5c3,0,5.8,0.4,8.2,1.1c2.5,0.7,4.6,1.7,6.4,3
			c1.8,1.3,3.4,2.8,4.6,4.5C46,23.1,47,25,47.6,27L38.1,30.6z"/>
		<path class="st3" d="M76.9,87c-1.5,0-2.9-0.2-4.2-0.4c-1.2-0.3-2.4-0.7-3.4-1.2s-2-1.1-2.8-1.8c-0.8-0.7-1.5-1.4-2.2-2.2v20.1
			l-10.6,4.9V33.6h10.6v4.2c1.4-1.5,3-2.8,5-3.8s4.5-1.5,7.5-1.5c3.3,0,6.3,0.6,8.9,1.9c2.7,1.2,4.9,3,6.8,5.4
			c1.9,2.3,3.3,5.2,4.3,8.6c1,3.4,1.5,7.2,1.5,11.5s-0.5,8.1-1.6,11.5c-1,3.4-2.5,6.2-4.4,8.6c-1.9,2.3-4.1,4.1-6.8,5.3
			C83,86.4,80.1,87,76.9,87z M75.4,77c4,0,7.1-1.5,9.2-4.4c2.1-3,3.2-7.2,3.2-12.8c0-2.5-0.3-4.8-0.8-7c-0.5-2.1-1.4-3.9-2.4-5.5
			c-1.1-1.5-2.4-2.7-3.9-3.6c-1.5-0.9-3.3-1.3-5.2-1.3c-2.5,0-4.7,0.5-6.5,1.5s-3.3,2.5-4.5,4.4V71c0.6,0.8,1.3,1.6,2,2.3
			c0.7,0.7,1.6,1.4,2.5,1.9s1.9,1,3,1.3S74.2,77,75.4,77z"/>
		<path class="st3" d="M101.3,85.8V33.6H112V40c1.2-2.7,2.8-4.6,4.8-5.8s4.2-1.8,6.8-1.8c3.5,0,6.4,1,8.8,3.1l-1.5,9.8
			c-1-0.7-2.1-1.3-3.4-1.8c-1.3-0.5-2.9-0.8-4.8-0.8c-1.2,0-2.4,0.2-3.7,0.6c-1.2,0.4-2.4,1.1-3.4,2.2c-1,1-1.9,2.4-2.5,4.2
			c-0.7,1.7-1,4-1,6.6v29.3h-10.8V85.8z"/>
		<path class="st3" d="M140.2,25.5c-0.9,0-1.7-0.2-2.5-0.5s-1.5-0.8-2-1.4c-0.6-0.6-1-1.3-1.4-2c-0.3-0.8-0.5-1.6-0.5-2.5
			s0.2-1.7,0.5-2.5c0.3-0.8,0.8-1.5,1.4-2c0.6-0.6,1.3-1,2-1.4c0.8-0.3,1.6-0.5,2.5-0.5s1.7,0.2,2.5,0.5s1.5,0.8,2,1.4
			c0.6,0.6,1,1.3,1.4,2c0.3,0.8,0.5,1.6,0.5,2.5s-0.2,1.7-0.5,2.5s-0.8,1.5-1.4,2c-0.6,0.6-1.3,1-2,1.4
			C141.9,25.3,141,25.5,140.2,25.5z M134.9,85.8V33.6h10.6v52.1h-10.6V85.8z"/>
		<path class="st3" d="M181.3,85.8V54.6c0-2.2-0.3-4.1-0.8-5.6s-1.3-2.8-2.2-3.8s-2-1.7-3.3-2.1c-1.3-0.4-2.6-0.7-4.1-0.7
			c-1.6,0-3.1,0.2-4.4,0.6c-1.4,0.4-2.5,1.1-3.5,2s-1.8,2.2-2.4,3.7c-0.6,1.5-0.9,3.4-0.9,5.7v31.3H149V33.6h10.6v5
			c1.7-2.2,3.6-3.7,5.8-4.7s4.7-1.5,7.6-1.5c2.7,0,5.2,0.4,7.5,1.2s4.3,2.1,6,3.8c1.7,1.8,3,4.1,3.9,6.9c0.9,2.8,1.4,6.3,1.4,10.4
			v31.1C191.8,85.8,181.3,85.8,181.3,85.8z"/>
		<path class="st3" d="M209.6,98c3.8-0.2,7-0.7,9.5-1.3c2.5-0.7,4.5-1.5,5.9-2.5c1.5-1,2.5-2.2,3-3.6c0.6-1.4,0.8-2.8,0.8-4.4v-4.6
			c-2.9,3.6-7.1,5.4-12.5,5.4c-3,0-5.8-0.6-8.4-1.7c-2.6-1.1-4.9-2.9-6.8-5.2c-1.9-2.3-3.5-5.1-4.6-8.5s-1.7-7.4-1.7-11.9
			c0-4.3,0.5-8.1,1.6-11.5s2.5-6.2,4.5-8.6c1.9-2.3,4.2-4.1,6.8-5.4c2.7-1.2,5.6-1.8,8.8-1.8c1.5,0,2.9,0.1,4.2,0.4
			c1.3,0.3,2.4,0.7,3.4,1.1c1,0.5,1.9,1,2.7,1.6s1.5,1.2,2,1.8v-3.7h10.6v48.1c0,4-0.4,7.4-1.2,10.2c-0.8,2.8-2.2,5.2-4.1,7.2
			c-1.3,1.3-2.7,2.4-4.3,3.3c-1.5,0.8-3.2,1.5-4.8,2.1c-1.7,0.5-3.4,0.9-5.1,1.2c-1.7,0.2-3.4,0.4-5.1,0.6L209.6,98z M218.2,77
			c2.2,0,4.2-0.5,6.1-1.6c1.9-1.1,3.4-2.6,4.6-4.5V48.3c-0.5-0.9-1.2-1.7-2-2.4s-1.6-1.3-2.5-1.9c-0.9-0.5-1.9-0.9-2.9-1.2
			s-2.1-0.4-3.2-0.4c-4.2,0-7.3,1.5-9.5,4.4s-3.3,7.2-3.3,12.8c0,2.7,0.3,5.1,0.9,7.2c0.6,2.1,1.4,4,2.5,5.5s2.4,2.6,4,3.5
			C214.5,76.6,216.3,77,218.2,77z"/>
		<path class="st1" d="M243.6,14.4h27c4.2,0,7.8,0.5,10.7,1.6c2.9,1.1,5.2,2.5,7,4.3s3,3.8,3.8,6.1c0.7,2.3,1.1,4.6,1.1,7.1
			c0,3-0.8,5.8-2.4,8.4c-1.6,2.6-4.1,4.8-7.4,6.3c2.2,0.8,4.1,1.8,5.7,3s2.8,2.5,3.8,4s1.7,3,2.2,4.7c0.4,1.6,0.7,3.3,0.7,5
			c0,2.4-0.4,4.9-1.2,7.4c-0.8,2.5-2.2,4.7-4,6.7c-1.9,2-4.3,3.6-7.3,4.9s-6.7,1.9-11,1.9h-28.6V14.4H243.6z M268.9,43.8
			c2.2,0,4.2-0.2,5.9-0.7c1.7-0.5,3.1-1.2,4.2-2c1.1-0.9,2-1.9,2.5-3.1c0.6-1.2,0.8-2.5,0.8-4c0-1.2-0.1-2.3-0.4-3.5
			s-0.9-2.2-1.7-3.2c-0.8-0.9-2-1.7-3.5-2.3c-1.5-0.6-3.4-0.9-5.8-0.9h-16.7v19.7C254.2,43.8,268.9,43.8,268.9,43.8z M273,76
			c2.4,0,4.3-0.3,5.9-0.9c1.5-0.6,2.8-1.5,3.7-2.5c0.9-1,1.5-2.2,1.9-3.4c0.4-1.3,0.5-2.5,0.5-3.8c0-1.5-0.2-2.9-0.6-4.4
			c-0.4-1.4-1.2-2.7-2.3-3.7c-1.1-1.1-2.7-2-4.6-2.6c-1.9-0.7-4.4-1-7.4-1h-15.7V76H273z"/>
		<path class="st1" d="M391.3,85.8h-10.2v-4.5c-0.7,0.7-1.5,1.4-2.4,2.1s-2,1.3-3.2,1.8s-2.5,1-4,1.3s-3.1,0.5-4.8,0.5
			c-2.7,0-5.1-0.4-7.4-1.1s-4.2-1.8-5.9-3.3c-1.7-1.5-3-3.3-3.9-5.5s-1.4-4.7-1.4-7.6c0-3,0.6-5.6,1.7-7.7c1.1-2.2,2.6-4,4.5-5.4
			s4-2.5,6.4-3.1c2.4-0.7,4.9-1,7.4-1c2.4,0,4.7,0.3,6.9,0.8c2.2,0.5,4.2,1.3,5.9,2.3v-2.9c0-2-0.2-3.6-0.7-5s-1.1-2.5-2-3.3
			s-2.1-1.5-3.5-1.8c-1.4-0.4-3.1-0.6-5-0.6c-3.3,0-6.1,0.4-8.4,1.3c-2.4,0.9-4.5,2-6.5,3.4l-3.1-8.7c1.1-0.7,2.3-1.4,3.6-2.1
			c1.4-0.6,2.9-1.2,4.5-1.7s3.4-0.9,5.3-1.2s3.9-0.4,6.1-0.4c1.5,0,3,0.1,4.5,0.2c1.6,0.2,3.1,0.5,4.6,1s2.9,1.2,4.2,2.1
			c1.3,0.9,2.5,2.1,3.4,3.5c1,1.4,1.8,3.2,2.3,5.3c0.6,2.1,0.8,4.6,0.8,7.5v33.8H391.3z M368.8,77.6c2.7,0,5.1-0.5,7.1-1.6
			c2.1-1.1,3.8-2.4,5.2-3.9v-8c-1.5-0.8-3.2-1.4-5.1-1.8c-2-0.5-4-0.7-6-0.7c-1.6,0-3.1,0.1-4.5,0.4c-1.4,0.3-2.6,0.8-3.7,1.4
			c-1,0.6-1.9,1.5-2.5,2.5s-0.9,2.2-0.9,3.7c0,2.5,0.9,4.5,2.6,5.9C362.8,76.9,365.4,77.6,368.8,77.6z"/>
		<path class="st1" d="M394.8,85.8V33.6h10.6V40c1.2-2.7,2.8-4.6,4.8-5.8s4.2-1.8,6.8-1.8c3.5,0,6.4,1,8.8,3.1l-1.5,9.8
			c-1-0.7-2.1-1.3-3.4-1.8s-2.9-0.8-4.8-0.8c-1.2,0-2.4,0.2-3.7,0.6c-1.2,0.4-2.4,1.1-3.4,2.2c-1,1-1.9,2.4-2.5,4.2
			c-0.7,1.7-1,4-1,6.6v29.3h-10.7V85.8z"/>
		<path class="st1" d="M446.5,87c-3.3,0-6.3-0.6-8.9-1.9c-2.7-1.2-5-3-6.8-5.4c-1.9-2.3-3.3-5.2-4.4-8.6c-1-3.4-1.5-7.2-1.5-11.5
			s0.5-8.1,1.6-11.5s2.5-6.2,4.5-8.6c1.9-2.3,4.2-4.1,6.8-5.4c2.7-1.2,5.6-1.8,8.8-1.8c2.9,0,5.3,0.5,7.3,1.4s3.7,2.1,5,3.5V17
			l10.6-4.9v73.6h-10.6V82c-1.4,1.6-3.1,2.8-5,3.6C451.8,86.6,449.4,87,446.5,87z M448,77c2.4,0,4.5-0.5,6.3-1.5s3.3-2.5,4.5-4.4
			v-23c-0.4-0.7-0.9-1.3-1.6-2s-1.5-1.3-2.4-1.8s-1.9-1-3.1-1.3c-1.1-0.3-2.4-0.5-3.8-0.5c-4,0-7.1,1.5-9.3,4.4s-3.3,7.2-3.3,12.8
			c0,2.5,0.3,4.8,0.9,6.9s1.4,3.9,2.5,5.5c1.1,1.5,2.4,2.7,3.9,3.6C444.3,76.6,446,77,448,77z"/>
		<path class="st1" d="M471.5,12h3.8c0.8,0,1.5,0.1,2.1,0.3s1.2,0.4,1.7,0.7s0.9,0.7,1.2,1.1c0.3,0.4,0.6,0.9,0.8,1.4
			c0.2,0.5,0.4,1,0.5,1.6s0.2,1.1,0.2,1.7c0,0.5,0,1-0.1,1.6c-0.1,0.5-0.2,1.1-0.5,1.6c-0.2,0.5-0.5,1-0.8,1.4s-0.7,0.8-1.2,1.2
			c-0.5,0.3-1.1,0.6-1.7,0.8c-0.6,0.2-1.4,0.3-2.2,0.3h-3.7L471.5,12L471.5,12z M475.5,23.7c0.5,0,1-0.1,1.4-0.2s0.8-0.3,1.1-0.6
			c0.3-0.2,0.6-0.5,0.8-0.8c0.2-0.3,0.4-0.7,0.5-1c0.1-0.4,0.2-0.7,0.3-1.1c0.1-0.4,0.1-0.8,0.1-1.2c0-0.6-0.1-1.2-0.2-1.8
			c-0.1-0.6-0.4-1.1-0.7-1.6c-0.3-0.5-0.7-0.8-1.2-1.1s-1.1-0.4-1.8-0.4h-2.3v9.8H475.5z"/>
		<path class="st1" d="M493.5,25.6v-7.4l0.1-2l-0.8,2.1l-3.3,7.6l-3.3-7.7l-0.8-2l0.1,2v7.4h-2V12h2l3.6,8.5l0.4,1l0.4-1l3.6-8.5h2
			v13.6H493.5z"/>
	</g>
	<g>
		<g>
			<path class="st1" d="M321.2,53.8c-3.5-0.9-6.6-2.3-9.1-4.2c-2.6-1.9-4.5-4.2-6-7c-1.4-2.8-2.3-5.9-2.5-9.5
				c-0.3-3.5,0.1-7.4,1.2-11.5c1-4.2,2.5-7.7,4.4-10.8c1.9-3,4.1-5.4,6.7-7.2s5.4-2.9,8.6-3.4c3.1-0.5,6.5-0.3,10,0.6
				s6.5,2.3,9.1,4.2s4.6,4.3,6,7c1.4,2.8,2.3,5.9,2.6,9.5c0.3,3.6-0.1,7.4-1.1,11.6s-2.5,7.7-4.4,10.7s-4.1,5.4-6.7,7.2
				s-5.4,2.9-8.6,3.4C328,54.9,324.7,54.7,321.2,53.8z M323.6,44.1c2,0.5,3.8,0.5,5.6,0.2c1.8-0.4,3.4-1.1,4.9-2.3s2.8-2.7,3.9-4.6
				c1.1-1.9,2-4.2,2.6-6.8c0.7-2.6,0.9-5,0.9-7.3c-0.1-2.2-0.5-4.2-1.2-5.9c-0.8-1.7-1.8-3.2-3.2-4.3c-1.4-1.2-3.1-2-5-2.5
				c-2-0.5-3.8-0.5-5.6-0.2c-1.8,0.4-3.4,1.2-4.9,2.3c-1.5,1.2-2.8,2.7-3.9,4.7c-1.1,1.9-2,4.2-2.6,6.8c-0.7,2.6-0.9,5-0.9,7.2
				c0.1,2.2,0.5,4.2,1.2,5.9c0.8,1.7,1.8,3.1,3.2,4.3C319.9,42.8,321.6,43.6,323.6,44.1z"/>
		</g>
		<g>
			<g>
				<path class="st4" d="M299,73.4v9.8c0,0,15.7-1.2,26.3-5.1c13.5-5,18.6-8.4,18.6-8.4l-0.2-9.7c0,0-7.1,4.5-20.4,9.4
					C311,73.9,299,73.4,299,73.4z"/>
				<path class="st5" d="M299,73.3v9.8c0,0,15.7-1.2,26.3-5.1c13.5-5,18.6-8.4,18.6-8.4l-0.2-9.7c0,0-7.1,4.5-20.4,9.4
					C311,73.9,299,73.3,299,73.3z"/>
			</g>
			<path class="st2" d="M343.9,75v10.2c0,0-11.2,2.3-22.4,2.3c-10.5,0-22.4-3.8-22.4-3.8V73.4c0,0,8.7,4.6,22.7,4.6
				C335,78,343.9,75,343.9,75z"/>
			<path class="st2" d="M343.9,59.4v10.2c0,0-13.5,2-24.6-0.1c-14.1-2.7-20.5-9.6-20.5-9.6V48.3c0,0,9.3,8.8,23.2,11.5
				C335.1,62.3,343.9,59.4,343.9,59.4z"/>
		</g>
	</g>
</g>
</svg>
