<?xml version="1.0" encoding="UTF-8"?><svg xmlns="http://www.w3.org/2000/svg" viewBox="0 0 180 62.1"><defs><style>.d{fill:#013055;opacity:.2;}.d,.e,.f,.g,.h,.i{fill-rule:evenodd;}.e{fill:#003646;opacity:.5;}.f{fill:#4cc512;}.g{fill:#7de11b;}.h{fill:#babcbe;}.i{fill:#000f1a;}</style></defs><g id="a"/><g id="b"><g id="c"><g><g><polygon class="h" points="35.87 19.21 25.93 13.55 25.93 0 47.78 12.43 35.87 19.21"/><polygon class="g" points="35.87 19.21 25.93 13.55 25.93 0 47.78 12.43 35.87 19.21"/><polygon class="g" points="0 33.79 25.93 48.55 25.93 62.1 0 47.34 0 33.79"/><polygon class="f" points="41.41 39.74 25.93 48.55 25.93 62.1 51.86 47.34 51.86 33.79 51.86 14.76 25.93 29.51 25.93 43.06 41.41 34.26 41.41 39.74"/><polygon class="d" points="25.93 29.51 25.93 43.06 41.41 34.26 41.41 39.74 25.93 48.55 25.93 62.1 51.86 47.34 51.86 29.57 33.46 25.23 25.93 29.51"/><polygon class="f" points="0 28.31 25.93 13.55 25.93 0 0 14.76 0 28.31"/><polygon class="e" points="0 28.31 13.73 20.49 0 14.76 0 28.31"/><polygon class="g" points="0 14.76 25.93 29.51 25.93 43.06 0 28.31 0 14.76"/></g><path class="i" d="M64.25,30.5v-3.07c1.83,.68,3.9,1.02,6.21,1.02,2.8,0,4.2-.93,4.2-2.81,0-1.36-.86-2.05-2.58-2.05h-2.86c-3.74,0-5.61-1.7-5.61-5.11,0-3.75,2.66-5.62,7.98-5.62,2.05,0,3.98,.3,5.81,.89v3.07c-1.83-.68-3.77-1.02-5.81-1.02-3.06,0-4.6,.89-4.6,2.68,0,1.36,.74,2.04,2.22,2.04h2.86c3.98,0,5.96,1.7,5.96,5.11,0,3.83-2.53,5.75-7.59,5.75-2.31,0-4.38-.3-6.21-.89h0Zm29.42-17.5v2.94h-5.24v15.33h-3.39V15.94h-5.24v-2.94h13.86Zm5.6,9.09c0,4.25,1.88,6.37,5.66,6.37s5.52-2.12,5.52-6.37-1.84-6.27-5.52-6.27-5.66,2.09-5.66,6.27h0Zm-3.51,.07c0-6.19,3.06-9.29,9.17-9.29s9.03,3.1,9.03,9.29-3.01,9.23-9.03,9.23-8.9-3.08-9.17-9.23h0Zm39.61-9.16l-8.01,18.27h-3.64l-7.67-18.27h4.02l5.66,13.99,5.65-13.99h3.99Zm15.23,0v2.91h-9.15v4.6h8.71v3.03h-8.75v4.79h9.37v2.94h-12.68V13h12.5Zm7.5,0v15.33h7.26v2.94h-10.64V13h3.38Zm14.64,0v15.33h7.26v2.94h-10.64V13h3.38Z"/><path class="g" d="M66,49.14h-2.39l5.33-12.56h2.5l5.44,12.56h-2.5l-1.43-3.43h-5.56l-1.39,3.43h0Zm3.58-5.44h2.53l-1.97-4.72-1.92,4.72h1.37Zm12.81-7.11v12.56h-2.33v-12.56h2.33Zm8,12.03v-2.11c1.26,.47,2.68,.7,4.27,.7,1.93,0,2.89-.64,2.89-1.93,0-.94-.59-1.41-1.77-1.41h-1.97c-2.57,0-3.85-1.17-3.85-3.51,0-2.57,1.83-3.86,5.49-3.86,1.41,0,2.74,.21,3.99,.61v2.11c-1.26-.47-2.59-.7-3.99-.7-2.11,0-3.16,.61-3.16,1.84,0,.94,.51,1.41,1.53,1.41h1.97c2.73,0,4.1,1.17,4.1,3.51,0,2.63-1.74,3.95-5.21,3.95-1.59,0-3.01-.2-4.27-.61h0Zm12-12.03h2.5l3.53,6.05,3.32-6.05h2.42l-4.62,8.17v4.39h-2.33v-4.39l-4.82-8.17h0Zm13.93,12.03v-2.11c1.26,.47,2.68,.7,4.27,.7,1.93,0,2.89-.64,2.89-1.93,0-.94-.59-1.41-1.77-1.41h-1.97c-2.57,0-3.85-1.17-3.85-3.51,0-2.57,1.83-3.86,5.49-3.86,1.41,0,2.74,.21,3.99,.61v2.11c-1.26-.47-2.59-.7-3.99-.7-2.11,0-3.16,.61-3.16,1.84,0,.94,.51,1.41,1.53,1.41h1.97c2.73,0,4.1,1.17,4.1,3.51,0,2.63-1.74,3.95-5.21,3.95-1.59,0-3.01-.2-4.27-.61h0Zm21.3-12.03v2.02h-3.6v10.54h-2.33v-10.54h-3.6v-2.02h9.53Zm11.55,0v2h-6.29v3.16h5.99v2.08h-6.01v3.29h6.44v2.02h-8.72v-12.56h8.59Zm3.91,12.56v-12.56h2.41l4.26,9.53,4.17-9.53h2.33v12.56h-2.15v-8.74l-3.41,8.74h-1.98l-3.48-8.74v8.74h-2.15Zm17.22-.53v-2.11c1.26,.47,2.68,.7,4.27,.7,1.93,0,2.89-.64,2.89-1.93,0-.94-.59-1.41-1.77-1.41h-1.97c-2.57,0-3.85-1.17-3.85-3.51,0-2.57,1.83-3.86,5.49-3.86,1.41,0,2.74,.21,3.99,.61v2.11c-1.26-.47-2.59-.7-3.99-.7-2.11,0-3.16,.61-3.16,1.84,0,.94,.51,1.41,1.53,1.41h1.97c2.73,0,4.1,1.17,4.1,3.51,0,2.63-1.74,3.95-5.21,3.95-1.59,0-3.01-.2-4.27-.61Z"/></g></g></g></svg>