<svg width="360" height="114" viewBox="0 0 360 114" fill="none" xmlns="http://www.w3.org/2000/svg">
<path d="M61.5789 113.684C92.972 113.684 118.421 88.2351 118.421 56.8421C118.421 25.4491 92.972 0 61.5789 0C30.1859 0 4.73682 25.4491 4.73682 56.8421C4.73682 88.2351 30.1859 113.684 61.5789 113.684Z" fill="#42127D"/>
<path d="M90.4489 43.7846L90.3906 43.6908C90.3596 43.6248 90.3215 43.5624 90.2769 43.5047L90.1419 43.2915L90.0524 43.1494C88.5802 40.8331 86.9872 38.3903 85.272 36.0811C83.5126 33.6714 81.5423 31.423 79.3846 29.3624C74.8031 25.058 69.8095 22.8795 64.5417 22.8795C63.7733 22.8877 63.0059 22.9351 62.2424 23.0216C51.2662 24.0618 44.367 30.215 42.7228 31.8321L42.7086 31.8464C42.4642 32.0865 42.3405 32.2229 42.3405 32.2229C41.1813 33.4613 40.256 34.8994 39.6093 36.4676C38.5861 39.0255 38.3147 42.0254 38.8036 45.3663C39.0527 46.9801 39.5563 48.5443 40.2957 50.0003C41.0344 51.4505 41.8899 52.8382 42.8536 54.1498C43.871 55.5708 44.9183 56.9308 46.0253 58.366L46.0978 58.4613C46.4943 58.9743 46.9007 59.5015 47.3043 60.0244L33.1137 69.0182C32.9828 69.1012 32.87 69.2095 32.7819 69.3369C32.6938 69.4643 32.6322 69.6081 32.6008 69.7597C32.5694 69.9114 32.5688 70.0678 32.599 70.2197C32.6293 70.3716 32.6897 70.5159 32.7769 70.6439C32.8128 70.7108 32.8522 70.7758 32.8948 70.8386L33.017 71.0177L33.3183 71.4582C33.9265 72.3535 34.556 73.28 35.1927 74.188L35.5039 74.6343L35.5451 74.6954C38.2252 78.5322 40.9977 82.4969 44.4835 85.7924C46.0729 87.3455 47.9166 88.6149 49.9347 89.5454C51.7826 90.3734 53.7843 90.8028 55.8093 90.8058C58.3958 90.7621 60.9413 90.1524 63.267 89.0196C67.074 87.2489 70.8369 85.0833 74.1565 83.1719C76.5775 81.8249 78.895 80.2997 81.0898 78.6089C85.7907 74.8659 87.9649 70.0315 87.5528 64.2407C87.3041 60.7662 86.2113 57.3287 84.2104 53.7348C83.6946 52.8069 83.1489 51.923 82.572 50.9865L82.5535 50.9567C82.3247 50.5872 82.0675 50.1694 81.8117 49.7488L90.176 44.8803C90.2673 44.8276 90.347 44.7571 90.4105 44.6729C90.4739 44.5887 90.5197 44.4926 90.5452 44.3904C90.5706 44.2881 90.5752 44.1818 90.5587 44.0777C90.5421 43.9736 90.5048 43.8739 90.4489 43.7846Z" fill="#937BB0"/>
<path d="M54.1469 39.1464C52.6548 37.3858 51.0205 35.7473 48.8335 34.9359C45.7001 33.772 42.4047 34.6303 39.6606 36.3669C39.6606 36.3669 43.3767 25.4915 62.2938 22.9166C62.2938 22.9166 71.1981 21.0593 79.4359 29.2559C79.4359 29.2559 84.8885 34.0875 90.5002 43.6768C90.5002 43.6768 90.8612 44.3972 90.2288 44.7695L69.6704 56.7348C69.5075 56.8153 69.3231 56.8416 69.1442 56.8099C68.9652 56.7782 68.8011 56.6901 68.6757 56.5586C66.8582 54.616 65.2197 52.4603 63.5173 50.4182L56.0738 41.494C55.4358 40.7252 54.8062 39.9309 54.1469 39.1464Z" fill="#D6D0DB"/>
<path d="M47.2703 59.9897L33.0597 68.985C33.0597 68.985 32.1957 69.8035 32.723 70.6107C33.5827 71.9252 34.4552 73.2311 35.3533 74.52C37.1083 77.0367 38.906 79.542 40.867 81.9095C42.7471 84.1718 44.7479 86.3815 47.2063 88.0427C51.4524 90.9104 57.2859 92.0615 61.8744 89.6343C61.8787 89.6286 73.4915 85.4053 47.2703 59.9897Z" fill="#D6D0DB"/>
<path d="M349.799 50.2378C348.741 50.2484 347.691 50.0495 346.71 49.6523C345.778 49.2703 344.93 48.7065 344.218 47.9939C343.505 47.2813 342.941 46.434 342.559 45.5014C341.779 43.5158 341.779 41.3083 342.559 39.3227C342.937 38.3916 343.498 37.546 344.21 36.8364C344.921 36.1267 345.768 35.5673 346.7 35.1917C347.685 34.7958 348.738 34.5969 349.799 34.6062C350.858 34.5961 351.908 34.7951 352.889 35.1917C353.819 35.5699 354.663 36.1302 355.374 36.8397C356.084 37.5491 356.645 38.3933 357.024 39.3227C357.805 41.3083 357.805 43.5158 357.024 45.5014C356.644 46.4326 356.084 47.2797 355.376 47.9939C354.669 48.7092 353.824 49.2734 352.893 49.6523C351.911 50.0502 350.859 50.2492 349.799 50.2378ZM349.799 49.3923C350.737 49.4013 351.666 49.221 352.532 48.8622C353.357 48.5159 354.105 48.0101 354.734 47.3739C355.362 46.7376 355.859 45.9835 356.196 45.1547C356.889 43.392 356.889 41.4321 356.196 39.6694C355.861 38.8416 355.363 38.0896 354.732 37.4583C354.102 36.8279 353.355 36.3268 352.532 35.9832C351.666 35.6239 350.737 35.4431 349.799 35.4517C348.859 35.4438 347.926 35.6245 347.057 35.9832C346.23 36.3248 345.479 36.8261 344.846 37.4583C344.215 38.0904 343.718 38.8422 343.382 39.6694C342.689 41.4321 342.689 43.392 343.382 45.1547C343.718 45.9853 344.216 46.7408 344.847 47.3773C345.478 48.0138 346.229 48.5185 347.057 48.8622C347.926 49.2204 348.859 49.4007 349.799 49.3923ZM347.372 47.1186C346.968 47.1186 346.765 46.9163 346.764 46.5118V38.5539C346.764 38.0925 347.001 37.8614 347.475 37.8604H350.379C351.348 37.8604 352.089 38.0878 352.602 38.5425C353.114 38.9973 353.371 39.6443 353.372 40.4837C353.372 41.8564 352.693 42.6801 351.334 42.9549C351.782 43.114 352.114 43.4826 352.329 44.0605L353.24 46.3157C353.327 46.5615 353.317 46.7562 353.207 46.9011C353.153 46.9727 353.083 47.0299 353.001 47.0676C352.92 47.1053 352.831 47.1223 352.741 47.1172C352.467 47.1172 352.279 46.9665 352.173 46.6624L351.154 44.1258C351.1 43.9601 351.013 43.8067 350.9 43.6745C350.786 43.5423 350.647 43.4339 350.492 43.3556C350.153 43.2102 349.787 43.1399 349.419 43.1496H347.929V46.5104C347.929 46.9139 347.744 47.1157 347.372 47.1157V47.1186ZM347.941 42.1761H350.24C351.566 42.1761 352.229 41.6196 352.229 40.5064C352.229 39.3933 351.566 38.8367 350.24 38.8367H347.929L347.941 42.1761Z" fill="black"/>
<path d="M137.918 72.1227L141.732 67.4332C145.546 71.0597 150.048 73.4357 155.863 73.4357C161.803 73.4357 164.867 70.3094 164.867 66.8705C164.867 62.8063 161.303 61.2431 154.112 59.6231C145.358 57.5597 139.543 54.9336 139.543 47.1804C139.543 39.9898 145.796 34.55 154.425 34.55C161.052 34.55 165.992 36.9886 170.119 40.6151L166.492 45.3671C162.866 42.0532 158.551 40.1092 154.175 40.1092C149.36 40.1092 145.984 43.173 145.984 46.6119C145.984 50.6136 149.678 51.9892 156.738 53.6774C165.304 55.6783 171.244 58.5545 171.244 66.2452C171.244 73.4926 165.742 79.0006 155.613 79.0006C148.422 79.0006 142.482 76.4995 137.918 72.1227Z" fill="black"/>
<path d="M175.667 45.9864H181.982L189.423 70.0576L197.426 45.985H202.684L210.681 70.0576L218.06 45.985H224.375L213.498 78.3125H207.814L200.061 54.2967L192.245 78.3125H186.561L175.667 45.9864Z" fill="black"/>
<path d="M230.053 36.8575C230.068 35.8722 230.469 34.9323 231.171 34.241C231.873 33.5496 232.819 33.1622 233.805 33.1627C235.806 33.1627 237.499 34.9135 237.499 36.8575C237.499 38.8583 235.811 40.609 233.805 40.609C232.811 40.606 231.858 40.2098 231.155 39.5069C230.452 38.804 230.056 37.8515 230.053 36.8575ZM230.678 45.9863H236.868V78.3124H230.678V45.9863Z" fill="black"/>
<path d="M253.519 45.9862H261.147V51.2441H253.519V78.3123H247.461V51.2384H242.584V45.9805H247.461V42.1096C247.461 36.9199 250.962 33.2991 255.964 33.2991C258.311 33.3217 260.58 34.137 262.405 35.6125L260.154 39.7336C259.466 39.0458 258.215 38.5456 256.84 38.5456C255.027 38.5456 253.526 40.1713 253.526 42.4222L253.519 45.9862Z" fill="black"/>
<path d="M286.638 76.75C284.814 78.2255 282.544 79.0408 280.198 79.0634C275.196 79.0634 271.694 75.4369 271.694 70.2529V51.2392H266.817V45.9813H271.694V37.1083H277.759V45.987H285.388V51.2449H277.759V69.8095C277.759 72.0605 279.26 73.6862 281.073 73.6862C282.449 73.6862 283.699 73.186 284.387 72.4982L286.638 76.75Z" fill="black"/>
<path d="M291.078 34.6058H297.205V78.3117H291.078V34.6058Z" fill="black"/>
<path d="M305.457 88.1423L306.833 83.3903C308.044 84.0398 309.397 84.3814 310.772 84.385C312.773 84.385 314.148 83.7598 315.211 81.884L316.837 78.445L302.956 45.9299H309.584L319.958 71.4421L329.774 45.9299H336.214L321.964 81.2005C319.651 87.0168 316.212 89.4554 311.59 89.5179C309.396 89.5179 307.145 89.0177 305.457 88.1423Z" fill="black"/>
</svg>
