<?xml version="1.0" encoding="utf-8"?>
<!-- Generator: Adobe Illustrator 26.0.2, SVG Export Plug-In . SVG Version: 6.00 Build 0)  -->
<svg version="1.1" id="Layer_1" xmlns="http://www.w3.org/2000/svg" xmlns:xlink="http://www.w3.org/1999/xlink" x="0px" y="0px"
	 viewBox="0 0 500 161" style="enable-background:new 0 0 500 161;" xml:space="preserve">
<style type="text/css">
	.st0{display:none;}
	.st1{display:inline;}
	.st2{fill:#FFFFFF;}
	.st3{fill:#269DCF;}
	.st4{fill:#737373;}
	.st5{fill-rule:evenodd;clip-rule:evenodd;fill:#FFFFFF;}
</style>
<g id="white-blue" class="st0">
	<g id="Group_2216" class="st1">
		<path id="Path_1437" class="st2" d="M65,144.3c0-16.9,4-30.5,12-40.8c7.7-10.1,19.8-15.9,32.5-15.4c10.8-0.6,21.3,4,28.2,12.4
			l0.8-7.2c0.2-1.8,1.7-3.2,3.6-3.2h19.8c2,0,3.6,1.6,3.6,3.6v102.7c0.2,8.8-2.1,17.5-6.6,25.1c-4.4,7.1-10.8,12.8-18.4,16.3
			c-8.8,3.9-18.3,5.8-27.8,5.6c-8.1,0-16.1-1.7-23.6-4.8c-5.8-2.3-11.1-5.8-15.5-10.2c-1.1-1.3-1.2-3.2-0.2-4.5l8.9-12.2
			c1.2-1.6,3.4-2,5-0.8c0.1,0.1,0.2,0.2,0.3,0.3c6.4,6.1,14.9,9.5,23.8,9.4c6.7,0.4,13.2-1.8,18.2-6.3c4.6-4.7,6.9-11.2,6.5-17.7
			v-5.9c-6.7,7.6-16.5,11.9-26.7,11.5c-12.6,0.3-24.5-5.5-32.1-15.5C69,176.3,65,162.6,65,145.6V144.3z M94.3,146.4
			c-0.5,8.3,1.6,16.5,6,23.5c3.6,5.5,9.9,8.7,16.5,8.5c7.8,0.6,15.3-3.3,19.2-10.1v-46.5c-3.9-6.7-11.3-10.6-19-10.1
			c-6.7-0.2-13,3.1-16.6,8.7C96.3,126.3,94.3,134.9,94.3,146.4"/>
		<path id="Path_1438" class="st2" d="M205.7,93.5l0.7,9.4c7.6-9.7,19.3-15.2,31.6-14.7c11.7,0,20.3,3.4,26,10.3s8.6,17.1,8.7,30.7
			v67.5c0,2-1.6,3.6-3.6,3.6h-22.2c-2,0-3.6-1.6-3.6-3.6v-66.9c0.4-4.9-1-9.8-4.1-13.6c-3.7-3.2-8.6-4.7-13.5-4.2
			c-7.7-0.3-14.9,3.8-18.6,10.6v74.1c0,2-1.6,3.6-3.6,3.6h-22.2c-2,0-3.6-1.6-3.6-3.6V93.8c0-2,1.6-3.6,3.6-3.6H202
			C204,90.2,205.5,91.6,205.7,93.5"/>
		<path id="Path_1439" class="st2" d="M310.1,200.1h-22.3c-2,0-3.6-1.6-3.6-3.6V93.8c0-2,1.6-3.6,3.6-3.6h22.3c2,0,3.6,1.6,3.6,3.6
			v102.8C313.6,198.5,312,200.1,310.1,200.1"/>
		<path id="Path_1440" class="st2" d="M357.1,66.7v23.4h15.2c2,0,3.6,1.6,3.6,3.6l0,0v14.4c0,2-1.6,3.6-3.6,3.6l0,0h-15.2v54.9
			c-0.3,3.1,0.5,6.2,2.3,8.7c2.5,2.1,5.7,3,8.9,2.6c1.7,0,3.2-0.1,4.7-0.2c2-0.2,3.7,1.3,3.9,3.3c0,0.1,0,0.2,0,0.3v15.4
			c0,1.7-1.1,3.1-2.7,3.5c-4.9,1.3-10,1.9-15.1,1.9c-20.6,0-31.1-10.4-31.5-31.2V66.7c0-2,1.6-3.6,3.6-3.6l0,0h22.2
			C355.4,63.1,357.1,64.7,357.1,66.7L357.1,66.7"/>
		<path id="Path_1441" class="st2" d="M433.3,202.2c-14.6,0.6-28.8-4.8-39.4-14.8c-10.1-9.9-15.2-23.1-15.2-39.6V145
			c-0.2-10.2,2-20.4,6.4-29.6c4-8.3,10.3-15.3,18.2-20.1c8.1-4.8,17.4-7.2,26.8-7.1c15,0,26.9,4.7,35.5,14.2s13,22.9,13,40.3v8.4
			c0,2-1.6,3.6-3.6,3.6l0,0h-66.4c0.7,6.6,3.7,12.8,8.6,17.3c5,4.4,11.5,6.7,18.1,6.5c9,0.4,17.7-3,24-9.4c1.4-1.4,3.6-1.4,5,0
			c0.1,0.1,0.1,0.1,0.2,0.2l9.7,10.9c1.2,1.3,1.2,3.3,0.1,4.7c-4.3,5.2-9.8,9.4-16,12.2C450.5,200.5,441.9,202.3,433.3,202.2
			 M429.9,111.8c-5.4-0.2-10.5,2-14.2,5.9c-4,4.8-6.4,10.7-7,16.9h40.9v-2.4c0.2-5.5-1.7-11-5.3-15.2
			C440.5,113.4,435.3,111.5,429.9,111.8"/>
		<path id="Path_1442" class="st3" d="M72.6,54c-1.3-3.4,56.4-40.2,131.2-37c52,2.2,109.1,21.9,109.1,44.9c0,11-9.1,15.2-16.5,15.2
			c-14.7,0-56.6-35.8-118.3-39C104.3,34.4,73.8,57.2,72.6,54"/>
		<path id="Path_1443" class="st2" d="M49.4,90.2H27.1c-2,0-3.6,1.6-3.6,3.6l0,0v102.8c0,2,1.6,3.6,3.6,3.6l0,0h22.3
			c2,0,3.6-1.6,3.6-3.6V93.8C53,91.8,51.4,90.2,49.4,90.2L49.4,90.2"/>
		<path id="Path_1444" class="st2" d="M38.3,77.8c9.3,0,16.8-7.5,16.8-16.8s-7.5-16.8-16.8-16.8S21.5,51.7,21.5,61
			S29,77.8,38.3,77.8L38.3,77.8"/>
	</g>
</g>
<g id="white" class="st0">
	<g id="Group_2218" class="st1">
		<path id="Path_1445" class="st2" d="M65,144.3c0-16.9,4-30.5,12-40.8c7.7-10.1,19.8-15.9,32.5-15.4c10.8-0.6,21.3,4,28.2,12.4
			l0.8-7.2c0.2-1.8,1.7-3.2,3.6-3.2h19.8c2,0,3.6,1.6,3.6,3.6v102.7c0.2,8.8-2.1,17.5-6.6,25.1c-4.4,7.1-10.8,12.8-18.4,16.3
			c-8.8,3.9-18.3,5.8-27.8,5.6c-8.1,0-16.1-1.7-23.6-4.8c-5.8-2.3-11.1-5.8-15.5-10.2c-1.1-1.3-1.2-3.2-0.2-4.5l8.9-12.2
			c1.2-1.6,3.4-2,5-0.8c0.1,0.1,0.2,0.2,0.3,0.3c6.4,6.1,14.9,9.5,23.8,9.4c6.7,0.4,13.2-1.8,18.2-6.3c4.6-4.7,6.9-11.2,6.5-17.7
			v-5.9c-6.7,7.6-16.5,11.9-26.7,11.5c-12.6,0.3-24.5-5.5-32.1-15.5C69,176.3,65,162.6,65,145.6V144.3z M94.3,146.4
			c-0.5,8.3,1.6,16.5,6,23.5c3.6,5.5,9.9,8.7,16.5,8.5c7.8,0.6,15.3-3.3,19.2-10.1v-46.5c-3.9-6.7-11.3-10.6-19-10.1
			c-6.7-0.2-13,3.1-16.6,8.7C96.3,126.3,94.3,134.9,94.3,146.4"/>
		<path id="Path_1446" class="st2" d="M205.7,93.5l0.7,9.4c7.6-9.7,19.3-15.2,31.6-14.7c11.7,0,20.3,3.4,26,10.3
			c5.7,6.8,8.6,17.1,8.7,30.7v67.4c0,2-1.6,3.6-3.6,3.6h-22.2c-2,0-3.6-1.6-3.6-3.6v-66.9c0.4-4.9-1-9.8-4.1-13.6
			c-3.7-3.2-8.6-4.7-13.5-4.2c-7.7-0.3-14.9,3.8-18.6,10.6v74.1c0,2-1.6,3.6-3.6,3.6h-22.2c-2,0-3.6-1.6-3.6-3.6V93.8
			c0-2,1.6-3.6,3.6-3.6H202C204,90.2,205.5,91.6,205.7,93.5"/>
		<path id="Path_1447" class="st2" d="M310.1,200.1h-22.3c-2,0-3.6-1.6-3.6-3.6V93.8c0-2,1.6-3.6,3.6-3.6h22.3c2,0,3.6,1.6,3.6,3.6
			v102.8C313.6,198.5,312,200.1,310.1,200.1"/>
		<path id="Path_1448" class="st2" d="M357.1,66.7v23.4h15.2c2,0,3.6,1.6,3.6,3.6l0,0v14.4c0,2-1.6,3.6-3.6,3.6l0,0h-15.2v54.9
			c-0.3,3.1,0.5,6.2,2.3,8.7c2.5,2.1,5.7,3,8.9,2.6c1.7,0,3.2-0.1,4.7-0.2c2-0.2,3.7,1.3,3.9,3.3c0,0.1,0,0.2,0,0.3v15.4
			c0,1.7-1.1,3.1-2.7,3.5c-4.9,1.3-10,1.9-15.1,1.9c-20.6,0-31.1-10.4-31.5-31.2V66.7c0-2,1.6-3.6,3.6-3.6l0,0h22.2
			C355.4,63.1,357.1,64.7,357.1,66.7L357.1,66.7"/>
		<path id="Path_1449" class="st2" d="M433.3,202.2c-14.6,0.6-28.8-4.8-39.4-14.8c-10.1-9.9-15.2-23.1-15.2-39.6V145
			c-0.2-10.2,2-20.4,6.4-29.6c4-8.3,10.3-15.3,18.2-20.1c8.1-4.8,17.4-7.2,26.8-7.1c15,0,26.9,4.7,35.5,14.2s13,22.9,13,40.3v8.4
			c0,2-1.6,3.6-3.6,3.6l0,0h-66.4c0.7,6.6,3.7,12.8,8.6,17.3c5,4.4,11.5,6.7,18.1,6.5c9,0.4,17.7-3.1,24-9.4c1.4-1.4,3.6-1.4,5,0
			c0.1,0.1,0.1,0.1,0.2,0.2l9.7,10.9c1.2,1.3,1.2,3.3,0.1,4.7c-4.3,5.2-9.8,9.4-16,12.2C450.5,200.5,441.9,202.3,433.3,202.2
			 M429.9,111.8c-5.4-0.2-10.5,2-14.2,5.9c-4,4.8-6.4,10.7-7,16.9h40.9v-2.4c0.2-5.5-1.7-11-5.3-15.2
			C440.5,113.4,435.3,111.5,429.9,111.8"/>
		<path id="Path_1450" class="st2" d="M72.6,54c-1.3-3.4,56.4-40.2,131.2-37c52,2.2,109.1,21.9,109.1,44.9c0,11-9.1,15.2-16.5,15.2
			c-14.7,0-56.6-35.8-118.3-39C104.3,34.4,73.8,57.2,72.6,54"/>
		<path id="Path_1451" class="st2" d="M49.4,90.2H27.1c-2,0-3.6,1.6-3.6,3.6l0,0v102.8c0,2,1.6,3.6,3.6,3.6l0,0h22.3
			c2,0,3.6-1.6,3.6-3.6V93.8C53,91.8,51.4,90.2,49.4,90.2L49.4,90.2"/>
		<path id="Path_1452" class="st2" d="M38.3,77.8c9.3,0,16.8-7.5,16.8-16.8s-7.5-16.8-16.8-16.8S21.5,51.7,21.5,61
			S29,77.8,38.3,77.8L38.3,77.8"/>
	</g>
</g>
<g id="black" class="st0">
	<g id="Group_2220" class="st1">
		<path id="Path_1453" d="M65,144.3c0-16.9,4-30.5,12-40.8c7.7-10.1,19.8-15.9,32.5-15.4c10.8-0.6,21.3,4,28.2,12.4l0.8-7.2
			c0.2-1.8,1.7-3.2,3.6-3.2h19.8c2,0,3.6,1.6,3.6,3.6v102.7c0.2,8.8-2.1,17.5-6.6,25.1c-4.4,7.1-10.8,12.8-18.4,16.3
			c-8.8,3.9-18.3,5.8-27.8,5.6c-8.1,0-16.1-1.7-23.6-4.8c-5.8-2.3-11.1-5.8-15.5-10.2c-1.1-1.3-1.2-3.2-0.2-4.5l8.9-12.2
			c1.2-1.6,3.4-2,5-0.8c0.1,0.1,0.2,0.2,0.3,0.3c6.4,6.1,14.9,9.5,23.8,9.4c6.7,0.4,13.2-1.8,18.2-6.3c4.6-4.7,6.9-11.2,6.5-17.7
			v-5.9c-6.7,7.6-16.5,11.9-26.7,11.5c-12.6,0.3-24.5-5.5-32.1-15.5C69,176.3,65,162.6,65,145.6V144.3z M94.3,146.4
			c-0.5,8.3,1.6,16.5,6,23.5c3.6,5.5,9.9,8.7,16.5,8.5c7.8,0.6,15.3-3.3,19.2-10.1v-46.5c-3.9-6.7-11.3-10.6-19-10.1
			c-6.7-0.2-13,3.1-16.6,8.7C96.3,126.3,94.3,134.9,94.3,146.4"/>
		<path id="Path_1454" d="M205.7,93.5l0.7,9.4c7.6-9.7,19.3-15.2,31.6-14.7c11.7,0,20.3,3.4,26,10.3c5.7,6.8,8.6,17.1,8.7,30.7v67.4
			c0,2-1.6,3.6-3.6,3.6h-22.2c-2,0-3.6-1.6-3.6-3.6v-66.9c0.4-4.9-1-9.8-4.1-13.6c-3.7-3.2-8.6-4.7-13.5-4.2
			c-7.7-0.3-14.9,3.8-18.6,10.6v74.1c0,2-1.6,3.6-3.6,3.6h-22.2c-2,0-3.6-1.6-3.6-3.6V93.8c0-2,1.6-3.6,3.6-3.6H202
			C204,90.2,205.5,91.6,205.7,93.5"/>
		<path id="Path_1455" d="M310.1,200.1h-22.3c-2,0-3.6-1.6-3.6-3.6V93.8c0-2,1.6-3.6,3.6-3.6h22.3c2,0,3.6,1.6,3.6,3.6v102.8
			C313.6,198.5,312,200.1,310.1,200.1"/>
		<path id="Path_1456" d="M357.1,66.7v23.4h15.2c2,0,3.6,1.6,3.6,3.6l0,0v14.4c0,2-1.6,3.6-3.6,3.6l0,0h-15.2v54.9
			c-0.3,3.1,0.5,6.2,2.3,8.7c2.5,2.1,5.7,3,8.9,2.6c1.7,0,3.2-0.1,4.7-0.2c2-0.2,3.7,1.3,3.9,3.3c0,0.1,0,0.2,0,0.3v15.4
			c0,1.7-1.1,3.1-2.7,3.5c-4.9,1.3-10,1.9-15.1,1.9c-20.6,0-31.1-10.4-31.5-31.2V66.7c0-2,1.6-3.6,3.6-3.6l0,0h22.2
			C355.4,63.1,357.1,64.7,357.1,66.7L357.1,66.7"/>
		<path id="Path_1457" d="M433.3,202.2c-14.6,0.6-28.8-4.8-39.4-14.8c-10.1-9.9-15.2-23.1-15.2-39.6V145c-0.2-10.2,2-20.4,6.4-29.6
			c4-8.3,10.3-15.3,18.2-20.1c8.1-4.8,17.4-7.2,26.8-7.1c15,0,26.9,4.7,35.5,14.2s13,22.9,13,40.3v8.4c0,2-1.6,3.6-3.6,3.6l0,0
			h-66.4c0.7,6.6,3.7,12.8,8.6,17.3c5,4.4,11.5,6.7,18.1,6.5c9,0.4,17.7-3,24-9.4c1.4-1.4,3.6-1.4,5,0c0.1,0.1,0.1,0.1,0.2,0.2
			l9.7,10.9c1.2,1.3,1.2,3.3,0.1,4.7c-4.3,5.2-9.8,9.4-16,12.2C450.5,200.5,441.9,202.3,433.3,202.2 M429.9,111.8
			c-5.4-0.2-10.5,2-14.2,5.9c-4,4.8-6.4,10.7-7,16.9h40.9v-2.4c0.2-5.5-1.7-11-5.3-15.2C440.5,113.4,435.3,111.5,429.9,111.8"/>
		<path id="Path_1458" d="M72.6,54c-1.3-3.4,56.4-40.2,131.2-37c52,2.2,109.1,21.9,109.1,44.9c0,11-9.1,15.2-16.5,15.2
			c-14.7,0-56.6-35.8-118.3-39C104.3,34.4,73.8,57.2,72.6,54"/>
		<path id="Path_1459" d="M49.4,90.2H27.1c-2,0-3.6,1.6-3.6,3.6l0,0v102.8c0,2,1.6,3.6,3.6,3.6l0,0h22.3c2,0,3.6-1.6,3.6-3.6V93.8
			C53,91.8,51.4,90.2,49.4,90.2L49.4,90.2"/>
		<path id="Path_1460" d="M38.3,77.8c9.3,0,16.8-7.5,16.8-16.8s-7.5-16.8-16.8-16.8S21.5,51.7,21.5,61S29,77.8,38.3,77.8L38.3,77.8"
			/>
	</g>
</g>
<g id="gray" class="st0">
	<g id="Group_2222" class="st1">
		<path id="Path_1461" class="st4" d="M65,144.3c0-16.9,4-30.5,12-40.8c7.7-10.1,19.8-15.9,32.5-15.4c10.8-0.6,21.3,4,28.2,12.4
			l0.8-7.2c0.2-1.8,1.7-3.2,3.6-3.2h19.8c2,0,3.6,1.6,3.6,3.6v102.7c0.2,8.8-2.1,17.5-6.6,25.1c-4.4,7.1-10.8,12.8-18.4,16.3
			c-8.8,3.9-18.3,5.8-27.8,5.6c-8.1,0-16.1-1.7-23.6-4.8c-5.8-2.3-11.1-5.8-15.5-10.2c-1.1-1.3-1.2-3.2-0.2-4.5l8.9-12.2
			c1.2-1.6,3.4-2,5-0.8c0.1,0.1,0.2,0.2,0.3,0.3c6.4,6.1,14.9,9.5,23.8,9.4c6.7,0.4,13.2-1.8,18.2-6.3c4.6-4.7,6.9-11.2,6.5-17.7
			v-5.9c-6.7,7.6-16.5,11.9-26.7,11.5c-12.6,0.3-24.5-5.5-32.1-15.5C69,176.3,65,162.6,65,145.6V144.3z M94.3,146.4
			c-0.5,8.3,1.6,16.5,6,23.5c3.6,5.5,9.9,8.7,16.5,8.5c7.8,0.6,15.3-3.3,19.2-10.1v-46.5c-3.9-6.7-11.3-10.6-19-10.1
			c-6.7-0.2-13,3.1-16.6,8.7C96.3,126.3,94.3,134.9,94.3,146.4"/>
		<path id="Path_1462" class="st4" d="M205.7,93.5l0.7,9.4c7.6-9.7,19.3-15.2,31.6-14.7c11.7,0,20.3,3.4,26,10.3
			c5.7,6.8,8.6,17.1,8.7,30.7v67.4c0,2-1.6,3.6-3.6,3.6h-22.2c-2,0-3.6-1.6-3.6-3.6v-66.9c0.4-4.9-1-9.8-4.1-13.6
			c-3.7-3.2-8.6-4.7-13.5-4.2c-7.7-0.3-14.9,3.8-18.6,10.6v74.1c0,2-1.6,3.6-3.6,3.6h-22.2c-2,0-3.6-1.6-3.6-3.6V93.8
			c0-2,1.6-3.6,3.6-3.6H202C204,90.2,205.5,91.6,205.7,93.5"/>
		<path id="Path_1463" class="st4" d="M310.1,200.1h-22.3c-2,0-3.6-1.6-3.6-3.6V93.8c0-2,1.6-3.6,3.6-3.6h22.3c2,0,3.6,1.6,3.6,3.6
			v102.8C313.6,198.5,312,200.1,310.1,200.1"/>
		<path id="Path_1464" class="st4" d="M357.1,66.7v23.4h15.2c2,0,3.6,1.6,3.6,3.6l0,0v14.4c0,2-1.6,3.6-3.6,3.6l0,0h-15.2v54.9
			c-0.3,3.1,0.5,6.2,2.3,8.7c2.5,2.1,5.7,3,8.9,2.6c1.7,0,3.2-0.1,4.7-0.2c2-0.2,3.7,1.3,3.9,3.3c0,0.1,0,0.2,0,0.3v15.4
			c0,1.7-1.1,3.1-2.7,3.5c-4.9,1.3-10,1.9-15.1,1.9c-20.6,0-31.1-10.4-31.5-31.2V66.7c0-2,1.6-3.6,3.6-3.6l0,0h22.2
			C355.4,63.1,357.1,64.7,357.1,66.7L357.1,66.7"/>
		<path id="Path_1465" class="st4" d="M433.3,202.2c-14.6,0.6-28.8-4.8-39.4-14.8c-10.1-9.9-15.2-23.1-15.2-39.6V145
			c-0.2-10.2,2-20.4,6.4-29.6c4-8.3,10.3-15.3,18.2-20.1c8.1-4.8,17.4-7.2,26.8-7.1c15,0,26.9,4.7,35.5,14.2s13,22.9,13,40.3v8.4
			c0,2-1.6,3.6-3.6,3.6l0,0h-66.4c0.7,6.6,3.7,12.8,8.6,17.3c5,4.4,11.5,6.7,18.1,6.5c9,0.4,17.7-3,24-9.4c1.4-1.4,3.6-1.4,5,0
			c0.1,0.1,0.1,0.1,0.2,0.2l9.7,10.9c1.2,1.3,1.2,3.3,0.1,4.7c-4.3,5.2-9.8,9.4-16,12.2C450.5,200.5,441.9,202.3,433.3,202.2
			 M429.9,111.8c-5.4-0.2-10.5,2-14.2,5.9c-4,4.8-6.4,10.7-7,16.9h40.9v-2.4c0.2-5.5-1.7-11-5.3-15.2
			C440.5,113.4,435.3,111.5,429.9,111.8"/>
		<path id="Path_1466" class="st4" d="M72.6,54c-1.3-3.4,56.4-40.2,131.2-37c52,2.2,109.1,21.9,109.1,44.9c0,11-9.1,15.2-16.5,15.2
			c-14.7,0-56.6-35.8-118.3-39C104.3,34.4,73.8,57.2,72.6,54"/>
		<path id="Path_1467" class="st4" d="M49.4,90.2H27.1c-2,0-3.6,1.6-3.6,3.6l0,0v102.8c0,2,1.6,3.6,3.6,3.6l0,0h22.3
			c2,0,3.6-1.6,3.6-3.6V93.8C53,91.8,51.4,90.2,49.4,90.2L49.4,90.2"/>
		<path id="Path_1468" class="st4" d="M38.3,77.8c9.3,0,16.8-7.5,16.8-16.8s-7.5-16.8-16.8-16.8S21.5,51.7,21.5,61
			S29,77.8,38.3,77.8L38.3,77.8"/>
	</g>
</g>
<g>
	<path id="Path_60" class="st2" d="M197.7,68.9v33.4h-10.2V68.9h-12.9v-8.7h36v8.7L197.7,68.9z"/>
	<path id="Path_61" class="st2" d="M225.3,95.6c0.9-0.6,1.4-1.5,1.6-2.6h10c-0.4,1.9-1.4,3.7-2.7,5.2c-1.4,1.6-3.2,2.9-5.2,3.7
		c-2.2,0.9-4.6,1.4-7.1,1.3c-2.9,0.1-5.9-0.6-8.4-2.1c-2.3-1.3-4.2-3.3-5.3-5.7c-1.3-2.6-1.9-5.5-1.8-8.4c0-2.8,0.6-5.6,1.8-8.1
		c1.2-2.4,3.1-4.3,5.3-5.6c2.5-1.4,5.4-2.1,8.3-2c3.2-0.1,6.3,0.8,9,2.6c2.5,1.7,4.4,4.2,5.3,7.1c0.4,1.2,0.7,2.4,0.9,3.7
		c0.2,1.5,0.3,3.1,0.3,4.7h-21.3c-0.1,2,0.5,4,1.8,5.7c1,1.1,2.5,1.8,4.1,1.7C223.1,96.7,224.3,96.4,225.3,95.6z M218.1,79.2
		c-1.1,1.3-1.8,2.8-1.9,4.5h11.3c-0.1-1.7-0.7-3.3-1.8-4.5c-1-1-2.4-1.5-3.8-1.5C220.5,77.7,219.1,78.2,218.1,79.2L218.1,79.2z"/>
	<path id="Path_62" class="st2" d="M264.1,72.9c2.1,1,3.9,2.5,5.3,4.4c1.3,1.9,2.1,4.1,2.3,6.5h-10.2c-0.1-1.4-0.6-2.7-1.5-3.7
		c-0.9-0.9-2-1.4-3.3-1.3c-1.6,0-3.1,0.8-3.9,2.2c-1.1,1.9-1.6,4.1-1.4,6.3c-0.1,2.2,0.4,4.4,1.4,6.3c0.8,1.4,2.4,2.3,4,2.2
		c1.3,0,2.5-0.5,3.3-1.5c0.9-1.2,1.4-2.6,1.4-4.1h10.2c-0.2,3.6-1.8,7.1-4.5,9.5c-2.9,2.4-6.6,3.7-10.4,3.5c-2.9,0.1-5.7-0.6-8.3-2
		c-2.4-1.3-4.3-3.2-5.5-5.6c-2.6-5.3-2.6-11.5,0-16.8c1.2-2.4,3.1-4.3,5.5-5.6c2.5-1.4,5.4-2,8.3-2
		C259.2,71.3,261.7,71.8,264.1,72.9z"/>
	<path id="Path_63" class="st2" d="M286.1,75.3c1-1.2,2.2-2.2,3.5-2.8c4.3-1.9,9.2-1,12.6,2.2c2.1,2.6,3.2,5.9,3,9.2v18.4h-9.8V84.9
		c0.1-1.5-0.3-3.1-1.1-4.3c-0.8-1-2-1.5-3.3-1.4c-1.5,0-2.9,0.7-3.7,2c-1,1.7-1.4,3.7-1.3,5.7v15.5h-9.9V60.2h9.8v15.1L286.1,75.3z"
		/>
	<path id="Path_64" class="st2" d="M337.6,74.7c2.1,2.6,3.2,5.9,3,9.2v18.4h-9.8V84.9c0.1-1.5-0.3-3.1-1.1-4.3c-0.8-1-2-1.5-3.3-1.4
		c-1.5,0-2.9,0.7-3.7,2c-1,1.7-1.4,3.7-1.3,5.7v15.5h-9.8v-30h9.2v3.6h0.1c1-1.3,2.3-2.4,3.8-3.2c1.5-0.8,3.3-1.2,5-1.2
		C332.6,71.4,335.5,72.5,337.6,74.7z"/>
	<path id="Path_65" class="st2" d="M369.5,73.3c2.4,1.3,4.3,3.2,5.6,5.6c2.6,5.3,2.6,11.6,0,16.9c-1.3,2.4-3.2,4.3-5.6,5.6
		c-5.4,2.6-11.6,2.6-17,0c-2.4-1.3-4.3-3.2-5.6-5.6c-2.6-5.3-2.6-11.6,0-16.9c1.3-2.4,3.2-4.3,5.6-5.6
		C357.9,70.7,364.2,70.7,369.5,73.3z M356.8,81.1c-2,3.9-2,8.6,0,12.5c1.5,2.3,4.7,3,7,1.4c0.6-0.4,1.1-0.9,1.4-1.4
		c2-3.9,2-8.6,0-12.5c-1.5-2.3-4.7-3-7-1.4C357.7,80,357.2,80.5,356.8,81.1z"/>
	<path id="Path_66" class="st2" d="M425.9,74.7c2.1,2.6,3.1,5.9,2.9,9.1v18.5h-9.8V84.9c0.1-1.5-0.2-3-1-4.3c-0.7-1-1.8-1.5-3-1.4
		c-1.4-0.1-2.8,0.7-3.5,2c-0.9,1.8-1.3,3.9-1.2,5.9v15.3h-9.8V84.5c0.1-1.4-0.3-2.8-1-3.9c-0.7-0.9-1.8-1.5-3-1.4
		c-1.4-0.1-2.8,0.7-3.5,2c-0.9,1.8-1.3,3.9-1.2,5.9v15.2h-9.9v-30h9.2v3.4h0.1c1.9-2.7,5.1-4.3,8.4-4.2c1.9,0,3.7,0.4,5.3,1.3
		c1.6,0.9,2.8,2.3,3.5,3.9c1-1.6,2.4-2.9,4-3.9c1.7-0.9,3.6-1.4,5.6-1.3C421,71.4,423.9,72.5,425.9,74.7z"/>
	<path id="Path_67" class="st2" d="M435,68v-7.8h9.8V68H435z M435,102.3v-30h9.8v30H435z"/>
	<path id="Path_68" class="st2" d="M472.7,72.9c2.1,1,3.9,2.5,5.2,4.4c1.3,1.9,2.1,4.1,2.3,6.5h-10.2c-0.1-1.4-0.6-2.7-1.5-3.7
		c-0.9-0.9-2-1.4-3.3-1.3c-1.6,0-3.1,0.8-3.9,2.2c-1.1,1.9-1.6,4.1-1.4,6.3c-0.1,2.2,0.4,4.4,1.4,6.3c0.8,1.4,2.4,2.3,4,2.2
		c1.3,0,2.5-0.5,3.3-1.5c0.9-1.2,1.4-2.6,1.4-4.1h10.2c-0.2,3.6-1.8,7.1-4.5,9.5c-2.9,2.4-6.6,3.7-10.4,3.5c-2.9,0.1-5.7-0.6-8.3-2
		c-2.4-1.3-4.3-3.2-5.5-5.6c-2.6-5.3-2.6-11.5,0-16.8c1.2-2.4,3.1-4.3,5.5-5.6c2.5-1.4,5.4-2,8.3-2
		C467.8,71.3,470.4,71.8,472.7,72.9z"/>
	<path id="Path_69" class="st2" d="M492.4,102.7c-2.2,2.2-5.8,2.2-8,0c-2.2-2.2-2.2-5.8,0-8s5.8-2.2,8,0c1.1,1.1,1.7,2.5,1.7,4
		C494.1,100.2,493.5,101.7,492.4,102.7z M485,95.3c-0.9,0.9-1.4,2.1-1.4,3.4c0,1.3,0.5,2.6,1.4,3.5c1.9,1.9,4.9,1.9,6.9,0
		c0,0,0,0,0,0l0,0c1.9-1.9,1.9-5,0-6.9C490,93.4,486.9,93.4,485,95.3L485,95.3L485,95.3z M488.3,95.6c0.6,0,1.1,0,1.7,0.2
		c0.6,0.2,1,0.9,1,1.6c0,0.5-0.2,0.9-0.6,1.2c-0.3,0.2-0.6,0.3-0.9,0.3c0.4,0,0.8,0.3,1.1,0.6c0.2,0.3,0.3,0.6,0.3,1v0.9
		c0,0.1,0,0.2,0,0.3v0.1h-1V101c0.1-0.5-0.1-1.1-0.6-1.4c-0.4-0.2-0.8-0.2-1.2-0.2h-0.8v2.4h-1.1v-6.2L488.3,95.6z M489.5,96.6
		c-0.4-0.2-0.9-0.3-1.3-0.2h-0.9v2.2h1c0.4,0,0.7,0,1-0.1c0.6-0.3,0.8-0.9,0.5-1.5C489.7,96.8,489.6,96.7,489.5,96.6L489.5,96.6z"/>
	<path id="Path_86" class="st5" d="M125.4,72.6c-0.3,0-0.5-0.2-0.5-0.5c0-0.2,0.1-0.4,0.3-0.5c0,0,13.5-4.2,13.7-4.3
		c1.1-0.2,2.1,0.5,2.4,1.6c0.2,1.1-0.5,2.1-1.6,2.4l0,0l0,0L125.4,72.6z M114.7,31L114.7,31c0.6-0.9,0.4-2.2-0.6-2.8
		c-0.9-0.6-2.2-0.4-2.8,0.6c-0.1,0.1-6.7,12.7-6.7,12.7c-0.2,0.2-0.2,0.5,0,0.7c0.2,0.2,0.5,0.2,0.7,0l0,0c0,0,0.1-0.1,0.1-0.1
		L114.7,31z M131.3,48.6L131.3,48.6c0.9-0.6,1.2-1.9,0.6-2.8c-0.6-0.9-1.9-1.2-2.8-0.6l0,0l0,0c-0.1,0.1-11,9.1-11,9.2
		c-0.3,0.1-0.4,0.4-0.2,0.7c0.1,0.3,0.4,0.4,0.7,0.2c0,0,0,0,0,0c0,0,0.1,0,0.1-0.1L131.3,48.6z M92.7,21L92.7,21
		c0.2-1.1-0.5-2.1-1.6-2.4c-1.1-0.2-2.1,0.5-2.4,1.6c0,0.2-1.4,14.3-1.4,14.3c0,0.3,0.2,0.5,0.4,0.6c0.2,0,0.5-0.1,0.5-0.3v0
		L92.7,21z M123.9,36.3c-0.8-0.8-2-0.8-2.8,0c0,0,0,0,0,0l0,0l0,0L93.2,66.1c-0.2,0.2-0.2,0.5,0,0.7c0.2,0.2,0.4,0.2,0.6,0.1
		c0,0,0.1-0.1,0.1-0.1l0,0l30-27.8l0,0C124.7,38.3,124.7,37,123.9,36.3C123.9,36.3,123.9,36.3,123.9,36.3L123.9,36.3z M103.2,22.3
		c-1-0.4-2.2,0-2.6,1c0,0,0,0,0,0v0l0,0v0.1L88.5,56.3c-0.1,0.2,0,0.4,0.1,0.5c0,0,0.1,0.1,0.2,0.1l0,0c0.2,0.1,0.5,0,0.6-0.2l0,0
		l14.8-31.5l0.1-0.2C104.7,24,104.3,22.8,103.2,22.3L103.2,22.3L103.2,22.3z M137.7,57c-0.4-1-1.6-1.5-2.6-1.1c0,0,0,0,0,0h0l0,0
		l-31.7,14.8c-0.2,0.1-0.3,0.3-0.3,0.5c0,0.1,0,0.1,0,0.2l0,0c0.1,0.2,0.4,0.4,0.6,0.3l32.9-12C137.6,59.2,138.1,58.1,137.7,57
		C137.7,57,137.7,57,137.7,57L137.7,57z M68.5,20.3L68.5,20.3c-0.2-1.1-1.3-1.8-2.4-1.6S64.4,20,64.6,21c0,0.2,4.3,13.7,4.3,13.7
		c0.1,0.3,0.4,0.4,0.6,0.3c0.2-0.1,0.4-0.3,0.3-0.5L68.5,20.3z M28.3,45.2L28.3,45.2c-0.9-0.6-2.2-0.4-2.8,0.6
		c-0.6,0.9-0.4,2.2,0.6,2.8l0,0c0.1,0.1,12.7,6.6,12.7,6.6c0.2,0.2,0.5,0.2,0.7,0c0.2-0.2,0.2-0.5,0-0.7l0,0c0,0-0.1-0.1-0.1-0.1
		L28.3,45.2z M45.9,28.7L45.9,28.7c-0.6-0.9-1.9-1.2-2.8-0.6c-0.9,0.6-1.2,1.9-0.6,2.8c0.1,0.1,9.1,11,9.2,11
		c0.1,0.2,0.4,0.4,0.7,0.2c0.2-0.1,0.3-0.4,0.2-0.7c0,0,0-0.1-0.1-0.1L45.9,28.7z M18.3,67.2L18.3,67.2c-1.1-0.2-2.1,0.5-2.3,1.6
		c-0.2,1.1,0.5,2.1,1.6,2.3c0.2,0,14.3,1.4,14.3,1.4c0.3,0.1,0.5-0.1,0.6-0.3c0.1-0.3-0.1-0.5-0.3-0.6c0,0-0.1,0-0.1,0h0L18.3,67.2z
		 M33.5,36.1c-0.8,0.8-0.8,2,0,2.8c0,0,0,0,0,0l0,0l0,0l29.8,27.8c0.2,0.2,0.5,0.3,0.7,0.1c0.2-0.2,0.3-0.5,0.1-0.7l0,0
		c0,0-0.1-0.1-0.1-0.1l0,0l-27.7-30l0,0C35.6,35.3,34.4,35.3,33.5,36.1C33.6,36.1,33.6,36.1,33.5,36.1L33.5,36.1z M80.7,11L80.7,11
		c0-1.1-0.9-2-2-2s-2,0.9-2,2l0,0l1.5,55.8c0,0.3,0.2,0.5,0.5,0.5c0.2,0,0.4-0.1,0.5-0.3c0-0.1,0-0.1,0-0.2L80.7,11z M19.6,56.8
		c-0.4,1,0,2.2,1,2.6c0,0,0,0,0,0h0h0.1l32.7,12.1c0.2,0.1,0.4,0,0.5-0.1c0,0,0.1-0.1,0.1-0.2l0,0c0.1-0.2,0-0.5-0.2-0.6l0,0
		L22.4,55.8l-0.2-0.1C21.2,55.3,20.1,55.7,19.6,56.8C19.6,56.7,19.6,56.7,19.6,56.8C19.6,56.8,19.6,56.8,19.6,56.8L19.6,56.8z
		 M54.2,22.3c-1,0.4-1.5,1.6-1.1,2.6c0,0,0,0,0,0v0l0,0l14.8,31.7c0.1,0.2,0.3,0.3,0.5,0.3c0.1,0,0.1,0,0.2,0l0,0
		c0.2-0.1,0.4-0.4,0.3-0.6l-12-33C56.4,22.4,55.3,21.9,54.2,22.3C54.3,22.3,54.3,22.3,54.2,22.3L54.2,22.3L54.2,22.3z M125.4,90
		c-0.3-0.1-0.5,0.1-0.6,0.3c-0.1,0.3,0.1,0.5,0.3,0.6c0,0,0.1,0,0.1,0h0c0,0,13.5,4.2,13.7,4.3c1.1,0.2,2.1-0.5,2.4-1.6
		s-0.5-2.1-1.6-2.4l0,0L125.4,90z M105.5,120.6c-0.1-0.2-0.4-0.4-0.7-0.2c-0.2,0.1-0.3,0.4-0.2,0.7c0,0,0,0.1,0.1,0.1
		c0,0,6.6,12.6,6.6,12.7c0.6,0.9,1.8,1.2,2.8,0.6c0.9-0.6,1.2-1.8,0.6-2.8l0,0L105.5,120.6z M118.6,107.3c-0.3-0.1-0.5,0-0.7,0.2
		c-0.1,0.2,0,0.4,0.1,0.6c0,0,10.9,9.1,11,9.2c0.9,0.6,2.2,0.4,2.8-0.6c0.6-0.9,0.4-2.2-0.6-2.8l0,0l0,0L118.6,107.3z M88.4,128
		c-0.1-0.3-0.4-0.4-0.6-0.3c-0.2,0.1-0.4,0.3-0.3,0.5c0,0,1.3,14.1,1.4,14.3c0.2,1.1,1.3,1.8,2.4,1.6c1.1-0.2,1.8-1.3,1.6-2.4l0,0
		L88.4,128z M123.9,123.5L123.9,123.5l-30-27.8l0,0c-0.2-0.2-0.5-0.3-0.7-0.1c-0.2,0.2-0.3,0.5-0.1,0.7c0,0,0,0,0,0
		c0,0,0.1,0.1,0.1,0.1l27.8,29.8l0,0c0.8,0.8,2,0.8,2.8,0C124.6,125.6,124.6,124.3,123.9,123.5L123.9,123.5z M93.2,80.8
		c-0.3-0.1-0.5,0.1-0.6,0.3c-0.1,0.3,0.1,0.5,0.3,0.6c0,0,0.1,0,0.1,0c0.1,0,0.1,0,0.2,0l55.8,1.5l0,0c1.1,0,2-0.9,2-2
		c0-1.1-0.9-2-2-2l0,0L93.2,80.8z M104.2,137.7l-0.1-0.2L89.4,106l0,0c-0.1-0.2-0.4-0.3-0.6-0.2l0,0c-0.1,0-0.1,0.1-0.2,0.1
		c-0.1,0.1-0.2,0.4-0.1,0.5l12,32.8v0.1l0,0c0.4,1,1.6,1.5,2.6,1.1C104.1,139.9,104.6,138.7,104.2,137.7L104.2,137.7L104.2,137.7
		L104.2,137.7z M136.6,103.1l-32.9-12c-0.2-0.1-0.5,0-0.6,0.3l0,0c0,0.1,0,0.1,0,0.2c0,0.2,0.1,0.4,0.3,0.5l31.7,14.8l0,0
		c1,0.4,2.2-0.1,2.6-1.1C138.1,104.6,137.6,103.5,136.6,103.1L136.6,103.1z M69.8,128.1c0-0.3-0.2-0.5-0.5-0.5
		c-0.2,0-0.4,0.1-0.5,0.3c0,0-4.2,13.5-4.3,13.7c-0.2,1.1,0.5,2.1,1.6,2.4c1.1,0.2,2.1-0.5,2.4-1.6l0,0L69.8,128.1z M39.3,108.2
		c0.2-0.2,0.2-0.5,0-0.7c-0.1-0.2-0.4-0.2-0.6-0.1c0,0-12.6,6.6-12.7,6.6c-0.9,0.6-1.2,1.8-0.6,2.8c0.6,0.9,1.8,1.2,2.8,0.6l0,0
		L39.3,108.2z M52.5,121.3c0.2-0.2,0.2-0.5,0-0.7c-0.2-0.2-0.5-0.2-0.7,0l0,0c0,0-0.1,0.1-0.1,0.1c0,0-9.1,10.9-9.2,11
		c-0.6,0.9-0.4,2.2,0.6,2.8c0.9,0.6,2.2,0.4,2.8-0.6l0,0l0,0L52.5,121.3z M31.9,91.1c0.3,0,0.5-0.3,0.4-0.6c0-0.3-0.3-0.5-0.6-0.4h0
		c0,0-14.1,1.3-14.3,1.4c-1.1,0.2-1.8,1.3-1.6,2.4c0.2,1.1,1.3,1.8,2.4,1.6l0,0L31.9,91.1z M36.3,126.5L36.3,126.5l27.8-30l0,0
		c0.1-0.1,0.1-0.2,0.1-0.4c0-0.3-0.2-0.5-0.5-0.5c-0.1,0-0.3,0.1-0.4,0.2l-29.9,27.8l0,0c-0.8,0.8-0.8,2-0.1,2.8
		S35.5,127.4,36.3,126.5C36.3,126.6,36.3,126.5,36.3,126.5L36.3,126.5z M63.9,81.8L63.9,81.8c0.3,0,0.5-0.2,0.5-0.5
		c0-0.2-0.1-0.4-0.3-0.5c-0.1,0-0.1,0-0.2,0l0,0L8.2,79.3l0,0c-1.1,0-2,0.9-2,2c0,1.1,0.9,2,2,2l0,0L63.9,81.8z M79.1,95.9
		c0.1-0.3-0.1-0.5-0.3-0.6c-0.3-0.1-0.5,0.1-0.6,0.3c0,0,0,0.1,0,0.1c0,0.1,0,0.1,0,0.2l-1.5,55.8l0,0c0,1.1,0.9,2,2,2
		c1.1,0,2-0.9,2-2l0,0C80.6,151.7,79.1,95.9,79.1,95.9L79.1,95.9z M22.2,106.9l0.2-0.1L53.9,92l0,0c0.2-0.1,0.3-0.4,0.2-0.6l0,0
		c-0.1-0.3-0.4-0.4-0.6-0.3l0,0h0l-32.7,12.1h-0.1c-1,0.4-1.5,1.6-1.1,2.6C20,106.8,21.1,107.3,22.2,106.9
		C22.2,106.9,22.2,106.9,22.2,106.9L22.2,106.9z M56.8,139.3l12-32.9c0.1-0.2,0-0.5-0.3-0.6l0,0c-0.1,0-0.1,0-0.2,0
		c-0.2,0-0.4,0.1-0.5,0.3l-14.8,31.7l0,0c-0.4,1,0.1,2.2,1.1,2.6C55.2,140.8,56.4,140.3,56.8,139.3L56.8,139.3L56.8,139.3z"/>
</g>
</svg>
