<svg width="186" height="44" viewBox="0 0 186 44" fill="none" xmlns="http://www.w3.org/2000/svg">
<path d="M14.9451 16.8279H10.7673V11.7182H4.99311V16.8279H2.03809V22.2782H4.99311V34.0645H10.7673V22.2782H14.9451V16.8279Z" fill="#15072C"/>
<path d="M26.8384 16.4872C25.5817 16.4872 24.3929 17.2026 23.3399 18.3608L23.1022 16.8279H17.6676V34.0645H23.4418V27.5922C23.4418 23.3682 24.7325 21.9375 26.4648 21.9375C26.9743 21.9375 27.6875 22.0738 28.0612 22.2782L28.8084 17.2026C28.4008 16.7938 27.6875 16.4872 26.8384 16.4872Z" fill="#15072C"/>
<path d="M29.8237 25.4462C29.8237 30.3855 33.2202 34.4052 38.1453 34.4052C40.7606 34.4052 42.6287 33.1788 43.342 31.7822L43.6817 34.0645H49.1162V16.8279H43.6817L43.342 19.1102C42.6287 17.7135 40.7606 16.4872 38.1453 16.4872C33.2202 16.4872 29.8237 20.5068 29.8237 25.4462ZM35.5978 25.4462C35.5978 23.5726 36.9565 21.9375 39.1642 21.9375C41.372 21.9375 42.6627 23.5726 42.6627 25.4462C42.6627 27.3197 41.372 28.9548 39.1642 28.9548C36.9565 28.9548 35.5978 27.3197 35.5978 25.4462Z" fill="#15072C"/>
<path d="M51.4662 25.4462C51.4662 30.3855 54.8628 34.4052 59.7878 34.4052C62.4032 34.4052 64.2713 33.1788 64.9846 31.7822L65.3242 34.0645H70.7587V8.51611H64.9846V19.1102C64.2713 17.7135 62.4032 16.4872 59.7878 16.4872C54.8628 16.4872 51.4662 20.5068 51.4662 25.4462ZM57.2404 25.4462C57.2404 23.5726 58.599 21.9375 60.8068 21.9375C63.0146 21.9375 64.3053 23.5726 64.3053 25.4462C64.3053 27.3197 63.0146 28.9548 60.8068 28.9548C58.599 28.9548 57.2404 27.3197 57.2404 25.4462Z" fill="#15072C"/>
<path d="M90.992 25.7187C90.992 20.6771 87.7313 16.4872 82.3986 16.4872C77.1 16.4872 73.8053 20.575 73.8053 25.344C73.8053 30.1812 77.2359 34.4052 82.7043 34.4052C87.7313 34.4052 90.4146 30.7262 90.7542 28.4098L85.7273 27.8988C85.1159 28.6823 84.0969 29.2955 82.7383 29.2955C80.3607 29.2955 79.6474 28.0351 79.5795 27.2175H90.992V25.7187ZM79.5795 23.3001C79.6474 22.4144 80.7004 21.5969 82.3986 21.5969C84.0969 21.5969 85.1499 22.4144 85.2178 23.3001H79.5795Z" fill="#15072C"/>
<path d="M93.0265 28.2735C93.0265 32.4975 96.457 34.4052 101.348 34.4052C105.39 34.4052 108.99 32.6338 108.99 29.057C108.99 27.3197 108.311 25.0033 103.76 23.6067C99.9215 22.4144 99.3102 22.3804 99.3102 21.9035C99.3102 21.4266 100.125 21.2562 100.805 21.2562C101.348 21.2562 102.537 21.4266 102.537 22.3122H108.311C108.311 19.2124 105.526 16.4872 100.601 16.4872C96.8986 16.4872 93.536 18.5311 93.536 21.9035C93.536 24.799 95.6079 26.4341 99.0045 27.3197C102.333 28.1713 103.216 28.2735 103.216 28.9208C103.216 29.5339 102.129 29.6361 101.484 29.6361C99.8876 29.6361 98.8007 29.1251 98.8007 28.2735H93.0265Z" fill="#15072C"/>
<path d="M134.867 16.8279L131.81 26.6384L128.719 16.8279H122.571L119.514 26.6384L116.423 16.8279H110.275L116.491 34.0645H122.503L125.662 25.344L128.787 34.0645H134.799L141.014 16.8279H134.867Z" fill="url(#paint0_linear)"/>
<path d="M158.533 25.7187C158.533 20.6771 155.272 16.4872 149.939 16.4872C144.641 16.4872 141.346 20.575 141.346 25.344C141.346 30.1812 144.777 34.4052 150.245 34.4052C155.272 34.4052 157.955 30.7262 158.295 28.4098L153.268 27.8988C152.657 28.6823 151.638 29.2955 150.279 29.2955C147.901 29.2955 147.188 28.0351 147.12 27.2175H158.533V25.7187ZM147.12 23.3001C147.188 22.4144 148.241 21.5969 149.939 21.5969C151.638 21.5969 152.691 22.4144 152.759 23.3001H147.12Z" fill="url(#paint1_linear)"/>
<path d="M166.673 8.51611H160.899V34.0645H166.673V8.51611Z" fill="url(#paint2_linear)"/>
<path d="M175.512 8.51611H169.738V34.0645H175.512V8.51611Z" fill="url(#paint3_linear)"/>
<path d="M180.948 34.4052C182.476 34.4052 183.665 33.2129 183.665 31.68C183.665 30.1471 182.476 28.9548 180.948 28.9548C179.42 28.9548 178.231 30.1471 178.231 31.68C178.231 33.2129 179.42 34.4052 180.948 34.4052Z" fill="url(#paint4_linear)"/>
<defs>
<linearGradient id="paint0_linear" x1="110.275" y1="18.5084" x2="181.823" y2="31.4164" gradientUnits="userSpaceOnUse">
<stop stop-color="#FF6C19"/>
<stop offset="0.614583" stop-color="#FF005C"/>
<stop offset="1" stop-color="#FF068D"/>
</linearGradient>
<linearGradient id="paint1_linear" x1="110.275" y1="18.5084" x2="181.823" y2="31.4164" gradientUnits="userSpaceOnUse">
<stop stop-color="#FF6C19"/>
<stop offset="0.614583" stop-color="#FF005C"/>
<stop offset="1" stop-color="#FF068D"/>
</linearGradient>
<linearGradient id="paint2_linear" x1="110.275" y1="18.5084" x2="181.823" y2="31.4164" gradientUnits="userSpaceOnUse">
<stop stop-color="#FF6C19"/>
<stop offset="0.614583" stop-color="#FF005C"/>
<stop offset="1" stop-color="#FF068D"/>
</linearGradient>
<linearGradient id="paint3_linear" x1="110.275" y1="18.5084" x2="181.823" y2="31.4164" gradientUnits="userSpaceOnUse">
<stop stop-color="#FF6C19"/>
<stop offset="0.614583" stop-color="#FF005C"/>
<stop offset="1" stop-color="#FF068D"/>
</linearGradient>
<linearGradient id="paint4_linear" x1="110.275" y1="18.5084" x2="181.823" y2="31.4164" gradientUnits="userSpaceOnUse">
<stop stop-color="#FF6C19"/>
<stop offset="0.614583" stop-color="#FF005C"/>
<stop offset="1" stop-color="#FF068D"/>
</linearGradient>
</defs>
</svg>
