<svg viewBox="0 0 108 40" xmlns="http://www.w3.org/2000/svg"><path d="M98.054 21.842l9.945-14.002H98.34l-5.117 7.2 4.831 6.802zm-4.83 10.218l5.116 7.2H108l-9.945-13.998-4.83 6.798zm-33.3-25.118c-7.505 0-12.408 3.897-12.408 3.897l2.98 5.629s4.119-3.027 8.647-3.027c3.65 0 6.393 1.904 6.393 4.618v.676h-1.112c-5.412 0-19.688 1.386-19.688 11.42 0 6.314 5.345 9.842 11.277 9.842 7.563 0 10.17-5.57 10.104-5.57h.13c-.086.736-.13 1.476-.13 2.217v2.6h7.627V19.507c0-7.984-5.09-12.566-13.82-12.566zm5.673 17.92c0 3.839-3.13 9.008-7.505 9.008-3.39 0-5.02-1.982-5.02-4.085.017-4.396 6.852-5.674 11.09-5.674h1.435v.751z" fill="#592C82"/><path d="M96.84 23.552L85.68 7.84h-9.659l11.16 15.712-11.16 15.708h9.66l11.16-15.708z" fill="#F4BE49"/><path d="M4.303 15.695H0V7.84h4.497V0h8.083v7.84h8.086v7.855H12.58v10.997c0 5.199 4.303 5.941 6.585 5.941a7.988 7.988 0 001.498-.124v6.87c-.84.134-1.692.196-2.543.186-4.628 0-13.82-1.3-13.82-11.887l.003-11.983zM25.23 7.84h7.952v4.989c-.003.74-.047 1.48-.13 2.217h.13c1.499-4.52 5.476-7.81 10.563-7.81a9.952 9.952 0 011.498.125v8.364a15.016 15.016 0 00-1.946-.125c-3.519 0-7.505 1.918-9.061 6.624a16.125 16.125 0 00-.717 5.138v11.893H25.23V7.84z" fill="#592C82"/></svg>