<svg id="Camada_1" data-name="Camada 1" xmlns="http://www.w3.org/2000/svg" viewBox="0 0 3107.17 975"><defs><style>.cls-1{fill:#82ebc6;}.cls-2{fill:#35405b;}</style></defs><g id="TREWUP"><path class="cls-1" d="M2747.84,1512.5,2506.22,1789H2687.5l1.05,398.45h0l0,5.46v2.57a3.93,3.93,0,0,0,.78,2.33c4.85,31.11,31.19,54.88,63.42,54.88s58.59-23.81,63.42-54.94a4.05,4.05,0,0,0,.78-2.37v-1.53l.55-404.85h175.06Z" transform="translate(-446.41 -1512.5)"/><path class="cls-2" d="M620.88,1914.25H446.41V1773H956.52v141.23H782.05v440.32H620.88Z" transform="translate(-446.41 -1512.5)"/><path class="cls-2" d="M988.93,1905.11h157.85v90.56c25.75-61.48,67.29-101.36,142.06-98V2063.8h-13.29c-82.25,0-128.77,47.35-128.77,151.2v139.57H988.93Z" transform="translate(-446.41 -1512.5)"/><path class="cls-2" d="M1317.92,2131.92v-1.66c0-131.27,93.88-235.12,226.81-235.12,155.36,0,226.81,113.82,226.81,245.92,0,10,0,21.6-.83,32.4H1470c12.46,49,48.18,73.94,97.2,73.94,37.39,0,67.29-14.12,99.7-45.69l87.23,72.28c-43.2,54.83-105.51,91.38-195.24,91.38C1417.62,2365.37,1317.92,2271.49,1317.92,2131.92Zm305.73-39.05c-5.81-49.84-34.89-81.41-78.09-81.41-41.54,0-69.79,32.4-78.1,81.41Z" transform="translate(-446.41 -1512.5)"/><path class="cls-2" d="M1785.66,1905.11h154.53l59,226,69-227.64h130.44l69.79,229.3L2329,1905.11h152L2342.3,2357.9H2206.05l-73.11-233.46-74.77,233.46H1922.75Z" transform="translate(-446.41 -1512.5)"/><path class="cls-2" d="M2530.06,2199.22V1905.11h157.85v243.43c0,49,25.75,75.6,64,75.6,37.38,0,65.63-26.59,65.63-75.6V1905.11h157.85v449.46H2817.51V2293.1c-29.08,37.38-70.62,71.44-134.59,71.44C2587.38,2364.54,2530.06,2301.4,2530.06,2199.22Z" transform="translate(-446.41 -1512.5)"/><path class="cls-2" d="M3060.09,1905.11H3218v59.82c30.74-37.39,69-69.79,136.25-69.79,107.17,0,199.39,88.9,199.39,232.63v1.66c0,146.22-92.22,235.11-198.56,235.11-68.13,0-108-30.74-137.08-64.8V2487.5H3060.09Zm338.14,225.15v-1.66c0-59-40.71-101.36-92.22-101.36-50.68,0-91.39,42.37-91.39,101.36v1.66c0,59.82,40.71,102.19,91.39,102.19C3357.52,2232.45,3398.23,2190.91,3398.23,2130.26Z" transform="translate(-446.41 -1512.5)"/></g></svg>