<svg xmlns="http://www.w3.org/2000/svg" width="304.837" height="45.554" viewBox="0 0 304.837 45.554"><g transform="translate(-102.8 -219.237)"><path d="M121.449,253.433,108.51,219.646H135.4Z" transform="translate(4.802 0.344)" fill="#51788f"></path><path d="M102.8,219.647h13.592l10,27.874,10.066-27.874H149.8l-17.868,44.36H120.608Z" transform="translate(0 0.345)" fill="#e77c22"></path><path d="M129.252,219.647h35.424v10.319H141.333V236.7h21.141v9.628H141.333v6.983h23.658v10.383H129.252Z" transform="translate(22.245 0.345)" fill="#e77c22"></path><path d="M171.467,240.788c4.089,0,6.543-2.014,6.543-5.223v-.125c0-3.524-2.579-5.285-6.607-5.285H163.35v10.633Zm-20.324-21.141H171.97c6.732,0,11.388,1.762,14.347,4.718a13.757,13.757,0,0,1,3.9,10.256v.127c0,6.795-3.586,11.263-9.061,13.59l10.508,15.354H177.632l-8.872-13.34H163.35v13.34H151.143Z" transform="translate(40.654 0.345)" fill="#e77c22"></path><rect width="12.207" height="44.045" transform="translate(236.486 219.992)" fill="#e77c22"></rect><path d="M184.546,242.14v-.125c0-12.46,9.312-22.778,22.274-22.778,7.992,0,12.773,2.831,17.178,6.985l-3.4,3.649c-3.711-3.524-7.865-6.04-13.842-6.04-9.753,0-17.051,7.929-17.051,18.058v.127c0,10.193,7.362,18.183,17.051,18.183,6.04,0,10-2.327,14.22-6.355l3.273,3.209c-4.593,4.656-9.628,7.739-17.618,7.739-12.71,0-22.086-10-22.086-22.651" transform="translate(68.745 0)" fill="#51788f"></path><path d="M226.161,219.476h4.656l20.072,44.36h-5.348l-5.16-11.64H216.408l-5.221,11.64h-5.1Z" transform="translate(86.861 0.201)" fill="#51788f"></path><path d="M232.826,245.021l-10-22.4-10.068,22.4Z" transform="translate(92.466 2.845)" fill="#bfb9a7"></path><path d="M230.923,257.561l3.084-3.649c4.593,4.151,9,6.228,15.1,6.228,5.913,0,9.814-3.146,9.814-7.487v-.125c0-4.091-2.2-6.419-11.451-8.369-10.131-2.2-14.787-5.475-14.787-12.71v-.125c0-6.922,6.1-12.02,14.472-12.02a22.984,22.984,0,0,1,15.479,5.412l-2.894,3.838a19.345,19.345,0,0,0-12.71-4.783c-5.727,0-9.376,3.146-9.376,7.11v.127c0,4.151,2.264,6.48,11.955,8.557,9.816,2.139,14.347,5.725,14.347,12.458v.127c0,7.55-6.292,12.458-15.039,12.458a25.774,25.774,0,0,1-18-7.047" transform="translate(107.745 0.056)" fill="#51788f"></path><path d="M264.375,224.24H249.588v-4.593h34.606v4.593H269.408v39.452h-5.033Z" transform="translate(123.442 0.345)" fill="#51788f"></path><path d="M263.755,243.088h.528a.848.848,0,0,0,.516-.112.388.388,0,0,0,.07-.512.4.4,0,0,0-.184-.142,1.4,1.4,0,0,0-.434-.046h-.5Zm-.435,1.515v-2.691h.926a2.257,2.257,0,0,1,.687.075.664.664,0,0,1,.337.26.687.687,0,0,1,.127.394.711.711,0,0,1-.212.514.828.828,0,0,1-.558.247.7.7,0,0,1,.228.142,3.043,3.043,0,0,1,.4.534l.33.527h-.532l-.237-.423a2.167,2.167,0,0,0-.455-.626.552.552,0,0,0-.348-.094h-.256V244.6Zm.983-3.391a2.121,2.121,0,0,0-1.025.271,1.952,1.952,0,0,0-.782.773,2.076,2.076,0,0,0,0,2.082,1.96,1.96,0,0,0,.773.771,2.078,2.078,0,0,0,2.077,0,1.944,1.944,0,0,0,.771-.771,2.089,2.089,0,0,0,0-2.082,1.936,1.936,0,0,0-.781-.773,2.137,2.137,0,0,0-1.025-.271m0-.414a2.564,2.564,0,0,1,1.23.324,2.283,2.283,0,0,1,.935.924,2.514,2.514,0,0,1,.006,2.5,2.323,2.323,0,0,1-.926.926,2.5,2.5,0,0,1-2.489,0,2.327,2.327,0,0,1-.928-.926,2.5,2.5,0,0,1,.006-2.5,2.31,2.31,0,0,1,.937-.924,2.564,2.564,0,0,1,1.23-.324" transform="translate(133.711 18.132)" fill="#51788f"></path></g></svg>