<?xml version="1.0" encoding="UTF-8"?> <svg xmlns="http://www.w3.org/2000/svg" viewBox="0 0 431 119.84"><defs><style>.cls-1{fill:#febc18;}.cls-2{fill:#fff;}.cls-3{isolation:isolate;}</style></defs><g id="Layer_2" data-name="Layer 2"><g id="Layer_1-2" data-name="Layer 1"><polygon class="cls-1" points="61.31 34.96 41.16 0 81.47 0 61.31 34.96"></polygon><path class="cls-2" d="M114.2,19.05q-5.7-3.81-14.1-3.82a26.4,26.4,0,0,0-14.42,3.82A25,25,0,0,0,76.5,29.16a30,30,0,0,0-3.14,13.6,29.77,29.77,0,0,0,3.42,14.48,24.28,24.28,0,0,0,9.84,9.84,31.08,31.08,0,0,0,15.25,3.54,36.41,36.41,0,0,0,11.39-1.55,35.13,35.13,0,0,0,7.46-3.32c1.49-.94,2.63-1.66,3.4-2.18l-6-10.42a35.46,35.46,0,0,1-5.63,3.15,23.69,23.69,0,0,1-10.06,1.82q-6.2,0-9.84-3.2a9.91,9.91,0,0,1-3.76-7.3h36.92V45a38.18,38.18,0,0,0-2.93-15.42A23.79,23.79,0,0,0,114.2,19.05ZM88.83,37.45A9.06,9.06,0,0,1,90.1,33a10.72,10.72,0,0,1,3.76-3.82A11.41,11.41,0,0,1,100,27.61a10.86,10.86,0,0,1,6,1.55A10.14,10.14,0,0,1,109.56,33a9.79,9.79,0,0,1,1.16,4.47Z"></path><path class="cls-2" d="M162.05,37.67q-5.75-1.55-9.23-2.76t-3.48-3.76A3.22,3.22,0,0,1,151,28.33a10.28,10.28,0,0,1,5.31-1,19.71,19.71,0,0,1,7.41,1.33,30.44,30.44,0,0,1,5.74,3l6.26-10.84a31.44,31.44,0,0,0-8.63-4,41,41,0,0,0-11.66-1.5,29.21,29.21,0,0,0-11.17,2.05,19.09,19.09,0,0,0-7.85,5.64,13.14,13.14,0,0,0-2.87,8.45,12.79,12.79,0,0,0,2.37,7.91,17.33,17.33,0,0,0,6.09,5,41,41,0,0,0,7.68,3c3.31.89,5.84,1.66,7.57,2.32a10.74,10.74,0,0,1,3.54,1.94,3.23,3.23,0,0,1,.94,2.37,3.4,3.4,0,0,1-2.32,3.38,15.87,15.87,0,0,1-5.86.94,23,23,0,0,1-8-1.55,20.4,20.4,0,0,1-6.69-3.87l-6.56,11.31a25.69,25.69,0,0,0,8.78,4.55,43.8,43.8,0,0,0,13.15,1.94,34.57,34.57,0,0,0,11.11-1.77,19.59,19.59,0,0,0,8.57-5.48A13.46,13.46,0,0,0,177.19,54q0-6.41-3.64-10.33C171.11,41.08,167.28,39.08,162.05,37.67Z"></path><path class="cls-2" d="M209.71,29.5,216.92,17H199.7V0H183.78V49.06a32.23,32.23,0,0,0,1.82,11.28A15.11,15.11,0,0,0,191.74,68q4.31,2.76,11.71,2.77A24.91,24.91,0,0,0,216.8,66.9l-6-10.31-.76.37a9.79,9.79,0,0,1-4.21.83,5.42,5.42,0,0,1-4.69-2,9.69,9.69,0,0,1-1.49-5.81V29.5Z"></path><path class="cls-2" d="M253.56,55a13.16,13.16,0,0,1-6.85,1.66,10.6,10.6,0,0,1-6.52-2,13.55,13.55,0,0,1-4.26-5.19,15.28,15.28,0,0,1-1.49-6.58,15.76,15.76,0,0,1,1.49-6.8A12.72,12.72,0,0,1,240.19,31a11.06,11.06,0,0,1,6.52-1.94,12.86,12.86,0,0,1,6.74,1.55,18.55,18.55,0,0,1,4.31,3.54l7.31-12.65a25.89,25.89,0,0,0-6.37-3.93,30.22,30.22,0,0,0-12.32-2.33A27.81,27.81,0,0,0,232,18.94a27.22,27.22,0,0,0-13.6,23.93A28.56,28.56,0,0,0,222,57.19,25.74,25.74,0,0,0,231.79,67a28.88,28.88,0,0,0,14.59,3.6,28.17,28.17,0,0,0,12.43-2.55,29.67,29.67,0,0,0,6.35-4L258,51.6A20.24,20.24,0,0,1,253.56,55Z"></path><path class="cls-2" d="M311,18.94a30.33,30.33,0,0,0-29.07,0,26.59,26.59,0,0,0-9.78,10,28,28,0,0,0-3.54,13.93,28,28,0,0,0,3.54,13.93,27,27,0,0,0,9.78,10.06,30,30,0,0,0,29.07,0,26.54,26.54,0,0,0,9.73-10.06,28.34,28.34,0,0,0,3.48-13.93,28.34,28.34,0,0,0-3.48-13.93A26.1,26.1,0,0,0,311,18.94ZM307.4,49.61a12.89,12.89,0,0,1-4.14,5.2,11.25,11.25,0,0,1-6.8,2,11.52,11.52,0,0,1-6.8-2,12.53,12.53,0,0,1-4.26-5.2A16.22,16.22,0,0,1,284,42.87a15.89,15.89,0,0,1,1.43-6.69A12.61,12.61,0,0,1,289.66,31a11.52,11.52,0,0,1,6.8-2,11.25,11.25,0,0,1,6.8,2,13,13,0,0,1,4.14,5.14,15.9,15.9,0,0,1,1.44,6.69A16.23,16.23,0,0,1,307.4,49.61Z"></path><path class="cls-2" d="M396.13,15.79a24.8,24.8,0,0,0-9.56,1.88,21.91,21.91,0,0,0-7.8,5.3,18.8,18.8,0,0,0-5.41-4.86c-2.44-1.55-5.71-2.32-9.84-2.32a18.64,18.64,0,0,0-8.85,2,20,20,0,0,0-6.07,4.85V17H332.68V68.85H348.6V41a11.77,11.77,0,0,1,2.87-8.18,9.37,9.37,0,0,1,7.3-3.2,7.33,7.33,0,0,1,6.13,2.59A11.26,11.26,0,0,1,367,39.33V68.85h15.36V41a11.93,11.93,0,0,1,2.82-8.18,9.31,9.31,0,0,1,7.35-3.2,7.35,7.35,0,0,1,6.14,2.59,11.26,11.26,0,0,1,2,7.13V68.85h15.92V36.79q0-9.62-5.31-15.31T396.13,15.79Z"></path><path class="cls-2" d="M426.77,60.47A4.19,4.19,0,1,0,431,64.65,4.18,4.18,0,0,0,426.77,60.47Zm0,7.68a3.49,3.49,0,1,1,3.39-3.5A3.39,3.39,0,0,1,426.77,68.15Z"></path><path class="cls-2" d="M428.7,63.62c0-.95-.57-1.37-1.71-1.37h-1.84v4.83h.73V65h.84l1.28,2.1h.82L427.44,65A1.27,1.27,0,0,0,428.7,63.62Zm-2.82.74V62.87h1c.51,0,1.05.1,1.05.71s-.55.78-1.17.78Z"></path><polygon class="cls-2" points="0 0 40.72 70.64 57.87 40.9 34.29 0 0 0"></polygon><g id="an_Avery_Dennison_company" data-name="an Avery Dennison company" class="cls-3"><g class="cls-3"><path class="cls-2" d="M22.19,109.74c0-2.78,2.19-4.26,5.49-4.62l5.17-.58v-.44c0-2.33-1.35-3.38-3.68-3.38s-3.91,1.08-4,2.77H22.43c.11-3.09,2.8-5.14,6.89-5.14s6.42,1.93,6.42,6.07v9.29h-2.6L33,110.85c-.87,1.89-3.24,3.15-5.83,3.15C24.32,114,22.19,112.33,22.19,109.74Zm10.66-2.63v-.58l-4.53.55c-2.39.29-3.18,1.2-3.18,2.39,0,1.38,1,2.19,2.8,2.19A4.84,4.84,0,0,0,32.85,107.11Z"></path><path class="cls-2" d="M39.82,98.64h2.57l.32,2.46a5.54,5.54,0,0,1,5.08-2.75c3.62,0,5.58,2.19,5.58,5.9v9.46H50.48v-9.14c0-2.54-1.4-3.74-3.48-3.74-2.56,0-4.29,1.87-4.29,4.82v8.06H39.82Z"></path><path class="cls-2" d="M76.66,108.8H66.79L65,113.71H61.69l8.2-21.17h3.59l8.38,21.17H78.47Zm-.91-2.42-4-10.86-4,10.86Z"></path><path class="cls-2" d="M96.6,98.64l-6,15.07H87.28l-6-15.07h3.15L89,111.08l4.49-12.44Z"></path><path class="cls-2" d="M112.42,109.24c-.85,3-3.68,4.76-7.21,4.76-4.79,0-7.91-3.15-7.91-7.82s3.15-7.83,7.7-7.83c4.29,0,7.24,2.75,7.24,6.77a6.53,6.53,0,0,1-.15,1.26H100.24v.35c0,3.15,2,4.88,5,4.88a4.46,4.46,0,0,0,4.32-2.37Zm-12.09-4.9h8.93c0-2.1-1.84-3.62-4.32-3.62A4.46,4.46,0,0,0,100.33,104.34Z"></path><path class="cls-2" d="M123.59,98.53v2.68a7,7,0,0,0-.9,0c-3,0-4.2,2.24-4.2,4.93v7.62H115.6V98.64h2.51l.32,2.52a4.21,4.21,0,0,1,4.14-2.75A3.92,3.92,0,0,1,123.59,98.53Z"></path><path class="cls-2" d="M139.44,98.64v15.1c0,3.73-2.74,6.1-7,6.1-4.06,0-6.48-2-6.69-5.17h2.83c.21,1.84,1.67,2.83,3.83,2.83,2.63,0,4.11-1.46,4.11-3.68V110a5.55,5.55,0,0,1-5,2.57c-3.62,0-5.57-2.31-5.57-5.9v-8h2.89v7.68c0,2.72,1.46,3.8,3.5,3.8a4,4,0,0,0,4.2-4.29V98.64Z"></path><path class="cls-2" d="M149.75,92.54h7.47c7,0,10.83,4.24,10.83,10.57,0,6.83-4.23,10.6-10.83,10.6h-7.47ZM157.48,111c4.67,0,7.39-3.15,7.39-7.85,0-5-3-7.88-7.39-7.88h-4.73V111Z"></path><path class="cls-2" d="M185.53,109.24c-.84,3-3.68,4.76-7.21,4.76-4.78,0-7.91-3.15-7.91-7.82s3.15-7.83,7.71-7.83c4.29,0,7.24,2.75,7.24,6.77a6.53,6.53,0,0,1-.15,1.26H173.36v.35c0,3.15,2,4.88,5,4.88a4.45,4.45,0,0,0,4.32-2.37Zm-12.08-4.9h8.93c0-2.1-1.84-3.62-4.32-3.62A4.46,4.46,0,0,0,173.45,104.34Z"></path><path class="cls-2" d="M188.71,98.64h2.57l.32,2.46a5.54,5.54,0,0,1,5.08-2.75c3.62,0,5.58,2.19,5.58,5.9v9.46h-2.89v-9.14c0-2.54-1.4-3.74-3.48-3.74-2.56,0-4.29,1.87-4.29,4.82v8.06h-2.89Z"></path><path class="cls-2" d="M206.37,98.64h2.57l.32,2.46a5.54,5.54,0,0,1,5.08-2.75c3.62,0,5.58,2.19,5.58,5.9v9.46H217v-9.14c0-2.54-1.4-3.74-3.48-3.74-2.57,0-4.29,1.87-4.29,4.82v8.06h-2.89Z"></path><path class="cls-2" d="M223.36,93.22a2.12,2.12,0,1,1,2.13,1.92A1.92,1.92,0,0,1,223.36,93.22Zm.67,5.42h2.89v15.07H224Z"></path><path class="cls-2" d="M230.25,109.21H233c.12,1.67,1.55,2.57,3.62,2.57s3.24-.9,3.24-2.25c0-1.19-.87-1.84-2.1-2l-2.86-.5c-2-.35-4.44-1.28-4.44-4.08s2.37-4.56,5.9-4.56,5.92,1.73,6,4.59h-2.68c-.09-1.52-1.43-2.4-3.33-2.4s-3,.82-3,2.16,1.35,1.7,2.25,1.84l3.12.53c2.81.46,4,2.16,4,4.2,0,2.86-2.45,4.73-6.13,4.73S230.42,112.13,230.25,109.21Z"></path><path class="cls-2" d="M253.34,98.35c4.7,0,8.14,3.13,8.14,7.83S258,114,253.34,114s-8.15-3.12-8.15-7.82S248.58,98.35,253.34,98.35Zm0,13.11c3.15,0,5.16-2.1,5.16-5.31a5.17,5.17,0,1,0-5.16,5.31Z"></path><path class="cls-2" d="M264.66,98.64h2.57l.32,2.46a5.54,5.54,0,0,1,5.08-2.75c3.62,0,5.58,2.19,5.58,5.9v9.46h-2.89v-9.14c0-2.54-1.4-3.74-3.48-3.74-2.57,0-4.29,1.87-4.29,4.82v8.06h-2.89Z"></path><path class="cls-2" d="M295.08,98.35c3.85,0,6.83,2.13,7.44,5.37h-2.95a4.44,4.44,0,0,0-4.49-2.83c-3,0-4.85,2.1-4.85,5.29s1.9,5.28,4.88,5.28c2.27,0,3.91-1.11,4.46-2.8h2.95c-.64,3.27-3.62,5.34-7.41,5.34a7.83,7.83,0,1,1,0-15.65Z"></path><path class="cls-2" d="M312.79,98.35c4.7,0,8.15,3.13,8.15,7.83s-3.45,7.82-8.15,7.82-8.14-3.12-8.14-7.82S308,98.35,312.79,98.35Zm0,13.11c3.16,0,5.17-2.1,5.17-5.31a5.17,5.17,0,1,0-10.33,0C307.63,109.42,309.67,111.46,312.79,111.46Z"></path><path class="cls-2" d="M345.81,103.78v9.93h-2.89V104c0-2.22-1.17-3.19-3-3.19-2.34,0-3.56,1.64-3.56,4.29v8.59h-2.86v-9.29c0-2.45-1.11-3.59-3-3.59-2.25,0-3.5,1.61-3.5,4.06v8.82h-2.89V98.64h2.51l.23,2a4.87,4.87,0,0,1,4.35-2.31,4.42,4.42,0,0,1,4.47,2.86,5.17,5.17,0,0,1,5-2.86C344,98.35,345.81,100.4,345.81,103.78Z"></path><path class="cls-2" d="M366.09,106.12c0,4.76-3.15,7.88-7.7,7.88a6.94,6.94,0,0,1-5.58-2.37v7.91h-2.89V98.64h2.6l.2,2.4a6.86,6.86,0,0,1,5.87-2.69C363,98.35,366.09,101.45,366.09,106.12Zm-2.94,0c0-3.21-1.93-5.35-5.11-5.35-3,0-5.23,1.84-5.23,5.14v.41a4.88,4.88,0,0,0,5.2,5.17C361.1,111.52,363.15,109.56,363.15,106.15Z"></path><path class="cls-2" d="M368.49,109.74c0-2.78,2.19-4.26,5.48-4.62l5.17-.58v-.44c0-2.33-1.34-3.38-3.68-3.38s-3.91,1.08-4,2.77h-2.74c.12-3.09,2.8-5.14,6.89-5.14s6.42,1.93,6.42,6.07v9.29h-2.6l-.14-2.86c-.88,1.89-3.24,3.15-5.84,3.15C370.62,114,368.49,112.33,368.49,109.74Zm10.65-2.63v-.58l-4.52.55c-2.4.29-3.19,1.2-3.19,2.39,0,1.38,1,2.19,2.81,2.19A4.84,4.84,0,0,0,379.14,107.11Z"></path><path class="cls-2" d="M386.12,98.64h2.56l.33,2.46a5.53,5.53,0,0,1,5.07-2.75c3.62,0,5.58,2.19,5.58,5.9v9.46h-2.89v-9.14c0-2.54-1.4-3.74-3.47-3.74-2.57,0-4.29,1.87-4.29,4.82v8.06h-2.89Z"></path><path class="cls-2" d="M417,98.64v15.1c0,3.73-2.75,6.1-7,6.1-4.06,0-6.48-2-6.68-5.17h2.83c.2,1.84,1.66,2.83,3.82,2.83,2.63,0,4.12-1.46,4.12-3.68V110a5.55,5.55,0,0,1-5,2.57c-3.62,0-5.58-2.31-5.58-5.9v-8h2.89v7.68c0,2.72,1.46,3.8,3.5,3.8a4,4,0,0,0,4.21-4.29V98.64Z"></path></g></g></g></g></svg> 