<svg xmlns="http://www.w3.org/2000/svg" width="239" height="120" viewBox="0 0 239 120">
  <g fill="none">
    <polygon fill="#333" points="2.973 73 7.998 83.029 13.027 73 16 73 7.998 89 0 73"/>
    <polygon fill="#333" points="22 73 25 73 25 89 22 89"/>
    <path fill="#333" d="M43.0183415 89L40.0023403 83.6742671 35.5896888 83.6742671 35.5896888 89 33 89 33 73 40.8136064 73C43.2929281 73.0123262 45.4204788 74.8114402 45.9007782 77.301849 46.3810775 79.7922579 45.0811204 82.2843136 42.7924595 83.2605863L45.9993468 89 43.0183415 89zM40.8136064 75.6742671L35.5896888 75.6742671 35.5896888 80.9771987 40.8136064 81C42.2146146 80.9498234 43.3250436 79.7724401 43.3250436 78.3371336 43.3250436 76.901827 42.2146146 75.7244437 40.8136064 75.6742671zM63.6896762 86.3257329L56.3331297 86.3257329 54.9745469 89 52 89 60.001629 73 68 89 65.0254531 89 63.6896762 86.3257329zM57.6493586 83.6742671L62.3538994 83.6742671 60.001629 78.970684 57.6493586 83.6742671z"/>
    <polygon fill="#333" points="75 73 77.489 73 77.489 86.326 85 86.326 85 89 75 89"/>
    <polygon fill="#31CEFD" points="141 73 143.483 73 143.483 86.326 151 86.326 151 89 141 89"/>
    <path fill="#31CEFD" d="M166.692934 86.3257329L159.336388 86.3257329 157.974547 89 155 89 162.998371 73 171 89 168.031969 89 166.692934 86.3257329zM160.649359 83.6742671L165.353899 83.6742671 163.001629 78.970684 160.649359 83.6742671zM186.999168 82.3224861C187.027377 84.0964738 186.337386 85.8034593 185.092683 87.038988 183.235677 88.9522392 180.431845 89.5262637 177.998106 88.4914505 175.564367 87.4566373 173.984331 85.0186146 174.000117 82.3224861L174 73 176.586582 73 176.586582 82.3224861C176.566606 83.3773157 176.973679 84.3936891 177.711408 85.1309338 178.435676 85.8947052 179.435726 86.3192078 180.475811 86.3043709 182.619952 86.2817476 184.356129 84.5157508 184.390461 82.3224861L184.390461 73 186.999168 73 186.999168 82.3224861z"/>
    <polygon fill="#31CEFD" points="191 73 201.39 82.576 201.39 73 204 73 204 89 193.587 79.424 193.587 88.977 191 88.977"/>
    <path fill="#31CEFD" d="M216.628976,73.0001944 C217.642086,72.9926584 218.645834,73.2043435 219.577773,73.62208 C220.481304,74.0333794 221.303041,74.6199085 222,75.3509874 L220.200366,77.239436 C219.265981,76.2225268 217.973853,75.6559085 216.628976,75.673326 C215.951084,75.668935 215.279543,75.8107795 214.655884,76.0900871 C214.053377,76.3558044 213.506189,76.7429462 213.045196,77.2296682 C212.581997,77.7168248 212.210037,78.2911599 211.948689,78.9227601 C211.407577,80.2469556 211.407577,81.7466397 211.948689,83.0708353 C212.208971,83.6998811 212.576372,84.2736613 213.032806,84.7639272 C213.492393,85.2524368 214.039941,85.6398332 214.643494,85.9035083 C215.271685,86.182185 215.947142,86.3239662 216.628976,86.3202693 C217.968978,86.3345338 219.25736,85.7777802 220.200366,84.7769509 L222,86.642608 C221.303041,87.3736868 220.481304,87.9602159 219.577773,88.3715153 C217.688428,89.2094949 215.557134,89.2094949 213.667789,88.3715153 C212.766021,87.9626215 211.944603,87.380736 211.245562,86.6556318 C210.548105,85.9291484 209.990679,85.0679198 209.6039,84.1192499 C208.7987,82.1440019 208.7987,79.9082004 209.6039,77.9329525 C209.991181,76.9788027 210.548401,76.1112631 211.245562,75.3770349 C211.942474,74.6458959 212.764222,74.0593585 213.667789,73.6481276 C214.60114,73.2176932 215.609754,72.997 216.628976,73.0001944 Z"/>
    <polygon fill="#31CEFD" points="226 73 228.587 73 228.587 79.662 236.391 79.662 236.391 73 239 73 239 88.993 236.391 88.993 236.391 82.338 228.587 82.338 228.587 89 226 89"/>
    <polygon fill="#31CEFD" points="135.73 120 115 78.623 94.27 120 82 120 115 54 148 120"/>
    <polygon fill="#333" points="135.73 66 115 24.631 94.27 66 82 66 115 0 148 66"/>
  </g>
</svg>
