<?xml version="1.0" encoding="utf-8"?>
<!-- Generator: Adobe Illustrator 19.0.0, SVG Export Plug-In . SVG Version: 6.00 Build 0)  -->
<svg version="1.0" id="Layer_1" xmlns="http://www.w3.org/2000/svg" xmlns:xlink="http://www.w3.org/1999/xlink" x="0px" y="0px"
	 viewBox="0 0 230.7 59.3" style="enable-background:new 0 0 230.7 59.3;" xml:space="preserve">
<style type="text/css">
	.st0{fill:#2175BC;}
	.st1{opacity:0.61;fill:url(#SVGID_1_);}
	.st2{fill:url(#SVGID_2_);}
	.st3{fill:url(#XMLID_58_);}
	.st4{fill:url(#XMLID_59_);}
	.st5{fill:#262626;}
</style>
<path class="st0" d="M80.8,3c0,0-39.3,2.6-41.9,7l-7.1,38.6L80.8,3z"/>
<linearGradient id="SVGID_1_" gradientUnits="userSpaceOnUse" x1="79.3338" y1="25.7517" x2="36.4909" y2="25.7517">
	<stop  offset="0.3554" style="stop-color:#2075BC"/>
	<stop  offset="0.6455" style="stop-color:#2390B2"/>
	<stop  offset="0.8762" style="stop-color:#26A1A9"/>
	<stop  offset="1" style="stop-color:#28A7A4"/>
</linearGradient>
<path class="st1" d="M80.9,2.9c0,0-39.2,2.7-41.9,7l-7.1,38.6L80.9,2.9z"/>
<linearGradient id="SVGID_2_" gradientUnits="userSpaceOnUse" x1="12.1635" y1="12.18" x2="35.8248" y2="12.18">
	<stop  offset="0" style="stop-color:#E55948"/>
	<stop  offset="0.541" style="stop-color:#E55B47"/>
	<stop  offset="1" style="stop-color:#F28E34"/>
</linearGradient>
<path class="st2" d="M35.8,9.3c0,0,1.5-3-23.6-1.5l3.1,7.7L34.4,17L35.8,9.3z"/>
<g>
	<linearGradient id="XMLID_58_" gradientUnits="userSpaceOnUse" x1="28.07" y1="27.1279" x2="65.8957" y2="35.168">
		<stop  offset="0" style="stop-color:#2075BC"/>
		<stop  offset="0.2755" style="stop-color:#27A6A5"/>
		<stop  offset="1" style="stop-color:#2AB59D"/>
	</linearGradient>
	<path id="XMLID_12_" class="st3" d="M57.2,12.6c0,0-17.3-0.1-18.2-2.3c0-0.1,0-0.1,0-0.2c0-2.4-7.1,38.5-7.1,38.5L57.2,12.6"/>
</g>
<g>
	<linearGradient id="XMLID_59_" gradientUnits="userSpaceOnUse" x1="3.5835" y1="28.9136" x2="35.8064" y2="28.9136">
		<stop  offset="0.4796" style="stop-color:#FAB824"/>
		<stop  offset="1" style="stop-color:#F08438"/>
	</linearGradient>
	<path id="XMLID_10_" class="st4" d="M3.6,15.3c0,0,30.2-1.3,32.2-6l-7.1,39.2L3.6,15.3z"/>
</g>
<g>
	<path class="st5" d="M93.1,21.4h3.8L86.7,45h-3.6L73,21.4h4l8,19.5L93.1,21.4z"/>
	<path class="st5" d="M100.6,45V21.3h3.8V45H100.6z"/>
	<path class="st5" d="M109.9,42.3l1.3-2.8c1.3,1,2.6,1.7,3.9,2.2c1.3,0.4,2.8,0.7,4.4,0.7c1.8,0,3.1-0.3,4.1-0.9
		c0.9-0.6,1.4-1.5,1.4-2.7c0-0.9-0.3-1.7-0.9-2.3c-0.6-0.6-1.7-1-3.1-1.3l-4-0.9c-2-0.4-3.5-1.2-4.6-2.4c-1.1-1.1-1.6-2.5-1.6-4.1
		c0-2.1,0.8-3.8,2.5-5.1c1.7-1.3,3.9-2,6.6-2c1.7,0,3.2,0.3,4.7,0.8c1.5,0.5,2.7,1.3,3.7,2.3l-1.3,2.8c-2.2-1.9-4.6-2.8-7.1-2.8
		c-1.7,0-3,0.3-3.9,1c-0.9,0.6-1.4,1.5-1.4,2.7c0,1,0.3,1.7,0.9,2.3c0.6,0.6,1.5,1,2.8,1.3l4,1c2.2,0.5,3.8,1.3,4.9,2.3
		c1.1,1.1,1.6,2.4,1.6,4.1c0,2-0.8,3.7-2.5,4.9c-1.7,1.2-3.9,1.8-6.8,1.8C115.4,45.4,112.2,44.3,109.9,42.3z"/>
	<path class="st5" d="M151.5,22.3c1.6,1,2.8,2.5,3.7,4.4c0.9,1.9,1.3,4,1.3,6.5c0,2.5-0.4,4.6-1.3,6.4c-0.9,1.8-2.1,3.3-3.7,4.3
		c-1.6,1-3.4,1.5-5.5,1.5c-1.9,0-3.5-0.4-4.8-1.2c-1.4-0.8-2.4-2-3.2-3.5v14.6h-3.8V28c0-2.5-0.1-4.7-0.4-6.6h3.6l0.4,4.6
		c0.7-1.6,1.7-2.9,3.1-3.8c1.4-0.9,3.1-1.3,5.1-1.3C148.1,20.7,149.9,21.3,151.5,22.3z M150.7,39.8c1.3-1.6,1.9-3.8,1.9-6.7
		c0-2.9-0.6-5.1-1.9-6.8c-1.3-1.6-3.1-2.4-5.4-2.4c-2.4,0-4.2,0.8-5.4,2.4c-1.3,1.6-1.9,3.8-1.9,6.7c0,2.9,0.6,5.2,1.9,6.8
		c1.3,1.6,3.1,2.4,5.4,2.4C147.6,42.2,149.4,41.4,150.7,39.8z"/>
	<path class="st5" d="M181.8,33.8h-17.4c0,3,0.7,4.6,2.1,6.1c1.4,1.5,3.3,2.3,5.9,2.3c2.8,0,5.3-0.9,7.6-2.8l1.3,2.8
		c-1,1-2.4,1.7-4,2.3c-1.6,0.6-3.3,0.8-5,0.8c-3.7,0-6.6-1.1-8.7-3.3c-2.1-2.2-3.2-5.2-3.2-9c0-2.4,0.5-4.6,1.4-6.4
		c0.9-1.9,2.3-3.3,4-4.4c1.7-1,3.6-1.6,5.8-1.6c3.1,0,5.6,1,7.4,3.1c1.8,2.1,2.7,4.9,2.7,8.5V33.8z M166.9,25.5
		c-1.2,1.2-2,2.9-2.4,5h13.8c-0.2-2.2-0.8-3.9-2-5.1c-1.1-1.2-2.7-1.7-4.6-1.7C169.8,23.7,168.2,24.3,166.9,25.5z"/>
	<path class="st5" d="M200.2,21l-0.1,3.5c-0.7-0.3-1.6-0.4-2.5-0.4c-2.3,0-4,0.7-5.1,2.1c-1.1,1.4-1.7,3.2-1.7,5.2V45h-3.8V28
		c0-2.5-0.1-4.7-0.4-6.6h3.6l0.4,4.4c0.6-1.6,1.6-2.8,2.9-3.7c1.3-0.8,2.8-1.3,4.5-1.3C198.9,20.7,199.6,20.8,200.2,21z"/>
	<path class="st5" d="M224,21.3V45h-3.8v-4.3c-0.7,1.5-1.7,2.6-3.1,3.4c-1.4,0.8-3,1.2-4.9,1.2c-2.1,0-3.9-0.5-5.5-1.5
		c-1.6-1-2.8-2.4-3.7-4.3c-0.9-1.8-1.3-4-1.3-6.4c0-2.5,0.4-4.6,1.3-6.5c0.9-1.9,2.1-3.3,3.7-4.4c1.6-1,3.4-1.6,5.5-1.6
		c1.8,0,3.5,0.4,4.8,1.2c1.4,0.8,2.4,2,3.2,3.4v-4.1H224z M218.3,39.8c1.3-1.6,1.9-3.8,1.9-6.8c0-2.9-0.6-5.2-1.9-6.7
		c-1.3-1.6-3-2.4-5.4-2.4c-2.3,0-4.1,0.8-5.4,2.4c-1.3,1.6-2,3.9-2,6.8c0,2.9,0.6,5.1,1.9,6.7c1.3,1.6,3.1,2.4,5.5,2.4
		C215.3,42.2,217.1,41.4,218.3,39.8z"/>
</g>
<ellipse class="st5" cx="102.5" cy="13.7" rx="2.4" ry="2.4"/>
</svg>
