<svg width="90" height="32" viewBox="0 0 90 32" fill="none" xmlns="http://www.w3.org/2000/svg">
<g clip-path="url(#clip0)">
<path d="M50.018 25.875H55.2605L60.5255 9.78751H56.2055L52.9205 21.0825L49.658 9.78751H44.6855L50.018 25.875ZM66.2231 23.1525C64.6706 23.1525 63.8831 22.05 63.8831 20.025V19.845C63.8831 17.865 64.7156 16.8075 66.2231 16.8075C67.7531 16.8075 68.5406 17.91 68.5406 19.89V20.07C68.5406 22.0275 67.7306 23.1525 66.2231 23.1525ZM66.2006 26.145C69.8231 26.145 72.6356 23.85 72.6356 20.025V19.845C72.6356 16.11 69.8456 13.7925 66.2231 13.7925C62.5781 13.7925 59.7656 16.1775 59.7656 19.9575V20.1375C59.7656 23.94 62.5781 26.145 66.2006 26.145ZM74.3922 25.875H78.4197V20.295C78.4197 18.405 79.7697 17.64 82.2222 17.7075V13.95C80.3997 13.9275 79.1622 14.6925 78.4197 16.4475V14.1075H74.3922V25.875ZM84.1287 25.875H88.1562V14.1075H84.1287V25.875ZM86.1312 12.9825C87.3912 12.9825 88.3587 12.105 88.3587 10.9125C88.3587 9.72001 87.3912 8.82001 86.1312 8.82001C84.8712 8.82001 83.9262 9.72001 83.9262 10.9125C83.9262 12.105 84.8712 12.9825 86.1312 12.9825Z" fill="#0C0C0C"/>
<path fill-rule="evenodd" clip-rule="evenodd" d="M0 11.25C0 5.03679 5.03679 0 11.25 0H20.25C26.4633 0 31.5 5.03679 31.5 11.25V20.25C31.5 26.4633 26.4633 31.5 20.25 31.5H11.25C5.03679 31.5 0 26.4633 0 20.25V11.25Z" fill="#0C0C0C"/>
<path d="M8.76359 10C8.55788 10 8.43169 10.2304 8.53925 10.4096L15.7187 22.3716C15.8257 22.55 16.0822 22.5407 16.1765 22.355L17.4704 19.8083C17.5121 19.7261 17.5096 19.6279 17.4638 19.5481L12.056 10.1328C12.0087 10.0505 11.9224 10 11.8291 10H8.76359Z" fill="white"/>
<path d="M20.7046 10C20.5467 10 20.4485 10.1942 20.5284 10.3485L21.9059 13.0106C21.9865 13.1666 22.1868 13.1621 22.2621 13.0029L23.4673 10.4543C23.5646 10.2488 23.4331 10 23.2273 10H20.7046Z" fill="white"/>
</g>
<defs>
<clipPath id="clip0">
<rect width="90" height="31.5" fill="white"/>
</clipPath>
</defs>
</svg>
