<?xml version="1.0" encoding="utf-8"?>
<!-- Generator: Adobe Illustrator 26.1.0, SVG Export Plug-In . SVG Version: 6.00 Build 0)  -->
<svg version="1.1" id="Layer_1" xmlns="http://www.w3.org/2000/svg" xmlns:xlink="http://www.w3.org/1999/xlink" x="0px" y="0px"
	 viewBox="0 0 345.9 80" style="enable-background:new 0 0 345.9 80;" xml:space="preserve">
<style type="text/css">
	.st0{fill:#52697A;}
	.st1{fill:#232C61;}
	.st2{fill:#FFFFFF;}
	.st3{fill:#29AAE1;}
</style>
<g>
	<g id="surface1_00000005236163814065261820000007992936398172694960_">
		<path class="st0" d="M128.9,49.6l-10.6-30.3h-0.1l-10.8,30.3h-6.5L89,13.6h6.3l9.1,30h0.1l10.5-30h6.7l10.3,30h0.1l9.5-30h6.2
			l-12.5,36"/>
		<path class="st0" d="M167,49.6h6.2v-36H167V49.6z"/>
		<path class="st0" d="M287.8,13.6v4h-26v11.5h18.7v4h-18.7v12.5H288v4h-32.3v-36"/>
		<path class="st0" d="M315.1,13.6l24.5,29.2h0.1V13.6h5.9v36h-6.8l-24.3-28.9h-0.1v28.9h-5.9v-36"/>
		<path class="st0" d="M201.3,18.4v26.3h13.1c10.8,0,16.1-3,16.1-13.3c0-9.9-5.4-13-16.1-13H201.3z M229.1,16.3
			c4.6,3,7.5,8.6,7.5,15.1c0,6.8-2.8,12.5-7.5,15.6c-3.2,2.1-7.8,2.8-13.9,2.8h-20V13.5h20C221.3,13.5,225.8,14.2,229.1,16.3"/>
		<path class="st1" d="M31.5,0C14.1,0,0,14.1,0,31.5C0,48.9,14.1,63,31.5,63C48.9,63,63,48.9,63,31.5l0,0C63,14.1,48.9,0,31.5,0"/>
		<path class="st2" d="M24.1,47.4L11.5,24.3c-0.3-0.5-0.1-1.2,0.4-1.5c0.2-0.1,0.4-0.1,0.6-0.1h4.4c0.7,0,1.4,0.4,1.7,1l9.8,18.1
			c0.3,0.6,0.3,1.3,0,1.9L26,47.4c-0.3,0.5-1,0.7-1.5,0.4C24.3,47.7,24.2,47.6,24.1,47.4"/>
		<path class="st2" d="M42,36.5l-6.7-12.3c-0.3-0.5-0.1-1.2,0.5-1.5c0.2-0.1,0.4-0.1,0.5-0.1h14.2c0.6,0,1.1,0.5,1.2,1.1
			c0,0.2-0.1,0.4-0.2,0.6L44,36.6c-0.3,0.5-1,0.8-1.5,0.5C42.2,36.9,42,36.8,42,36.5"/>
		<path class="st2" d="M35.7,46.8L23.4,24.3c-0.3-0.5-0.1-1.2,0.5-1.5c0.2-0.1,0.4-0.1,0.5-0.1h4.4c0.7,0,1.4,0.4,1.7,1L40,41.2
			c0.3,0.6,0.3,1.3,0,1.9l-2.3,3.8c-0.3,0.6-1,0.8-1.5,0.5C36,47.2,35.8,47.1,35.7,46.8"/>
	</g>
	<path class="st3" d="M163.8,64.4c1.5,0,3,0.6,4.1,1.6c0.4-1.1,1-2.1,1.7-3c-4.1-3.2-10.1-2.5-13.3,1.7c-3.2,4.1-2.5,10.1,1.7,13.3
		c3.4,2.7,8.2,2.7,11.6,0c-0.7-0.9-1.3-1.9-1.7-3c-2.5,2.2-6.3,2-8.5-0.4c-2.2-2.5-2-6.3,0.4-8.5C160.9,65.1,162.3,64.5,163.8,64.4
		L163.8,64.4z"/>
	<path class="st3" d="M144.2,57.6c-0.6,0-1.1,0.3-1.4,0.9l-9.4,20.7h3.7l1.4-3h11.3l1.3,3h3.7l-9.4-20.8
		C145.4,57.9,144.8,57.6,144.2,57.6z M140,72.9l4.2-9.2l4.2,9.2H140z"/>
	<path class="st3" d="M189,70.5c0-5.1-4-9.3-9.1-9.5h-0.1c-0.2,0-0.2,0.1-0.1,0.2c0,0,0,0,0,0.1c0.6,1.4,1.5,2.6,2.7,3.6
		c1.9,1.3,3,3.3,3.1,5.6c0.1,3.3-2.4,6-5.7,6.2c-3.3,0.2-6-2.4-6.2-5.7c0-0.2,0-0.3,0-0.5c0.1-2.3,1.2-4.3,3.1-5.6
		c1.2-1,2.1-2.2,2.7-3.6c0.1-0.1,0-0.2-0.1-0.2l0,0c-5.2,0.1-9.3,4.3-9.3,9.5c0.1,5.1,4.3,9.1,9.4,9.1c2.3,0.1,4.6-0.7,6.4-2.1
		l1.8,1.7h5.2l-4.7-4.5C188.7,73.4,189,71.9,189,70.5z"/>
	<rect x="211.8" y="61.4" class="st3" width="3.6" height="17.8"/>
	<path class="st3" d="M204.9,70.3c0,3.7-1.9,6-4.9,6s-4.9-2.3-4.9-6v-8.9h-3.6v8.9c0,5.4,3.6,9.4,8.4,9.4c4.8,0,8.5-3.9,8.5-9.4
		v-8.9h-3.6L204.9,70.3z"/>
	<path class="st3" d="M232.5,64.1l-0.7-0.7c-1.4-1.6-3.4-2.5-5.5-2.5c-2.3-0.1-4.5,0.9-6,2.7c-1.6,1.9-2.5,4.2-2.4,6.7
		c-0.1,2.5,0.8,4.9,2.4,6.8c2.9,3.2,7.8,3.6,11,0.7c0.2-0.1,0.3-0.3,0.5-0.4l0.7-0.6v2.5h3.5V61.4h-3.5V64.1z M231.2,74.9
		c-1.1,1.2-2.6,1.8-4.1,1.8c-1.5,0-3-0.7-4-1.8c-1.1-1.3-1.6-2.9-1.5-4.6c0-1.6,0.5-3.2,1.6-4.5c1-1.2,2.5-1.8,4-1.8
		c1.6,0,3.1,0.6,4.1,1.8C233.3,68.4,233.3,72.2,231.2,74.9L231.2,74.9z"/>
	<path class="st0" d="M107.5,79.4l-0.9-2.3h-5.9l-0.9,2.3h-3.3l5.3-13.7h3.7l5.3,13.7H107.5z M103.7,68.6l-2.1,5.9h4.3L103.7,68.6z"
		/>
	<path class="st0" d="M121.6,79.4l-6.6-9v9h-2.9V65.7h3l6.4,8.6v-8.6h2.9v13.7C124.4,79.4,121.6,79.4,121.6,79.4z"/>
	<path class="st0" d="M245.2,72.3c-0.1-3.9,3-7.1,6.9-7.1c0.1,0,0.3,0,0.4,0c2.4-0.1,4.6,1.2,5.7,3.4l-2.5,1.2c-0.6-1.2-1.9-2-3.2-2
		c-2.5,0.2-4.4,2.3-4.2,4.8c0.2,2.3,1.9,4,4.2,4.2c1.4,0,2.6-0.8,3.2-2l2.5,1.2c-1.1,2.1-3.3,3.4-5.7,3.4c-3.9,0.2-7.1-2.8-7.3-6.7
		C245.3,72.6,245.2,72.4,245.2,72.3z"/>
	<path class="st0" d="M259.4,72.3c0-4,3.1-7.2,7.1-7.2c4,0,7.2,3.1,7.2,7.1c0,4-3.1,7.2-7.1,7.2c0,0,0,0-0.1,0
		c-3.8,0.2-7-2.8-7.2-6.6C259.4,72.6,259.4,72.4,259.4,72.3z M270.8,72.3c0-2.6-1.6-4.5-4.2-4.5c-2.6,0-4.2,1.9-4.2,4.5
		c0,2.6,1.6,4.5,4.2,4.5C269.2,76.8,270.8,74.8,270.8,72.3L270.8,72.3z"/>
	<path class="st0" d="M287.8,79.1v-9.9l-3.9,9.9h-1.3l-3.9-9.9v9.9h-2.9V65.4h4.1l3.3,8.6l3.3-8.6h4.1v13.7H287.8z"/>
	<path class="st0" d="M293.4,79.1V65.4h6.4c2.4,0,4.4,2,4.4,4.4s-2,4.4-4.4,4.4h-3.5v4.9H293.4z M301.5,69.8c0-1-0.8-1.9-1.9-1.9
		h-0.1h-3.1v3.7h3.1C300.5,71.7,301.4,70.9,301.5,69.8C301.5,69.9,301.5,69.9,301.5,69.8L301.5,69.8z"/>
	<path class="st0" d="M314.3,79.1l-0.9-2.3h-5.9l-0.9,2.3h-3.3l5.3-13.7h3.7l5.3,13.7H314.3z M310.5,68.3l-2.1,5.9h4.3L310.5,68.3z"
		/>
	<path class="st0" d="M328.4,79.1l-6.5-9v9H319V65.4h3l6.4,8.6v-8.6h2.9v13.7H328.4z"/>
	<path class="st0" d="M337.7,79.1v-5.6l-5.3-8.1h3.3l3.4,5.5l3.4-5.5h3.3l-5.2,8.1v5.6H337.7z"/>
</g>
</svg>
