<svg xmlns="http://www.w3.org/2000/svg" width="256" height="48" viewBox="0 0 256 48"><g><g><g><path fill="#00d1bc" d="M44.455.504C44.113.276 43.429.01 41.985.01a4.082 4.082 0 0 0-1.519.19 2.509 2.509 0 0 0-.911.645L23.22 17.825l-.456.455-.418-.455L6.014.845A2.805 2.805 0 0 0 5.064.2 3.692 3.692 0 0 0 3.621.01C2.177.01 1.494.314 1.19.54c-.608.456-.608.836-.608.95.038.646.342 1.254.874 1.671l18.422 18.993.19.19v14.244c0 1.178.38 1.406.532 1.482a4.854 4.854 0 0 0 2.203.417c.76.038 1.558-.075 2.241-.417.114-.076.532-.304.532-1.482V22.345l.19-.19L44.151 3.2a2.284 2.284 0 0 0 .873-1.67c0-.419-.227-.799-.57-1.026z"/></g><g><path fill="#00d1bc" d="M51.824.01c-1.254 0-2.165.228-2.697.683-.532.456-.684 1.064-.684 2.014 0 .95.228 1.633.722 2.013.494.38 1.405.684 2.697.684 1.291 0 2.165-.228 2.697-.684.532-.456.721-1.064.721-2.013 0-.95-.227-1.596-.721-2.014C54.065.276 53.115.01 51.824.01z"/></g><g><path fill="#00d1bc" d="M53.95 9.506c-.303-.19-.91-.418-2.126-.418-1.216 0-1.823.228-2.09.38-.265.152-.455.684-.455 1.481v25.678c0 .798.152 1.292.456 1.482.304.19.911.38 2.089.38.722.037 1.481-.076 2.127-.418.342-.19.494-.684.494-1.482V10.95c0-.76-.152-1.253-.494-1.443z"/></g><g><path fill="#00d1bc" d="M94.215 21.357v.684H65.27v-4.33c0-1.406.76-2.545 2.28-3.419 1.405-.836 3.532-1.215 6.533-1.215H85.44c3.001 0 5.166.38 6.534 1.101 1.861 1.026 2.279 2.47 2.279 3.533zm2.09-10.218C94.176 9.658 90.567 8.9 85.63 8.9H73.855c-9.268 0-13.788 2.886-13.788 8.774v11.813c0 5.926 4.52 8.775 13.788 8.775h6.078c.342 0 .797-.076.95-.342a4.01 4.01 0 0 0 .265-1.748c.038-.57-.038-1.177-.266-1.709-.152-.266-.645-.304-.95-.304h-5.887c-3 0-5.128-.418-6.533-1.253-1.482-.912-2.242-2.051-2.242-3.381v-3.457h31.718c1.557 0 1.975-.303 2.051-.417.076-.114.38-.57.38-1.71v-6.23c0-2.962-1.026-5.127-3.115-6.57z"/></g><g><path fill="#00d1bc" d="M109.295.428a4.634 4.634 0 0 0-2.127-.418c-1.216 0-1.823.228-2.09.38-.265.151-.455.683-.455 1.481v34.756c0 .798.152 1.292.456 1.482.304.19.911.38 2.089.38.722.037 1.481-.076 2.127-.418.342-.19.494-.684.494-1.482V1.871c0-.76-.152-1.254-.494-1.443z"/></g><g><path fill="#00d1bc" d="M150.015 29.486c0 1.33-.76 2.507-2.28 3.38-1.405.836-3.532 1.254-6.533 1.254H129.39c-3 0-5.128-.418-6.533-1.253-1.482-.912-2.241-2.051-2.241-3.38V17.71c0-1.406.76-2.545 2.279-3.419 1.405-.836 3.532-1.215 6.533-1.215h20.588zM154.725.39c-.304-.19-.912-.38-2.09-.38-.72-.038-1.48.076-2.126.418-.342.19-.494.683-.494 1.48v7.028h-20.816c-9.268 0-13.788 2.887-13.788 8.775v11.813c0 5.926 4.52 8.775 13.788 8.775h12.231c9.269 0 13.789-2.887 13.789-8.775V1.871c0-.76-.152-1.254-.494-1.481z"/></g><g><path fill="#00d1bc" d="M163.652.01c-1.254 0-2.166.228-2.697.683-.532.456-.722 1.064-.722 2.014 0 .95.228 1.633.722 2.013.493.38 1.405.684 2.697.684 1.291 0 2.165-.228 2.697-.684.531-.456.721-1.064.721-2.013 0-.95-.228-1.596-.721-2.014-.494-.417-1.444-.683-2.697-.683z"/></g><g><path fill="#00d1bc" d="M165.779 9.506c-.304-.19-.912-.418-2.127-.418-1.216 0-1.824.228-2.09.38-.265.152-.455.684-.455 1.481v25.678c0 .798.152 1.292.455 1.482.304.19.912.38 2.09.38.721.037 1.481-.076 2.127-.418.342-.19.494-.684.494-1.482V10.95c0-.76-.152-1.253-.494-1.443z"/></g><g><path fill="#00d1bc" d="M205.929 32.829v.683h-20.056c-3.001 0-5.128-.417-6.534-1.215-1.519-.874-2.279-2.051-2.279-3.419V17.711c0-1.33.76-2.47 2.28-3.38 1.405-.837 3.532-1.254 6.533-1.254h11.281c3.001 0 5.128.417 6.534 1.253 1.52.912 2.279 2.051 2.279 3.38zM185.645 8.936c-9.268 0-13.75 2.849-13.75 8.775v11.015c0 5.926 4.52 8.775 13.788 8.775h20.246v.95c.076 1.405-.608 2.696-1.785 3.494-1.102.76-2.925 1.102-5.584 1.102h-7.065c-.304 0-.798.038-.95.304-.228.531-.304 1.14-.266 1.709-.038.608.038 1.215.266 1.747.114.266.57.342.95.342h7.027c4.14 0 7.33-.76 9.458-2.241 2.09-1.443 3.115-3.57 3.115-6.495V17.71c.038-5.926-4.482-8.775-13.75-8.775z"/></g><g><path fill="#00d1bc" d="M249.991 29.486c0 1.33-.76 2.507-2.279 3.38-1.405.836-3.532 1.254-6.533 1.254h-10.674c-3 0-5.128-.418-6.533-1.253-1.52-.912-2.28-2.051-2.28-3.38V17.71c0-1.406.76-2.545 2.28-3.419 1.405-.836 3.532-1.215 6.533-1.215h10.674c3 0 5.128.417 6.533 1.215 1.52.874 2.28 2.051 2.28 3.419zm-8.584-20.55h-11.092c-9.268 0-13.788 2.887-13.788 8.775v11.813c0 5.926 4.52 8.775 13.788 8.775h11.092c9.268 0 13.788-2.887 13.788-8.775V17.749c0-5.964-4.482-8.813-13.788-8.813z"/></g></g></g></svg>