<svg height="28" viewBox="0 0 129 28" width="129" xmlns="http://www.w3.org/2000/svg"><path d="m47.1402174 17.6170297v-16.4950495h3.5348804v5.96039604c.7951532-.15697519 1.6037021-.2382051 2.4145435-.24257426 2.1855217 0 3.8648587.67181518 5.0380109 2.01544554 1.1731521 1.34363038 1.7597282 3.27729378 1.7597282 5.80099008.0213201 1.2432431-.1517868 2.4822796-.5131956 3.6732674-.3449348 1.0590099-.7506305 1.8625082-1.217087 2.410495-.4687826.5485447-1.0400584 1.0026919-1.6826087 1.3376238-.5296027.299727-1.1035428.5153581-1.7008369.6390099-.4794469.0807188-.9649001.121522-1.45125.1219802-2.098587 0-3.6535979-.5119472-4.6650326-1.5358416-.9900055-.9746149-1.5375029-2.3046955-1.5171522-3.6857426zm3.5348804.3520792c0 1.1163036.8815 1.6744555 2.6445 1.6744555 1.1217392 0 1.9069565-.4033664 2.3556522-1.2100991.4486957-.8067326.6739783-2.1286468.6758478-3.9657425 0-1.7456106-.2897826-2.9663367-.8693478-3.6621782-.5795652-.6958416-1.4208696-1.04330038-2.523913-1.04237628-.7699212-.01047755-1.5380261.07663472-2.2855435.25920788zm9.5838587-10.87980197h3.7536196l3.2895 10.79663367 3.233413-10.79663367h3.5362826l-5.3899565 15.89346537c-.7852174 2.2557095-1.6377391 3.7763036-2.5575652 4.5617822-.9198261.7854785-1.872837 1.1782178-2.8590326 1.1782178-.7627937-.0063804-1.5177761-.1525481-2.2266522-.4310891v-3.1534654c.52146.2425556 1.0895229.3716025 1.6657826.3784159 1.0151739 0 1.958837-1.2516832 2.8309892-3.7550495zm15.6889239 15.51366337v-14.05683169c2.0690037-1.11133319 4.3855607-1.69540215 6.74025-1.69940594 2.0490435 0 3.6512609.56415842 4.8066522 1.69247525s1.7335544 2.70943898 1.7344891 4.74336638v9.320396h-3.5362826v-9.6392079c.0068473-.3495831-.0294089-.698689-.1079674-1.039604-.0904663-.3139225-.2372188-.6092355-.4332717-.8718812-.2140652-.3040264-.5655435-.5318152-1.0544348-.6833663-.6138076-.1675692-1.2493691-.2441789-1.8859239-.2273267-.9163561.007063-1.8299771.0998865-2.7286304.2772277v12.189703zm15.4729892-7.939802c0-2.5246204.5842391-4.4582838 1.7527174-5.80099008 1.1684782-1.34270627 2.8510869-2.01452145 5.047826-2.01544555.8206346.00342855 1.6390448.08465856 2.443989.24257426v-5.96039604h3.529272v16.49504951c.0194 1.3834521-.532522 2.7149413-1.52837 3.6871287-1.019847 1.0275908-2.579065 1.5418482-4.6776518 1.5427723-.488683-.0002595-.9764818-.0410628-1.4582609-.1219802-.5966496-.1228368-1.1697923-.338524-1.6980326-.6390099-.638269-.3413368-1.2084165-.794587-1.6826087-1.3376238-.4776739-.5470627-.8847717-1.350561-1.2212935-2.410495-.3533782-1.19247-.5226115-2.4308484-.5019782-3.6732674zm3.5334782-.1968317c0 1.8269307.2248152 3.1465347.6744457 3.9588119.4515.8122772 1.2353152 1.2184159 2.3584565 1.2184159 1.7816957 0 2.673011-.5581519 2.673946-1.6744555v-7.9495049c-.7638514-.17084622-1.5444526-.25777578-2.327609-.25920796-1.1035109 0-1.9406087.34792076-2.5239131 1.04237626-.5833043.6944554-.8553261 1.9170297-.8553261 3.6635643zm11.4711852.5461386c0-2.4895049.524413-4.4763036 1.573239-5.96039599 1.048826-1.48409241 2.713674-2.22752475 4.994543-2.23029703 2.155609 0 3.786337.72356435 4.892185 2.17069307 1.105848 1.44712875 1.658772 3.22831685 1.658772 5.34356435 0 .8704951-.019631 1.5122772-.056087 1.9281188h-9.530576c.093478 1.3454786.474402 2.2460066 1.142771 2.7015842.66837.4555775 1.533044.6833663 2.594022.6833663 1.739983-.0039096 3.454339-.4147725 5.002957-1.1990099v3.0051485c-1.629326.9305611-3.47412 1.3958416-5.534381 1.3958416-.617677.0034292-1.234239-.0522763-1.841054-.1663366-.630676-.131429-1.234845-.3656485-1.787772-.6930693-.610104-.3492743-1.149271-.8075425-1.590065-1.3514852-.445891-.5470627-.810457-1.3034323-1.093696-2.2691089-.301956-1.0902373-.445944-2.2173059-.427663-3.3475247zm3.532076-1.3362376h5.92138c-.093478-1.0636303-.393076-1.9623102-.898793-2.6960396-.446471-.703367-1.235531-1.12131896-2.075218-1.0992079-.8815 0-1.569032.2984818-2.062598.8954455-.493565.5969637-.788489 1.5635644-.884771 2.899802zm12.140021 8.9267327v-14.13861386c.241174-.11920793.570685-.26336634.991337-.42831684.420653-.16495049 1.27037-.40059406 2.544946-.70693069 1.242909-.30200781 2.515996-.46612329 3.795685-.48930693v3.20336632c-1.476957.019406-2.742185.1917492-3.795685.5170297v12.0358416zm-93.1856735-21.65841584c3.4937672.00567294 6.6623821 2.02767402 8.1061363 5.17280173 1.4437543 3.1451277.8966874 6.83400381-1.3995385 9.43709921l-11.094 10.979604c-1.4103198 1.4354626-3.3489018 2.2446367-5.3731304 2.2427723-2.0339139-.0003603-3.9818982-.8108162-5.4039782-2.2483168l-.7697935-.7526733 3.7606304-3.7176238.8006413.7859406c.4133217.4382704.9909671.6889461 1.5970761.6930693.6091504.0064846 1.1947783-.232193 1.6223152-.6611881l10.6396957-10.5180198c.5854501-.6443428.9056018-1.4820535.8973913-2.3481188.0085996-.94578838-.3652528-1.85580363-1.0384909-2.52784962-.6732382-.67204599-1.5900999-1.05045928-2.5468678-1.05116029-.8798337-.01070674-1.7312639.30765132-2.3836957.89128713l-16.0086195 15.82693068-7.6614783-7.6057426c-1.4136244-1.6131342-2.19083357-3.676428-2.18879348-5.81069303.01345282-3.50205099 2.12187176-6.66437677 5.37213208-8.05742702 3.25026032-1.39305026 7.02637-.75281295 9.6213136 1.6312884l1.0894891 1.07564357-3.7788587 3.73564356s-.6029348-.61683168-.8160652-.80257426c-.6500651-.5776227-1.4956505-.89319307-2.36967392-.88435643-.95552203-.00553707-1.87381146.36592184-2.55131914 1.0320387-.67750769.66611686-1.05826633 1.57186535-1.05787651 2.51647615-.01138736.87268326.30941926 1.71772456.89879347 2.36752476l3.4156957 3.3766337 11.9325-11.78217826c1.6874205-1.90642245 4.1258697-2.99900889 6.6883695-2.99683168z" fill="#fff" transform="translate(-.447826 -.861386)"/></svg>