<?xml version="1.0" encoding="utf-8"?>
<!-- Generator: Adobe Illustrator 26.0.3, SVG Export Plug-In . SVG Version: 6.00 Build 0)  -->
<svg version="1.1" id="Layer_1" xmlns="http://www.w3.org/2000/svg" xmlns:xlink="http://www.w3.org/1999/xlink" x="0px" y="0px"
	 viewBox="0 0 124 80" style="enable-background:new 0 0 124 80;" xml:space="preserve">
<style type="text/css">
	.st0{fill:#005984;}
	.st1{fill:#006AD0;}
	.st2{fill:#0082E9;}
	.st3{fill:#FFDC4B;}
	.st4{fill:#FFC700;}
	.st5{fill:#EEA100;}
	.st6{fill:#0062A2;}
</style>
<path class="st0" d="M102.5,77.3V59.3h17.9c1.9-0.1,3.5,1.5,3.6,3.4c0,0.1,0,0.1,0,0.2v14.3h-3.6V62.9h-7.2v14.3h-3.6V62.9h-3.6
	v14.3H102.5z"/>
<path class="st0" d="M29,66.5h14.3v-3.6H29V66.5z M29,77.3c-1.9,0.1-3.5-1.5-3.6-3.4c0-0.1,0-0.1,0-0.2V62.9
	c-0.1-1.9,1.5-3.5,3.4-3.6c0.1,0,0.1,0,0.2,0h14.3c1.9-0.1,3.5,1.5,3.6,3.4c0,0.1,0,0.1,0,0.2v3.6c0.1,1.9-1.5,3.5-3.4,3.6
	c-0.1,0-0.1,0-0.2,0H29v3.6h17.9c0.1,1.9-1.5,3.5-3.4,3.6c-0.1,0-0.1,0-0.2,0H29z"/>
<path class="st0" d="M54.8,77.3c-1.9,0.1-3.5-1.5-3.6-3.4c0-0.1,0-0.1,0-0.2V59.3h3.6v14.4h17.9v3.6H54.8z"/>
<path class="st0" d="M3.6,77.3c-1.9,0.1-3.5-1.5-3.6-3.4c0-0.1,0-0.1,0-0.2V62.9C0,61,1.5,59.4,3.4,59.3c0.1,0,0.1,0,0.2,0h14.3
	c1.9-0.1,3.5,1.5,3.6,3.4c0,0.1,0,0.1,0,0.2v3.6h-3.6v-3.6H3.6v10.8h14.3v-3.6h3.6v3.6c0.1,1.9-1.5,3.5-3.4,3.6c-0.1,0-0.1,0-0.2,0
	H3.6z"/>
<path class="st0" d="M98.1,59.3v17.9H80.2c-1.9,0.1-3.5-1.5-3.6-3.4c0-0.1,0-0.1,0-0.2V59.3h3.6v14.4h14.3V59.3H98.1z"/>
<polygon class="st1" points="64.7,0.7 49,7 61.1,12.9 64.7,0.7 "/>
<polygon class="st2" points="64.7,0.7 61.1,12.9 77.3,4.8 64.7,0.7 "/>
<polygon class="st1" points="61.1,12.9 74.2,14.5 77.3,4.8 61.1,12.9 "/>
<polygon class="st3" points="61.1,35 77.3,43.1 74.2,33.4 61.1,35 "/>
<polygon class="st4" points="64.7,47.2 77.3,43.1 61.1,35 64.7,47.2 "/>
<polygon class="st3" points="49,40.9 64.7,47.2 61.1,35 49,40.9 "/>
<polygon class="st4" points="49,40.9 61.1,35 47.5,22.5 49,40.9 "/>
<polygon class="st5" points="41.7,23.9 49,40.9 47.5,22.5 41.7,23.9 "/>
<polygon class="st6" points="41.7,23.9 47.5,22.5 49,7 41.7,23.9 "/>
<polygon class="st2" points="49,7 61.1,12.9 47.5,22.5 49,7 "/>
<polygon class="st1" points="47.5,22.5 54.6,23.9 61.1,12.9 47.5,22.5 "/>
<polygon class="st3" points="47.5,22.5 61.1,35 54.6,23.9 47.5,22.5 "/>
</svg>
