<svg id="Layer_1" data-name="Layer 1" xmlns="http://www.w3.org/2000/svg" viewBox="0 0 1582.82 433.68"><defs><style>.cls-1{fill:#fff;}</style></defs><title>Checkout51_Logo_Screen_White</title><path class="cls-1" d="M368.35,323.66c-8.4-10-20.59-15.71-36.3-15.71-32,0-55.53,26-55.53,61.76s23.56,61.77,54.17,61.77c17.07,0,30.88-7.59,39.56-20.6l35.22,26.28c-16,22.76-43.08,33.32-69.35,33.32-59.87,0-103.49-39.28-103.49-100.77s43.62-100.77,103.49-100.77c21.4,0,48.49,7.31,64.74,28.17Z" transform="translate(-232.63 -183.07)"/><path class="cls-1" d="M455.15,260.82v91h.54c3.79-10.3,17.07-21.13,36.85-21.13,41.17,0,48.76,27.09,48.76,62.31v72.6H500.67V401.13c0-15.17-.28-34.67-21.14-34.67-21.12,0-24.38,16.52-24.38,33.59v65.56H414.52V260.82Z" transform="translate(-232.63 -183.07)"/><path class="cls-1" d="M679.51,442.86c-13,16.51-34.41,26-55.54,26-40.63,0-73.14-27.09-73.14-69.08S583.34,330.7,624,330.7c37.93,0,61.76,27.09,61.76,69.07v12.74H591.47C594.72,428,606.37,438,622.07,438c13.28,0,22.22-6.77,29-16Zm-34.41-58c.27-13.54-10.29-24.92-24.92-24.92-17.88,0-27.63,12.19-28.71,24.92Z" transform="translate(-232.63 -183.07)"/><path class="cls-1" d="M788.45,376.48a25.1,25.1,0,0,0-20.05-10c-20.32,0-32.5,13.54-32.5,33.31s12.18,33.33,32.5,33.33c9,0,15.45-4.61,20.05-10l26.82,28.17c-12.73,13-31.42,17.61-46.87,17.61-40.63,0-73.14-27.09-73.14-69.08s32.51-69.07,73.14-69.07c15.45,0,34.14,4.61,46.87,17.61Z" transform="translate(-232.63 -183.07)"/><path class="cls-1" d="M823.88,261h40.63V386.09l45-52h49.85l-52.28,59.33,53.63,72.33h-51.2L865.06,399.1h-.55v66.64H823.88Z" transform="translate(-232.63 -183.07)"/><path class="cls-1" d="M1015.69,330.83c40.63,0,73.14,27.09,73.14,69.08S1056.32,469,1015.69,469s-73.14-27.09-73.14-69.08S975.05,330.83,1015.69,330.83Zm0,102.4c20.31,0,32.5-13.54,32.5-33.32s-12.19-33.32-32.5-33.32-32.51,13.54-32.51,33.32S995.37,433.23,1015.69,433.23Z" transform="translate(-232.63 -183.07)"/><path class="cls-1" d="M1224.48,465.74h-39V447.86h-.55c-5.41,10.29-18.69,21.13-38.46,21.13-41.17,0-48.76-27.09-48.76-62.3V334.08h40.63v64.48c0,15.17.28,34.67,21.14,34.67,21.12,0,24.38-16.52,24.38-33.59V334.08h40.63Z" transform="translate(-232.63 -183.07)"/><path class="cls-1" d="M1321.4,434.86c-17.61,0-19.22-10.3-19.22-24.38V366.59h28.29a214.36,214.36,0,0,1,7.46-32v-.55h-35.75v-39h-40.65v39h-26v32.51h26v62.58c0,28.71,20.87,39.82,48,39.82,9.45,0,19.44-.81,28.36-4.05a215,215,0,0,1-7.24-30.9A50.88,50.88,0,0,1,1321.4,434.86Z" transform="translate(-232.63 -183.07)"/><path class="cls-1" d="M1598.61,183.07c-119.76,0-216.84,97.08-216.84,216.83s97.08,216.85,216.84,216.85,216.84-97.08,216.84-216.85S1718.37,183.07,1598.61,183.07Zm18.12,292.31a67.1,67.1,0,0,1-26,26.6q-16.43,9.24-37.93,9.24-25.65,0-43.29-15.69t-21.08-40.65h21.65q2.43,12.19,8.25,19.78a41.79,41.79,0,0,0,15.48,12.26,46.11,46.11,0,0,0,20.29,4.66q20.78,0,35.7-15.75t14.9-39.37q0-21.33-13.47-34.65t-36-13.31q-18.65,0-45.16,11.32l19.5-104.8h81.67l-12.61,20.06H1546l-10.56,57.52a88.91,88.91,0,0,1,24.78-4q28.78,0,47.48,19.28t18.68,49.39A77.47,77.47,0,0,1,1616.73,475.38Zm59.56,30.54h-20.94V315.08h-33.12L1634.85,295h41.44Z" transform="translate(-232.63 -183.07)"/></svg>