<svg xmlns="http://www.w3.org/2000/svg" width="223.451" height="49.735" viewBox="0 0 223.451 49.735">
  <g id="Group_35" data-name="Group 35" transform="translate(-14.421 -18.771)">
    <ellipse id="Ellipse_41" data-name="Ellipse 41" cx="8.037" cy="8.037" rx="8.037" ry="8.037" transform="translate(208.313 21.776) rotate(30)" fill="#0f5477"/>
    <ellipse id="Ellipse_42" data-name="Ellipse 42" cx="8.037" cy="8.037" rx="8.037" ry="8.037" transform="translate(208.322 39.934) rotate(30)" fill="#df6d1f"/>
    <ellipse id="Ellipse_40" data-name="Ellipse 40" cx="8.037" cy="8.037" rx="8.037" ry="8.037" transform="translate(223.952 30.824) rotate(30)" fill="#2aade7"/>
    <path id="Path_41" data-name="Path 41" d="M20.531.784c6.713,0,12-2.45,15.386-6.86l-7.3-6.517c-2.009,2.548-4.41,4.018-7.5,4.018-4.8,0-8.036-3.332-8.036-8.575s3.234-8.575,8.036-8.575c3.087,0,5.488,1.47,7.5,4.018l7.3-6.517c-3.381-4.41-8.673-6.86-15.386-6.86-11.025,0-19.11,7.4-19.11,17.934S9.506.784,20.531.784ZM44.443-28.959c4.067,0,6.664-2.45,6.664-5.831,0-3.185-2.6-5.439-6.664-5.439s-6.664,2.45-6.664,5.635S40.376-28.959,44.443-28.959ZM38.906,0H49.98V-26.8H38.906ZM72.765-27.293c-3.332,0-5.733.882-7.35,2.695v-2.2H54.88V9.506H65.954V-1.813C67.571-.245,69.825.49,72.765.49,79.772.49,85.7-4.753,85.7-13.377S79.772-27.293,72.765-27.293ZM70.119-8.134c-2.45,0-4.361-1.764-4.361-5.243s1.911-5.292,4.361-5.292,4.361,1.813,4.361,5.292S72.569-8.134,70.119-8.134ZM107.8-27.293a11.345,11.345,0,0,0-7.546,2.646V-36.358H89.18V0h11.074V-12.593c0-3.969,1.911-5.39,4.165-5.39,2.009,0,3.283,1.274,3.283,4.606V0h11.074V-15.288C118.776-23.716,113.974-27.293,107.8-27.293Zm44.786,13.867c0-9.065-6.811-13.867-14.749-13.867-8.673,0-15.19,5.733-15.19,13.867,0,7.987,6.37,13.916,16.219,13.916,5.341,0,9.114-1.47,11.711-4.312l-5.782-5.831a8.189,8.189,0,0,1-5.586,1.96c-2.744,0-4.606-1.078-5.39-3.136h18.62C152.488-11.613,152.586-12.642,152.586-13.426Zm-14.651-6.321a4.16,4.16,0,0,1,4.312,3.577h-8.624A4.127,4.127,0,0,1,137.935-19.747ZM166.6-23.912V-26.8H156.065V0h11.074V-11.907c0-4.263,2.352-5.782,5.684-5.782a15.346,15.346,0,0,1,2.45.2v-9.8C171.549-27.293,168.56-26.166,166.6-23.912Z" transform="translate(13 59)" fill="#3c3c3c"/>
  </g>
</svg>
