<svg height="44" viewBox="0 0 250 44" width="250" xmlns="http://www.w3.org/2000/svg"><g fill="#212020" fill-rule="evenodd" transform="translate(0 .932374)"><g fill-rule="nonzero"><path d="m221.3316 1.14962903h-4.076228c-.246879 0-.451475.20451838-.451475.45135169v19.02727038c0 6.6363107-2.623371 9.8591472-8.032653 9.8591472-5.34563 0-7.940813-3.2228365-7.940813-9.8591472v-19.02727038c0-.24683331-.204596-.45135169-.451474-.45135169h-4.076228c-.246879 0-.451247.20451838-.451247.45135169v18.79453138c0 9.6406391 4.46405 14.7393906 12.912715 14.7393906 8.512316 0 13.004738-5.0987515 13.004738-14.7393906v-18.79453138c.006865-.24683331-.190457-.45135169-.437335-.45135169z"/><path d="m238.060706 8.01138146c-3.180326 0-5.903722 1.19890791-7.890573 3.46976074l-.375092-2.79977811c-.02728-.22566903-.218236-.38789066-.443291-.38789066h-3.329454c-.246878 0-.451474.20452747-.451474.45136078v33.23765829c0 .2468788.204596.4514745.451474.4514745h3.843216c.247789 0 .452384-.2045957.452384-.4514745v-11.664454c1.768616 1.9675284 4.505652 3.046657 7.74963 3.046657 7.024451 0 11.932474-5.2117338 11.932474-12.6802261-.00682-7.701163-4.689787-12.67308794-11.939294-12.67308794zm7.094923 12.68013514c0 5.0001591-3.005283 8.3571195-7.467742 8.3571195-4.444273 0-7.426823-3.3992435-7.426823-8.4558483 0-4.8661262 3.053022-8.2653469 7.426823-8.2653469 4.469279 0 7.467742 3.363962 7.467742 8.3640757z"/><path d="m92.908032 4.77992919c4.8095896 0 8.237022 2.52473335 9.407764 6.93247431.04933.1974576.232784.331445.43738.331445h4.076228c.133896 0 .260973-.0564229.345539-.1621989.084566-.0987288.119802-.2327389.098661-.3667264-1.262356-7.01708598-6.692552-11.38250067-14.1752981-11.38250067-9.6335009 0-16.1005428 6.89014804-16.1005428 17.13723137 0 10.4093278 6.319051 17.1300683 16.1005428 17.1300683 7.4543301 0 12.8706591-4.3583425 14.1259671-11.3823393.021142-.1341238-.014094-.2680203-.09866-.3666809-.084794-.0988879-.211643-.1623125-.34554-.1623125h-4.076455c-.204368 0-.380775.1409436-.437153.3314449-1.170742 4.4006256-4.5770321 6.9253363-9.358433 6.9253363-6.4881835 0-10.846526-5.0141853-10.846526-12.4825639 0-7.46844684 4.3653897-12.48267761 10.846526-12.48267761z"/><path d="m113.297127.09068729c-1.671546 0-2.933901 1.26237122-2.933901 2.93378829 0 1.67141026 1.262355 2.93376556 2.933901 2.93376556 1.67132 0 2.933675-1.2623553 2.933675-2.93376556 0-1.67141707-1.262355-2.93378829-2.933675-2.93378829z"/><path d="m115.214644 9.32147575h-3.843671c-.246879 0-.451247.20450475-.451247.45133806v23.90036649c0 .2468787.204368.4514744.451247.4514744h3.843671c.246651 0 .451247-.2045957.451247-.4514744v-23.90741368c0-.24683331-.204596-.44429087-.451247-.44429087z"/><path d="m132.61346 9.32213501h-1.079129c-4.055086 0-5.902812 1.55856439-6.932383 2.86327099l-.352587-2.48245025c-.035236-.21862184-.225737-.38786793-.444427-.38786793h-3.328544c-.246879 0-.451475.20450474-.451475.45133806v23.90038922c0 .2468787.204596.4514744.451475.4514744h3.843443c.246879 0 .451247-.2045957.451247-.4514744v-12.1793531c0-2.8068481.768825-7.5178226 5.923954-7.5178226h1.918426c.246651 0 .451247-.2045275.451247-.4513608v-3.75185272c0-.24683332-.197549-.44429087-.451247-.44429087z"/><path d="m145.533449 13.3560797c3.124176 0 5.507943 1.7912806 6.220163 4.6686459.049331.2045275.225737.3455621.43738.3455621h3.892774c.134124 0 .260973-.0564002.345539-.1621989.084794-.0987287.12003-.2327162.098888-.3667263-1.001609-5.5149446-5.056695-8.80134219-10.846526-8.80134219-7.306339 0-12.214816 5.07770089-12.214816 12.63078209 0 7.6094814 4.8521 12.7296018 12.073645 12.7296018 5.832341 0 9.943805-3.3287716 10.987697-8.8930919.028189-.1341239-.007047-.2680204-.098888-.3737281-.091613-.1059351-.211415-.1623126-.345539-.1623126h-3.843443c-.211643 0-.39487.1482182-.43738.3525866-.669938 2.976185-3.004147 4.7604866-6.262447 4.7604866-4.330153 0-7.235639-3.3781019-7.235639-8.4064952-.007048-4.9789721 2.905486-8.3217699 7.228592-8.3217699z"/><path d="m164.362162 1.20551775h-3.843671c-.246879 0-.451247.20451838-.451247.45135169v32.01062756c0 .2468788.204368.4514745.451247.4514745h3.843671c.246651 0 .451247-.2045957.451247-.4514745v-32.01062756c0-.24683331-.204596-.45135169-.451247-.45135169z"/><path d="m179.187164 9.04002031c-7.052413 0-11.791531 5.09886519-11.791531 12.68013509 0 7.58127 4.943714 12.6802488 12.306203 12.6802488 5.557273 0 9.816955-3.3992434 10.846526-8.6603075.028416-.1341238-.007047-.2680203-.091614-.3739554-.084566-.1057078-.211642-.1620853-.345539-.1620853h-3.893001c-.204368 0-.380775.1409437-.437153.3384922-.733361 2.8420612-3.110081 4.5347494-6.361106 4.5347494-4.132833 0-6.897375-2.7997781-7.087649-7.1440262l18.103307-.0213689c.225737 0 .430105-.1973212.451474-.4441772.042283-.5500896.091614-1.1213434.091614-1.6573159-.190502-7.1510962-4.816864-11.77038909-11.791531-11.77038909zm6.847817 9.79572259h-13.413519c.549907-3.2088104 3.300355-5.5219918 6.607985-5.5219918 3.7025 0 6.290635 2.108654 6.805534 5.5219918z"/></g><path d="m17.1969711.00005527c-9.48337322 0-17.1969711 7.71527625-17.1969711 17.20069543 0 9.4854873 7.71359788 17.193743 17.1969711 17.193743 9.4834414 0 17.1969256-7.7153029 17.1969256-17.2007902 0-9.48541917-7.7205314-17.19364823-17.1969256-17.19364823z"/><path d="m68.7818828 18.2730593-14.8304584-17.67756629c-.6644812-.7904891-1.8886454-.79748456-2.553354 0l-14.8652396 17.67756629c-.4548844.5386322-.0700172 1.3571059.6365199 1.3571059h3.6727196c.6294727 0 1.0702627-.3847536 1.2730398-.6295864l7.2124521-8.2546625c.2937085-.335787.8463441-.1259173.8463441.3148045v22.4064998c0 .5805971.4687514 1.0493485 1.0493485 1.0493485h2.868204c.5805971 0 1.0493485-.4687514 1.0493485-1.0493485v-22.4344839c0-.4477008.5526356-.6575705.8463441-.3148045l7.2404135 8.3246115c.2098243.2448555.6085585.5946232 1.406027.5946232h3.5117711c.706537 0 1.0911769-.8254754.6365198-1.3641076z"/></g></svg>