<svg width="148" height="20" viewBox="0 0 148 20" fill="none" xmlns="http://www.w3.org/2000/svg">
<path d="M124.199 0.774555V18.4001H127.71V0.774555H124.199ZM145.96 15.5446L145.971 15.5323C147.217 13.9537 147.874 11.9068 147.874 9.61196V9.56421C147.874 6.16663 146.395 3.31581 143.81 1.74177L143.781 1.72483L143.657 1.64936L143.62 1.62934C142.2 0.811518 140.547 0.397217 138.703 0.397217L138.225 0.406458C138.147 0.406458 138.072 0.415699 137.993 0.420319L137.778 0.434181C137.652 0.443422 137.537 0.457283 137.422 0.469604H137.351C132.588 1.03176 129.515 4.6003 129.515 9.55651V9.60426C129.515 13.0018 130.996 15.8511 133.582 17.4252C133.631 17.4575 133.682 17.4883 133.736 17.516H133.852V17.5853C135.254 18.3708 136.881 18.7697 138.685 18.7697H139.164C139.233 18.7697 139.302 18.762 139.374 18.7574H139.477C139.507 18.7574 139.542 18.7574 139.577 18.7497H139.62L139.977 18.7127H140.009H140.04C141.261 18.5796 142.445 18.2087 143.524 17.6208L143.561 17.5992H143.674L143.723 17.6469L145.685 19.6168L147.633 17.6623L145.76 15.7818L145.855 15.6694C145.891 15.6278 145.923 15.5878 145.96 15.5446ZM144.162 9.58886C144.162 10.898 143.919 12.0531 143.438 13.0326C143.423 13.0619 143.411 13.0912 143.391 13.1235L143.282 13.296L140.86 10.8718L138.914 12.8232L141.35 15.2705L141.157 15.3752C141.131 15.3896 141.104 15.4025 141.077 15.4137L141.051 15.4276C140.31 15.7618 139.506 15.931 138.694 15.9235C135.367 15.9235 133.219 13.4392 133.219 9.60888V9.58578C133.219 5.73539 135.37 3.25266 138.692 3.24342C142.014 3.23418 144.167 5.72923 144.167 9.55805L144.162 9.58886ZM8.75245 16.9831C4.70229 16.9831 2.18862 13.9028 2.18862 9.60118V9.57808C2.18862 5.27797 4.70229 2.19612 8.75245 2.19612C11.4474 2.19612 13.7813 3.53451 14.5695 6.18666H16.6069C15.685 2.60272 12.7934 0.500407 8.77088 0.500407C3.54686 0.500407 0.132812 4.31229 0.132812 9.57808V9.60118C0.132812 14.8685 3.55301 18.6788 8.77088 18.6788C12.798 18.6788 15.6942 16.5781 16.6069 12.9957H14.5695C13.7813 15.6447 11.4474 16.9831 8.75245 16.9831ZM24.3615 5.6245C20.674 5.6245 18.1895 8.28743 18.1895 12.1347V12.1578C18.1895 16.0082 20.6786 18.6788 24.3615 18.6788C28.0444 18.6788 30.5458 16.0051 30.5458 12.1578V12.1347C30.5458 8.28743 28.0567 5.6245 24.3615 5.6245ZM28.5561 12.1578C28.5561 15.1442 26.9474 17.151 24.3615 17.151C21.7756 17.151 20.1685 15.1488 20.1685 12.1578V12.1347C20.1685 9.14837 21.7741 7.15387 24.3615 7.15387C26.9489 7.15387 28.5561 9.15607 28.5561 12.1347V12.1578ZM46.8678 5.63682C44.9365 5.63682 43.4369 6.4069 42.4228 8.20426C41.7867 6.55629 40.4039 5.63682 38.3358 5.63682C36.3706 5.63682 35.1676 6.4608 34.3809 7.73759V5.92329H32.5094V18.3693H34.3809V11.4016C34.3809 8.76179 35.4902 7.197 37.7058 7.197C39.8384 7.197 41.0292 8.58314 41.0292 11.2923V18.3647H42.8991V11.4016C42.8991 8.76179 44.0192 7.197 46.224 7.197C48.3751 7.197 49.549 8.58314 49.549 11.2923V18.3647H51.4312V10.9165C51.4312 7.60668 49.8824 5.63682 46.8678 5.63682ZM68.7058 5.63682C66.7775 5.63682 65.2748 6.4069 64.2607 8.20426C63.6185 6.55629 62.2372 5.63682 60.1737 5.63682C58.2086 5.63682 57.0055 6.4608 56.2188 7.73759V5.92329H54.3489V18.3693H56.2188V11.4016C56.2188 8.76179 57.3282 7.197 59.5438 7.197C61.6764 7.197 62.8672 8.58314 62.8672 11.2923V18.3647H64.737V11.4016C64.737 8.76179 65.8587 7.197 68.062 7.197C70.2131 7.197 71.3869 8.58314 71.3869 11.2923V18.3647H73.2691V10.9165C73.2691 7.60668 71.7219 5.63682 68.7058 5.63682ZM81.5722 5.6245C78.1044 5.6245 75.4478 8.15651 75.4478 12.0931V12.1162C75.4478 15.9666 77.8555 18.6727 81.6552 18.6727C84.7911 18.6727 86.7563 17.0971 87.4231 14.8223H85.5163C84.9924 16.2562 83.7878 17.1633 81.7028 17.1633C79.2721 17.1633 77.5943 15.3968 77.4268 12.6507H87.5737V12.6337C87.6736 8.54001 85.3627 5.6245 81.5722 5.6245ZM85.5886 11.1074H77.4606C77.7587 8.44452 79.392 7.10305 81.5599 7.10305C83.9322 7.10305 85.4687 8.78798 85.5886 11.092V11.1074ZM95.9183 5.79238C93.8686 5.79238 92.5381 6.89051 91.8897 8.33517V5.92329H90.0321V18.3693H91.9035V11.9006C91.9035 9.12835 93.1542 7.61438 95.591 7.61438H96.178V5.79238H95.9183ZM102.743 17.151C100.439 17.151 98.644 15.3121 98.644 12.1578V12.1347C98.644 8.99282 100.432 7.15387 102.743 7.15387C104.685 7.15387 106.068 8.19348 106.543 9.87686H108.47C107.884 7.33253 105.824 5.6245 102.725 5.6245C99.1403 5.6245 96.6727 8.24276 96.6727 12.1347V12.1578C96.6727 16.0498 99.1403 18.6788 102.725 18.6788C105.824 18.6788 107.884 16.96 108.47 14.4265H106.549C106.068 16.1114 104.685 17.151 102.743 17.151ZM116.231 5.6245C112.764 5.6245 110.105 8.15651 110.105 12.0931V12.1162C110.105 15.9666 112.512 18.6727 116.315 18.6727C119.448 18.6727 121.413 17.0971 122.081 14.8223H120.175C119.649 16.2562 118.448 17.1633 116.363 17.1633C113.932 17.1633 112.251 15.3968 112.084 12.6507H122.235V12.6337C122.33 8.54001 120.019 5.6245 116.231 5.6245ZM120.245 11.1074H112.12C112.419 8.44452 114.049 7.10305 116.22 7.10305C118.589 7.10305 120.125 8.78798 120.245 11.092V11.1074Z" fill="#7800F2"/>
</svg>
