<svg width="184" height="38" viewBox="0 0 184 38" fill="none" xmlns="http://www.w3.org/2000/svg">
<path d="M43.696 24.168C42.56 24.168 41.56 23.92 40.696 23.424C39.848 22.928 39.184 22.224 38.704 21.312C38.24 20.4 38.008 19.344 38.008 18.144C38.008 16.928 38.248 15.856 38.728 14.928C39.224 14 39.912 13.28 40.792 12.768C41.672 12.256 42.68 12 43.816 12C44.424 12 45.032 12.088 45.64 12.264C46.264 12.44 46.816 12.68 47.296 12.984C47.808 13.336 48.064 13.744 48.064 14.208C48.064 14.48 47.992 14.712 47.848 14.904C47.704 15.08 47.52 15.168 47.296 15.168C47.152 15.168 47.008 15.136 46.864 15.072C46.72 14.992 46.536 14.88 46.312 14.736C45.912 14.48 45.536 14.288 45.184 14.16C44.848 14.016 44.44 13.944 43.96 13.944C42.872 13.944 42.024 14.312 41.416 15.048C40.824 15.784 40.528 16.808 40.528 18.12C40.528 19.432 40.824 20.448 41.416 21.168C42.008 21.872 42.848 22.224 43.936 22.224C44.416 22.224 44.84 22.152 45.208 22.008C45.576 21.864 45.952 21.672 46.336 21.432C46.512 21.32 46.688 21.224 46.864 21.144C47.04 21.064 47.2 21.024 47.344 21.024C47.568 21.024 47.752 21.12 47.896 21.312C48.04 21.488 48.112 21.712 48.112 21.984C48.112 22.208 48.048 22.416 47.92 22.608C47.808 22.784 47.608 22.968 47.32 23.16C46.84 23.48 46.28 23.728 45.64 23.904C45 24.08 44.352 24.168 43.696 24.168ZM56.3075 24.168C55.1555 24.168 54.1395 23.92 53.2595 23.424C52.3955 22.928 51.7235 22.224 51.2435 21.312C50.7795 20.384 50.5475 19.312 50.5475 18.096C50.5475 16.864 50.7795 15.792 51.2435 14.88C51.7235 13.952 52.3955 13.24 53.2595 12.744C54.1395 12.248 55.1555 12 56.3075 12C57.4595 12 58.4675 12.248 59.3315 12.744C60.2115 13.24 60.8835 13.952 61.3475 14.88C61.8275 15.792 62.0675 16.864 62.0675 18.096C62.0675 19.312 61.8275 20.384 61.3475 21.312C60.8835 22.224 60.2115 22.928 59.3315 23.424C58.4675 23.92 57.4595 24.168 56.3075 24.168ZM56.3075 22.248C57.3795 22.248 58.1955 21.896 58.7555 21.192C59.3315 20.488 59.6195 19.456 59.6195 18.096C59.6195 16.752 59.3315 15.728 58.7555 15.024C58.1795 14.304 57.3635 13.944 56.3075 13.944C55.2515 13.944 54.4355 14.304 53.8595 15.024C53.2835 15.728 52.9955 16.752 52.9955 18.096C52.9955 19.456 53.2755 20.488 53.8355 21.192C54.4115 21.896 55.2355 22.248 56.3075 22.248ZM72.0163 12C74.8163 12 76.2163 13.576 76.2163 16.728V22.968C76.2163 23.336 76.1043 23.624 75.8803 23.832C75.6723 24.024 75.3763 24.12 74.9923 24.12C74.6243 24.12 74.3283 24.016 74.1043 23.808C73.8963 23.6 73.7923 23.32 73.7923 22.968V16.848C73.7923 15.856 73.5923 15.128 73.1923 14.664C72.8083 14.2 72.2003 13.968 71.3683 13.968C70.3923 13.968 69.6083 14.272 69.0163 14.88C68.4243 15.488 68.1283 16.304 68.1283 17.328V22.968C68.1283 23.32 68.0163 23.6 67.7923 23.808C67.5843 24.016 67.2963 24.12 66.9283 24.12C66.5603 24.12 66.2643 24.016 66.0403 23.808C65.8163 23.6 65.7043 23.32 65.7043 22.968V13.2C65.7043 12.864 65.8163 12.592 66.0403 12.384C66.2803 12.16 66.5763 12.048 66.9283 12.048C67.2803 12.048 67.5603 12.152 67.7683 12.36C67.9763 12.568 68.0803 12.84 68.0803 13.176V14.16C68.4643 13.456 69.0003 12.92 69.6883 12.552C70.3763 12.184 71.1523 12 72.0163 12ZM86.2064 22.272C86.5584 22.304 86.8064 22.4 86.9504 22.56C87.1104 22.704 87.1904 22.912 87.1904 23.184C87.1904 23.504 87.0624 23.752 86.8064 23.928C86.5664 24.088 86.2064 24.152 85.7264 24.12L85.0784 24.072C83.7824 23.976 82.8144 23.584 82.1744 22.896C81.5344 22.192 81.2144 21.16 81.2144 19.8V14.16H79.7744C79.0704 14.16 78.7184 13.848 78.7184 13.224C78.7184 12.936 78.8064 12.712 78.9824 12.552C79.1744 12.376 79.4384 12.288 79.7744 12.288H81.2144V9.816C81.2144 9.448 81.3184 9.16 81.5264 8.952C81.7504 8.744 82.0464 8.64 82.4144 8.64C82.7824 8.64 83.0784 8.744 83.3024 8.952C83.5264 9.16 83.6384 9.448 83.6384 9.816V12.288H86.0144C86.3504 12.288 86.6064 12.376 86.7824 12.552C86.9744 12.712 87.0704 12.936 87.0704 13.224C87.0704 13.528 86.9744 13.76 86.7824 13.92C86.6064 14.08 86.3504 14.16 86.0144 14.16H83.6384V19.968C83.6384 20.72 83.7904 21.272 84.0944 21.624C84.4144 21.976 84.8944 22.176 85.5344 22.224L86.2064 22.272ZM99.0372 21.048C99.2612 21.048 99.4452 21.136 99.5892 21.312C99.7332 21.488 99.8052 21.712 99.8052 21.984C99.8052 22.448 99.5172 22.84 98.9412 23.16C98.3812 23.48 97.7652 23.728 97.0932 23.904C96.4372 24.08 95.8052 24.168 95.1972 24.168C93.3412 24.168 91.8772 23.632 90.8052 22.56C89.7332 21.472 89.1972 19.992 89.1972 18.12C89.1972 16.92 89.4292 15.856 89.8932 14.928C90.3732 14 91.0372 13.28 91.8852 12.768C92.7492 12.256 93.7252 12 94.8132 12C96.3812 12 97.6212 12.504 98.5332 13.512C99.4452 14.52 99.9012 15.88 99.9012 17.592C99.9012 18.232 99.6132 18.552 99.0372 18.552H91.6212C91.7812 21.032 92.9732 22.272 95.1972 22.272C95.7892 22.272 96.3012 22.192 96.7332 22.032C97.1652 21.872 97.6212 21.664 98.1012 21.408C98.1492 21.376 98.2772 21.312 98.4852 21.216C98.7092 21.104 98.8932 21.048 99.0372 21.048ZM94.8612 13.776C93.9332 13.776 93.1892 14.072 92.6292 14.664C92.0692 15.256 91.7332 16.088 91.6212 17.16H97.8132C97.7652 16.072 97.4852 15.24 96.9732 14.664C96.4772 14.072 95.7732 13.776 94.8612 13.776ZM109.822 12C112.622 12 114.022 13.576 114.022 16.728V22.968C114.022 23.336 113.91 23.624 113.686 23.832C113.478 24.024 113.182 24.12 112.798 24.12C112.43 24.12 112.134 24.016 111.91 23.808C111.702 23.6 111.598 23.32 111.598 22.968V16.848C111.598 15.856 111.398 15.128 110.998 14.664C110.614 14.2 110.006 13.968 109.174 13.968C108.198 13.968 107.414 14.272 106.822 14.88C106.23 15.488 105.934 16.304 105.934 17.328V22.968C105.934 23.32 105.822 23.6 105.598 23.808C105.39 24.016 105.102 24.12 104.734 24.12C104.366 24.12 104.07 24.016 103.846 23.808C103.622 23.6 103.51 23.32 103.51 22.968V13.2C103.51 12.864 103.622 12.592 103.846 12.384C104.086 12.16 104.382 12.048 104.734 12.048C105.086 12.048 105.366 12.152 105.574 12.36C105.782 12.568 105.886 12.84 105.886 13.176V14.16C106.27 13.456 106.806 12.92 107.494 12.552C108.182 12.184 108.958 12 109.822 12ZM124.012 22.272C124.364 22.304 124.612 22.4 124.756 22.56C124.916 22.704 124.996 22.912 124.996 23.184C124.996 23.504 124.868 23.752 124.612 23.928C124.372 24.088 124.012 24.152 123.532 24.12L122.884 24.072C121.588 23.976 120.62 23.584 119.98 22.896C119.34 22.192 119.02 21.16 119.02 19.8V14.16H117.58C116.876 14.16 116.524 13.848 116.524 13.224C116.524 12.936 116.612 12.712 116.788 12.552C116.98 12.376 117.244 12.288 117.58 12.288H119.02V9.816C119.02 9.448 119.124 9.16 119.332 8.952C119.556 8.744 119.852 8.64 120.22 8.64C120.588 8.64 120.884 8.744 121.108 8.952C121.332 9.16 121.444 9.448 121.444 9.816V12.288H123.82C124.156 12.288 124.412 12.376 124.588 12.552C124.78 12.712 124.876 12.936 124.876 13.224C124.876 13.528 124.78 13.76 124.588 13.92C124.412 14.08 124.156 14.16 123.82 14.16H121.444V19.968C121.444 20.72 121.596 21.272 121.9 21.624C122.22 21.976 122.7 22.176 123.34 22.224L124.012 22.272ZM131.755 24.168C130.123 24.168 128.787 23.832 127.747 23.16C127.459 22.984 127.251 22.8 127.123 22.608C127.011 22.416 126.955 22.2 126.955 21.96C126.955 21.704 127.027 21.488 127.171 21.312C127.315 21.136 127.499 21.048 127.723 21.048C127.931 21.048 128.259 21.176 128.707 21.432C129.187 21.688 129.651 21.896 130.099 22.056C130.563 22.216 131.139 22.296 131.827 22.296C132.595 22.296 133.195 22.16 133.627 21.888C134.059 21.616 134.275 21.232 134.275 20.736C134.275 20.416 134.187 20.16 134.011 19.968C133.851 19.776 133.563 19.608 133.147 19.464C132.731 19.304 132.115 19.136 131.299 18.96C129.891 18.656 128.875 18.248 128.251 17.736C127.643 17.208 127.339 16.496 127.339 15.6C127.339 14.912 127.539 14.296 127.939 13.752C128.339 13.192 128.891 12.76 129.595 12.456C130.299 12.152 131.099 12 131.995 12C132.635 12 133.259 12.088 133.867 12.264C134.475 12.424 135.011 12.664 135.475 12.984C136.003 13.336 136.267 13.744 136.267 14.208C136.267 14.464 136.187 14.68 136.027 14.856C135.883 15.032 135.707 15.12 135.499 15.12C135.355 15.12 135.211 15.088 135.067 15.024C134.923 14.96 134.731 14.856 134.491 14.712C134.059 14.456 133.651 14.256 133.267 14.112C132.899 13.968 132.435 13.896 131.875 13.896C131.203 13.896 130.659 14.04 130.243 14.328C129.843 14.616 129.643 15.008 129.643 15.504C129.643 15.952 129.827 16.304 130.195 16.56C130.579 16.8 131.291 17.032 132.331 17.256C133.403 17.48 134.243 17.736 134.851 18.024C135.459 18.312 135.891 18.672 136.147 19.104C136.419 19.52 136.555 20.056 136.555 20.712C136.555 21.752 136.115 22.592 135.235 23.232C134.371 23.856 133.211 24.168 131.755 24.168ZM149.359 21.048C149.583 21.048 149.767 21.136 149.911 21.312C150.055 21.488 150.127 21.712 150.127 21.984C150.127 22.448 149.839 22.84 149.263 23.16C148.703 23.48 148.087 23.728 147.415 23.904C146.759 24.08 146.127 24.168 145.519 24.168C143.663 24.168 142.199 23.632 141.127 22.56C140.055 21.472 139.519 19.992 139.519 18.12C139.519 16.92 139.751 15.856 140.215 14.928C140.695 14 141.359 13.28 142.207 12.768C143.071 12.256 144.047 12 145.135 12C146.703 12 147.943 12.504 148.855 13.512C149.767 14.52 150.223 15.88 150.223 17.592C150.223 18.232 149.935 18.552 149.359 18.552H141.943C142.103 21.032 143.295 22.272 145.519 22.272C146.111 22.272 146.623 22.192 147.055 22.032C147.487 21.872 147.943 21.664 148.423 21.408C148.471 21.376 148.599 21.312 148.807 21.216C149.031 21.104 149.215 21.048 149.359 21.048ZM145.183 13.776C144.255 13.776 143.511 14.072 142.951 14.664C142.391 15.256 142.055 16.088 141.943 17.16H148.135C148.087 16.072 147.807 15.24 147.295 14.664C146.799 14.072 146.095 13.776 145.183 13.776ZM159.976 12.048C160.744 12 161.128 12.328 161.128 13.032C161.128 13.384 161.04 13.648 160.864 13.824C160.688 14 160.384 14.104 159.952 14.136L159.232 14.208C158.224 14.304 157.472 14.656 156.976 15.264C156.496 15.872 156.256 16.608 156.256 17.472V22.968C156.256 23.352 156.144 23.64 155.92 23.832C155.696 24.024 155.408 24.12 155.056 24.12C154.704 24.12 154.408 24.024 154.168 23.832C153.944 23.64 153.832 23.352 153.832 22.968V13.2C153.832 12.832 153.944 12.552 154.168 12.36C154.408 12.152 154.704 12.048 155.056 12.048C155.376 12.048 155.64 12.152 155.848 12.36C156.072 12.552 156.184 12.824 156.184 13.176V14.328C156.504 13.624 156.968 13.088 157.576 12.72C158.184 12.352 158.872 12.136 159.64 12.072L159.976 12.048ZM172.614 12.768C172.71 12.528 172.846 12.352 173.022 12.24C173.214 12.128 173.414 12.072 173.622 12.072C173.926 12.072 174.19 12.176 174.414 12.384C174.654 12.592 174.774 12.84 174.774 13.128C174.774 13.288 174.742 13.44 174.678 13.584L170.094 23.304C169.982 23.56 169.806 23.76 169.566 23.904C169.342 24.032 169.102 24.096 168.846 24.096C168.59 24.096 168.342 24.032 168.102 23.904C167.878 23.76 167.71 23.56 167.598 23.304L163.014 13.584C162.95 13.456 162.918 13.304 162.918 13.128C162.918 12.84 163.046 12.592 163.302 12.384C163.558 12.176 163.846 12.072 164.166 12.072C164.63 12.072 164.974 12.296 165.198 12.744L168.918 21L172.614 12.768Z" fill="#3F3F3F"/>
<mask id="mask0" mask-type="alpha" maskUnits="userSpaceOnUse" x="0" y="0" width="32" height="38">
<path d="M27.7988 9.70761C28.1912 9.31526 28.1916 8.67501 27.7695 8.3149C25.3597 6.25926 22.2339 5.01831 18.8182 5.01831C11.1967 5.01831 5.01819 11.1968 5.01819 18.8183C5.01819 26.4398 11.1967 32.6183 18.8182 32.6183C22.4045 32.6183 25.6714 31.2503 28.1253 29.0075C28.5249 28.6423 28.5147 28.0211 28.1319 27.6383C27.7341 27.2405 27.0887 27.2535 26.6688 27.628C24.5831 29.488 21.8327 30.6183 18.8182 30.6183C12.3012 30.6183 7.01819 25.3353 7.01819 18.8183C7.01819 12.3013 12.3012 7.01831 18.8182 7.01831C21.6868 7.01831 24.3163 8.04192 26.3614 9.7438C26.7836 10.0951 27.4104 10.096 27.7988 9.70761Z" fill="#00D4FF"/>
<path d="M31.3488 6.15765C31.7406 5.76578 31.741 5.12759 31.3271 4.75907C28.0022 1.79868 23.6202 0 18.8182 0C8.42519 0 0 8.42519 0 18.8182C0 29.2112 8.42519 37.6364 18.8182 37.6364C23.7875 37.6364 28.307 35.7102 31.6706 32.5638C32.0683 32.1918 32.0608 31.5672 31.6757 31.1821C31.2799 30.7863 30.6381 30.7954 30.2269 31.1752C27.229 33.9444 23.2212 35.6364 18.8182 35.6364C9.52976 35.6364 2 28.1066 2 18.8182C2 9.52976 9.52976 2 18.8182 2C23.0717 2 26.9564 3.57902 29.918 6.18285C30.3312 6.54611 30.9597 6.54668 31.3488 6.15765Z" fill="#00D4FF"/>
<path d="M24.2469 13.2595C24.6403 12.8661 24.6411 12.221 24.2017 11.8797C22.7149 10.7244 20.8469 10.0365 18.8182 10.0365C13.9681 10.0365 10.0364 13.9683 10.0364 18.8183C10.0364 23.6684 13.9681 27.6001 18.8182 27.6001C21.0251 27.6001 23.0419 26.786 24.5847 25.4418C24.9871 25.0911 24.9716 24.478 24.5941 24.1005C24.1917 23.6982 23.5377 23.7215 23.0964 24.0807C21.9293 25.0307 20.4403 25.6001 18.8182 25.6001C15.0727 25.6001 12.0364 22.5638 12.0364 18.8183C12.0364 15.0728 15.0727 12.0365 18.8182 12.0365C20.3033 12.0365 21.6769 12.5139 22.794 13.3235C23.2369 13.6445 23.8601 13.6463 24.2469 13.2595Z" fill="#00D4FF"/>
</mask>
<g mask="url(#mask0)">
<rect x="-23.2822" y="-28.3473" width="84.5566" height="92.7395" fill="#00D4FF"/>
</g>
</svg>
