<svg width="154" height="190" viewBox="0 0 154 190" fill="none" xmlns="http://www.w3.org/2000/svg">
<mask id="mask0_89_3723" style="mask-type:alpha" maskUnits="userSpaceOnUse" x="1" y="0" width="119" height="105">
<path d="M46.8258 43.6414C27.4874 33.1017 8.83967 39.2498 1.93311 43.6414V104.447H119.838V0.0637207C107.012 19.319 70.9987 56.816 46.8258 43.6414Z" fill="#C4C4C4"/>
</mask>
<g mask="url(#mask0_89_3723)">
<mask id="mask1_89_3723" style="mask-type:alpha" maskUnits="userSpaceOnUse" x="1" y="-34" width="119" height="139">
<path d="M47.0177 25.9679C26.8642 3.0162 8.56402 16.4047 1.93311 25.9679V104.042H119.838V-33.4202C98.1887 1.20001 72.2096 54.6576 47.0177 25.9679Z" fill="#C4C4C4"/>
</mask>
<g mask="url(#mask1_89_3723)">
<rect x="1.93311" y="-34.2666" width="16.151" height="138.309" fill="#55AD75"/>
<rect x="52.8101" y="-34.2671" width="16.151" height="138.309" fill="#55AD75"/>
<rect x="27.3716" y="-34.2671" width="16.151" height="138.309" fill="#55AD75"/>
<rect x="78.248" y="-34.2671" width="16.151" height="138.309" fill="#55AD75"/>
<rect x="103.688" y="-34.2671" width="16.151" height="138.309" fill="#55AD75"/>
</g>
</g>
<path d="M23.3706 159.005C19.4318 159.005 15.8646 158.15 12.669 156.441C9.51051 154.695 7.0209 152.298 5.20013 149.251C3.41653 146.204 2.52472 142.767 2.52472 138.94C2.52472 135.112 3.43511 131.675 5.25587 128.628C7.07663 125.581 9.56625 123.203 12.7247 121.494C15.9203 119.747 19.4876 118.874 23.4264 118.874C26.622 118.874 29.5389 119.431 32.1772 120.546C34.8154 121.661 37.0449 123.277 38.8657 125.395L34.1837 129.799C31.3597 126.752 27.8854 125.228 23.7608 125.228C21.0854 125.228 18.6886 125.823 16.5706 127.012C14.4526 128.164 12.799 129.78 11.61 131.861C10.4209 133.942 9.82636 136.301 9.82636 138.94C9.82636 141.578 10.4209 143.937 11.61 146.018C12.799 148.099 14.4526 149.734 16.5706 150.923C18.6886 152.075 21.0854 152.651 23.7608 152.651C27.8854 152.651 31.3597 151.109 34.1837 148.025L38.8657 152.484C37.0449 154.602 34.7968 156.218 32.1214 157.333C29.4832 158.448 26.5662 159.005 23.3706 159.005ZM61.861 119.431C65.2424 119.431 68.1779 119.989 70.6675 121.104C73.1943 122.218 75.1265 123.816 76.4642 125.897C77.8019 127.978 78.4708 130.449 78.4708 133.31C78.4708 136.134 77.8019 138.605 76.4642 140.723C75.1265 142.804 73.1943 144.402 70.6675 145.517C68.1779 146.631 65.2424 147.189 61.861 147.189H53.0544V158.448H45.8085V119.431H61.861ZM61.5265 141.058C64.685 141.058 67.0817 140.389 68.7167 139.051C70.3517 137.713 71.1692 135.8 71.1692 133.31C71.1692 130.82 70.3517 128.907 68.7167 127.569C67.0817 126.231 64.685 125.563 61.5265 125.563H53.0544V141.058H61.5265ZM112.894 138.494H119.749V158.448H113.785V156.163C110.999 158.058 107.506 159.005 103.307 159.005C99.7023 159.005 96.3952 158.225 93.3854 156.664C90.3756 155.103 87.9603 152.837 86.1395 149.864C84.3559 146.891 83.4641 143.343 83.4641 139.218C83.4641 135.317 84.3745 131.824 86.1952 128.74C88.016 125.618 90.5242 123.203 93.7198 121.494C96.9526 119.747 100.576 118.874 104.589 118.874C107.859 118.874 110.831 119.413 113.507 120.49C116.182 121.568 118.43 123.147 120.251 125.228L115.68 129.687C112.708 126.714 109.122 125.228 104.923 125.228C102.173 125.228 99.7209 125.823 97.5657 127.012C95.4477 128.164 93.7756 129.799 92.5493 131.917C91.3603 134.035 90.7657 136.45 90.7657 139.163C90.7657 142.024 91.3603 144.495 92.5493 146.576C93.7756 148.619 95.392 150.18 97.3985 151.258C99.4051 152.298 101.597 152.818 103.976 152.818C105.648 152.818 107.246 152.558 108.769 152.038C110.33 151.518 111.705 150.756 112.894 149.753V138.494Z" fill="white"/>
<path d="M22.1106 168.723L17.1734 179.841L12.2726 168.723H10.8097L16.4785 181.523H17.8134L23.4821 168.723H22.1106ZM34.483 181.523H35.8362V168.723H34.483V181.523ZM52.6734 181.633C55.9466 181.633 57.4461 180.024 57.4461 178.14C57.4461 173.477 49.5647 175.598 49.5647 172.087C49.5647 170.807 50.607 169.765 52.9477 169.765C54.0814 169.765 55.3614 170.113 56.4586 170.826L56.9158 169.747C55.8917 169.034 54.3923 168.613 52.9477 168.613C49.6927 168.613 48.2298 170.241 48.2298 172.124C48.2298 176.86 56.1112 174.702 56.1112 178.213C56.1112 179.475 55.0689 180.481 52.6734 180.481C50.991 180.481 49.3636 179.823 48.4492 178.927L47.9189 179.969C48.8698 180.956 50.7533 181.633 52.6734 181.633ZM69.5376 181.523H70.8907V168.723H69.5376V181.523ZM89.7943 181.633C93.6344 181.633 96.5053 178.872 96.5053 175.123C96.5053 171.374 93.6344 168.613 89.7943 168.613C85.9176 168.613 83.065 171.393 83.065 175.123C83.065 178.853 85.9176 181.633 89.7943 181.633ZM89.7943 180.426C86.7039 180.426 84.3998 178.177 84.3998 175.123C84.3998 172.069 86.7039 169.82 89.7943 169.82C92.8664 169.82 95.1522 172.069 95.1522 175.123C95.1522 178.177 92.8664 180.426 89.7943 180.426ZM118.044 168.723V179.109L109.797 168.723H108.682V181.523H110.035V171.137L118.264 181.523H119.379V168.723H118.044Z" fill="white"/>
</svg>
