<svg id="Crisp_Logo" data-name="Crisp Logo" xmlns="http://www.w3.org/2000/svg" width="161.307" height="49.369"
     viewBox="0 0 161.307 49.369">
    <defs>
        <clipPath id="clip-path">
            <path id="Path_10" data-name="Path 10"
                  d="M363.534-134.572c0,2.006,0,4.012.005,6.018a1.049,1.049,0,0,0,.121.545,9.654,9.654,0,0,0,2.719,2.734,11.132,11.132,0,0,0,6.332,1.886,9.915,9.915,0,0,0,9.278-5.22,11.762,11.762,0,0,0,.735-10.277,10.072,10.072,0,0,0-5.31-5.813,10.806,10.806,0,0,0-5.452-.9,10.638,10.638,0,0,0-8.189,4.374,1.23,1.23,0,0,0-.229.684c-.018,1.991-.01,3.982-.01,5.974Zm-7.854-17.772h7.838v2.954c.53-.389.97-.733,1.43-1.047a14.3,14.3,0,0,1,6.4-2.339,18.043,18.043,0,0,1,7.483.584,17.1,17.1,0,0,1,8.279,5.368,18.184,18.184,0,0,1,4.271,9.874,19.116,19.116,0,0,1-2.693,12.61,17.085,17.085,0,0,1-6.533,6.135,17.546,17.546,0,0,1-9.846,2.043,14.292,14.292,0,0,1-8.326-3.225c-.121-.1-.248-.2-.438-.344v16.15h-7.87Z"
                  transform="translate(-355.68 152.927)" fill="#007672" clip-rule="evenodd"/>
        </clipPath>
        <clipPath id="clip-path-2">
            <path id="Path_9" data-name="Path 9" d="M-333-227.049H43.168V-501H-333Z" transform="translate(333 501)"
                  fill="#007672"/>
        </clipPath>
        <clipPath id="clip-path-3">
            <path id="Path_14" data-name="Path 14" d="M0-116.131H32.947V-153H0Z" transform="translate(0 153)"
                  fill="#007672"/>
        </clipPath>
        <clipPath id="clip-path-4">
            <rect id="Rectangle_21" data-name="Rectangle 21" width="33.874" height="40.012" fill="#007672"/>
        </clipPath>
        <clipPath id="clip-path-5">
            <path id="Path_13" data-name="Path 13"
                  d="M32.947-146.324l-5.575,4.917c-.818-.726-1.577-1.488-2.423-2.134a10.673,10.673,0,0,0-13.408.587,11.061,11.061,0,0,0-3.508,8.516,10.93,10.93,0,0,0,2.05,6.621,10.015,10.015,0,0,0,8.55,4.306,10.753,10.753,0,0,0,8.168-3.725c.141-.154.282-.307.425-.459a.554.554,0,0,1,.112-.06l5.6,4.942a18.656,18.656,0,0,1-19.651,5.949A18.137,18.137,0,0,1,.051-133.149,18.258,18.258,0,0,1,12.411-152a18.8,18.8,0,0,1,20.536,5.676"
                  transform="translate(0 153)" fill="#007672" clip-rule="evenodd"/>
        </clipPath>
        <clipPath id="clip-path-6">
            <path id="Path_12" data-name="Path 12" d="M0-115.892H33.229V-153H0Z" transform="translate(0 153)"
                  fill="#007672"/>
        </clipPath>
        <clipPath id="clip-path-7">
            <path id="Path_17" data-name="Path 17"
                  d="M251.386-123.465l6.1-4.088c.189.3.356.577.535.846a7.91,7.91,0,0,0,3.774,3.295,7.836,7.836,0,0,0,6.585-.288,3.1,3.1,0,0,0,.75-4.822,7.437,7.437,0,0,0-2.768-1.762c-1.858-.772-3.753-1.458-5.607-2.237a13.313,13.313,0,0,1-5.291-3.784,10.23,10.23,0,0,1-1.131-11.288,9.931,9.931,0,0,1,4.859-4.248,13.939,13.939,0,0,1,11.542.2,10.862,10.862,0,0,1,4.942,4.83l-5.213,3.922c-.539-.635-1.024-1.294-1.6-1.867a5.834,5.834,0,0,0-6.742-.992,3,3,0,0,0-.875,4.515,5.813,5.813,0,0,0,2.494,1.756c1.854.782,3.738,1.492,5.6,2.25a18.549,18.549,0,0,1,4.191,2.37,9.341,9.341,0,0,1,3.883,6.847,9.942,9.942,0,0,1-2.508,7.962,11.023,11.023,0,0,1-5.172,3.145,17.246,17.246,0,0,1-12.679-.961,13.254,13.254,0,0,1-5.661-5.479c-.014-.023-.007-.057-.014-.119"
                  transform="translate(-251.386 152.997)" fill="#007672" clip-rule="evenodd"/>
        </clipPath>
        <clipPath id="clip-path-9">
            <path id="Path_26" data-name="Path 26" d="M0-103.631H161.307V-153H0Z" transform="translate(0 153)"
                  fill="#007672"/>
        </clipPath>
        <clipPath id="clip-path-10">
            <rect id="Rectangle_22" data-name="Rectangle 22" width="121.625" height="36.14" fill="#007672"/>
        </clipPath>
        <clipPath id="clip-path-11">
            <path id="Path_19" data-name="Path 19" d="M205.268-115.458H213.1v-35.629h-7.836Z"
                  transform="translate(-205.268 151.087)" fill="#007672"/>
        </clipPath>
        <clipPath id="clip-path-12">
            <path id="Path_21" data-name="Path 21" d="M123.364-99.289h7.86v-27.95h-7.86Z"
                  transform="translate(-123.364 127.239)" fill="#007672"/>
        </clipPath>
        <clipPath id="clip-path-13">
            <path id="Path_23" data-name="Path 23" d="M147.728-143.36h12.229v-7.679H147.728Z"
                  transform="translate(-147.728 151.039)" fill="#007672"/>
        </clipPath>
        <clipPath id="clip-path-14">
            <path id="Path_25" data-name="Path 25" d="M475.637-57h7.86v-7.679h-7.86Z"
                  transform="translate(-475.637 64.679)" fill="#007672"/>
        </clipPath>
    </defs>
    <g id="Group_9" data-name="Group 9" transform="translate(114.747 0.024)" clip-path="url(#clip-path)">
        <g id="Group_8" data-name="Group 8" transform="translate(-222.178 -112.314)" clip-path="url(#clip-path-2)">
            <path id="Path_8" data-name="Path 8" d="M350.68-157.927h39.085v52.572H350.68Z"
                  transform="translate(-130.116 268.628)" fill="#007672"/>
        </g>
    </g>
    <g id="Group_14" data-name="Group 14" transform="translate(0 0)" clip-path="url(#clip-path-3)">
        <g id="Group_13" data-name="Group 13" transform="translate(-0.645 -1.613)" style="isolation: isolate">
            <g id="Group_12" data-name="Group 12" clip-path="url(#clip-path-4)">
                <g id="Group_11" data-name="Group 11" transform="translate(0.645 1.613)" clip-path="url(#clip-path-5)">
                    <g id="Group_10" data-name="Group 10" transform="translate(0 0)" clip-path="url(#clip-path-6)">
                        <path id="Path_11" data-name="Path 11" d="M-5-158H31.173v40.1H-5Z"
                              transform="translate(3.387 156.387)" fill="#007672"/>
                    </g>
                </g>
            </g>
        </g>
    </g>
    <g id="Group_16" data-name="Group 16" transform="translate(81.101 0.001)" clip-path="url(#clip-path-7)">
        <g id="Group_15" data-name="Group 15" transform="translate(-188.531 -112.292)" clip-path="url(#clip-path-2)">
            <path id="Path_15" data-name="Path 15" d="M246.386-158H275.7v40.091H246.386Z"
                  transform="translate(-59.468 268.675)" fill="#007672"/>
        </g>
    </g>
    <g id="Group_23" data-name="Group 23" clip-path="url(#clip-path-9)">
        <g id="Group_22" data-name="Group 22" transform="translate(39.682 0.323)" style="isolation: isolate">
            <g id="Group_21" data-name="Group 21" clip-path="url(#clip-path-10)">
                <g id="Group_17" data-name="Group 17" transform="translate(26.541 0.295)"
                   clip-path="url(#clip-path-11)">
                    <path id="Path_18" data-name="Path 18" d="M200.268-156.087H211.33v38.856H200.268Z"
                          transform="translate(-201.881 154.474)" fill="#007672"/>
                </g>
                <g id="Group_18" data-name="Group 18" transform="translate(0.117 7.99)" clip-path="url(#clip-path-12)">
                    <path id="Path_20" data-name="Path 20" d="M118.364-132.239H129.45v31.177H118.364Z"
                          transform="translate(-119.977 130.626)" fill="#007672"/>
                </g>
                <g id="Group_19" data-name="Group 19" transform="translate(7.978 0.31)" clip-path="url(#clip-path-13)">
                    <path id="Path_22" data-name="Path 22" d="M142.728-156.039h15.455v10.906H142.728Z"
                          transform="translate(-144.341 154.426)" fill="#007672"/>
                </g>
                <g id="Group_20" data-name="Group 20" transform="translate(113.766 28.176)"
                   clip-path="url(#clip-path-14)">
                    <path id="Path_24" data-name="Path 24" d="M470.637-69.679h11.086v10.906H470.637Z"
                          transform="translate(-472.25 68.066)" fill="#007672"/>
                </g>
            </g>
        </g>
    </g>
</svg>
