<?xml version="1.0" encoding="utf-8"?>
<!-- Generator: Adobe Illustrator 16.0.0, SVG Export Plug-In . SVG Version: 6.00 Build 0)  -->
<!DOCTYPE svg PUBLIC "-//W3C//DTD SVG 1.1//EN" "http://www.w3.org/Graphics/SVG/1.1/DTD/svg11.dtd">
<svg version="1.1" id="Layer_1" xmlns="http://www.w3.org/2000/svg" xmlns:xlink="http://www.w3.org/1999/xlink" x="0px" y="0px"
	 width="62.36px" height="62.36px" viewBox="0 0 62.36 62.36" enable-background="new 0 0 62.36 62.36" xml:space="preserve">
<g>
	<defs>
		<rect id="SVGID_1_" width="62.361" height="62.362"/>
	</defs>
	<clipPath id="SVGID_2_">
		<use xlink:href="#SVGID_1_"  overflow="visible"/>
	</clipPath>
	<path clip-path="url(#SVGID_2_)" fill="#E11A2C" d="M32.504,25.775c-0.374,1.033-0.843,1.033-1.124,1.033
		c-0.282,0-0.753,0-1.126-1.033c-0.292-0.806-0.303-1.681-0.303-1.69V10.895c0-0.001,0.011-0.876,0.303-1.684
		c0.373-1.032,0.844-1.032,1.126-1.032c0.28,0,0.75,0,1.124,1.032c0.291,0.808,0.303,1.683,0.303,1.69v13.186
		C32.807,24.1,32.794,24.971,32.504,25.775 M32.807,24.092v-0.004V24.092z M34.346,28.917c1.621-1.705,1.67-4.51,1.67-4.824V10.895
		c0-0.143-0.015-1.434-0.476-2.773c-0.724-2.104-2.242-3.311-4.16-3.311c-1.921,0-3.437,1.207-4.161,3.311
		c-0.462,1.339-0.476,2.63-0.476,2.773v13.198c0,0.143,0.014,1.433,0.476,2.773c0.724,2.104,2.24,3.309,4.161,3.309
		C32.534,30.174,33.559,29.74,34.346,28.917"/>
	<path clip-path="url(#SVGID_2_)" fill="#E11A2C" d="M14.745,41.197v-0.004v-3.194c0-0.144-0.012-1.435-0.474-2.773
		c-0.611-1.773-2.355-3.311-4.16-3.311c-1.918,0-3.436,1.208-4.16,3.311c-0.462,1.339-0.476,2.63-0.476,2.773v2.198
		c0,0.354,0.107,0.701,0.305,0.988c0,0,5.21,7.562,5.758,8.358v1.653c0,0.002-0.01,0.877-0.302,1.683
		c-0.375,1.033-0.845,1.033-1.125,1.033c-0.281,0-0.75,0-1.124-1.033c-0.293-0.806-0.304-1.681-0.304-1.69v-3.188
		c0-0.019-0.004-0.035-0.006-0.054H5.479c-0.001,0.019-0.005,0.035-0.005,0.054v3.196c0,0.144,0.014,1.435,0.476,2.774
		c0.724,2.103,2.242,3.308,4.16,3.308c1.919,0,3.436-1.205,4.16-3.308c0.462-1.34,0.474-2.631,0.474-2.774v-2.198
		c0-0.356-0.105-0.701-0.303-0.988c0,0-5.209-7.562-5.759-8.358v-1.653c0,0,0.011-0.877,0.304-1.685
		c0.374-1.031,0.843-1.031,1.124-1.031c0.28,0,0.75,0,1.125,1.031c0.292,0.808,0.302,1.685,0.302,1.692v3.187
		c0,0.002,0.001,0.004,0.001,0.004H14.745z"/>
	<path clip-path="url(#SVGID_2_)" fill="#E11A2C" d="M46.35,14.093v-0.004v-3.195c0-0.143-0.015-1.435-0.476-2.773
		c-0.724-2.104-2.242-3.311-4.161-3.311s-3.436,1.207-4.161,3.311c-0.461,1.338-0.473,2.63-0.473,2.773v2.199
		c0,0.355,0.106,0.7,0.303,0.988c0,0,5.211,7.56,5.761,8.357v1.654c0,0.002-0.011,0.877-0.305,1.683
		c-0.374,1.032-0.844,1.032-1.125,1.032c-0.279,0-0.75,0-1.124-1.032c-0.293-0.806-0.302-1.681-0.302-1.69v-3.189
		c0-0.018-0.006-0.035-0.006-0.053h-3.198c0,0.018-0.004,0.035-0.004,0.053v3.196c0,0.143,0.012,1.434,0.473,2.773
		c0.726,2.104,2.242,3.31,4.161,3.31s3.438-1.206,4.161-3.31c0.461-1.339,0.476-2.63,0.476-2.773v-2.199
		c0-0.355-0.107-0.7-0.306-0.988c0,0-5.209-7.56-5.757-8.357v-1.654c0-0.001,0.009-0.877,0.302-1.684
		c0.374-1.032,0.845-1.032,1.124-1.032c0.281,0,0.751,0,1.125,1.032c0.294,0.807,0.305,1.683,0.305,1.691v3.188v0.004H46.35z"/>
	<path clip-path="url(#SVGID_2_)" fill="#E11A2C" d="M56.883,14.093v-0.004v-3.195c0-0.143-0.014-1.435-0.475-2.773
		c-0.725-2.104-2.242-3.311-4.162-3.311c-1.918,0-3.434,1.207-4.16,3.311c-0.461,1.338-0.473,2.63-0.473,2.773v2.199
		c0,0.355,0.105,0.7,0.303,0.988c0,0,5.211,7.56,5.76,8.357v1.654c0,0.002-0.01,0.877-0.305,1.683
		c-0.373,1.032-0.844,1.032-1.125,1.032c-0.279,0-0.75,0-1.123-1.032c-0.293-0.806-0.303-1.681-0.303-1.69v-3.189
		c0-0.018-0.004-0.035-0.006-0.053h-3.197c0,0.018-0.004,0.035-0.004,0.053v3.196c0,0.143,0.012,1.434,0.473,2.773
		c0.727,2.104,2.242,3.31,4.16,3.31c1.92,0,3.438-1.206,4.162-3.31c0.461-1.339,0.475-2.63,0.475-2.773v-2.199
		c0-0.355-0.107-0.7-0.305-0.988c0,0-5.209-7.56-5.758-8.357v-1.654c0-0.001,0.01-0.877,0.303-1.684
		c0.373-1.032,0.844-1.032,1.123-1.032c0.281,0,0.752,0,1.125,1.032c0.295,0.807,0.305,1.683,0.305,1.691v3.188v0.004H56.883z"/>
	<path clip-path="url(#SVGID_2_)" fill="#E11A2C" d="M43.276,39.947c-0.38,5.211-1.159,12.142-1.278,13.761c-0.071,0,0,0,0,0
		c-0.117-1.617-0.897-8.541-1.277-13.761H43.276z M47.117,32.04h-3.199c-0.021,0.26-0.295,3.157-0.396,4.541h-3.046
		c-0.097-1.343-0.372-4.23-0.394-4.541h-3.203c0,0.045,2.396,25.049,2.408,25.116h5.422C44.722,57.089,47.119,32.099,47.117,32.04"
		/>
	<path clip-path="url(#SVGID_2_)" fill="#E11A2C" d="M62.359,0.001H0v62.362h58.305l-2.817-10.7l-2.049,7.493H3.206V3.208h55.946
		c0,2.885-0.002,39.803-0.002,40.83c-0.83-2.938-3.242-9.687-3.662-11.095c-0.418,1.401-3.154,8.131-3.977,11.041V32.04H48.1v25.116
		h2.993c0,0,2.808-9.104,4.388-14.709c1.408,4.972,4.291,14.707,4.291,14.707h2.59L62.359,0.001"/>
	<path clip-path="url(#SVGID_2_)" fill="#E11A2C" d="M24.806,32.037h-3.286v5.949l-0.773,3.428l-2.704-9.377h-3.561
		c0,0,4.18,13.716,4.285,13.865l-4.285,11.252h3.646l3.392-9.49v9.49h1.643h0.001h1.642V32.037z"/>
	<path clip-path="url(#SVGID_2_)" fill="#E11A2C" d="M14.271,8.121c-0.725-2.104-2.242-3.311-4.16-3.311
		c-1.919,0-3.436,1.207-4.162,3.311c-0.461,1.338-0.474,2.63-0.474,2.773v13.198c0,0.143,0.013,1.434,0.474,2.773
		c0.726,2.104,2.243,3.31,4.162,3.31c1.154,0,2.18-0.435,2.965-1.259c1.623-1.705,1.669-4.51,1.669-4.824v-3.196
		c0-0.018-0.004-0.035-0.005-0.053h-3.197c-0.001,0.018-0.005,0.035-0.005,0.053v2.448c0,1.906-0.639,3.45-1.428,3.45
		c-0.788,0-1.427-1.544-1.427-3.45V12.011v-1.122c0-1.497,0.639-2.711,1.427-2.711c0.789,0,1.428,1.214,1.428,2.711v3.2v0.004h3.207
		v-0.004v-3.195C14.745,10.751,14.732,9.459,14.271,8.121"/>
	<path clip-path="url(#SVGID_2_)" fill="#E11A2C" d="M20.113,20.808l3.121,9.243h3.561c0,0-2.24-6.07-3.573-10.178
		c0.504-0.408,0.94-0.938,1.275-1.574c0.515-0.979,0.788-2.16,0.788-3.415v-4.028C25.284,9.6,25.011,8.42,24.496,7.441
		c-0.828-1.57-2.266-2.507-3.849-2.507h-1.43h-3.208v25.116h3.208l-0.001-9.243h0.001H20.113z M19.217,8.143h1.43
		c0.789,0,1.429,1.214,1.43,2.713v4.028c0,1.5-0.64,2.716-1.43,2.716h-1.43V8.143z"/>
	<path clip-path="url(#SVGID_2_)" fill="#E11A2C" d="M31.911,41.281l-3.12-9.243h-3.561c0,0,2.24,6.07,3.573,10.178
		c-0.504,0.408-0.94,0.938-1.275,1.574c-0.515,0.979-0.788,2.16-0.788,3.416v4.027c0.001,1.256,0.274,2.436,0.789,3.414
		c0.828,1.57,2.266,2.507,3.849,2.507h1.429h3.208V32.038h-3.208l0.001,9.243h-0.001H31.911z M32.807,53.946h-1.429
		c-0.789,0-1.429-1.214-1.43-2.713v-4.027c0-1.5,0.64-2.717,1.43-2.717h1.429V53.946z"/>
</g>
</svg>
