<svg id="a3309217-a304-467b-bc1d-04d14536b966" data-name="Layer 1" xmlns="http://www.w3.org/2000/svg" viewBox="0 0 203.33 37.56"><path d="M20.65.05A1.47,1.47,0,0,1,22,1.65,1.53,1.53,0,0,1,20.39,3a16.15,16.15,0,0,0-7,1A15.9,15.9,0,0,0,4.07,24.53a15.9,15.9,0,0,0,20.62,8.94A15.88,15.88,0,0,0,34,13a1.53,1.53,0,0,1,2.85-1.09A18.91,18.91,0,0,1,25.76,36.26,18.9,18.9,0,0,1,1.23,25.62,18.9,18.9,0,0,1,12.34,1.3,19.32,19.32,0,0,1,20.65.05Z" style="fill:#fff"/><path d="M12.33,30.22a1.5,1.5,0,1,1,1.52-2.58A10.28,10.28,0,1,0,24.35,10a10.39,10.39,0,0,0-14.28,3.41,1.52,1.52,0,0,1-2.61-1.57,13.4,13.4,0,0,1,18.43-4.4,13.41,13.41,0,0,1,4.76,18.34A13.4,13.4,0,0,1,12.33,30.22Z" style="fill:#fff"/><path d="M19.05,10.82a8,8,0,1,0,7.81,8A7.89,7.89,0,0,0,19.05,10.82Zm0,3a4.91,4.91,0,1,1-4.82,4.91A4.87,4.87,0,0,1,19.05,13.87Z" style="fill:#f46338"/><path d="M57.46,28c5.25,0,8.8-3.35,8.8-8.84s-3.55-8.85-8.8-8.85H50.3V28Zm0-2.91h-4V13.21h4c3.45,0,5.56,2.2,5.56,5.94S60.91,25.08,57.46,25.08Zm15.7,3.3a6.16,6.16,0,0,0,5.17-2.44l.6,2h2.44V19.46c0-3.68-2-6-6.27-6-4,0-5.66,2-6.28,4.52l2.9.71A3,3,0,0,1,75,16.22c2.11,0,3.31,1.14,3.31,3.42v.8a12,12,0,0,0-4.36-.8c-4,0-5.61,2-5.61,4.42S70,28.38,73.16,28.38ZM74,25.82c-1.42,0-2.54-.57-2.54-2s1.1-2,3-2a11.16,11.16,0,0,1,3.88.63c-.07,2.13-2.3,3.33-4.31,3.33Zm16.22,2.56a4.61,4.61,0,0,0,4.89-3.54L92.52,24a2.15,2.15,0,0,1-2.13,1.59c-1.25,0-2-.85-2-2.39V16.61H94V13.87H88.42V10.74l-3,.91v2.22H83.13v2.74h2.31v6.57c0,3.37,1.62,5.2,4.73,5.2Zm11,0a6.17,6.17,0,0,0,5.18-2.44l.6,2h2.44V19.46c0-3.68-2-6-6.28-6-4,0-5.65,2-6.27,4.52l2.9.71A3,3,0,0,1,103,16.22c2.11,0,3.31,1.14,3.31,3.42v.8a12,12,0,0,0-4.36-.8c-4,0-5.61,2-5.61,4.42S98,28.38,101.21,28.38Zm.79-2.56c-1.41,0-2.54-.57-2.54-2s1.11-2,3-2a11.16,11.16,0,0,1,3.88.63c-.07,2.13-2.3,3.33-4.32,3.33Zm16.11,2.56c4,0,6.3-1.71,6.3-4.49,0-6.18-9.22-3-9.22-6.28,0-1,1-1.57,2.63-1.57,1.92,0,3.16.81,3.5,2.3l2.9-.63c-.55-2.57-2.66-4.23-6.23-4.23s-5.8,1.76-5.8,4.32c0,6.09,9.2,2.79,9.2,6.23,0,1.2-1.15,1.79-3.14,1.79-2.15,0-3.45-.76-3.88-2.28l-2.87.61C112.17,26.87,114.35,28.38,118.11,28.38Zm14.93,0c3.42,0,6-1.76,6.75-4.59l-2.73-.73a3.9,3.9,0,0,1-4,2.56c-2.3,0-3.67-1.47-3.91-3.83H140V20.64c0-4.08-2.37-7.16-6.76-7.16s-7.14,3.13-7.14,7.5,2.62,7.4,6.93,7.4Zm3.88-8.87H129.2a3.81,3.81,0,0,1,3.91-3.44A3.58,3.58,0,0,1,136.92,19.51ZM145.74,28V20c0-2.3,1.29-3.64,3.23-3.64,1.63,0,2.88.88,2.88,3.49V28H155V20c0-2.3,1.3-3.64,3.26-3.64,1.63,0,2.83.88,2.83,3.49V28h3.11v-8.4c0-3.81-1.58-6.11-4.91-6.11a5.09,5.09,0,0,0-4.86,2.76A4.4,4.4,0,0,0,150,13.48a4.83,4.83,0,0,0-4.34,2.32l-.57-1.93h-2.45V28Zm29.28.39c3.6,0,6.43-3,6.43-7.45s-2.81-7.45-6.38-7.45a5.53,5.53,0,0,0-4.81,2.27V8.45h-3.12V28h2.45l.59-2A5.43,5.43,0,0,0,175,28.38Zm-.36-2.93c-2.32,0-4.07-1.27-4.07-4.52,0-3.05,1.8-4.52,4.1-4.52s3.93,2,3.93,4.52S177.11,25.45,174.66,25.45ZM186.82,28V8.45H183.7V28Zm8.89,4.42L197.46,28l5.87-14.12H200L198,19.32c-.79,2.12-1.46,4.08-1.84,5.3q-.9-2.65-1.92-5.28l-2.13-5.47h-3.4L194.61,28l-1.94,4.44Z" style="fill:#fff"/></svg>