<?xml version="1.0" encoding="UTF-8"?>
<svg width="303px" height="50px" viewBox="0 0 303 50" version="1.1" xmlns="http://www.w3.org/2000/svg" xmlns:xlink="http://www.w3.org/1999/xlink">
    <title>Group 27</title>
    <g id="Page-1" stroke="none" stroke-width="1" fill="none" fill-rule="evenodd">
        <g id="Homepage-v01.07" transform="translate(-75.000000, -50.000000)">
            <g id="Group-27" transform="translate(75.000000, 50.000000)">
                <path d="M25.8566401,50 L6.83089461,50 C5.81959622,50 5,49.1861111 5,48.1833333 L5,13.2833333 C5,12.2777778 5.81959622,11.4638889 6.83089461,11.4638889 L25.8566401,11.4638889 C29.2072606,11.4638889 32.3022782,12.6694444 34.5693647,14.8583333 C37.1115021,17.3055556 38.4561956,20.8138889 38.4561956,25 C38.4561956,29.1861111 37.1115021,32.6944444 34.5693647,35.1416667 C32.3022782,37.3305556 29.2072606,38.5361111 25.8566401,38.5361111 L18.374699,38.5361111 C17.3634006,38.5361111 16.5438044,37.7222222 16.5438044,36.7194444 C16.5438044,35.7111111 17.3634006,34.8972222 18.374699,34.8972222 L25.8566401,34.8972222 C29.9796259,34.8972222 34.7944064,32.3083333 34.7944064,25 C34.7944064,17.6916667 29.9796259,15.1027778 25.8566401,15.1027778 L8.66178922,15.1027778 L8.66178922,46.3611111 L25.8566401,46.3611111 C28.8960919,46.3611111 33.9109094,45.3777778 38.04223,42.6027778 C43.546027,38.9027778 46.3382108,32.9777778 46.3382108,25 C46.3382108,17.0222222 43.546027,11.0972222 38.04223,7.39722222 C33.9109094,4.62222222 28.8960919,3.63888889 25.8566401,3.63888889 L6.83089461,3.63888889 C5.81959622,3.63888889 5,2.82222222 5,1.81666667 C5,0.813888889 5.81959622,0 6.83089461,0 L25.8566401,0 C27.1429894,0 33.8831265,0.211111111 40.095388,4.38611111 C43.0653825,6.38611111 45.4158177,8.96944444 47.0689016,12.0694444 C49.0137062,15.7055556 50,20.0583333 50,25 C50,29.9416667 49.0137062,34.2944444 47.0689016,37.9305556 C45.4158177,41.0305556 43.0653825,43.6138889 40.095388,45.6138889 C33.8831265,49.7888889 27.1429894,50 25.8566401,50" id="Fill-1" fill="#00E0AE"></path>
                <path d="M25.5834611,44 L12.4729678,44 C11.8904013,44 11.4177531,43.5252851 11.4177531,42.9395258 L11.4177531,19.5202581 C11.4177531,18.9344988 11.8904013,18.4597839 12.4729678,18.4597839 C13.0582822,18.4597839 13.5309305,18.9344988 13.5309305,19.5202581 L13.5309305,41.8790516 L25.5834611,41.8790516 C28.155547,41.8790516 32.0191718,41.0267857 35.1545884,38.6282263 C38.9577582,35.7216387 40.8868226,31.3048469 40.8868226,25.5 C40.8868226,19.6951531 38.9577582,15.2783613 35.1545884,12.3689976 C32.0191718,9.97321429 28.155547,9.12372449 25.5834611,9.12372449 L2.11042945,9.12372449 L2.11042945,42.9395258 C2.11042945,43.5252851 1.64052914,44 1.05521472,44 C0.472648262,44 0,43.5252851 0,42.9395258 L0,8.06047419 C0,7.47471489 0.472648262,7 1.05521472,7 L25.5834611,7 C31.6069785,7 43,10.8671218 43,25.5 C43,40.130102 31.6069785,44 25.5834611,44" id="Fill-3" fill="#00E0AE"></path>
                <path d="M71.2462896,31.0095481 C75.3935018,31.0095481 78.1058965,28.5186928 78.1058965,24.5 C78.1058965,20.4784831 75.3935018,17.9904519 71.2462896,17.9904519 L66.8323305,17.9904519 L66.8323305,31.0095481 L71.2462896,31.0095481 Z M62,14 L71.4849579,14 C78.3164862,14 83,18.1401291 83,24.5 C83,30.8598709 78.3164862,35 71.4849579,35 L62,35 L62,14 Z" id="Fill-5" fill="#FFFFFF"></path>
                <path d="M99.7090778,26.810113 L96.4572491,18.7699032 L93.2054203,26.810113 L99.7090778,26.810113 Z M101.203981,30.5012103 L91.6801775,30.5012103 L89.8625735,35 L85,35 L94.1404245,14 L98.8292361,14 L108,35 L103.018827,35 L101.203981,30.5012103 Z" id="Fill-7" fill="#FFFFFF"></path>
                <polygon id="Fill-9" fill="#FFFFFF" points="114.608333 17.9593868 108 17.9593868 108 14 126 14 126 17.9593868 119.388889 17.9593868 119.388889 35 114.608333 35"></polygon>
                <path d="M140.709078,26.810113 L137.457249,18.7699032 L134.20542,26.810113 L140.709078,26.810113 Z M142.203981,30.5012103 L132.680177,30.5012103 L130.865332,35 L126,35 L135.140425,14 L139.829236,14 L149,35 L144.021585,35 L142.203981,30.5012103 Z" id="Fill-11" fill="#FFFFFF"></path>
                <path d="M152,32.1881214 L152.682325,31.0661541 C154.099889,32.5444783 156.734497,33.6664457 159.51671,33.6664457 C163.658002,33.6664457 165.493316,31.865173 165.493316,29.6156702 C165.493316,23.404481 152.56257,27.1323081 152.56257,19.4984754 C152.56257,16.5724513 154.810063,14 159.90104,14 C162.179168,14 164.546417,14.7099297 166.142221,15.8625215 L165.579651,17.0735782 C163.864092,15.8903619 161.764203,15.3279862 159.90104,15.3279862 C155.876717,15.3279862 154.072039,17.1932918 154.072039,19.470635 C154.072039,25.6818242 167,22.0152459 167,29.5265809 C167,32.4553891 164.663387,35 159.54456,35 C156.467137,35 153.509469,33.8446242 152,32.1881214" id="Fill-13" fill="#FFFFFF"></path>
                <path d="M171,32.1881214 L171.67954,31.0661541 C173.099889,32.5444783 175.734497,33.6664457 178.513925,33.6664457 C182.658002,33.6664457 184.490531,31.865173 184.490531,29.6156702 C184.490531,23.404481 171.56257,27.1323081 171.56257,19.4984754 C171.56257,16.5724513 173.810063,14 178.898255,14 C181.176383,14 183.543632,14.7099297 185.142221,15.8625215 L184.579651,17.0735782 C182.864092,15.8903619 180.764203,15.3279862 178.898255,15.3279862 C174.876717,15.3279862 173.072039,17.1932918 173.072039,19.470635 C173.072039,25.6818242 186,22.0152459 186,29.5265809 C186,32.4553891 183.663387,35 178.54456,35 C175.467137,35 172.509469,33.8446242 171,32.1881214" id="Fill-15" fill="#FFFFFF"></path>
                <polygon id="Fill-17" fill="#FFFFFF" points="207 33.6218397 207 35 193 35 193 14 206.566166 14 206.566166 15.3809844 194.478854 15.3809844 194.478854 23.6612426 205.291951 23.6612426 205.291951 25.0111619 194.478854 25.0111619 194.478854 33.6218397"></polygon>
                <polygon id="Fill-19" fill="#FFFFFF" points="231 14 231 35 229.747812 35 215.51891 16.7615974 215.51891 35 214 35 214 14 215.280264 14 229.478282 32.2384026 229.478282 14"></polygon>
                <polygon id="Fill-21" fill="#FFFFFF" points="243.264586 15.3809844 236 15.3809844 236 14 252 14 252 15.3809844 244.735414 15.3809844 244.735414 35 243.264586 35"></polygon>
                <polygon id="Fill-23" fill="#FFFFFF" points="257.687 35 259.313 35 259.313 14 257.687 14"></polygon>
                <path d="M280.045104,27.7995159 L274.484356,15.6801129 L268.954896,27.7995159 L280.045104,27.7995159 Z M280.619667,29.0899556 L268.351889,29.0899556 L265.661113,35 L264,35 L273.730597,14 L275.272247,14 L285,35 L283.338887,35 L280.619667,29.0899556 Z" id="Fill-25" fill="#FFFFFF"></path>
                <polygon id="Fill-26" fill="#FFFFFF" points="290 14 291.460916 14 291.460916 33.6192013 303 33.6192013 303 35 290 35"></polygon>
            </g>
        </g>
    </g>
</svg>