<?xml version="1.0" encoding="utf-8"?>
<!-- Generator: Adobe Illustrator 22.0.1, SVG Export Plug-In . SVG Version: 6.00 Build 0)  -->
<svg version="1.1" id="Layer_1" xmlns="http://www.w3.org/2000/svg" xmlns:xlink="http://www.w3.org/1999/xlink" x="0px" y="0px"
	 viewBox="0 0 1417 395.1" style="enable-background:new 0 0 1417 395.1;" xml:space="preserve">
<style type="text/css">
	.st0{fill:#4BDD76;}
	.st1{fill:#FFFFFF;}
</style>
<g>
	<g id="Group-2_36_" transform="translate(202.237194, 32.552467)">
		<circle id="Oval-4_288_" class="st0" cx="75.3" cy="38.2" r="11.2"/>
		<circle id="Oval-4_287_" class="st0" cx="89.8" cy="66.3" r="9.8"/>
		<circle id="Oval-4_286_" class="st0" cx="98.5" cy="94.3" r="8.7"/>
		<circle id="Oval-4_285_" class="st0" cx="99.7" cy="121" r="8.7"/>
		<circle id="Oval-4_284_" class="st0" cx="96.4" cy="146.1" r="8.4"/>
		<circle id="Oval-4_283_" class="st0" cx="88.4" cy="166" r="7.5"/>
		<circle id="Oval-4_282_" class="st0" cx="77.3" cy="183.1" r="6.5"/>
		<circle id="Oval-4_281_" class="st0" cx="64.6" cy="196.2" r="5.8"/>
	</g>
	
		<g id="Group-2_35_" transform="translate(234.882547, 150.471068) rotate(30.000000) translate(-234.882547, -150.471068) translate(213.534772, 75.650225)">
		
			<ellipse id="Oval-4_280_" transform="matrix(0.5 -0.866 0.866 0.5 39.8217 83.4811)" class="st0" cx="92.2" cy="7.3" rx="11.2" ry="11.2"/>
		
			<ellipse id="Oval-4_279_" transform="matrix(0.5 -0.866 0.866 0.5 22.7476 110.104)" class="st0" cx="106.7" cy="35.4" rx="9.8" ry="9.8"/>
		
			<ellipse id="Oval-4_278_" transform="matrix(0.5 -0.866 0.866 0.5 2.7488 131.6611)" class="st0" cx="115.4" cy="63.5" rx="8.7" ry="8.7"/>
		
			<ellipse id="Oval-4_277_" transform="matrix(0.5 -0.866 0.866 0.5 -19.7439 145.9741)" class="st0" cx="116.5" cy="90.1" rx="8.7" ry="8.7"/>
		<circle id="Oval-4_276_" class="st0" cx="113.3" cy="115.2" r="8.4"/>
		
			<ellipse id="Oval-4_275_" transform="matrix(0.5 -0.866 0.866 0.5 -64.282 158.6621)" class="st0" cx="105.3" cy="135" rx="7.5" ry="7.5"/>
		
			<ellipse id="Oval-4_274_" transform="matrix(0.5 -0.866 0.866 0.5 -84.6535 157.6385)" class="st0" cx="94.2" cy="152.1" rx="6.5" ry="6.5"/>
		
			<ellipse id="Oval-4_273_" transform="matrix(0.5 -0.866 0.866 0.5 -102.3326 153.1307)" class="st0" cx="81.4" cy="165.2" rx="5.8" ry="5.8"/>
	</g>
	
		<g id="Group-2_34_" transform="translate(222.725669, 192.342725) rotate(60.000000) translate(-222.725669, -192.342725) translate(201.377894, 117.521882)">
		<circle id="Oval-4_272_" class="st0" cx="91.2" cy="-28.1" r="11.2"/>
		<circle id="Oval-4_271_" class="st0" cx="105.6" cy="0.1" r="9.8"/>
		<circle id="Oval-4_270_" class="st0" cx="114.3" cy="28.1" r="8.7"/>
		<circle id="Oval-4_269_" class="st0" cx="115.4" cy="54.7" r="8.7"/>
		<circle id="Oval-4_268_" class="st0" cx="112.2" cy="79.9" r="8.4"/>
		
			<ellipse id="Oval-4_267_" transform="matrix(0.866 -0.5 0.5 0.866 -35.9266 65.4402)" class="st0" cx="104.1" cy="99.8" rx="7.5" ry="7.5"/>
		
			<ellipse id="Oval-4_266_" transform="matrix(0.866 -0.5 0.5 0.866 -45.9229 62.1852)" class="st0" cx="93.1" cy="116.8" rx="6.5" ry="6.5"/>
		<circle id="Oval-4_265_" class="st0" cx="80.4" cy="129.9" r="5.8"/>
	</g>
	
		<g id="Group-2_33_" transform="translate(190.151388, 223.248426) rotate(90.000000) translate(-190.151388, -223.248426) translate(168.803613, 148.427583)">
		<circle id="Oval-4_264_" class="st0" cx="72.7" cy="-58" r="11.2"/>
		<circle id="Oval-4_263_" class="st0" cx="87.1" cy="-29.7" r="9.8"/>
		<circle id="Oval-4_262_" class="st0" cx="95.8" cy="-1.8" r="8.7"/>
		<circle id="Oval-4_261_" class="st0" cx="97.1" cy="24.9" r="8.7"/>
		<circle id="Oval-4_260_" class="st0" cx="93.8" cy="50.1" r="8.4"/>
		<circle id="Oval-4_259_" class="st0" cx="85.8" cy="69.9" r="7.5"/>
		<circle id="Oval-4_258_" class="st0" cx="74.7" cy="86.9" r="6.5"/>
		<circle id="Oval-4_257_" class="st0" cx="62" cy="100.1" r="5.8"/>
	</g>
	
		<g id="Group-2_32_" transform="translate(147.597415, 233.482056) rotate(120.000000) translate(-147.597415, -233.482056) translate(126.249640, 158.661212)">
		
			<ellipse id="Oval-4_256_" transform="matrix(0.4664 -0.8846 0.8846 0.4664 88.3527 -2.9514)" class="st0" cx="41.7" cy="-74.7" rx="11.2" ry="11.2"/>
		
			<ellipse id="Oval-4_255_" transform="matrix(0.5 -0.866 0.866 0.5 68.3477 25.3697)" class="st0" cx="56.1" cy="-46.5" rx="9.8" ry="9.8"/>
		
			<ellipse id="Oval-4_254_" transform="matrix(0.5 -0.866 0.866 0.5 48.4394 46.8746)" class="st0" cx="64.8" cy="-18.5" rx="8.7" ry="8.7"/>
		
			<ellipse id="Oval-4_253_" transform="matrix(0.5 -0.866 0.866 0.5 25.9989 61.278)" class="st0" cx="66.1" cy="8.1" rx="8.7" ry="8.7"/>
		<circle id="Oval-4_252_" class="st0" cx="62.8" cy="33.3" r="8.4"/>
		
			<ellipse id="Oval-4_251_" transform="matrix(0.5 -0.866 0.866 0.5 -18.6819 73.9277)" class="st0" cx="54.7" cy="53.1" rx="7.5" ry="7.5"/>
		
			<ellipse id="Oval-4_250_" transform="matrix(0.5 -0.866 0.866 0.5 -38.9629 72.852)" class="st0" cx="43.6" cy="70.2" rx="6.5" ry="6.5"/>
		
			<ellipse id="Oval-4_249_" transform="matrix(0.5 -0.866 0.866 0.5 -56.6802 68.4869)" class="st0" cx="31" cy="83.3" rx="5.8" ry="5.8"/>
	</g>
	
		<g id="Group-2_31_" transform="translate(104.895589, 221.823330) rotate(150.000000) translate(-104.895589, -221.823330) translate(83.547814, 147.002487)">
		<circle id="Oval-4_248_" class="st0" cx="6.6" cy="-73.7" r="11.2"/>
		<circle id="Oval-4_247_" class="st0" cx="21.1" cy="-45.6" r="9.8"/>
		<circle id="Oval-4_246_" class="st0" cx="29.7" cy="-17.5" r="8.7"/>
		<circle id="Oval-4_245_" class="st0" cx="31" cy="9.1" r="8.7"/>
		<circle id="Oval-4_244_" class="st0" cx="27.7" cy="34.2" r="8.4"/>
		<circle id="Oval-4_243_" class="st0" cx="19.6" cy="54" r="7.5"/>
		<circle id="Oval-4_242_" class="st0" cx="8.6" cy="71.1" r="6.5"/>
		<circle id="Oval-4_241_" class="st0" cx="-4.1" cy="84.2" r="5.8"/>
	</g>
	
		<g id="Group-2_30_" transform="translate(74.566610, 190.931715) rotate(180.000000) translate(-74.566610, -190.931715) translate(53.218835, 116.110872)">
		<circle id="Oval-4_240_" class="st0" cx="-23.4" cy="-55.5" r="11.2"/>
		<circle id="Oval-4_239_" class="st0" cx="-9" cy="-27.3" r="9.8"/>
		<circle id="Oval-4_238_" class="st0" cx="-0.3" cy="0.7" r="8.7"/>
		<circle id="Oval-4_237_" class="st0" cx="0.9" cy="27.3" r="8.7"/>
		<circle id="Oval-4_236_" class="st0" cx="-2.4" cy="52.5" r="8.4"/>
		<circle id="Oval-4_235_" class="st0" cx="-10.4" cy="72.3" r="7.5"/>
		<circle id="Oval-4_234_" class="st0" cx="-21.5" cy="89.4" r="6.5"/>
		<circle id="Oval-4_233_" class="st0" cx="-34.1" cy="102.5" r="5.8"/>
	</g>
	
		<g id="Group-2_29_" transform="translate(64.331538, 147.972419) rotate(210.000000) translate(-64.331538, -147.972419) translate(42.569242, 71.700756)">
		
			<ellipse id="Oval-4_232_" transform="matrix(0.5 -0.866 0.866 0.5 1.706 -46.4115)" class="st0" cx="-39.3" cy="-24.7" rx="11.2" ry="11.2"/>
		
			<ellipse id="Oval-4_231_" transform="matrix(0.5 -0.866 0.866 0.5 -15.4204 -19.879)" class="st0" cx="-24.9" cy="3.4" rx="9.8" ry="9.8"/>
		
			<ellipse id="Oval-4_230_" transform="matrix(0.5 -0.866 0.866 0.5 -35.4192 1.6781)" class="st0" cx="-16.3" cy="31.5" rx="8.7" ry="8.7"/>
		
			<ellipse id="Oval-4_229_" transform="matrix(0.5 -0.866 0.866 0.5 -57.9118 15.9911)" class="st0" cx="-15.1" cy="58.1" rx="8.7" ry="8.7"/>
		<circle id="Oval-4_228_" class="st0" cx="-18.3" cy="83.2" r="8.4"/>
		
			<ellipse id="Oval-4_227_" transform="matrix(0.5 -0.866 0.866 0.5 -102.45 28.679)" class="st0" cx="-26.4" cy="103.1" rx="7.5" ry="7.5"/>
		
			<ellipse id="Oval-4_226_" transform="matrix(0.5 -0.866 0.866 0.5 -122.8214 27.6554)" class="st0" cx="-37.5" cy="120.2" rx="6.5" ry="6.5"/>
		
			<ellipse id="Oval-4_225_" transform="matrix(0.5 -0.866 0.866 0.5 -143.7888 23.7196)" class="st0" cx="-51.4" cy="136.4" rx="5.8" ry="5.8"/>
	</g>
	
		<g id="Group-2_28_" transform="translate(75.706726, 105.099452) rotate(240.000000) translate(-75.706726, -105.099452) translate(54.358950, 30.278609)">
		<circle id="Oval-4_224_" class="st0" cx="-39.2" cy="10.7" r="11.2"/>
		<circle id="Oval-4_223_" class="st0" cx="-24.7" cy="38.9" r="9.8"/>
		<circle id="Oval-4_222_" class="st0" cx="-16.2" cy="66.9" r="8.7"/>
		<circle id="Oval-4_221_" class="st0" cx="-14.9" cy="93.5" r="8.7"/>
		<circle id="Oval-4_220_" class="st0" cx="-18.1" cy="118.7" r="8.4"/>
		<circle id="Oval-4_219_" class="st0" cx="-26.2" cy="138.6" r="7.5"/>
		<circle id="Oval-4_218_" class="st0" cx="-37.3" cy="155.6" r="6.5"/>
		<circle id="Oval-4_217_" class="st0" cx="-50" cy="168.7" r="5.8"/>
	</g>
	
		<g id="Group-2_27_" transform="translate(108.371829, 74.144792) rotate(270.000000) translate(-108.371829, -74.144792) translate(87.024054, -0.676051)">
		<circle id="Oval-4_216_" class="st0" cx="-20.8" cy="40.9" r="11.2"/>
		<circle id="Oval-4_215_" class="st0" cx="-6.4" cy="69.1" r="9.8"/>
		<circle id="Oval-4_214_" class="st0" cx="2.3" cy="97.1" r="8.7"/>
		<circle id="Oval-4_213_" class="st0" cx="3.5" cy="123.7" r="8.7"/>
		<circle id="Oval-4_212_" class="st0" cx="0.2" cy="148.9" r="8.4"/>
		<circle id="Oval-4_211_" class="st0" cx="-7.8" cy="168.7" r="7.5"/>
		<circle id="Oval-4_210_" class="st0" cx="-18.9" cy="185.8" r="6.5"/>
		<circle id="Oval-4_209_" class="st0" cx="-31.5" cy="198.9" r="5.8"/>
	</g>
	
		<g id="Group-2_26_" transform="translate(150.621626, 63.530366) rotate(300.000000) translate(-150.621626, -63.530366) translate(129.273851, -11.290477)">
		
			<ellipse id="Oval-4_208_" transform="matrix(0.5 -0.866 0.866 0.5 -44.7694 37.6301)" class="st0" cx="10.2" cy="57.6" rx="11.2" ry="11.2"/>
		
			<ellipse id="Oval-4_207_" transform="matrix(0.5285 -0.8489 0.8489 0.5285 -61.1315 61.2955)" class="st0" cx="24.6" cy="85.7" rx="9.8" ry="9.8"/>
		
			<ellipse id="Oval-4_206_" transform="matrix(0.5 -0.866 0.866 0.5 -81.8945 85.7198)" class="st0" cx="33.3" cy="113.8" rx="8.7" ry="8.7"/>
		
			<ellipse id="Oval-4_205_" transform="matrix(0.5 -0.866 0.866 0.5 -104.3872 100.0327)" class="st0" cx="34.4" cy="140.4" rx="8.7" ry="8.7"/>
		<circle id="Oval-4_204_" class="st0" cx="31.2" cy="165.6" r="8.4"/>
		
			<ellipse id="Oval-4_203_" transform="matrix(0.5 -0.866 0.866 0.5 -148.9253 112.7206)" class="st0" cx="23.2" cy="185.3" rx="7.5" ry="7.5"/>
		
			<ellipse id="Oval-4_202_" transform="matrix(0.5 -0.866 0.866 0.5 -169.2968 111.6971)" class="st0" cx="12.1" cy="202.5" rx="6.5" ry="6.5"/>
		
			<ellipse id="Oval-4_201_" transform="matrix(0.5 -0.866 0.866 0.5 -186.9237 107.2799)" class="st0" cx="-0.6" cy="215.5" rx="5.8" ry="5.8"/>
	</g>
	
		<g id="Group-2_25_" transform="translate(193.623312, 75.836664) rotate(330.000000) translate(-193.623312, -75.836664) translate(172.275537, 1.015821)">
		<circle id="Oval-4_200_" class="st0" cx="45.4" cy="56.7" r="11.2"/>
		<circle id="Oval-4_199_" class="st0" cx="59.9" cy="84.8" r="9.8"/>
		<circle id="Oval-4_198_" class="st0" cx="68.5" cy="112.9" r="8.7"/>
		<circle id="Oval-4_197_" class="st0" cx="69.8" cy="139.6" r="8.7"/>
		<circle id="Oval-4_196_" class="st0" cx="66.5" cy="164.6" r="8.4"/>
		<circle id="Oval-4_195_" class="st0" cx="58.4" cy="184.5" r="7.5"/>
		<circle id="Oval-4_194_" class="st0" cx="47.3" cy="201.6" r="6.5"/>
		
			<ellipse id="Oval-4_193_" transform="matrix(0.866 -0.5 0.5 0.866 -102.6832 46.0994)" class="st0" cx="34.7" cy="214.7" rx="5.8" ry="5.8"/>
	</g>
</g>
<g>
	<path class="st1" d="M513.9,229.7v10.6c0,1.4-0.9,2.2-2.3,2.2h-56c-1.5,0-2.4-0.9-2.4-2.2v-83.4c0-1.4,0.9-2.2,2.4-2.2h55.5
		c1.5,0,2.4,0.9,2.4,2.2v10.6c0,1.5-0.9,2.4-2.4,2.4h-40.6v20.6H506c1.5,0,2.4,0.9,2.4,2.4v10.6c0,1.4-0.9,2.2-2.4,2.2h-35.5v21.6
		h41.1C513,227.4,513.9,228.2,513.9,229.7z"/>
	<path class="st1" d="M635.7,157.3l-34.8,83.5c-0.4,1.3-1.4,1.8-2.6,1.8h-7.1c-1.3,0-2.2-0.5-2.6-1.8l-34.9-83.5
		c-0.6-1.6,0.1-2.6,1.8-2.6h14.5c1.3,0,2.3,0.6,2.6,1.9l17.1,44.6l5.6,17.8l5.5-17.8l16.6-44.6c0.4-1.3,1.4-1.9,2.6-1.9h13.9
		C635.7,154.7,636.3,155.7,635.7,157.3z"/>
	<path class="st1" d="M735.3,229.7v10.6c0,1.4-0.9,2.2-2.3,2.2h-56c-1.5,0-2.4-0.9-2.4-2.2v-83.4c0-1.4,0.9-2.2,2.4-2.2h55.5
		c1.5,0,2.4,0.9,2.4,2.2v10.6c0,1.5-0.9,2.4-2.4,2.4h-40.6v20.6h35.5c1.5,0,2.4,0.9,2.4,2.4v10.6c0,1.4-0.9,2.2-2.4,2.2h-35.5v21.6
		H733C734.4,227.4,735.3,228.2,735.3,229.7z"/>
	<path class="st1" d="M850.9,242.5h-15.1c-1.1,0-2.1-0.5-2.7-1.5l-16.1-23.6h-2.1h-13v22.9c0,1.4-0.9,2.2-2.2,2.2h-12.6
		c-1.5,0-2.4-0.9-2.4-2.2v-83.4c0-1.4,0.9-2.2,2.4-2.2h29c21.4,0,35.6,12.1,35.6,31.7c0,12.5-6.4,22-17.2,27.1l18.3,26.3
		C853.5,241.4,852.7,242.5,850.9,242.5z M801.7,202.3h12.6c11.6,0,19.3-6.2,19.3-15.9c0-10.5-7.8-16.6-19.1-16.6h-12.8V202.3z"/>
	<path class="st1" d="M894.7,234.5c-1.1-0.9-1.4-2.2-0.6-3.6l6-9.5c0.6-1.3,1.9-1.5,3.1-0.6c7.4,5.4,15.5,7.9,24,7.9
		c7.9,0,13.8-3.4,13.8-10.5c0-7-5-10.1-18.1-13.8c-14.9-4.1-26.5-9.9-26.5-25.2c0-15.5,12.8-25.6,31.6-25.6c11.8,0,21,3,27.6,7.6
		c1.3,0.9,1.3,2.1,0.5,3.2l-5.4,8.9c-0.7,1.4-2.1,1.6-3.4,0.8c-5.5-3.5-11.6-5.5-19.5-5.5c-8,0-14,3-14,9.5c0,6.4,5.8,8.4,17.9,12
		c14.9,4.4,26.4,10.1,26.4,27c0,16.4-12.4,26.6-31.1,26.6C913.3,243.7,902.8,240.3,894.7,234.5z"/>
	<path class="st1" d="M1001.8,240.3v-83.4c0-1.4,0.9-2.2,2.4-2.2h12.6c1.4,0,2.2,0.9,2.2,2.2v83.4c0,1.4-0.9,2.2-2.2,2.2h-12.6
		C1002.7,242.5,1001.8,241.7,1001.8,240.3z"/>
	<path class="st1" d="M1138.4,201v30.5c0,1.2-0.4,2.2-1.4,2.9c-4.2,3.1-14.4,9.3-32.1,9.3c-27.4,0-47-19.6-47-45
		c0-25.4,19.6-45.1,47.4-45.1c15,0,24,4.5,28.3,7.3c1.3,0.7,1.5,1.9,0.7,3.1l-5.2,9.6c-0.8,1.3-1.9,1.5-3.1,0.9
		c-3.5-1.9-10.3-4.7-19.9-4.7c-17.4,0-30.3,11.5-30.3,29c0,17.5,13.5,29.5,30.1,29.5c6.6,0,12.1-1.4,16.3-3.4V201
		c0-1.5,0.9-2.2,2.4-2.2h11.5C1137.5,198.8,1138.4,199.5,1138.4,201z"/>
	<path class="st1" d="M1262.5,156.9v83.4c0,1.4-0.9,2.2-2.3,2.2h-12.6c-1.5,0-2.4-0.9-2.4-2.2v-34.1h-45v34.1c0,1.4-0.9,2.2-2.2,2.2
		h-12.6c-1.5,0-2.4-0.9-2.4-2.2v-83.4c0-1.4,0.9-2.2,2.4-2.2h12.6c1.4,0,2.2,0.9,2.2,2.2v34h45v-34c0-1.4,0.9-2.2,2.4-2.2h12.6
		C1261.6,154.7,1262.5,155.5,1262.5,156.9z"/>
	<path class="st1" d="M1377.7,156.9v10.6c0,1.5-0.9,2.4-2.4,2.4h-26.8v70.4c0,1.4-0.9,2.2-2.4,2.2h-12.6c-1.5,0-2.2-0.9-2.2-2.2
		v-70.4h-27c-1.5,0-2.2-0.9-2.2-2.4v-10.6c0-1.4,0.8-2.2,2.2-2.2h71C1376.8,154.7,1377.7,155.5,1377.7,156.9z"/>
</g>
</svg>
