<?xml version="1.0" encoding="utf-8"?>
<!-- Generator: Adobe Illustrator 25.3.0, SVG Export Plug-In . SVG Version: 6.00 Build 0)  -->
<svg version="1.1" id="Layer_1" xmlns="http://www.w3.org/2000/svg" xmlns:xlink="http://www.w3.org/1999/xlink" x="0px" y="0px"
	 viewBox="0 0 116 22" style="enable-background:new 0 0 116 22;" xml:space="preserve">
<style type="text/css">
	.st0{fill:#21B685;}
	.st1{fill:#FFFFFF;}
</style>
<path class="st0" d="M20.1,15.2c0,1.3-0.5,2.6-1.5,3.6c-1,0.9-2.2,1.5-3.6,1.5c-0.1,0-0.1,0-0.2-0.1c0,0-0.1-0.1-0.1-0.2V7.1
	c0-0.1,0-0.1-0.1-0.2c0,0-0.1-0.1-0.2-0.1H1.7c-0.1,0-0.1,0-0.2-0.1c0,0-0.1-0.1-0.1-0.2C1.4,5.3,2,4,2.9,3.1c0.9-1,2.2-1.5,3.6-1.5
	h12.9c0.2,0,0.4,0.1,0.5,0.2c0.1,0.1,0.2,0.3,0.2,0.5V15.2z M13.1,20.3H2.7c0,0,0,0-0.1,0c0,0,0,0,0,0c0,0,0,0,0-0.1c0,0,0,0,0-0.1
	L13.2,9.5c0,0,0,0,0.1,0c0,0,0,0,0.1,0c0,0,0,0,0,0c0,0,0,0,0,0.1V20c0,0.1,0,0.1-0.1,0.2C13.3,20.2,13.2,20.3,13.1,20.3z M1.7,8.3
	h10.4c0,0,0,0,0.1,0c0,0,0,0,0,0c0,0,0,0,0,0.1c0,0,0,0,0,0.1L1.6,19c0,0,0,0-0.1,0s0,0-0.1,0c0,0,0,0,0,0c0,0,0,0,0-0.1V8.6
	c0-0.1,0-0.1,0.1-0.2C1.5,8.4,1.6,8.3,1.7,8.3L1.7,8.3z M6.5,0.1c-1.7,0-3.4,0.7-4.6,1.9C0.7,3.3,0,4.9,0,6.6v13.9
	c0,0.3,0.1,0.6,0.3,0.8c0.2,0.2,0.5,0.3,0.8,0.3h13.9c1.7,0,3.4-0.7,4.6-1.9c1.2-1.2,1.9-2.9,1.9-4.6V1.3c0-0.2,0-0.3-0.1-0.4
	s-0.1-0.3-0.2-0.4S21,0.3,20.9,0.2s-0.3-0.1-0.4-0.1L6.5,0.1z"/>
<path class="st1" d="M35.2,2.6h1.2l2.8,10.1h-6.8L35.2,2.6z M33.5,0.1l-6.4,21.6h2.8l1.8-6.6h8.2l1.8,6.6h2.9L38.3,0.1H33.5z"/>
<path class="st1" d="M48.7,8.2h-3.4V6h3.4V4.2c0-2.5,1.8-4.2,4.4-4.2h2.4v2.4h-2.7c-0.2,0-0.4,0-0.6,0.1c-0.2,0.1-0.4,0.2-0.5,0.3
	c-0.1,0.1-0.3,0.3-0.3,0.5c-0.1,0.2-0.1,0.4-0.1,0.6V6h4.5v2.2h-4.5v13.5h-2.6V8.2z"/>
<path class="st1" d="M61.3,8.6c0.7-0.8,1.5-1.5,2.4-2c0.9-0.5,2-0.8,3-0.9V9h-2.4c-2.1,0-3.1,1-3.1,3.1v9.6h-2.6V6h2.7V8.6z"/>
<path class="st1" d="M85.8,17h2.8c0.1,2,1.1,2.6,3.8,2.6c2.5,0,3.6-0.7,3.6-2V17c0-1.1-0.7-1.6-2.3-1.8l-2.9-0.3
	c-2.8-0.3-4.4-1.9-4.4-4.3c0-2.6,2.7-4.9,5.9-4.9s5.8,1.8,6.2,5h-2.8c-0.1-2-1-2.6-3.4-2.6C90,8.1,89,8.7,89,10v0.6
	c0,1.1,0.7,1.6,2.2,1.8l2.9,0.3c2.9,0.3,4.5,1.9,4.5,4.3c0,2.6-2.7,5-6.2,5C88.8,22,86.1,20,85.8,17"/>
<path class="st1" d="M115.1,11.9v9.8h-2.6V11.6c0-2.5-1.1-3.5-3.9-3.5c-2.9,0-4.1,1.1-4.1,3.7v10h-2.6V0.1h2.6v8
	c0.6-0.8,1.3-1.4,2.2-1.8c0.9-0.4,1.8-0.6,2.8-0.6C112.7,5.7,115.1,8.2,115.1,11.9"/>
<path class="st1" d="M71.4,12.1c0-2.8,1.4-4.1,4.6-4.1c3,0,4.1,1.2,4.1,4v0.4h-8.6V12.1z M79.8,17c-0.3,1.9-1.4,2.7-3.9,2.7
	c-3.2,0-4.5-1.3-4.5-4.3v-0.7h11.6v-1.1c0-4.4-3.1-7.8-7.1-7.8c-4.3,0-7.5,3.7-7.5,8.5c0,4.6,3.2,7.8,7.5,7.8c2.9,0,5.9-2.1,7-5
	H79.8z"/>
</svg>
