<svg width="150" height="37" viewBox="0 0 150 37" fill="none" xmlns="http://www.w3.org/2000/svg">
<mask id="mask0" mask-type="alpha" maskUnits="userSpaceOnUse" x="3" y="3" width="144" height="30">
<rect x="3.69312" y="3.95074" width="142.742" height="28.5999" fill="#C4C4C4"/>
</mask>
<g mask="url(#mask0)">
<path d="M8.73281 16.5467H14.1041V20.3291H8.73281V31.2606H4.57251V4.78296H15.5796V8.56536H8.73367V16.5467H8.73281Z" fill="black"/>
<path d="M30.2626 15.9412H35.974V19.7236H30.2626V27.4774H37.4486V31.2598H26.1014V4.78296H37.4486V8.56536H30.2626V15.9412Z" fill="black"/>
<path d="M40.1119 4.78296H44.2731V27.4782H51.1191V31.2606H40.1119V4.78296Z" fill="black"/>
<path d="M53.7823 4.78296H60.3638C64.5241 4.78296 66.5673 7.08985 66.5673 11.3266V24.7161C66.5673 28.9529 64.5241 31.2598 60.3638 31.2598H53.7823V4.78296ZM57.9435 8.56536V27.4782H60.289C61.6125 27.4782 62.407 26.7971 62.407 24.9059V11.1376C62.407 9.24643 61.6125 8.56536 60.289 8.56536H57.9435Z" fill="black"/>
<path d="M86.4558 31.3534H82.2569L81.5389 26.549H76.4321L75.7133 31.3534H71.8931L76.1298 4.87573H82.2199L86.4558 31.3534ZM76.962 22.9555H80.972L78.9675 9.56594L76.962 22.9555Z" fill="black"/>
<path d="M94.4037 16.5089H100.228V24.906C100.228 29.1427 98.1096 31.5638 94.0249 31.5638C89.9402 31.5638 87.8214 29.1427 87.8214 24.906V11.1376C87.8214 6.90091 89.9402 4.48065 94.0249 4.48065C98.1096 4.48065 100.228 6.90091 100.228 11.1376V13.7099H96.294V10.8731C96.294 8.98191 95.4618 8.26391 94.1383 8.26391C92.8148 8.26391 91.9826 8.98277 91.9826 10.8731V25.1713C91.9826 27.0625 92.8148 27.7436 94.1383 27.7436C95.4618 27.7436 96.294 27.0625 96.294 25.1713V20.2922H94.4028V16.5089H94.4037Z" fill="black"/>
<path d="M107.074 15.9412H112.786V19.7236H107.074V27.4774H114.261V31.2598H102.914V4.78296H114.261V8.56536H107.074V15.9412V15.9412Z" fill="black"/>
<path d="M120.725 12.0832V31.2606H116.98V4.78296H122.201L126.474 20.6314V4.78296H130.182V31.2606H125.907L120.725 12.0832Z" fill="black"/>
<path d="M132.844 4.78296H145.705V8.56536H141.355V31.2606H137.194V8.56536H132.844V4.78296H132.844Z" fill="black"/>
<path d="M23.5103 28.1069L22.0786 11.6899H18.3426L16.9109 28.1069L20.318 31.3603L23.5103 28.1069Z" fill="black"/>
<path d="M22.1826 8.41591C22.1826 8.75258 21.9112 9.0257 21.5737 9.0257H18.8133C18.4775 9.0257 18.2035 8.75258 18.2035 8.41591V5.47862C18.2035 5.14109 18.4775 4.86884 18.8133 4.86884H21.5737C21.9112 4.86884 22.1826 5.14109 22.1826 5.47862V8.41591V8.41591Z" fill="black"/>
</g>
</svg>
