<?xml version="1.0" encoding="utf-8"?>
<!-- Generator: Adobe Illustrator 24.0.0, SVG Export Plug-In . SVG Version: 6.00 Build 0)  -->
<svg version="1.1" id="Layer_3_copy" xmlns="http://www.w3.org/2000/svg" xmlns:xlink="http://www.w3.org/1999/xlink" x="0px"
	 y="0px" viewBox="0 0 206.5 211" style="enable-background:new 0 0 206.5 211;" xml:space="preserve">
<style type="text/css">
	.st0{fill:#2CE2C6;}
</style>
<path d="M16.7,176.4v-3.6H0v29.5h4.3v-14L3,189.6h12V186H3l1.4,1.2v-13.1l-2,2.3H16.7z"/>
<path d="M35.7,201.2c1.6-0.9,3-2.3,3.9-3.9c1-1.7,1.4-3.7,1.4-5.7s-0.4-3.9-1.4-5.7c-0.9-1.6-2.3-3-3.9-3.9c-3.6-1.9-7.9-1.9-11.6,0
	c-1.6,0.9-3,2.2-3.9,3.9c-1,1.7-1.4,3.7-1.4,5.7s0.4,4,1.4,5.7c0.9,1.6,2.3,3,3.9,3.9C27.8,203.1,32.1,203.1,35.7,201.2z M26.4,198
	c-1-0.6-1.9-1.5-2.4-2.5c-0.6-1.2-0.9-2.5-0.9-3.9c0-1.3,0.3-2.6,0.9-3.8c0.5-1,1.4-1.9,2.4-2.5c2.2-1.2,4.8-1.2,7,0
	c1,0.6,1.8,1.5,2.4,2.5c0.6,1.2,0.9,2.5,0.9,3.8s-0.3,2.7-0.9,3.9c-0.5,1.1-1.4,1.9-2.4,2.5C31.2,199.2,28.6,199.2,26.4,198z"/>
<path d="M61.9,201.2c1.6-0.9,3-2.3,3.9-3.9c1-1.7,1.4-3.7,1.4-5.7s-0.4-3.9-1.4-5.7c-0.9-1.6-2.3-3-3.9-3.9c-3.6-1.9-7.9-1.9-11.6,0
	c-1.6,0.9-3,2.2-3.9,3.9c-1,1.7-1.4,3.7-1.4,5.7s0.4,4,1.4,5.7c0.9,1.6,2.3,3,3.9,3.9C54,203.1,58.3,203.1,61.9,201.2z M52.6,198
	c-1-0.6-1.9-1.5-2.4-2.5c-0.6-1.2-0.9-2.5-0.9-3.9c0-1.3,0.3-2.6,0.9-3.8c0.5-1,1.4-1.9,2.4-2.5c2.2-1.2,4.8-1.2,7,0
	c1,0.6,1.8,1.5,2.4,2.5c0.6,1.2,0.9,2.5,0.9,3.8s-0.3,2.7-0.9,3.9c-0.5,1.1-1.4,1.9-2.4,2.5C57.5,199.2,54.8,199.2,52.6,198z"/>
<path d="M85.6,201.4c1.4-0.9,2.6-2.1,3.4-3.5c0.8-1.5,1.3-3.3,1.3-5l-2.5-0.1c0,1.1-0.3,2.1-0.8,3.1c-0.5,0.9-1.3,1.6-2.2,2.1
	c-0.9,0.5-1.9,0.8-3,0.8c-1.6,0-3.2-0.6-4.3-1.8c-1.2-1.2-1.7-3-1.8-5.4c0-2.4,0.6-4.2,1.7-5.4c1.1-1.1,2.7-1.8,4.3-1.7
	c1,0,2,0.3,2.9,0.8s1.7,1.2,2.2,2c0.6,0.9,0.9,1.9,0.8,3v0.3l2.5-0.1v-0.2c0.1-5.2-4.1-9.4-9.3-9.5c-3.5,0-6.7,1.9-8.4,5
	c-0.9,1.8-1.4,3.9-1.3,5.9c-0.1,2.1,0.4,4.2,1.3,6.1c0.8,1.6,2,2.9,3.5,3.8c1.5,0.8,3.1,1.3,4.8,1.3
	C82.5,202.7,84.2,202.3,85.6,201.4z M92.1,202.3V171h-4.4v31.3H92.1z"/>
<path d="M109.5,202.3c1.1-0.2,2.1-0.6,3-1.2c0.8-0.5,1.5-1.2,2.1-2c0.5-0.9,0.8-1.9,0.8-2.9c0-0.9-0.2-1.9-0.7-2.7
	c-0.5-0.7-1.1-1.4-1.9-1.8c-0.8-0.5-1.7-0.9-2.7-1.1c-1-0.3-2-0.5-3-0.7s-2-0.4-3-0.7c-0.7-0.2-1.4-0.5-2-0.9
	c-0.5-0.4-0.7-0.9-0.7-1.5s0.2-1.1,0.7-1.5s1.2-0.7,1.8-0.8c0.7-0.2,1.4-0.2,2.2-0.2c0.8,0,1.5,0.1,2.2,0.3c0.6,0.2,1.2,0.5,1.7,1
	c0.4,0.5,0.7,1.1,0.7,1.7v0.3h4.3v-0.4c0-1.3-0.4-2.6-1.3-3.6s-2-1.8-3.3-2.2c-1.4-0.5-2.9-0.8-4.4-0.8s-3.1,0.2-4.5,0.7
	c-1.3,0.4-2.4,1.1-3.2,2.1c-0.8,0.9-1.2,2.2-1.2,3.4c0,0.9,0.2,1.8,0.7,2.6c0.5,0.7,1.1,1.4,1.9,1.8c0.8,0.5,1.7,0.9,2.6,1.2
	c1,0.3,2,0.5,3,0.7c1.5,0.2,2.9,0.6,4.3,1.1c0.9,0.3,1.5,1.1,1.4,2.1c0,0.6-0.2,1.1-0.7,1.5s-1.1,0.7-1.8,0.9
	c-0.8,0.2-1.7,0.3-2.5,0.3c-1.3,0.1-2.5-0.2-3.7-0.8c-0.8-0.4-1.4-1.3-1.4-2.2v-0.4h-4.3v0.5c0,1,0.2,1.9,0.7,2.8
	c0.5,0.8,1.2,1.5,2,2c0.9,0.6,1.9,1,3,1.2c1.2,0.3,2.4,0.4,3.6,0.4C107.2,202.7,108.4,202.5,109.5,202.3z"/>
<path d="M130.4,202.5c0.3-0.1,0.7-0.1,1-0.3v-3.5c-0.3,0.1-0.5,0.2-0.8,0.2c-0.4,0.1-0.8,0.1-1.1,0.1c-0.7,0.1-1.5-0.3-1.8-0.9
	c-0.3-0.8-0.4-1.7-0.4-2.5v-11h6.5V181h-6.5v-7H123v4.1c0,0.7,0,1.2-0.1,1.6c0,0.3-0.1,0.6-0.3,0.9c-0.2,0.2-0.4,0.3-0.7,0.3
	c-0.4,0-0.9,0.1-1.4,0.1h-2.7v3.6h5.1V197c0,1,0.1,2,0.5,2.9c0.3,0.7,0.8,1.3,1.4,1.7s1.2,0.7,1.9,0.8c0.7,0.1,1.4,0.2,2.1,0.2
	C129.3,202.6,129.8,202.6,130.4,202.5z"/>
<path d="M158.3,193.2c0-0.1,0-0.4,0.1-0.7s0-0.6,0-0.9c0-2-0.4-3.9-1.3-5.7c-0.9-1.6-2.2-3-3.8-3.9c-1.8-1-3.7-1.5-5.8-1.4
	c-2,0-4,0.4-5.8,1.4c-1.7,0.9-3,2.2-3.9,3.9c-1.9,3.6-1.9,7.9,0,11.5c0.9,1.6,2.3,3,3.9,3.9c1.8,1,3.8,1.4,5.8,1.4
	c1.5,0,3-0.2,4.4-0.6c1.2-0.4,2.3-0.9,3.2-1.6c0.8-0.6,1.5-1.4,2.1-2.3c0.5-0.8,0.8-1.7,0.9-2.6h-4.3c-0.1,0.4-0.2,0.8-0.4,1.2
	c-0.3,0.4-0.7,0.8-1.1,1.1c-0.6,0.4-1.2,0.7-1.9,0.8c-0.9,0.2-1.8,0.3-2.7,0.3c-1.3,0-2.6-0.3-3.8-0.9c-1-0.6-1.9-1.5-2.4-2.6
	c-0.6-1.2-0.9-2.6-0.8-4c0-1.4,0.3-2.7,0.9-3.9c0.6-1.1,1.4-1.9,2.5-2.5s2.4-0.9,3.6-0.9c1.2,0,2.4,0.2,3.5,0.8
	c0.9,0.5,1.6,1.3,2.1,2.2s0.7,2,0.7,3v0.5l0.6-1H139v3.4h19.3V193.2z"/>
<path d="M167.5,211v-30h-4.3v30H167.5z M179.2,201.4c1.5-0.9,2.7-2.2,3.5-3.8c0.9-1.9,1.4-4,1.3-6.1c0.1-2.1-0.4-4.1-1.4-5.9
	c-1.6-3.1-4.8-5-8.3-5c-1.6,0-3.2,0.4-4.6,1.2c-1.4,0.8-2.6,1.9-3.4,3.3c-0.9,1.5-1.3,3.2-1.3,4.9l2.5,0.1c0-1,0.3-2.1,0.9-3
	c0.6-0.8,1.3-1.5,2.2-2s1.9-0.8,2.9-0.8c1.6,0,3.2,0.6,4.3,1.7c1.2,1.1,1.7,2.9,1.7,5.4c0,2.4-0.6,4.2-1.8,5.4
	c-1.9,1.9-4.9,2.3-7.2,1c-0.9-0.5-1.7-1.2-2.2-2.1c-0.6-0.9-0.9-1.9-0.9-3v-0.2l-2.5,0.1v0.2c0,1.7,0.4,3.4,1.3,4.9
	c0.8,1.4,2,2.6,3.4,3.4c1.4,0.8,3,1.3,4.6,1.3C176,202.7,177.7,202.3,179.2,201.4z"/>
<path d="M200.7,202.3c1.1-0.2,2.1-0.6,3-1.2c0.8-0.5,1.5-1.2,2.1-2c0.5-0.9,0.8-1.9,0.8-2.9c0-0.9-0.2-1.9-0.7-2.7
	c-0.5-0.7-1.1-1.4-1.9-1.8c-0.8-0.5-1.7-0.9-2.7-1.1c-1-0.3-2-0.5-3-0.7s-2-0.4-3-0.7c-0.7-0.2-1.4-0.5-2-0.9
	c-0.5-0.4-0.7-0.9-0.7-1.5s0.2-1.1,0.7-1.5s1.2-0.7,1.8-0.8c0.7-0.2,1.4-0.2,2.2-0.2s1.5,0.1,2.2,0.3c0.6,0.2,1.2,0.5,1.7,1
	c0.4,0.5,0.7,1.1,0.7,1.7v0.3h4.3v-0.4c0-1.3-0.4-2.6-1.2-3.5c-0.9-1-2-1.8-3.3-2.2c-1.4-0.5-2.9-0.8-4.4-0.8s-3.1,0.2-4.5,0.7
	c-1.3,0.4-2.4,1.1-3.2,2.1c-0.8,0.9-1.2,2.2-1.2,3.4c0,0.9,0.2,1.8,0.7,2.6c0.5,0.7,1.1,1.4,1.9,1.8c0.8,0.5,1.7,0.9,2.6,1.2
	c1,0.3,2,0.5,3,0.7c1.5,0.2,2.9,0.6,4.3,1.1c0.9,0.3,1.5,1.1,1.4,2.1c0,0.6-0.2,1.1-0.7,1.5s-1.1,0.7-1.8,0.9
	c-0.8,0.2-1.7,0.3-2.5,0.3c-1.3,0.1-2.5-0.2-3.7-0.8c-0.8-0.4-1.4-1.3-1.4-2.2v-0.4H188v0.5c0,1,0.2,1.9,0.7,2.8
	c0.5,0.8,1.2,1.5,2,2c0.9,0.6,1.9,1,3,1.2c1.2,0.3,2.4,0.4,3.6,0.4C198.4,202.7,199.6,202.5,200.7,202.3z"/>
<path class="st0" d="M101.1,0C58.5,0,23.9,34.5,23.9,77.1s34.5,77.1,77.1,77.2c42.6,0,77.1-34.5,77.2-77.1
	C178.2,34.6,143.7,0.1,101.1,0z M172.3,78.1c-0.4,34.4-26.3,63.7-59.9,70.1c-4.5,0.8-8.8-2.2-9.6-6.7c-0.1-0.5-0.1-1-0.1-1.5v-7
	c0-2.4,1.6-4.6,3.9-5.3c8.9-2.8,14.9-11,14.9-20.3l0,0c-5.6,0-11,2.2-14.9,6.2c-0.8,0.9-1.6,1.8-2.3,2.8c-0.3,0.4-0.8,0.5-1.2,0.2
	c-0.2-0.2-0.3-0.4-0.3-0.7v-12.2c0-2.8,1.7-5.2,4.2-6.3c11-4.3,16.5-16.8,12.2-27.9c-1.1-2.7-2.7-5.2-4.8-7.3L100.9,47L86.2,62.3
	c-8.4,8.4-8.3,22.1,0.2,30.4c2.1,2.1,4.5,3.7,7.3,4.7c2.6,1,4.3,3.5,4.2,6.3v12.2c0,0.3-0.1,0.5-0.4,0.7c-0.4,0.3-0.9,0.2-1.2-0.1
	l0,0c-0.7-1-1.5-1.9-2.3-2.8c-3.9-4-9.3-6.2-14.9-6.2l0,0c0,9.3,6,17.5,14.9,20.3c2.3,0.7,3.9,2.9,3.9,5.3v6.9
	c0,4.6-3.6,8.3-8.2,8.3c-0.5,0-1,0-1.5-0.1c-33.7-6.5-58.2-35.8-58.5-70.1h0.1c-0.2-19.5,7.5-38.3,21.3-52
	c27.6-27.5,72.4-27.5,100,0C164.8,39.8,172.5,58.6,172.3,78.1L172.3,78.1z"/>
</svg>
