<svg width="143" height="52" fill="none" xmlns="http://www.w3.org/2000/svg"><g clip-path="url(#a)"><path d="M142 20.8a13 13 0 0 0-12.1-7.7 13.3 13.3 0 0 0-12.2 8c-.7 1.6-1 3.3-1 5A13 13 0 0 0 130 39.3a13.4 13.4 0 0 0 9.5-4c1.3-1.3 2.3-3 3-4.7h-6.9a7 7 0 0 1-2 2 7.4 7.4 0 0 1-10.7-4.6h20l.2-.9a13 13 0 0 0-1-6.3Zm-19.3 2.6a7.9 7.9 0 0 1 14.3 0h-14.3Z" fill="navy"/><path d="M34.5 51.8V37a13.3 13.3 0 0 0 19.1-17.3 13.3 13.3 0 0 0-25 6.3v25.9h5.9Zm7.4-33.2a7.5 7.5 0 0 1 7.3 8.9A7.4 7.4 0 0 1 35.7 30 7.4 7.4 0 0 1 42 18.6ZM20.3 25.4c0 2.7-.7 4.7-2 6.2a7 7 0 0 1-3.3 1.8 10 10 0 0 1-3.4 0c-1.2-.3-2.3-1-3.2-1.8C7 30 6.3 28 6.3 25.4V12.7H0v13.1c0 4.3 1.3 7.7 3.8 10 2.4 2.2 5.5 3.3 9.4 3.5h.2c4-.2 7-1.3 9.4-3.5 2.5-2.3 3.8-5.7 3.8-10v-13h-6.3v12.6Z" fill="#3C9"/><path d="M73 20.9a8.8 8.8 0 0 0-6.4-3c-1.6.2-2.5.5-3 1.2a2 2 0 0 0-.5 1.7c.3 1.4 2 1.7 3 2l5.5 1.4a9 9 0 0 1 4.6 2.6 6.6 6.6 0 0 1 1.7 4.6 6.7 6.7 0 0 1-2.9 5.8c-2 1.4-4.5 2-7.8 2-2 0-4-.3-6-1-1.4-.6-2.7-1.5-3.8-2.6l-.4-.4-.6-.8 4.4-3.1a9.6 9.6 0 0 0 5.5 2.8c2.2.2 4.6-.1 5-2.6 0-2.2-2-2.6-3.5-2.9 0 0-7.9-1.5-9.8-4a6.7 6.7 0 0 1-1.6-4.4c0-1 .3-2 .7-3 1-1.6 2.6-2.9 4.4-3.5 1.7-.7 3.5-1 5.4-1 3.3 0 7.7 1 10.5 5.2l-4.4 3ZM108.7.1V15a13.3 13.3 0 0 0-19.2 17.2 13.3 13.3 0 0 0 25-6.2V.1h-5.8Zm-7.4 33.3a7.5 7.5 0 0 1-7.4-8.9 7.4 7.4 0 0 1 13.5-2.6 7.4 7.4 0 0 1-6.1 11.5ZM82.7 2.2a4.2 4.2 0 0 0-3 1.2 4.3 4.3 0 0 0-1.3 3.2 4.3 4.3 0 0 0 1.2 3 4.5 4.5 0 0 0 6.3 0 4.3 4.3 0 0 0 1.3-3 4.3 4.3 0 0 0-4.5-4.4ZM80 14.4V38h5.8V14.4h-5.9Z" fill="navy"/></g><defs><clipPath id="a"><path fill="#fff" transform="translate(0 .1)" d="M0 0h143v51.7H0z"/></clipPath></defs></svg>