<?xml version="1.0" encoding="utf-8"?>
<!-- Generator: Adobe Illustrator 24.3.0, SVG Export Plug-In . SVG Version: 6.00 Build 0)  -->
<svg version="1.1" id="Layer_1" xmlns="http://www.w3.org/2000/svg" xmlns:xlink="http://www.w3.org/1999/xlink" x="0px" y="0px"
	 viewBox="0 0 148.2 43.4" style="enable-background:new 0 0 148.2 43.4;" xml:space="preserve">
<style type="text/css">
	.st0{enable-background:new    ;}
	.st1{fill:#FFB300;}
	.st2{fill:#90A4AE;}
</style>
<g>
	<g class="st0">
		<path class="st1" d="M76.7,11.7c8.7,0,14.7,6.6,14.7,16.2v1.7H69.6c0.5,3.7,3.5,6.8,8.4,6.8c2.7,0,6-1.1,7.8-2.9l3.4,5
			c-2.9,2.7-7.5,4.1-12.1,4.1c-8.9,0-15.7-6-15.7-15.4C61.5,18.5,67.8,11.7,76.7,11.7z M69.5,24.3H84c-0.2-2.8-2.1-6.5-7.2-6.5
			C71.9,17.8,69.9,21.4,69.5,24.3z"/>
		<path class="st1" d="M116.2,21.7l-6.2,20h-8.3l-8.9-29.3h8l5.5,19.7l6.4-19.7h6.9l6.4,19.7l5.5-19.7h8l-8.9,29.3h-8.2L116.2,21.7z
			"/>
		<path class="st1" d="M41.7,19.4h-8H20.1v7.7h12.8c-1.9,4.7-6.1,8-11.1,8c-6.7,0-12.1-5.9-12.1-13.3c0-7.3,5.4-13.3,12.1-13.3
			c3.9,0,7.4,2.1,9.6,5.3l6.8-3.9c-3.7-5.5-9.8-9.1-16.8-9.1C10.1,0.8,1,10.2,1,21.7s9.1,20.9,20.4,20.9c9.5,0,17.5-6.6,19.7-15.6
			c0.4-1.7,0.7-3.5,0.7-5.3C41.8,21,41.7,20.2,41.7,19.4z"/>
		<path class="st1" d="M58.6,34.8c-5.7,3.3-5.2-2.9-5.2-2.9V1.5h-7.7V32c0,9.2,3.8,10.6,8.5,10.5s5.9-1.8,5.9-1.8L58.6,34.8z"/>
	</g>
	<g class="st0">
		<path class="st2" d="M143.3,41.8c-2.3,0-4.2-1.9-4.2-4.2s1.9-4.2,4.2-4.2s4.2,1.9,4.2,4.2S145.6,41.8,143.3,41.8z M143.3,35.7
			c-1.1,0-1.9,0.9-1.9,1.9c0,1.1,0.9,1.9,1.9,1.9c1.1,0,1.9-0.9,1.9-1.9C145.2,36.5,144.3,35.7,143.3,35.7z"/>
	</g>
</g>
</svg>
